%TF.GenerationSoftware,KiCad,Pcbnew,9.0.0*%
%TF.CreationDate,2025-03-30T18:56:19-05:00*%
%TF.ProjectId,radar-synth,72616461-722d-4737-996e-74682e6b6963,rev?*%
%TF.SameCoordinates,Original*%
%TF.FileFunction,Copper,L3,Inr*%
%TF.FilePolarity,Positive*%
%FSLAX45Y45*%
G04 Gerber Fmt 4.5, Leading zero omitted, Abs format (unit mm)*
G04 Created by KiCad (PCBNEW 9.0.0) date 2025-03-30 18:56:19*
%MOMM*%
%LPD*%
G01*
G04 APERTURE LIST*
%TA.AperFunction,ComponentPad*%
%ADD10R,1.000000X1.000000*%
%TD*%
%TA.AperFunction,ComponentPad*%
%ADD11C,0.900000*%
%TD*%
%TA.AperFunction,ComponentPad*%
%ADD12C,1.400000*%
%TD*%
%TA.AperFunction,ComponentPad*%
%ADD13C,0.499999*%
%TD*%
%TA.AperFunction,ViaPad*%
%ADD14C,0.500000*%
%TD*%
G04 APERTURE END LIST*
D10*
%TO.N,/lmx2572_rf_pll_synth/REF_OSC_P*%
%TO.C,TP1*%
X16150000Y-7010000D03*
%TD*%
D11*
%TO.N,/controller/LED0*%
%TO.C,U3*%
X13800000Y-9401000D03*
D12*
X13800000Y-9274000D03*
D11*
%TO.N,unconnected-(U3-GPIO2_D1{slash}A1-Pad2)*%
X14054000Y-9401000D03*
D12*
%TO.N,unconnected-(U3-GPIO2_D1{slash}A1-Pad2)_1*%
X14054000Y-9274000D03*
D11*
%TO.N,/controller/lmx2572.ce*%
X14308000Y-9401000D03*
D12*
X14308000Y-9274000D03*
D11*
%TO.N,/controller/lmx2572.rampclk*%
X14562000Y-9401000D03*
D12*
X14562000Y-9274000D03*
D11*
%TO.N,/controller/lmx2572.csb*%
X14816000Y-9401000D03*
D12*
X14816000Y-9274000D03*
D11*
%TO.N,/controller/lmx2572.sdi*%
X15070000Y-9401000D03*
D12*
X15070000Y-9274000D03*
D11*
%TO.N,/controller/TXD0*%
X15324000Y-9401000D03*
D12*
X15324000Y-9274000D03*
%TO.N,/controller/RXD0*%
X15324000Y-7750000D03*
D11*
X15324000Y-7623000D03*
D12*
%TO.N,/controller/ref_clk_en*%
X15070000Y-7750000D03*
D11*
X15070000Y-7623000D03*
D12*
%TO.N,/controller/ref_clk_select*%
X14816000Y-7750000D03*
D11*
X14816000Y-7623000D03*
D12*
%TO.N,unconnected-(U3-GPIO9_D10{slash}A10{slash}MOSI-Pad11)*%
X14562000Y-7750000D03*
D11*
%TO.N,unconnected-(U3-GPIO9_D10{slash}A10{slash}MOSI-Pad11)_1*%
X14562000Y-7623000D03*
D12*
%TO.N,3V3*%
X14308000Y-7750000D03*
D11*
X14308000Y-7623000D03*
D12*
%TO.N,GND*%
X14054000Y-7750000D03*
D11*
X14054000Y-7623000D03*
D12*
%TO.N,VBUS*%
X13800000Y-7750000D03*
D11*
X13800000Y-7623000D03*
%TO.N,unconnected-(U3-GPIO38_DVP_VSYNC{slash}I2S_SD-Pad15)*%
X13927000Y-9401000D03*
%TO.N,/controller/lmx2572.sync*%
X14181000Y-9401000D03*
%TO.N,/controller/lmx2572.rampdir*%
X14435000Y-9401000D03*
%TO.N,/controller/lmx2572.sysreffreq*%
X14689000Y-9401000D03*
%TO.N,/controller/lmx2572.muxout*%
X14943000Y-9401000D03*
%TO.N,/controller/lmx2572.sck*%
X15197000Y-9401000D03*
%TO.N,/controller/i2c0.scl*%
X15197000Y-7623000D03*
%TO.N,/controller/i2c0.sda*%
X14943000Y-7623000D03*
%TO.N,unconnected-(U3-GPIO13_DVP_PCLK{slash}SPI_SCK1-Pad23)*%
X14689000Y-7623000D03*
%TD*%
D13*
%TO.N,GND*%
%TO.C,U2*%
X16606959Y-7979802D03*
X16710197Y-8083040D03*
X16606959Y-7800197D03*
X16696762Y-7890000D03*
X16800000Y-7993238D03*
X16889802Y-8083040D03*
X16710197Y-7696959D03*
X16800000Y-7786762D03*
X16903238Y-7890000D03*
X16993040Y-7979802D03*
X16889802Y-7696959D03*
X16993040Y-7800197D03*
%TD*%
D10*
%TO.N,Net-(U2-VTUNE)*%
%TO.C,TP2*%
X16670000Y-9100000D03*
%TD*%
D14*
%TO.N,3V3*%
X14317500Y-6110000D03*
X14215000Y-6107500D03*
X16910000Y-9660000D03*
X17162000Y-9595000D03*
X14125000Y-9680000D03*
X17227000Y-9660000D03*
X14720000Y-8415000D03*
X16970000Y-9590000D03*
X15072500Y-8005000D03*
%TO.N,3V3_PLL*%
X16444000Y-7687000D03*
X16890000Y-8320000D03*
X16982500Y-8235000D03*
X16911000Y-9184000D03*
X16521000Y-8199000D03*
X17144000Y-7562000D03*
%TO.N,3V3_PLL_RF*%
X17227000Y-9179000D03*
X17355519Y-7813902D03*
%TO.N,3V3_OSC*%
X15625000Y-6477500D03*
X14610000Y-6714000D03*
X15151000Y-6248000D03*
X14592000Y-6179000D03*
X15352000Y-6178000D03*
%TO.N,Net-(D2-A)*%
X13960000Y-9570000D03*
%TO.N,/J6_5V_EXT*%
X13790000Y-7190000D03*
X13812500Y-8840000D03*
%TD*%
%TA.AperFunction,Conductor*%
%TO.N,/J6_5V_EXT*%
G36*
X13708008Y-7111891D02*
G01*
X13709189Y-7112899D01*
X13712339Y-7116049D01*
X13712339Y-7116049D01*
X13712339Y-7116049D01*
X13712339Y-7116049D01*
X13722611Y-7121980D01*
X13722611Y-7121980D01*
X13722611Y-7121980D01*
X13734069Y-7125050D01*
X13734069Y-7125050D01*
X13745931Y-7125050D01*
X13745931Y-7125050D01*
X13757389Y-7121980D01*
X13757389Y-7121980D01*
X13757389Y-7121980D01*
X13767661Y-7116049D01*
X13767661Y-7116049D01*
X13767661Y-7116049D01*
X13770811Y-7112899D01*
X13776262Y-7110122D01*
X13777811Y-7110000D01*
X13822189Y-7110000D01*
X13828008Y-7111891D01*
X13829189Y-7112899D01*
X13832339Y-7116049D01*
X13832339Y-7116049D01*
X13832339Y-7116049D01*
X13832339Y-7116049D01*
X13842611Y-7121980D01*
X13842611Y-7121980D01*
X13842611Y-7121980D01*
X13854069Y-7125050D01*
X13854069Y-7125050D01*
X13865931Y-7125050D01*
X13865931Y-7125050D01*
X13875508Y-7122484D01*
X13876142Y-7122517D01*
X13876714Y-7122240D01*
X13879148Y-7122674D01*
X13881618Y-7122804D01*
X13882737Y-7123315D01*
X13885197Y-7124630D01*
X13886919Y-7125551D01*
X13888533Y-7126629D01*
X13901421Y-7137206D01*
X13902794Y-7138579D01*
X13913371Y-7151467D01*
X13914449Y-7153081D01*
X13922309Y-7167785D01*
X13923052Y-7169578D01*
X13927891Y-7185533D01*
X13928270Y-7187437D01*
X13929904Y-7204030D01*
X13929904Y-7205970D01*
X13928270Y-7222563D01*
X13927891Y-7224467D01*
X13923052Y-7240422D01*
X13922309Y-7242215D01*
X13914449Y-7256919D01*
X13913371Y-7258533D01*
X13902794Y-7271421D01*
X13901421Y-7272794D01*
X13888533Y-7283371D01*
X13886919Y-7284449D01*
X13872215Y-7292309D01*
X13870422Y-7293052D01*
X13854467Y-7297891D01*
X13852563Y-7298270D01*
X13835484Y-7299952D01*
X13834514Y-7300000D01*
X13700000Y-7300000D01*
X13690000Y-8750000D01*
X13801929Y-8750000D01*
X13803048Y-8750063D01*
X13819070Y-8751887D01*
X13821251Y-8752390D01*
X13835922Y-8757579D01*
X13837934Y-8758558D01*
X13851063Y-8766911D01*
X13852804Y-8768318D01*
X13858262Y-8773862D01*
X13863720Y-8779407D01*
X13865100Y-8781168D01*
X13873246Y-8794427D01*
X13874195Y-8796454D01*
X13879153Y-8811204D01*
X13879622Y-8813393D01*
X13881141Y-8828890D01*
X13881109Y-8831107D01*
X13879112Y-8846778D01*
X13878595Y-8848912D01*
X13873191Y-8863769D01*
X13872217Y-8865736D01*
X13863671Y-8879037D01*
X13862287Y-8880741D01*
X13851021Y-8891833D01*
X13849296Y-8893190D01*
X13835863Y-8901526D01*
X13833881Y-8902470D01*
X13823879Y-8905932D01*
X13818941Y-8907641D01*
X13816800Y-8908125D01*
X13800537Y-8909939D01*
X13799440Y-8910000D01*
X13641771Y-8910000D01*
X13640798Y-8909952D01*
X13637957Y-8909671D01*
X13622685Y-8908162D01*
X13620775Y-8907781D01*
X13603832Y-8902624D01*
X13602035Y-8901876D01*
X13596878Y-8899109D01*
X13586428Y-8893502D01*
X13584812Y-8892418D01*
X13571146Y-8881151D01*
X13569773Y-8879771D01*
X13568516Y-8878231D01*
X13558577Y-8866048D01*
X13557501Y-8864426D01*
X13549207Y-8848777D01*
X13548469Y-8846975D01*
X13548410Y-8846778D01*
X13543398Y-8830006D01*
X13543027Y-8828095D01*
X13541330Y-8809973D01*
X13541287Y-8808999D01*
X13549168Y-7272175D01*
X13549246Y-7256919D01*
X13549487Y-7209970D01*
X13549540Y-7209004D01*
X13551398Y-7191018D01*
X13551784Y-7189123D01*
X13556962Y-7172305D01*
X13557710Y-7170521D01*
X13566059Y-7155032D01*
X13567139Y-7153427D01*
X13578341Y-7139857D01*
X13579711Y-7138494D01*
X13593340Y-7127360D01*
X13594954Y-7126287D01*
X13595101Y-7126209D01*
X13598450Y-7125374D01*
X13599042Y-7125144D01*
X13599202Y-7125186D01*
X13599749Y-7125050D01*
X13605931Y-7125050D01*
X13605931Y-7125050D01*
X13617389Y-7121980D01*
X13617389Y-7121980D01*
X13617389Y-7121980D01*
X13627661Y-7116049D01*
X13627661Y-7116049D01*
X13627661Y-7116049D01*
X13629487Y-7114223D01*
X13629759Y-7114085D01*
X13629913Y-7113821D01*
X13632461Y-7112708D01*
X13634938Y-7111446D01*
X13635517Y-7111371D01*
X13649006Y-7110047D01*
X13649973Y-7110000D01*
X13702189Y-7110000D01*
X13708008Y-7111891D01*
G37*
%TD.AperFunction*%
%TD*%
%TA.AperFunction,Conductor*%
%TO.N,3V3_PLL*%
G36*
X16946094Y-7253203D02*
G01*
X16954957Y-7255027D01*
X16958623Y-7256603D01*
X16966046Y-7261779D01*
X16967567Y-7263087D01*
X17213213Y-7522083D01*
X17214387Y-7523588D01*
X17219009Y-7530868D01*
X17220393Y-7534408D01*
X17221757Y-7541931D01*
X17221705Y-7545731D01*
X17220134Y-7553214D01*
X17218654Y-7556715D01*
X17213833Y-7563864D01*
X17212618Y-7565337D01*
X17146138Y-7631675D01*
X17140683Y-7634447D01*
X17134641Y-7633483D01*
X17132145Y-7631667D01*
X17128781Y-7628303D01*
X17124007Y-7625547D01*
X17120788Y-7623689D01*
X17120788Y-7623689D01*
X17120788Y-7623689D01*
X17111874Y-7621300D01*
X17102645Y-7621300D01*
X17093731Y-7623689D01*
X17093730Y-7623689D01*
X17093730Y-7623689D01*
X17085738Y-7628303D01*
X17079212Y-7634829D01*
X17074598Y-7642821D01*
X17074598Y-7642821D01*
X17074598Y-7642821D01*
X17072209Y-7651736D01*
X17072209Y-7660964D01*
X17074598Y-7669879D01*
X17079212Y-7677871D01*
X17085738Y-7684397D01*
X17093731Y-7689011D01*
X17102645Y-7691400D01*
X17102645Y-7691400D01*
X17111874Y-7691400D01*
X17111874Y-7691400D01*
X17120788Y-7689011D01*
X17120788Y-7689011D01*
X17121415Y-7688843D01*
X17121488Y-7689117D01*
X17126409Y-7688728D01*
X17131627Y-7691924D01*
X17133969Y-7697576D01*
X17134000Y-7698355D01*
X17134000Y-8064598D01*
X17133810Y-8066530D01*
X17132101Y-8075123D01*
X17130622Y-8078691D01*
X17125755Y-8085976D01*
X17124524Y-8087476D01*
X16941140Y-8270860D01*
X16940958Y-8283023D01*
X16937406Y-8520189D01*
X16936080Y-8524990D01*
X16932339Y-8531471D01*
X16932339Y-8531471D01*
X16932339Y-8531471D01*
X16929950Y-8540386D01*
X16929950Y-8549614D01*
X16930370Y-8551182D01*
X16932339Y-8558529D01*
X16935352Y-8563748D01*
X16936677Y-8568846D01*
X16930703Y-8967756D01*
X16928725Y-8973546D01*
X16923722Y-8977067D01*
X16917604Y-8976976D01*
X16915854Y-8976181D01*
X16913529Y-8974839D01*
X16913529Y-8974839D01*
X16913529Y-8974839D01*
X16904614Y-8972450D01*
X16895386Y-8972450D01*
X16886471Y-8974839D01*
X16886471Y-8974839D01*
X16886471Y-8974839D01*
X16878479Y-8979453D01*
X16871953Y-8985979D01*
X16867339Y-8993971D01*
X16867339Y-8993971D01*
X16867339Y-8993971D01*
X16864950Y-9002886D01*
X16864950Y-9012114D01*
X16867339Y-9021029D01*
X16871953Y-9029021D01*
X16878479Y-9035547D01*
X16886471Y-9040161D01*
X16895386Y-9042550D01*
X16895386Y-9042550D01*
X16904614Y-9042550D01*
X16904614Y-9042550D01*
X16913529Y-9040161D01*
X16914648Y-9039515D01*
X16920633Y-9038243D01*
X16926223Y-9040731D01*
X16929282Y-9046030D01*
X16929497Y-9048237D01*
X16926685Y-9236022D01*
X16926469Y-9237935D01*
X16924658Y-9246439D01*
X16923149Y-9249963D01*
X16918800Y-9256328D01*
X16916065Y-9259014D01*
X16909624Y-9263250D01*
X16906074Y-9264696D01*
X16897539Y-9266355D01*
X16895622Y-9266537D01*
X16745864Y-9266115D01*
X16735975Y-9266087D01*
X16734044Y-9265891D01*
X16725457Y-9264158D01*
X16721892Y-9262670D01*
X16715446Y-9258336D01*
X16712722Y-9255597D01*
X16708425Y-9249127D01*
X16706957Y-9245554D01*
X16705272Y-9236956D01*
X16705088Y-9235025D01*
X16705244Y-9179922D01*
X16707151Y-9174108D01*
X16712111Y-9170526D01*
X16715144Y-9170050D01*
X16721975Y-9170050D01*
X16721975Y-9170050D01*
X16727823Y-9168887D01*
X16734455Y-9164455D01*
X16738887Y-9157823D01*
X16740050Y-9151975D01*
X16740050Y-9048025D01*
X16738887Y-9042177D01*
X16734455Y-9035545D01*
X16734455Y-9035545D01*
X16727823Y-9031113D01*
X16727823Y-9031113D01*
X16727823Y-9031113D01*
X16727823Y-9031113D01*
X16721976Y-9029950D01*
X16721975Y-9029950D01*
X16715597Y-9029950D01*
X16709778Y-9028059D01*
X16706181Y-9023109D01*
X16705697Y-9020022D01*
X16705719Y-9012114D01*
X16706305Y-8805386D01*
X16799950Y-8805386D01*
X16799950Y-8814614D01*
X16802339Y-8823529D01*
X16806953Y-8831521D01*
X16813479Y-8838047D01*
X16821471Y-8842661D01*
X16830386Y-8845050D01*
X16830386Y-8845050D01*
X16839614Y-8845050D01*
X16839614Y-8845050D01*
X16848529Y-8842661D01*
X16856521Y-8838047D01*
X16863047Y-8831521D01*
X16867661Y-8823529D01*
X16870050Y-8814614D01*
X16870050Y-8805386D01*
X16867661Y-8796471D01*
X16863047Y-8788479D01*
X16856521Y-8781953D01*
X16848529Y-8777339D01*
X16839614Y-8774950D01*
X16830386Y-8774950D01*
X16821471Y-8777339D01*
X16821471Y-8777339D01*
X16821471Y-8777339D01*
X16813479Y-8781953D01*
X16806953Y-8788479D01*
X16802339Y-8796471D01*
X16802339Y-8796471D01*
X16802339Y-8796471D01*
X16799950Y-8805386D01*
X16706305Y-8805386D01*
X16706560Y-8715386D01*
X16795289Y-8715386D01*
X16795289Y-8724614D01*
X16797677Y-8733529D01*
X16802292Y-8741521D01*
X16808818Y-8748047D01*
X16816810Y-8752661D01*
X16825724Y-8755050D01*
X16825725Y-8755050D01*
X16834953Y-8755050D01*
X16834953Y-8755050D01*
X16843868Y-8752661D01*
X16851860Y-8748047D01*
X16858386Y-8741521D01*
X16863000Y-8733529D01*
X16865389Y-8724614D01*
X16865389Y-8715386D01*
X16863000Y-8706471D01*
X16858386Y-8698479D01*
X16851860Y-8691953D01*
X16845842Y-8688479D01*
X16843868Y-8687339D01*
X16843868Y-8687339D01*
X16843868Y-8687339D01*
X16834953Y-8684950D01*
X16825724Y-8684950D01*
X16816810Y-8687339D01*
X16816810Y-8687339D01*
X16816810Y-8687339D01*
X16808818Y-8691953D01*
X16802292Y-8698479D01*
X16797677Y-8706471D01*
X16797677Y-8706471D01*
X16797677Y-8706471D01*
X16795289Y-8715386D01*
X16706560Y-8715386D01*
X16706965Y-8572175D01*
X16707000Y-8560000D01*
X16707000Y-8560000D01*
X16707000Y-8560000D01*
X16698482Y-8551183D01*
X16698480Y-8551182D01*
X16246462Y-8083339D01*
X16240442Y-8077109D01*
X16665147Y-8077109D01*
X16665147Y-8088971D01*
X16668217Y-8100429D01*
X16674148Y-8110701D01*
X16682536Y-8119089D01*
X16692809Y-8125020D01*
X16704266Y-8128090D01*
X16704267Y-8128090D01*
X16716128Y-8128090D01*
X16716128Y-8128090D01*
X16727586Y-8125020D01*
X16737859Y-8119089D01*
X16746246Y-8110701D01*
X16752177Y-8100429D01*
X16755247Y-8088971D01*
X16755247Y-8077109D01*
X16844753Y-8077109D01*
X16844753Y-8088971D01*
X16847823Y-8100429D01*
X16853754Y-8110701D01*
X16862141Y-8119089D01*
X16872414Y-8125020D01*
X16883872Y-8128090D01*
X16883872Y-8128090D01*
X16895733Y-8128090D01*
X16895733Y-8128090D01*
X16907191Y-8125020D01*
X16917464Y-8119089D01*
X16925851Y-8110701D01*
X16931782Y-8100429D01*
X16934852Y-8088971D01*
X16934852Y-8077109D01*
X16931782Y-8065652D01*
X16925851Y-8055379D01*
X16917464Y-8046991D01*
X16907191Y-8041060D01*
X16895733Y-8037990D01*
X16883872Y-8037990D01*
X16872414Y-8041060D01*
X16862141Y-8046991D01*
X16853754Y-8055379D01*
X16847823Y-8065652D01*
X16844753Y-8077109D01*
X16755247Y-8077109D01*
X16752177Y-8065652D01*
X16746246Y-8055379D01*
X16737859Y-8046991D01*
X16727586Y-8041060D01*
X16716128Y-8037990D01*
X16704266Y-8037990D01*
X16692809Y-8041060D01*
X16682536Y-8046991D01*
X16674148Y-8055379D01*
X16668217Y-8065652D01*
X16665147Y-8077109D01*
X16240442Y-8077109D01*
X16173759Y-8008091D01*
X16171075Y-8002593D01*
X16172136Y-7996567D01*
X16176537Y-7992316D01*
X16182595Y-7991463D01*
X16183440Y-7991650D01*
X16187385Y-7992707D01*
X16187386Y-7992707D01*
X16196614Y-7992707D01*
X16196614Y-7992707D01*
X16205529Y-7990318D01*
X16213521Y-7985704D01*
X16220047Y-7979178D01*
X16223111Y-7973871D01*
X16561910Y-7973871D01*
X16561910Y-7985733D01*
X16564980Y-7997191D01*
X16570911Y-8007464D01*
X16579298Y-8015851D01*
X16589571Y-8021782D01*
X16601029Y-8024852D01*
X16601029Y-8024852D01*
X16612890Y-8024852D01*
X16612890Y-8024852D01*
X16624348Y-8021782D01*
X16634621Y-8015851D01*
X16643008Y-8007464D01*
X16648939Y-7997191D01*
X16651588Y-7987307D01*
X16754950Y-7987307D01*
X16754950Y-7999168D01*
X16758020Y-8010626D01*
X16763951Y-8020899D01*
X16772339Y-8029286D01*
X16782611Y-8035217D01*
X16794069Y-8038287D01*
X16794069Y-8038287D01*
X16805931Y-8038287D01*
X16805931Y-8038287D01*
X16817389Y-8035217D01*
X16827661Y-8029286D01*
X16836049Y-8020899D01*
X16841980Y-8010626D01*
X16845050Y-7999168D01*
X16845050Y-7987307D01*
X16841980Y-7975849D01*
X16840838Y-7973871D01*
X16947990Y-7973871D01*
X16947990Y-7985733D01*
X16951060Y-7997191D01*
X16956991Y-8007464D01*
X16965379Y-8015851D01*
X16975652Y-8021782D01*
X16987109Y-8024852D01*
X16987110Y-8024852D01*
X16998971Y-8024852D01*
X16998971Y-8024852D01*
X17010429Y-8021782D01*
X17020702Y-8015851D01*
X17029089Y-8007464D01*
X17035020Y-7997191D01*
X17038090Y-7985733D01*
X17038090Y-7973871D01*
X17035020Y-7962414D01*
X17029089Y-7952141D01*
X17020702Y-7943753D01*
X17010429Y-7937823D01*
X16998971Y-7934752D01*
X16987109Y-7934752D01*
X16975652Y-7937823D01*
X16965379Y-7943753D01*
X16956991Y-7952141D01*
X16951060Y-7962414D01*
X16947990Y-7973871D01*
X16840838Y-7973871D01*
X16836049Y-7965576D01*
X16827661Y-7957189D01*
X16817389Y-7951258D01*
X16805931Y-7948188D01*
X16794069Y-7948188D01*
X16782611Y-7951258D01*
X16772339Y-7957189D01*
X16763951Y-7965576D01*
X16758020Y-7975849D01*
X16754950Y-7987307D01*
X16651588Y-7987307D01*
X16652009Y-7985733D01*
X16652009Y-7973871D01*
X16648939Y-7962414D01*
X16643008Y-7952141D01*
X16634621Y-7943753D01*
X16624348Y-7937822D01*
X16612890Y-7934752D01*
X16601029Y-7934752D01*
X16589571Y-7937822D01*
X16579298Y-7943753D01*
X16570911Y-7952141D01*
X16564980Y-7962414D01*
X16561910Y-7973871D01*
X16223111Y-7973871D01*
X16224661Y-7971186D01*
X16227050Y-7962271D01*
X16227050Y-7953042D01*
X16224661Y-7944128D01*
X16220047Y-7936136D01*
X16213521Y-7929610D01*
X16207353Y-7926049D01*
X16205529Y-7924996D01*
X16205529Y-7924995D01*
X16205529Y-7924995D01*
X16196614Y-7922607D01*
X16187385Y-7922607D01*
X16178471Y-7924995D01*
X16178471Y-7924995D01*
X16178471Y-7924996D01*
X16170479Y-7929610D01*
X16163953Y-7936136D01*
X16159339Y-7944128D01*
X16159338Y-7944128D01*
X16159338Y-7944128D01*
X16157191Y-7952141D01*
X16156950Y-7953043D01*
X16156950Y-7962271D01*
X16157586Y-7964644D01*
X16157265Y-7970755D01*
X16153415Y-7975510D01*
X16147505Y-7977093D01*
X16141793Y-7974900D01*
X16140903Y-7974086D01*
X16059951Y-7890299D01*
X16059950Y-7890299D01*
X16058261Y-7888550D01*
X16058260Y-7888550D01*
X16053931Y-7884069D01*
X16651712Y-7884069D01*
X16651712Y-7895931D01*
X16654782Y-7907388D01*
X16660713Y-7917661D01*
X16669101Y-7926049D01*
X16679373Y-7931980D01*
X16690831Y-7935050D01*
X16690831Y-7935050D01*
X16702693Y-7935050D01*
X16702693Y-7935050D01*
X16714151Y-7931980D01*
X16724423Y-7926049D01*
X16732811Y-7917661D01*
X16738742Y-7907388D01*
X16741812Y-7895931D01*
X16741812Y-7884069D01*
X16858188Y-7884069D01*
X16858188Y-7895931D01*
X16861258Y-7907388D01*
X16867189Y-7917661D01*
X16875576Y-7926049D01*
X16885849Y-7931980D01*
X16897307Y-7935050D01*
X16897307Y-7935050D01*
X16909168Y-7935050D01*
X16909169Y-7935050D01*
X16920626Y-7931980D01*
X16930899Y-7926049D01*
X16939287Y-7917661D01*
X16945217Y-7907388D01*
X16948288Y-7895931D01*
X16948288Y-7884069D01*
X16945217Y-7872611D01*
X16939287Y-7862339D01*
X16930899Y-7853951D01*
X16920626Y-7848020D01*
X16909169Y-7844950D01*
X16897307Y-7844950D01*
X16885849Y-7848020D01*
X16875576Y-7853951D01*
X16867189Y-7862339D01*
X16861258Y-7872611D01*
X16858188Y-7884069D01*
X16741812Y-7884069D01*
X16741812Y-7884069D01*
X16738742Y-7872611D01*
X16732811Y-7862338D01*
X16724423Y-7853951D01*
X16714151Y-7848020D01*
X16702693Y-7844950D01*
X16690831Y-7844950D01*
X16679373Y-7848020D01*
X16669101Y-7853951D01*
X16660713Y-7862338D01*
X16654782Y-7872611D01*
X16651712Y-7884069D01*
X16053931Y-7884069D01*
X16050000Y-7880000D01*
X16050000Y-7880000D01*
X16037270Y-7880000D01*
X16000791Y-7880000D01*
X15999372Y-7879539D01*
X15997880Y-7879562D01*
X15995841Y-7878674D01*
X15993529Y-7877339D01*
X15993529Y-7877339D01*
X15990070Y-7876412D01*
X15984614Y-7874950D01*
X15979429Y-7874950D01*
X15973610Y-7873059D01*
X15970014Y-7868109D01*
X15970014Y-7861991D01*
X15971198Y-7859550D01*
X15974176Y-7855093D01*
X15975406Y-7853594D01*
X15981831Y-7847169D01*
X15984613Y-7845563D01*
X15985625Y-7844803D01*
X15985938Y-7844798D01*
X15986269Y-7844607D01*
X15993529Y-7842661D01*
X16001521Y-7838047D01*
X16008047Y-7831521D01*
X16012661Y-7823529D01*
X16014607Y-7816269D01*
X16017169Y-7811831D01*
X16040702Y-7788298D01*
X16046153Y-7785520D01*
X16052197Y-7786477D01*
X16056276Y-7790348D01*
X16056953Y-7791521D01*
X16056953Y-7791521D01*
X16056953Y-7791521D01*
X16063479Y-7798047D01*
X16071471Y-7802661D01*
X16080386Y-7805050D01*
X16080386Y-7805050D01*
X16089614Y-7805050D01*
X16089614Y-7805050D01*
X16098529Y-7802661D01*
X16106521Y-7798047D01*
X16110302Y-7794266D01*
X16561910Y-7794266D01*
X16561910Y-7806128D01*
X16564980Y-7817586D01*
X16570911Y-7827858D01*
X16579298Y-7836246D01*
X16589571Y-7842177D01*
X16601029Y-7845247D01*
X16601029Y-7845247D01*
X16612890Y-7845247D01*
X16612890Y-7845247D01*
X16624348Y-7842177D01*
X16634621Y-7836246D01*
X16643008Y-7827858D01*
X16648939Y-7817586D01*
X16652009Y-7806128D01*
X16652009Y-7794266D01*
X16648939Y-7782809D01*
X16647798Y-7780831D01*
X16754950Y-7780831D01*
X16754950Y-7792693D01*
X16758020Y-7804151D01*
X16763951Y-7814423D01*
X16772338Y-7822811D01*
X16782611Y-7828742D01*
X16794069Y-7831812D01*
X16794069Y-7831812D01*
X16805931Y-7831812D01*
X16805931Y-7831812D01*
X16817388Y-7828742D01*
X16827661Y-7822811D01*
X16836049Y-7814423D01*
X16841980Y-7804151D01*
X16844628Y-7794266D01*
X16947990Y-7794266D01*
X16947990Y-7806128D01*
X16951060Y-7817586D01*
X16956991Y-7827859D01*
X16965379Y-7836246D01*
X16975652Y-7842177D01*
X16987109Y-7845247D01*
X16987110Y-7845247D01*
X16998971Y-7845247D01*
X16998971Y-7845247D01*
X17010429Y-7842177D01*
X17020702Y-7836246D01*
X17029089Y-7827859D01*
X17035020Y-7817586D01*
X17038090Y-7806128D01*
X17038090Y-7794266D01*
X17035020Y-7782809D01*
X17029089Y-7772536D01*
X17020702Y-7764148D01*
X17010429Y-7758217D01*
X16998971Y-7755147D01*
X16987109Y-7755147D01*
X16975652Y-7758217D01*
X16965379Y-7764148D01*
X16956991Y-7772536D01*
X16951060Y-7782809D01*
X16947990Y-7794266D01*
X16844628Y-7794266D01*
X16845050Y-7792693D01*
X16845050Y-7780831D01*
X16841980Y-7769373D01*
X16836049Y-7759101D01*
X16827661Y-7750713D01*
X16817388Y-7744782D01*
X16805931Y-7741712D01*
X16794069Y-7741712D01*
X16782611Y-7744782D01*
X16772338Y-7750713D01*
X16763951Y-7759101D01*
X16758020Y-7769373D01*
X16754950Y-7780831D01*
X16647798Y-7780831D01*
X16643008Y-7772536D01*
X16634621Y-7764148D01*
X16624348Y-7758217D01*
X16612890Y-7755147D01*
X16601029Y-7755147D01*
X16589571Y-7758217D01*
X16579298Y-7764148D01*
X16570911Y-7772536D01*
X16564980Y-7782809D01*
X16561910Y-7794266D01*
X16110302Y-7794266D01*
X16113047Y-7791521D01*
X16114908Y-7788298D01*
X16117661Y-7783529D01*
X16117661Y-7783529D01*
X16117661Y-7783529D01*
X16120050Y-7774614D01*
X16120050Y-7765386D01*
X16117661Y-7756471D01*
X16113047Y-7748479D01*
X16106521Y-7741953D01*
X16106521Y-7741953D01*
X16106521Y-7741953D01*
X16105348Y-7741276D01*
X16101254Y-7736728D01*
X16100615Y-7730643D01*
X16103298Y-7725702D01*
X16137971Y-7691029D01*
X16665147Y-7691029D01*
X16665147Y-7702890D01*
X16668217Y-7714348D01*
X16674148Y-7724621D01*
X16682536Y-7733008D01*
X16692809Y-7738939D01*
X16704266Y-7742009D01*
X16704266Y-7742009D01*
X16716128Y-7742009D01*
X16716128Y-7742009D01*
X16727586Y-7738939D01*
X16737858Y-7733008D01*
X16746246Y-7724621D01*
X16752177Y-7714348D01*
X16755247Y-7702890D01*
X16755247Y-7691029D01*
X16844752Y-7691029D01*
X16844752Y-7702890D01*
X16847823Y-7714348D01*
X16853753Y-7724621D01*
X16862141Y-7733008D01*
X16872414Y-7738939D01*
X16883871Y-7742009D01*
X16883872Y-7742009D01*
X16895733Y-7742009D01*
X16895733Y-7742009D01*
X16907191Y-7738939D01*
X16917464Y-7733008D01*
X16925851Y-7724621D01*
X16931782Y-7714348D01*
X16934852Y-7702890D01*
X16934852Y-7691029D01*
X16931782Y-7679571D01*
X16925851Y-7669298D01*
X16917464Y-7660911D01*
X16907191Y-7654980D01*
X16895733Y-7651910D01*
X16883871Y-7651910D01*
X16872414Y-7654980D01*
X16862141Y-7660911D01*
X16853753Y-7669298D01*
X16847823Y-7679571D01*
X16844752Y-7691029D01*
X16755247Y-7691029D01*
X16752177Y-7679571D01*
X16746246Y-7669298D01*
X16737858Y-7660911D01*
X16727586Y-7654980D01*
X16716128Y-7651910D01*
X16704266Y-7651910D01*
X16692809Y-7654980D01*
X16682536Y-7660911D01*
X16674148Y-7669298D01*
X16668217Y-7679571D01*
X16665147Y-7691029D01*
X16137971Y-7691029D01*
X16198341Y-7630659D01*
X16200390Y-7629087D01*
X16206521Y-7625547D01*
X16213047Y-7619021D01*
X16216587Y-7612890D01*
X16218159Y-7610841D01*
X16268341Y-7560659D01*
X16270390Y-7559087D01*
X16276521Y-7555547D01*
X16277932Y-7554136D01*
X16528700Y-7554136D01*
X16528700Y-7563364D01*
X16531089Y-7572279D01*
X16535703Y-7580271D01*
X16542229Y-7586797D01*
X16550221Y-7591411D01*
X16559136Y-7593800D01*
X16559136Y-7593800D01*
X16568364Y-7593800D01*
X16568364Y-7593800D01*
X16577279Y-7591411D01*
X16585271Y-7586797D01*
X16591797Y-7580271D01*
X16596411Y-7572279D01*
X16598800Y-7563364D01*
X16598800Y-7554136D01*
X16596411Y-7545221D01*
X16591797Y-7537229D01*
X16585271Y-7530703D01*
X16577279Y-7526089D01*
X16568364Y-7523700D01*
X16559136Y-7523700D01*
X16550221Y-7526089D01*
X16550221Y-7526089D01*
X16550221Y-7526089D01*
X16542229Y-7530703D01*
X16535703Y-7537229D01*
X16531089Y-7545221D01*
X16531089Y-7545221D01*
X16531089Y-7545221D01*
X16528700Y-7554136D01*
X16277932Y-7554136D01*
X16283047Y-7549021D01*
X16286587Y-7542890D01*
X16288159Y-7540841D01*
X16328614Y-7500386D01*
X16939950Y-7500386D01*
X16939950Y-7509614D01*
X16942339Y-7518529D01*
X16946953Y-7526521D01*
X16953479Y-7533047D01*
X16961471Y-7537661D01*
X16970386Y-7540050D01*
X16970386Y-7540050D01*
X16979614Y-7540050D01*
X16979614Y-7540050D01*
X16988529Y-7537661D01*
X16996521Y-7533047D01*
X17003047Y-7526521D01*
X17007661Y-7518529D01*
X17010050Y-7509614D01*
X17010050Y-7500386D01*
X17007661Y-7491471D01*
X17003047Y-7483479D01*
X16996521Y-7476953D01*
X16988529Y-7472339D01*
X16979614Y-7469950D01*
X16970386Y-7469950D01*
X16961471Y-7472339D01*
X16961471Y-7472339D01*
X16961471Y-7472339D01*
X16953479Y-7476953D01*
X16946953Y-7483479D01*
X16942339Y-7491471D01*
X16942339Y-7491471D01*
X16942339Y-7491471D01*
X16939950Y-7500386D01*
X16328614Y-7500386D01*
X16338341Y-7490659D01*
X16340390Y-7489087D01*
X16346521Y-7485547D01*
X16353047Y-7479021D01*
X16356587Y-7472890D01*
X16358159Y-7470841D01*
X16408341Y-7420659D01*
X16410390Y-7419087D01*
X16416521Y-7415547D01*
X16423047Y-7409021D01*
X16426587Y-7402890D01*
X16428159Y-7400841D01*
X16433614Y-7395386D01*
X16804950Y-7395386D01*
X16804950Y-7404614D01*
X16807339Y-7413529D01*
X16811953Y-7421521D01*
X16818479Y-7428047D01*
X16826471Y-7432661D01*
X16835386Y-7435050D01*
X16835386Y-7435050D01*
X16844614Y-7435050D01*
X16844614Y-7435050D01*
X16853529Y-7432661D01*
X16861521Y-7428047D01*
X16868047Y-7421521D01*
X16872661Y-7413529D01*
X16875050Y-7404614D01*
X16875050Y-7395386D01*
X16872661Y-7386471D01*
X16868047Y-7378479D01*
X16861521Y-7371953D01*
X16853529Y-7367339D01*
X16844614Y-7364950D01*
X16835386Y-7364950D01*
X16826471Y-7367339D01*
X16826471Y-7367339D01*
X16826471Y-7367339D01*
X16818479Y-7371953D01*
X16811953Y-7378479D01*
X16807339Y-7386471D01*
X16807339Y-7386471D01*
X16807339Y-7386471D01*
X16804950Y-7395386D01*
X16433614Y-7395386D01*
X16478341Y-7350659D01*
X16480390Y-7349087D01*
X16486521Y-7345547D01*
X16493047Y-7339021D01*
X16496587Y-7332890D01*
X16498159Y-7330841D01*
X16503614Y-7325386D01*
X16594950Y-7325386D01*
X16594950Y-7334614D01*
X16597339Y-7343529D01*
X16601953Y-7351521D01*
X16608479Y-7358047D01*
X16616471Y-7362661D01*
X16625386Y-7365050D01*
X16625386Y-7365050D01*
X16634614Y-7365050D01*
X16634614Y-7365050D01*
X16643529Y-7362661D01*
X16651521Y-7358047D01*
X16658047Y-7351521D01*
X16662661Y-7343529D01*
X16665050Y-7334614D01*
X16665050Y-7325386D01*
X16662661Y-7316471D01*
X16658047Y-7308479D01*
X16651521Y-7301953D01*
X16643529Y-7297339D01*
X16634614Y-7294950D01*
X16625386Y-7294950D01*
X16616471Y-7297339D01*
X16616471Y-7297339D01*
X16616471Y-7297339D01*
X16608479Y-7301953D01*
X16601953Y-7308479D01*
X16597339Y-7316471D01*
X16597339Y-7316471D01*
X16597339Y-7316471D01*
X16594950Y-7325386D01*
X16503614Y-7325386D01*
X16566524Y-7262475D01*
X16568023Y-7261245D01*
X16575309Y-7256377D01*
X16578877Y-7254899D01*
X16583360Y-7254008D01*
X16587470Y-7253190D01*
X16589402Y-7253000D01*
X16944098Y-7253000D01*
X16946094Y-7253203D01*
G37*
%TD.AperFunction*%
%TD*%
%TA.AperFunction,Conductor*%
%TO.N,3V3_OSC*%
G36*
X15381817Y-5988687D02*
G01*
X15387632Y-5990588D01*
X15391220Y-5995545D01*
X15391209Y-6001663D01*
X15390372Y-6003537D01*
X15388020Y-6007611D01*
X15388020Y-6007611D01*
X15384950Y-6019069D01*
X15384950Y-6030931D01*
X15386850Y-6038020D01*
X15388020Y-6042389D01*
X15393951Y-6052661D01*
X15393951Y-6052661D01*
X15393951Y-6052661D01*
X15402339Y-6061049D01*
X15402339Y-6061049D01*
X15402339Y-6061049D01*
X15412611Y-6066980D01*
X15412611Y-6066980D01*
X15412611Y-6066980D01*
X15424069Y-6070050D01*
X15424069Y-6070050D01*
X15435931Y-6070050D01*
X15435931Y-6070050D01*
X15447389Y-6066980D01*
X15447389Y-6066980D01*
X15447389Y-6066980D01*
X15457661Y-6061049D01*
X15457661Y-6061049D01*
X15457661Y-6061049D01*
X15466049Y-6052661D01*
X15467621Y-6049938D01*
X15471426Y-6043347D01*
X15475973Y-6039253D01*
X15482058Y-6038614D01*
X15487357Y-6041673D01*
X15488574Y-6043347D01*
X15493951Y-6052661D01*
X15493951Y-6052661D01*
X15493951Y-6052661D01*
X15502339Y-6061049D01*
X15502339Y-6061049D01*
X15502339Y-6061049D01*
X15512611Y-6066980D01*
X15512611Y-6066980D01*
X15512611Y-6066980D01*
X15524069Y-6070050D01*
X15524069Y-6070050D01*
X15535931Y-6070050D01*
X15535931Y-6070050D01*
X15547389Y-6066980D01*
X15547389Y-6066980D01*
X15547389Y-6066980D01*
X15557661Y-6061049D01*
X15557661Y-6061049D01*
X15557661Y-6061049D01*
X15566049Y-6052661D01*
X15567621Y-6049938D01*
X15571980Y-6042389D01*
X15571980Y-6042389D01*
X15571980Y-6042389D01*
X15575050Y-6030931D01*
X15575050Y-6019069D01*
X15571980Y-6007611D01*
X15569832Y-6003892D01*
X15568560Y-5997907D01*
X15571049Y-5992317D01*
X15576347Y-5989258D01*
X15578423Y-5989042D01*
X15789695Y-5989422D01*
X15790663Y-5989472D01*
X15808695Y-5991278D01*
X15810594Y-5991659D01*
X15827462Y-5996803D01*
X15829251Y-5997547D01*
X15844792Y-6005879D01*
X15846402Y-6006957D01*
X15847198Y-6007611D01*
X15860022Y-6018158D01*
X15861391Y-6019529D01*
X15872567Y-6033169D01*
X15873643Y-6034782D01*
X15881946Y-6050337D01*
X15882687Y-6052128D01*
X15887800Y-6069004D01*
X15888178Y-6070906D01*
X15889952Y-6088939D01*
X15890000Y-6089909D01*
X15890000Y-6155050D01*
X15888109Y-6160869D01*
X15883159Y-6164465D01*
X15880100Y-6164950D01*
X15874069Y-6164950D01*
X15867057Y-6166829D01*
X15862611Y-6168020D01*
X15852339Y-6173951D01*
X15843951Y-6182339D01*
X15838020Y-6192611D01*
X15836571Y-6198020D01*
X15834950Y-6204069D01*
X15834950Y-6215931D01*
X15837629Y-6225931D01*
X15838020Y-6227389D01*
X15843951Y-6237661D01*
X15843951Y-6237661D01*
X15843951Y-6237661D01*
X15852339Y-6246049D01*
X15852339Y-6246049D01*
X15852339Y-6246049D01*
X15862611Y-6251980D01*
X15862611Y-6251980D01*
X15862611Y-6251980D01*
X15874069Y-6255050D01*
X15874069Y-6255050D01*
X15880100Y-6255050D01*
X15885919Y-6256941D01*
X15889515Y-6261891D01*
X15890000Y-6264950D01*
X15890000Y-6327550D01*
X15888109Y-6333369D01*
X15883159Y-6336965D01*
X15880100Y-6337450D01*
X15871569Y-6337450D01*
X15864557Y-6339329D01*
X15860111Y-6340520D01*
X15849839Y-6346451D01*
X15841451Y-6354839D01*
X15835520Y-6365111D01*
X15835520Y-6365111D01*
X15832450Y-6376569D01*
X15832450Y-6388431D01*
X15833570Y-6392611D01*
X15835520Y-6399889D01*
X15841451Y-6410161D01*
X15841451Y-6410161D01*
X15841451Y-6410161D01*
X15849839Y-6418549D01*
X15849839Y-6418549D01*
X15849839Y-6418549D01*
X15860111Y-6424480D01*
X15860111Y-6424480D01*
X15860111Y-6424480D01*
X15871569Y-6427550D01*
X15871569Y-6427550D01*
X15880100Y-6427550D01*
X15885919Y-6429441D01*
X15889515Y-6434391D01*
X15890000Y-6437450D01*
X15890000Y-6579903D01*
X15889952Y-6580873D01*
X15888176Y-6598917D01*
X15887798Y-6600819D01*
X15882680Y-6617702D01*
X15881938Y-6619494D01*
X15873627Y-6635056D01*
X15872550Y-6636669D01*
X15861364Y-6650311D01*
X15859993Y-6651683D01*
X15846362Y-6662883D01*
X15844750Y-6663962D01*
X15829197Y-6672289D01*
X15827405Y-6673032D01*
X15810527Y-6678167D01*
X15808625Y-6678547D01*
X15790584Y-6680341D01*
X15789614Y-6680390D01*
X15566286Y-6680613D01*
X15560465Y-6678728D01*
X15556864Y-6673782D01*
X15556714Y-6668151D01*
X15557550Y-6665031D01*
X15557550Y-6653169D01*
X15554480Y-6641711D01*
X15554480Y-6641711D01*
X15554480Y-6641711D01*
X15548549Y-6631439D01*
X15548549Y-6631439D01*
X15548549Y-6631439D01*
X15540161Y-6623051D01*
X15540161Y-6623051D01*
X15540161Y-6623051D01*
X15529889Y-6617120D01*
X15529889Y-6617120D01*
X15528689Y-6616799D01*
X15521559Y-6614888D01*
X15516428Y-6611556D01*
X15514235Y-6605844D01*
X15514243Y-6604679D01*
X15514306Y-6603706D01*
X15515050Y-6600931D01*
X15515050Y-6592337D01*
X15515071Y-6592015D01*
X15516090Y-6589459D01*
X15516941Y-6586842D01*
X15517213Y-6586644D01*
X15517338Y-6586331D01*
X15519664Y-6584863D01*
X15521891Y-6583245D01*
X15522227Y-6583245D01*
X15522512Y-6583066D01*
X15525257Y-6583245D01*
X15528009Y-6583245D01*
X15528338Y-6583447D01*
X15528617Y-6583465D01*
X15529316Y-6584046D01*
X15531950Y-6585660D01*
X15532339Y-6586049D01*
X15532339Y-6586049D01*
X15532339Y-6586049D01*
X15542611Y-6591980D01*
X15542611Y-6591980D01*
X15542611Y-6591980D01*
X15554069Y-6595050D01*
X15554069Y-6595050D01*
X15565931Y-6595050D01*
X15565931Y-6595050D01*
X15577389Y-6591980D01*
X15577389Y-6591980D01*
X15577389Y-6591980D01*
X15587661Y-6586049D01*
X15587661Y-6586049D01*
X15587661Y-6586049D01*
X15596049Y-6577661D01*
X15601980Y-6567389D01*
X15605050Y-6555931D01*
X15605050Y-6544069D01*
X15601980Y-6532611D01*
X15601980Y-6532611D01*
X15601980Y-6532611D01*
X15596049Y-6522339D01*
X15596049Y-6522339D01*
X15596049Y-6522339D01*
X15587661Y-6513951D01*
X15587661Y-6513951D01*
X15587661Y-6513951D01*
X15577389Y-6508020D01*
X15577389Y-6508020D01*
X15576035Y-6507657D01*
X15565931Y-6504950D01*
X15554069Y-6504950D01*
X15547057Y-6506829D01*
X15542611Y-6508020D01*
X15532339Y-6513951D01*
X15523951Y-6522339D01*
X15518020Y-6532611D01*
X15514950Y-6544069D01*
X15514950Y-6552339D01*
X15513059Y-6558158D01*
X15508109Y-6561755D01*
X15501991Y-6561755D01*
X15498050Y-6559340D01*
X15497661Y-6558951D01*
X15497661Y-6558951D01*
X15497661Y-6558951D01*
X15487389Y-6553020D01*
X15487389Y-6553020D01*
X15484847Y-6552339D01*
X15475931Y-6549950D01*
X15464069Y-6549950D01*
X15457057Y-6551829D01*
X15452611Y-6553020D01*
X15442339Y-6558951D01*
X15433951Y-6567339D01*
X15428020Y-6577611D01*
X15428007Y-6577661D01*
X15424950Y-6589069D01*
X15424950Y-6600931D01*
X15425954Y-6604679D01*
X15428020Y-6612389D01*
X15433951Y-6622661D01*
X15433951Y-6622661D01*
X15433951Y-6622661D01*
X15442339Y-6631049D01*
X15442339Y-6631049D01*
X15442339Y-6631049D01*
X15452611Y-6636980D01*
X15452611Y-6636980D01*
X15452611Y-6636980D01*
X15452611Y-6636980D01*
X15460941Y-6639212D01*
X15466072Y-6642544D01*
X15468265Y-6648256D01*
X15467941Y-6651336D01*
X15467450Y-6653169D01*
X15467450Y-6653169D01*
X15467450Y-6665031D01*
X15468315Y-6668258D01*
X15467994Y-6674368D01*
X15464144Y-6679123D01*
X15458762Y-6680720D01*
X15208900Y-6680970D01*
X15208900Y-6680970D01*
X15109000Y-6681070D01*
X15109000Y-6902363D01*
X15108952Y-6903334D01*
X15107170Y-6921405D01*
X15106791Y-6923310D01*
X15101657Y-6940218D01*
X15100913Y-6942013D01*
X15092576Y-6957592D01*
X15091496Y-6959207D01*
X15080277Y-6972859D01*
X15078902Y-6974231D01*
X15065234Y-6985430D01*
X15063617Y-6986507D01*
X15048025Y-6994821D01*
X15046229Y-6995562D01*
X15029314Y-7000671D01*
X15027408Y-7001047D01*
X15009334Y-7002802D01*
X15008362Y-7002848D01*
X14672315Y-7002341D01*
X14669978Y-7002058D01*
X14668604Y-7001722D01*
X14667389Y-7001020D01*
X14655931Y-6997950D01*
X14653177Y-6997950D01*
X14652018Y-6997667D01*
X14650381Y-6996654D01*
X14648550Y-6996059D01*
X14647841Y-6995083D01*
X14646814Y-6994448D01*
X14646085Y-6992667D01*
X14644954Y-6991109D01*
X14644954Y-6989902D01*
X14644497Y-6988786D01*
X14644954Y-6986916D01*
X14644954Y-6984991D01*
X14645796Y-6983100D01*
X14651980Y-6972389D01*
X14651980Y-6972389D01*
X14651980Y-6972389D01*
X14655050Y-6960931D01*
X14655050Y-6949069D01*
X14651980Y-6937611D01*
X14651980Y-6937611D01*
X14651980Y-6937611D01*
X14646049Y-6927339D01*
X14646049Y-6927339D01*
X14646049Y-6927339D01*
X14637661Y-6918951D01*
X14637661Y-6918951D01*
X14637661Y-6918951D01*
X14627389Y-6913020D01*
X14627389Y-6913020D01*
X14626035Y-6912657D01*
X14615931Y-6909950D01*
X14604069Y-6909950D01*
X14597057Y-6911829D01*
X14592611Y-6913020D01*
X14582339Y-6918951D01*
X14573951Y-6927339D01*
X14568020Y-6937611D01*
X14564950Y-6949069D01*
X14564950Y-6960931D01*
X14564988Y-6961072D01*
X14564982Y-6961177D01*
X14565035Y-6961574D01*
X14564961Y-6961584D01*
X14564668Y-6967183D01*
X14560817Y-6971938D01*
X14554907Y-6973521D01*
X14549195Y-6971329D01*
X14547769Y-6969911D01*
X14547126Y-6969126D01*
X14544899Y-6963427D01*
X14544967Y-6961558D01*
X14545050Y-6960931D01*
X14545050Y-6949069D01*
X14545050Y-6949069D01*
X14541980Y-6937611D01*
X14541980Y-6937611D01*
X14541980Y-6937611D01*
X14536049Y-6927339D01*
X14536049Y-6927339D01*
X14536049Y-6927339D01*
X14527661Y-6918951D01*
X14527661Y-6918951D01*
X14526744Y-6918421D01*
X14525673Y-6917232D01*
X14524293Y-6916423D01*
X14523677Y-6915016D01*
X14522650Y-6913875D01*
X14521842Y-6910818D01*
X14521048Y-6902747D01*
X14521000Y-6901778D01*
X14521000Y-6514069D01*
X14894822Y-6514069D01*
X14894822Y-6525931D01*
X14897529Y-6536035D01*
X14897892Y-6537389D01*
X14903822Y-6547661D01*
X14903823Y-6547661D01*
X14903823Y-6547661D01*
X14912210Y-6556049D01*
X14912211Y-6556049D01*
X14912211Y-6556049D01*
X14922483Y-6561980D01*
X14922483Y-6561980D01*
X14922483Y-6561980D01*
X14933941Y-6565050D01*
X14933941Y-6565050D01*
X14945802Y-6565050D01*
X14945803Y-6565050D01*
X14957260Y-6561980D01*
X14957260Y-6561980D01*
X14957261Y-6561980D01*
X14967532Y-6556049D01*
X14967532Y-6556049D01*
X14967533Y-6556049D01*
X14975921Y-6547661D01*
X14981852Y-6537389D01*
X14984922Y-6525931D01*
X14984922Y-6514069D01*
X14981852Y-6502611D01*
X14981851Y-6502611D01*
X14981851Y-6502611D01*
X14975921Y-6492339D01*
X14975921Y-6492339D01*
X14975921Y-6492339D01*
X14967533Y-6483951D01*
X14967533Y-6483951D01*
X14967532Y-6483951D01*
X14957261Y-6478020D01*
X14957261Y-6478020D01*
X14955907Y-6477657D01*
X14945803Y-6474950D01*
X14933941Y-6474950D01*
X14926928Y-6476829D01*
X14922483Y-6478020D01*
X14912211Y-6483951D01*
X14903822Y-6492339D01*
X14897892Y-6502611D01*
X14896442Y-6508020D01*
X14894822Y-6514069D01*
X14521000Y-6514069D01*
X14521000Y-6404069D01*
X14604950Y-6404069D01*
X14604950Y-6415931D01*
X14607241Y-6424480D01*
X14608020Y-6427389D01*
X14613951Y-6437661D01*
X14613951Y-6437661D01*
X14613951Y-6437661D01*
X14622339Y-6446049D01*
X14622339Y-6446049D01*
X14622339Y-6446049D01*
X14632611Y-6451980D01*
X14632611Y-6451980D01*
X14632611Y-6451980D01*
X14644069Y-6455050D01*
X14644069Y-6455050D01*
X14655931Y-6455050D01*
X14655931Y-6455050D01*
X14667389Y-6451980D01*
X14667389Y-6451980D01*
X14667389Y-6451980D01*
X14677661Y-6446049D01*
X14677661Y-6446049D01*
X14677661Y-6446049D01*
X14686049Y-6437661D01*
X14686206Y-6437389D01*
X14691980Y-6427389D01*
X14691980Y-6427389D01*
X14691980Y-6427389D01*
X14695050Y-6415931D01*
X14695050Y-6404069D01*
X14884950Y-6404069D01*
X14884950Y-6415931D01*
X14887241Y-6424480D01*
X14888020Y-6427389D01*
X14893951Y-6437661D01*
X14893951Y-6437661D01*
X14893951Y-6437661D01*
X14902339Y-6446049D01*
X14902339Y-6446049D01*
X14902339Y-6446049D01*
X14912611Y-6451980D01*
X14912611Y-6451980D01*
X14912611Y-6451980D01*
X14924069Y-6455050D01*
X14924069Y-6455050D01*
X14935931Y-6455050D01*
X14935931Y-6455050D01*
X14947389Y-6451980D01*
X14947389Y-6451980D01*
X14947389Y-6451980D01*
X14957661Y-6446049D01*
X14957661Y-6446049D01*
X14957661Y-6446049D01*
X14966049Y-6437661D01*
X14966206Y-6437389D01*
X14971980Y-6427389D01*
X14971980Y-6427389D01*
X14971980Y-6427389D01*
X14975050Y-6415931D01*
X14975050Y-6414069D01*
X15214950Y-6414069D01*
X15214950Y-6425931D01*
X15215890Y-6429441D01*
X15218020Y-6437389D01*
X15223951Y-6447661D01*
X15223951Y-6447661D01*
X15223951Y-6447661D01*
X15232339Y-6456049D01*
X15232339Y-6456049D01*
X15232339Y-6456049D01*
X15242611Y-6461980D01*
X15242611Y-6461980D01*
X15242611Y-6461980D01*
X15254069Y-6465050D01*
X15254069Y-6465050D01*
X15265931Y-6465050D01*
X15265931Y-6465050D01*
X15277389Y-6461980D01*
X15277389Y-6461980D01*
X15277389Y-6461980D01*
X15287661Y-6456049D01*
X15287661Y-6456049D01*
X15287661Y-6456049D01*
X15296049Y-6447661D01*
X15301822Y-6437661D01*
X15301980Y-6437389D01*
X15301980Y-6437389D01*
X15301980Y-6437389D01*
X15305050Y-6425931D01*
X15305050Y-6414069D01*
X15301980Y-6402611D01*
X15301980Y-6402611D01*
X15301980Y-6402611D01*
X15296049Y-6392339D01*
X15296049Y-6392339D01*
X15296049Y-6392339D01*
X15287661Y-6383951D01*
X15287661Y-6383951D01*
X15287661Y-6383951D01*
X15284271Y-6381994D01*
X15284271Y-6381994D01*
X15277389Y-6378020D01*
X15277389Y-6378020D01*
X15277389Y-6378020D01*
X15265931Y-6374950D01*
X15254069Y-6374950D01*
X15248027Y-6376569D01*
X15242611Y-6378020D01*
X15232339Y-6383951D01*
X15223951Y-6392339D01*
X15218020Y-6402611D01*
X15218020Y-6402611D01*
X15214950Y-6414069D01*
X14975050Y-6414069D01*
X14975050Y-6404069D01*
X14971980Y-6392611D01*
X14971980Y-6392611D01*
X14971980Y-6392611D01*
X14966049Y-6382339D01*
X14966049Y-6382339D01*
X14966049Y-6382339D01*
X14957779Y-6374069D01*
X15582450Y-6374069D01*
X15582450Y-6385931D01*
X15585157Y-6396035D01*
X15585520Y-6397389D01*
X15591451Y-6407661D01*
X15591451Y-6407661D01*
X15591451Y-6407661D01*
X15599839Y-6416049D01*
X15599839Y-6416049D01*
X15599839Y-6416049D01*
X15610111Y-6421980D01*
X15610111Y-6421980D01*
X15610111Y-6421980D01*
X15621569Y-6425050D01*
X15621569Y-6425050D01*
X15633431Y-6425050D01*
X15633431Y-6425050D01*
X15644889Y-6421980D01*
X15644889Y-6421980D01*
X15644889Y-6421980D01*
X15655161Y-6416049D01*
X15655161Y-6416049D01*
X15655161Y-6416049D01*
X15663549Y-6407661D01*
X15669480Y-6397389D01*
X15672550Y-6385931D01*
X15672550Y-6374069D01*
X15669480Y-6362611D01*
X15669480Y-6362611D01*
X15669480Y-6362611D01*
X15663549Y-6352339D01*
X15663549Y-6352339D01*
X15663549Y-6352339D01*
X15655161Y-6343951D01*
X15655161Y-6343951D01*
X15655161Y-6343951D01*
X15644889Y-6338020D01*
X15644889Y-6338020D01*
X15640953Y-6336965D01*
X15633431Y-6334950D01*
X15621569Y-6334950D01*
X15614557Y-6336829D01*
X15610111Y-6338020D01*
X15599839Y-6343951D01*
X15591451Y-6352339D01*
X15585520Y-6362611D01*
X15584850Y-6365111D01*
X15582450Y-6374069D01*
X14957779Y-6374069D01*
X14957661Y-6373951D01*
X14957661Y-6373951D01*
X14957661Y-6373951D01*
X14947389Y-6368020D01*
X14947389Y-6368020D01*
X14946035Y-6367657D01*
X14935931Y-6364950D01*
X14924069Y-6364950D01*
X14917057Y-6366829D01*
X14912611Y-6368020D01*
X14902339Y-6373951D01*
X14893951Y-6382339D01*
X14888020Y-6392611D01*
X14888020Y-6392611D01*
X14884950Y-6404069D01*
X14695050Y-6404069D01*
X14691980Y-6392611D01*
X14691980Y-6392611D01*
X14691980Y-6392611D01*
X14686049Y-6382339D01*
X14686049Y-6382339D01*
X14686049Y-6382339D01*
X14677661Y-6373951D01*
X14677661Y-6373951D01*
X14677661Y-6373951D01*
X14667389Y-6368020D01*
X14667389Y-6368020D01*
X14666035Y-6367657D01*
X14655931Y-6364950D01*
X14644069Y-6364950D01*
X14637057Y-6366829D01*
X14632611Y-6368020D01*
X14622339Y-6373951D01*
X14613951Y-6382339D01*
X14608020Y-6392611D01*
X14608020Y-6392611D01*
X14604950Y-6404069D01*
X14521000Y-6404069D01*
X14521000Y-6234069D01*
X14619950Y-6234069D01*
X14619950Y-6245931D01*
X14621873Y-6253109D01*
X14623020Y-6257389D01*
X14628951Y-6267661D01*
X14628951Y-6267661D01*
X14628951Y-6267661D01*
X14637339Y-6276049D01*
X14637339Y-6276049D01*
X14637339Y-6276049D01*
X14647611Y-6281980D01*
X14647611Y-6281980D01*
X14647611Y-6281980D01*
X14659069Y-6285050D01*
X14659069Y-6285050D01*
X14670804Y-6285050D01*
X14676624Y-6286941D01*
X14680220Y-6291891D01*
X14680367Y-6297512D01*
X14679950Y-6299069D01*
X14679950Y-6310931D01*
X14682657Y-6321035D01*
X14683020Y-6322389D01*
X14688951Y-6332661D01*
X14688951Y-6332661D01*
X14688951Y-6332661D01*
X14697339Y-6341049D01*
X14697339Y-6341049D01*
X14697339Y-6341049D01*
X14707611Y-6346980D01*
X14707611Y-6346980D01*
X14707611Y-6346980D01*
X14719069Y-6350050D01*
X14719069Y-6350050D01*
X14730931Y-6350050D01*
X14730931Y-6350050D01*
X14742389Y-6346980D01*
X14742389Y-6346980D01*
X14742389Y-6346980D01*
X14752661Y-6341049D01*
X14752661Y-6341049D01*
X14752661Y-6341049D01*
X14761049Y-6332661D01*
X14763936Y-6327661D01*
X14766980Y-6322389D01*
X14766980Y-6322389D01*
X14766980Y-6322389D01*
X14770050Y-6310931D01*
X14770050Y-6299069D01*
X14766980Y-6287611D01*
X14766980Y-6287611D01*
X14766980Y-6287611D01*
X14761049Y-6277339D01*
X14761049Y-6277339D01*
X14761049Y-6277339D01*
X14752661Y-6268951D01*
X14752661Y-6268951D01*
X14752661Y-6268951D01*
X14742389Y-6263020D01*
X14742389Y-6263020D01*
X14738506Y-6261980D01*
X14730931Y-6259950D01*
X14719195Y-6259950D01*
X14713376Y-6258059D01*
X14709780Y-6253109D01*
X14709633Y-6247488D01*
X14710050Y-6245931D01*
X14710050Y-6234069D01*
X14706980Y-6222611D01*
X14706980Y-6222611D01*
X14706980Y-6222611D01*
X14704531Y-6218370D01*
X14702048Y-6214069D01*
X15574950Y-6214069D01*
X15574950Y-6225931D01*
X15575414Y-6227661D01*
X15578020Y-6237389D01*
X15583951Y-6247661D01*
X15583951Y-6247661D01*
X15583951Y-6247661D01*
X15592339Y-6256049D01*
X15592339Y-6256049D01*
X15592339Y-6256049D01*
X15602611Y-6261980D01*
X15602611Y-6261980D01*
X15602611Y-6261980D01*
X15614069Y-6265050D01*
X15614069Y-6265050D01*
X15625931Y-6265050D01*
X15625931Y-6265050D01*
X15637389Y-6261980D01*
X15637389Y-6261980D01*
X15637389Y-6261980D01*
X15647661Y-6256049D01*
X15647661Y-6256049D01*
X15647661Y-6256049D01*
X15656049Y-6247661D01*
X15657048Y-6245931D01*
X15661980Y-6237389D01*
X15661980Y-6237389D01*
X15661980Y-6237389D01*
X15665050Y-6225931D01*
X15665050Y-6214069D01*
X15661980Y-6202611D01*
X15661980Y-6202611D01*
X15661980Y-6202611D01*
X15659531Y-6198370D01*
X15657048Y-6194069D01*
X15684950Y-6194069D01*
X15684950Y-6205931D01*
X15686667Y-6212339D01*
X15688020Y-6217389D01*
X15693951Y-6227661D01*
X15693951Y-6227661D01*
X15693951Y-6227661D01*
X15702339Y-6236049D01*
X15702339Y-6236049D01*
X15702339Y-6236049D01*
X15712611Y-6241980D01*
X15712611Y-6241980D01*
X15712611Y-6241980D01*
X15724069Y-6245050D01*
X15724069Y-6245050D01*
X15735931Y-6245050D01*
X15735931Y-6245050D01*
X15747389Y-6241980D01*
X15747389Y-6241980D01*
X15747389Y-6241980D01*
X15757661Y-6236049D01*
X15757661Y-6236049D01*
X15757661Y-6236049D01*
X15766049Y-6227661D01*
X15766206Y-6227389D01*
X15771980Y-6217389D01*
X15771980Y-6217389D01*
X15771980Y-6217389D01*
X15775050Y-6205931D01*
X15775050Y-6194069D01*
X15771980Y-6182611D01*
X15771980Y-6182611D01*
X15771980Y-6182611D01*
X15766049Y-6172339D01*
X15766049Y-6172339D01*
X15766049Y-6172339D01*
X15757661Y-6163951D01*
X15757661Y-6163951D01*
X15757661Y-6163951D01*
X15747389Y-6158020D01*
X15747389Y-6158020D01*
X15746035Y-6157657D01*
X15735931Y-6154950D01*
X15724069Y-6154950D01*
X15717057Y-6156829D01*
X15712611Y-6158020D01*
X15702339Y-6163951D01*
X15693951Y-6172339D01*
X15688020Y-6182611D01*
X15688020Y-6182611D01*
X15684950Y-6194069D01*
X15657048Y-6194069D01*
X15656049Y-6192339D01*
X15656049Y-6192339D01*
X15656049Y-6192339D01*
X15647661Y-6183951D01*
X15647661Y-6183951D01*
X15647661Y-6183951D01*
X15637389Y-6178020D01*
X15637389Y-6178020D01*
X15636035Y-6177657D01*
X15625931Y-6174950D01*
X15614069Y-6174950D01*
X15607057Y-6176829D01*
X15602611Y-6178020D01*
X15592339Y-6183951D01*
X15583951Y-6192339D01*
X15578020Y-6202611D01*
X15578020Y-6202611D01*
X15574950Y-6214069D01*
X14702048Y-6214069D01*
X14701049Y-6212339D01*
X14701049Y-6212339D01*
X14701049Y-6212339D01*
X14692661Y-6203951D01*
X14692661Y-6203951D01*
X14692661Y-6203951D01*
X14682389Y-6198020D01*
X14682389Y-6198020D01*
X14681035Y-6197657D01*
X14670931Y-6194950D01*
X14659069Y-6194950D01*
X14652057Y-6196829D01*
X14647611Y-6198020D01*
X14637339Y-6203951D01*
X14628951Y-6212339D01*
X14623020Y-6222611D01*
X14623020Y-6222611D01*
X14619950Y-6234069D01*
X14521000Y-6234069D01*
X14521000Y-6087802D01*
X14521048Y-6086831D01*
X14522306Y-6074069D01*
X15164950Y-6074069D01*
X15164950Y-6085931D01*
X15166016Y-6089909D01*
X15168020Y-6097389D01*
X15173951Y-6107661D01*
X15173951Y-6107661D01*
X15173951Y-6107661D01*
X15182339Y-6116049D01*
X15182339Y-6116049D01*
X15182339Y-6116049D01*
X15192611Y-6121980D01*
X15192611Y-6121980D01*
X15192611Y-6121980D01*
X15204069Y-6125050D01*
X15204069Y-6125050D01*
X15215931Y-6125050D01*
X15215931Y-6125050D01*
X15227389Y-6121980D01*
X15227389Y-6121980D01*
X15227389Y-6121980D01*
X15237661Y-6116049D01*
X15237661Y-6116049D01*
X15237661Y-6116049D01*
X15246049Y-6107661D01*
X15251980Y-6097389D01*
X15255050Y-6085931D01*
X15255050Y-6074069D01*
X15251980Y-6062611D01*
X15251980Y-6062611D01*
X15251980Y-6062611D01*
X15246049Y-6052339D01*
X15246049Y-6052339D01*
X15246049Y-6052339D01*
X15237661Y-6043951D01*
X15237661Y-6043951D01*
X15237661Y-6043951D01*
X15227389Y-6038020D01*
X15227389Y-6038020D01*
X15226035Y-6037657D01*
X15215931Y-6034950D01*
X15204069Y-6034950D01*
X15197057Y-6036829D01*
X15192611Y-6038020D01*
X15182339Y-6043951D01*
X15173951Y-6052339D01*
X15168020Y-6062611D01*
X15166374Y-6068756D01*
X15164950Y-6074069D01*
X14522306Y-6074069D01*
X14522466Y-6072449D01*
X14522466Y-6072449D01*
X14522830Y-6068756D01*
X14523209Y-6066852D01*
X14528346Y-6049938D01*
X14529089Y-6048146D01*
X14537430Y-6032562D01*
X14538510Y-6030948D01*
X14549733Y-6017295D01*
X14551108Y-6015923D01*
X14564782Y-6004724D01*
X14566398Y-6003647D01*
X14581996Y-5995335D01*
X14583790Y-5994594D01*
X14600712Y-5989488D01*
X14602616Y-5989113D01*
X14620697Y-5987363D01*
X14621666Y-5987317D01*
X15381817Y-5988687D01*
G37*
%TD.AperFunction*%
%TD*%
%TA.AperFunction,Conductor*%
%TO.N,3V3*%
G36*
X14350484Y-5997548D02*
G01*
X14368539Y-5999326D01*
X14370442Y-5999704D01*
X14387336Y-6004829D01*
X14389128Y-6005571D01*
X14404697Y-6013893D01*
X14406310Y-6014971D01*
X14415877Y-6022822D01*
X14419957Y-6026171D01*
X14421329Y-6027543D01*
X14432528Y-6041189D01*
X14433607Y-6042803D01*
X14441928Y-6058372D01*
X14442671Y-6060165D01*
X14447795Y-6077058D01*
X14448174Y-6078961D01*
X14449952Y-6097016D01*
X14450000Y-6097986D01*
X14450000Y-6245764D01*
X14448109Y-6251583D01*
X14443159Y-6255180D01*
X14442664Y-6255326D01*
X14436839Y-6256887D01*
X14432611Y-6258020D01*
X14422339Y-6263951D01*
X14413951Y-6272339D01*
X14408020Y-6282611D01*
X14408020Y-6282611D01*
X14404950Y-6294069D01*
X14404950Y-6305931D01*
X14405510Y-6308020D01*
X14408020Y-6317389D01*
X14413951Y-6327661D01*
X14413951Y-6327661D01*
X14413951Y-6327661D01*
X14422339Y-6336049D01*
X14422339Y-6336049D01*
X14422339Y-6336049D01*
X14432611Y-6341980D01*
X14432611Y-6341980D01*
X14432611Y-6341980D01*
X14442662Y-6344673D01*
X14447794Y-6348005D01*
X14449986Y-6353717D01*
X14450000Y-6354236D01*
X14450000Y-7478444D01*
X14448109Y-7484263D01*
X14443159Y-7487859D01*
X14442662Y-7488006D01*
X14442611Y-7488020D01*
X14442611Y-7488020D01*
X14432339Y-7493951D01*
X14423951Y-7502339D01*
X14418020Y-7512611D01*
X14418020Y-7512611D01*
X14414950Y-7524069D01*
X14414950Y-7535931D01*
X14415414Y-7537661D01*
X14418020Y-7547389D01*
X14423951Y-7557661D01*
X14423951Y-7557661D01*
X14423951Y-7557661D01*
X14432339Y-7566049D01*
X14432339Y-7566049D01*
X14432339Y-7566049D01*
X14442611Y-7571980D01*
X14442611Y-7571980D01*
X14442611Y-7571980D01*
X14442662Y-7571993D01*
X14442693Y-7572014D01*
X14443210Y-7572228D01*
X14443171Y-7572324D01*
X14447793Y-7575325D01*
X14449986Y-7581037D01*
X14450000Y-7581556D01*
X14450000Y-7900000D01*
X15243221Y-7900000D01*
X15244365Y-7900066D01*
X15249004Y-7900606D01*
X15265603Y-7902536D01*
X15267829Y-7903061D01*
X15287390Y-7910143D01*
X15289436Y-7911165D01*
X15307334Y-7922864D01*
X15308254Y-7923545D01*
X15388602Y-7990502D01*
X15389394Y-7991239D01*
X15402078Y-8004410D01*
X15403425Y-8005809D01*
X15404747Y-8007522D01*
X15414992Y-8024326D01*
X15415910Y-8026285D01*
X15422260Y-8044914D01*
X15422730Y-8047026D01*
X15424941Y-8067131D01*
X15425000Y-8068213D01*
X15425000Y-8665491D01*
X15568506Y-8805931D01*
X15601249Y-8837975D01*
X15604085Y-8843396D01*
X15603194Y-8849449D01*
X15598914Y-8853822D01*
X15594711Y-8854855D01*
X15594712Y-8854865D01*
X15594619Y-8854878D01*
X15594325Y-8854950D01*
X15594069Y-8854950D01*
X15587057Y-8856829D01*
X15582611Y-8858020D01*
X15572339Y-8863951D01*
X15563951Y-8872339D01*
X15558020Y-8882611D01*
X15558020Y-8882611D01*
X15554950Y-8894069D01*
X15554950Y-8905931D01*
X15555510Y-8908020D01*
X15558020Y-8917389D01*
X15563951Y-8927661D01*
X15563951Y-8927661D01*
X15563951Y-8927661D01*
X15572339Y-8936049D01*
X15572339Y-8936049D01*
X15572339Y-8936049D01*
X15582611Y-8941980D01*
X15582611Y-8941980D01*
X15582611Y-8941980D01*
X15594069Y-8945050D01*
X15594069Y-8945050D01*
X15605931Y-8945050D01*
X15605931Y-8945050D01*
X15617389Y-8941980D01*
X15617389Y-8941980D01*
X15617389Y-8941980D01*
X15627661Y-8936049D01*
X15627661Y-8936049D01*
X15627661Y-8936049D01*
X15636049Y-8927661D01*
X15636049Y-8927661D01*
X15641980Y-8917389D01*
X15641980Y-8917389D01*
X15641980Y-8917389D01*
X15645050Y-8905931D01*
X15645050Y-8904380D01*
X15646941Y-8898561D01*
X15651891Y-8894964D01*
X15658009Y-8894964D01*
X15661874Y-8897304D01*
X16150000Y-9375000D01*
X16150000Y-9375000D01*
X16150000Y-9375000D01*
X17231841Y-9375000D01*
X17232803Y-9375047D01*
X17250706Y-9376795D01*
X17252594Y-9377167D01*
X17269357Y-9382207D01*
X17271138Y-9382937D01*
X17278177Y-9386662D01*
X17286610Y-9391124D01*
X17288214Y-9392185D01*
X17301810Y-9403211D01*
X17303179Y-9404562D01*
X17314385Y-9418009D01*
X17315468Y-9419601D01*
X17323860Y-9434962D01*
X17324614Y-9436732D01*
X17329877Y-9453426D01*
X17330274Y-9455309D01*
X17332261Y-9473187D01*
X17332321Y-9474149D01*
X17335298Y-9697488D01*
X17335263Y-9698468D01*
X17333694Y-9716713D01*
X17333334Y-9718639D01*
X17328342Y-9735744D01*
X17327609Y-9737561D01*
X17319347Y-9753349D01*
X17318271Y-9754986D01*
X17307061Y-9768837D01*
X17305684Y-9770231D01*
X17291967Y-9781604D01*
X17290343Y-9782699D01*
X17274654Y-9791148D01*
X17272846Y-9791902D01*
X17255801Y-9797097D01*
X17253880Y-9797479D01*
X17235654Y-9799264D01*
X17234675Y-9799311D01*
X14200338Y-9794822D01*
X14199369Y-9794773D01*
X14181333Y-9792971D01*
X14179432Y-9792590D01*
X14162561Y-9787450D01*
X14160770Y-9786706D01*
X14145225Y-9778377D01*
X14143614Y-9777298D01*
X14129989Y-9766098D01*
X14128619Y-9764726D01*
X14117440Y-9751085D01*
X14116363Y-9749473D01*
X14109538Y-9736689D01*
X14108056Y-9733914D01*
X14107315Y-9732123D01*
X14102200Y-9715244D01*
X14101822Y-9713342D01*
X14100048Y-9695305D01*
X14100000Y-9694335D01*
X14100000Y-9584069D01*
X16684950Y-9584069D01*
X16684950Y-9595931D01*
X16687657Y-9606035D01*
X16688020Y-9607389D01*
X16693951Y-9617661D01*
X16693951Y-9617661D01*
X16693951Y-9617661D01*
X16702339Y-9626049D01*
X16702339Y-9626049D01*
X16702339Y-9626049D01*
X16712611Y-9631980D01*
X16712611Y-9631980D01*
X16712611Y-9631980D01*
X16724069Y-9635050D01*
X16724069Y-9635050D01*
X16735931Y-9635050D01*
X16735931Y-9635050D01*
X16747389Y-9631980D01*
X16747389Y-9631980D01*
X16747389Y-9631980D01*
X16757661Y-9626049D01*
X16757661Y-9626049D01*
X16757661Y-9626049D01*
X16766049Y-9617661D01*
X16771980Y-9607389D01*
X16775050Y-9595931D01*
X16775050Y-9584069D01*
X16771980Y-9572611D01*
X16771980Y-9572611D01*
X16771980Y-9572611D01*
X16766049Y-9562339D01*
X16766049Y-9562339D01*
X16766049Y-9562339D01*
X16757661Y-9553951D01*
X16757661Y-9553951D01*
X16757661Y-9553951D01*
X16747389Y-9548020D01*
X16747389Y-9548020D01*
X16746035Y-9547657D01*
X16735931Y-9544950D01*
X16724069Y-9544950D01*
X16717057Y-9546829D01*
X16712611Y-9548020D01*
X16702339Y-9553951D01*
X16693951Y-9562339D01*
X16688020Y-9572611D01*
X16688020Y-9572611D01*
X16684950Y-9584069D01*
X14100000Y-9584069D01*
X14100000Y-9465237D01*
X14100247Y-9464478D01*
X14100122Y-9463689D01*
X14101174Y-9461623D01*
X14101891Y-9459418D01*
X14102899Y-9458238D01*
X14110500Y-9450637D01*
X14115951Y-9447859D01*
X14121994Y-9448816D01*
X14124500Y-9450637D01*
X14133158Y-9459295D01*
X14145450Y-9467508D01*
X14159109Y-9473166D01*
X14173608Y-9476050D01*
X14173608Y-9476050D01*
X14188392Y-9476050D01*
X14188392Y-9476050D01*
X14202891Y-9473166D01*
X14216549Y-9467508D01*
X14228842Y-9459295D01*
X14237500Y-9450637D01*
X14242951Y-9447859D01*
X14248994Y-9448816D01*
X14251500Y-9450637D01*
X14260158Y-9459295D01*
X14272450Y-9467508D01*
X14286109Y-9473166D01*
X14300608Y-9476050D01*
X14300608Y-9476050D01*
X14315392Y-9476050D01*
X14315392Y-9476050D01*
X14329891Y-9473166D01*
X14343549Y-9467508D01*
X14355842Y-9459295D01*
X14364500Y-9450637D01*
X14369951Y-9447859D01*
X14375994Y-9448816D01*
X14378500Y-9450637D01*
X14387158Y-9459295D01*
X14399450Y-9467508D01*
X14413109Y-9473166D01*
X14427608Y-9476050D01*
X14427608Y-9476050D01*
X14442392Y-9476050D01*
X14442392Y-9476050D01*
X14456891Y-9473166D01*
X14470549Y-9467508D01*
X14482842Y-9459295D01*
X14491500Y-9450637D01*
X14496951Y-9447859D01*
X14502994Y-9448816D01*
X14505500Y-9450637D01*
X14514158Y-9459295D01*
X14526450Y-9467508D01*
X14540109Y-9473166D01*
X14554608Y-9476050D01*
X14554608Y-9476050D01*
X14569392Y-9476050D01*
X14569392Y-9476050D01*
X14583891Y-9473166D01*
X14597549Y-9467508D01*
X14609842Y-9459295D01*
X14618500Y-9450637D01*
X14623951Y-9447859D01*
X14629994Y-9448816D01*
X14632500Y-9450637D01*
X14641158Y-9459295D01*
X14653450Y-9467508D01*
X14667109Y-9473166D01*
X14681608Y-9476050D01*
X14681608Y-9476050D01*
X14696392Y-9476050D01*
X14696392Y-9476050D01*
X14710891Y-9473166D01*
X14724549Y-9467508D01*
X14736842Y-9459295D01*
X14745500Y-9450637D01*
X14750951Y-9447859D01*
X14756994Y-9448816D01*
X14759500Y-9450637D01*
X14768158Y-9459295D01*
X14780450Y-9467508D01*
X14794109Y-9473166D01*
X14808608Y-9476050D01*
X14808608Y-9476050D01*
X14823392Y-9476050D01*
X14823392Y-9476050D01*
X14837891Y-9473166D01*
X14851549Y-9467508D01*
X14863842Y-9459295D01*
X14872500Y-9450637D01*
X14877951Y-9447859D01*
X14883994Y-9448816D01*
X14886500Y-9450637D01*
X14895158Y-9459295D01*
X14907450Y-9467508D01*
X14921109Y-9473166D01*
X14935608Y-9476050D01*
X14935608Y-9476050D01*
X14950392Y-9476050D01*
X14950392Y-9476050D01*
X14964891Y-9473166D01*
X14978549Y-9467508D01*
X14990842Y-9459295D01*
X14999500Y-9450637D01*
X15004951Y-9447859D01*
X15010994Y-9448816D01*
X15013500Y-9450637D01*
X15022158Y-9459295D01*
X15034450Y-9467508D01*
X15048109Y-9473166D01*
X15062608Y-9476050D01*
X15062608Y-9476050D01*
X15077392Y-9476050D01*
X15077392Y-9476050D01*
X15091891Y-9473166D01*
X15105549Y-9467508D01*
X15117842Y-9459295D01*
X15126500Y-9450637D01*
X15131951Y-9447859D01*
X15137994Y-9448816D01*
X15140500Y-9450637D01*
X15149158Y-9459295D01*
X15161450Y-9467508D01*
X15175109Y-9473166D01*
X15189608Y-9476050D01*
X15189608Y-9476050D01*
X15204392Y-9476050D01*
X15204392Y-9476050D01*
X15218891Y-9473166D01*
X15232549Y-9467508D01*
X15244842Y-9459295D01*
X15253500Y-9450637D01*
X15258951Y-9447859D01*
X15264994Y-9448816D01*
X15267500Y-9450637D01*
X15276158Y-9459295D01*
X15288450Y-9467508D01*
X15302109Y-9473166D01*
X15316608Y-9476050D01*
X15316608Y-9476050D01*
X15331392Y-9476050D01*
X15331392Y-9476050D01*
X15345891Y-9473166D01*
X15355782Y-9469069D01*
X16684950Y-9469069D01*
X16684950Y-9480931D01*
X16686290Y-9485931D01*
X16688020Y-9492389D01*
X16693951Y-9502661D01*
X16693951Y-9502661D01*
X16693951Y-9502661D01*
X16702339Y-9511049D01*
X16702339Y-9511049D01*
X16702339Y-9511049D01*
X16712611Y-9516980D01*
X16712611Y-9516980D01*
X16712611Y-9516980D01*
X16724069Y-9520050D01*
X16724069Y-9520050D01*
X16735931Y-9520050D01*
X16735931Y-9520050D01*
X16747389Y-9516980D01*
X16747389Y-9516980D01*
X16747389Y-9516980D01*
X16757661Y-9511049D01*
X16757661Y-9511049D01*
X16757661Y-9511049D01*
X16766049Y-9502661D01*
X16771980Y-9492389D01*
X16775050Y-9480931D01*
X16775050Y-9469069D01*
X16771980Y-9457611D01*
X16771980Y-9457611D01*
X16771980Y-9457611D01*
X16766049Y-9447339D01*
X16766049Y-9447339D01*
X16766049Y-9447339D01*
X16757661Y-9438951D01*
X16757661Y-9438951D01*
X16757661Y-9438951D01*
X16747389Y-9433020D01*
X16747389Y-9433020D01*
X16746035Y-9432657D01*
X16735931Y-9429950D01*
X16724069Y-9429950D01*
X16717057Y-9431829D01*
X16712611Y-9433020D01*
X16702339Y-9438951D01*
X16693951Y-9447339D01*
X16688020Y-9457611D01*
X16686680Y-9462611D01*
X16684950Y-9469069D01*
X15355782Y-9469069D01*
X15359549Y-9467508D01*
X15371842Y-9459295D01*
X15382295Y-9448842D01*
X15390508Y-9436550D01*
X15396166Y-9422891D01*
X15399050Y-9408392D01*
X15399050Y-9393608D01*
X15396166Y-9379109D01*
X15390508Y-9365451D01*
X15390508Y-9365450D01*
X15390508Y-9365450D01*
X15388427Y-9362335D01*
X15386766Y-9356446D01*
X15388883Y-9350706D01*
X15389657Y-9349835D01*
X15401714Y-9337778D01*
X15412663Y-9321391D01*
X15420205Y-9303184D01*
X15424050Y-9283854D01*
X15424050Y-9264146D01*
X15420205Y-9244817D01*
X15412663Y-9226609D01*
X15401714Y-9210222D01*
X15387778Y-9196286D01*
X15376829Y-9188970D01*
X15371391Y-9185337D01*
X15353183Y-9177795D01*
X15333854Y-9173950D01*
X15333854Y-9173950D01*
X15314146Y-9173950D01*
X15314146Y-9173950D01*
X15294816Y-9177795D01*
X15294816Y-9177795D01*
X15276609Y-9185337D01*
X15260222Y-9196286D01*
X15260221Y-9196286D01*
X15246286Y-9210221D01*
X15246286Y-9210222D01*
X15235337Y-9226609D01*
X15227795Y-9244816D01*
X15227795Y-9244817D01*
X15223950Y-9264146D01*
X15223950Y-9283854D01*
X15227795Y-9303183D01*
X15227795Y-9303184D01*
X15233318Y-9316517D01*
X15233798Y-9322617D01*
X15230601Y-9327834D01*
X15224948Y-9330175D01*
X15220383Y-9329452D01*
X15218891Y-9328834D01*
X15204392Y-9325950D01*
X15189608Y-9325950D01*
X15189608Y-9325950D01*
X15175109Y-9328834D01*
X15173617Y-9329452D01*
X15167517Y-9329932D01*
X15162300Y-9326735D01*
X15159959Y-9321082D01*
X15160682Y-9316517D01*
X15161788Y-9313848D01*
X15166205Y-9303184D01*
X15170050Y-9283854D01*
X15170050Y-9264146D01*
X15166205Y-9244817D01*
X15158663Y-9226609D01*
X15147714Y-9210222D01*
X15133778Y-9196286D01*
X15122829Y-9188970D01*
X15117391Y-9185337D01*
X15099183Y-9177795D01*
X15079854Y-9173950D01*
X15079854Y-9173950D01*
X15060146Y-9173950D01*
X15060146Y-9173950D01*
X15040816Y-9177795D01*
X15040816Y-9177795D01*
X15022609Y-9185337D01*
X15006222Y-9196286D01*
X15006221Y-9196286D01*
X14992286Y-9210221D01*
X14992286Y-9210222D01*
X14981337Y-9226609D01*
X14973795Y-9244816D01*
X14973795Y-9244817D01*
X14969950Y-9264146D01*
X14969950Y-9283854D01*
X14973795Y-9303183D01*
X14973795Y-9303184D01*
X14979318Y-9316517D01*
X14979798Y-9322617D01*
X14976601Y-9327834D01*
X14970948Y-9330175D01*
X14966383Y-9329452D01*
X14964891Y-9328834D01*
X14950392Y-9325950D01*
X14935608Y-9325950D01*
X14935608Y-9325950D01*
X14921109Y-9328834D01*
X14919617Y-9329452D01*
X14913517Y-9329932D01*
X14908300Y-9326735D01*
X14905959Y-9321082D01*
X14906682Y-9316517D01*
X14907788Y-9313848D01*
X14912205Y-9303184D01*
X14916050Y-9283854D01*
X14916050Y-9264146D01*
X14912205Y-9244817D01*
X14904663Y-9226609D01*
X14893714Y-9210222D01*
X14879778Y-9196286D01*
X14863391Y-9185337D01*
X14863391Y-9185337D01*
X14847811Y-9178883D01*
X14843159Y-9174910D01*
X14841730Y-9168960D01*
X14842037Y-9167175D01*
X14845050Y-9155931D01*
X14845050Y-9144069D01*
X14841980Y-9132611D01*
X14841980Y-9132611D01*
X14841980Y-9132611D01*
X14836049Y-9122339D01*
X14836049Y-9122339D01*
X14836049Y-9122339D01*
X14827661Y-9113951D01*
X14827661Y-9113951D01*
X14827661Y-9113951D01*
X14817389Y-9108020D01*
X14817389Y-9108020D01*
X14816035Y-9107657D01*
X14805931Y-9104950D01*
X14794069Y-9104950D01*
X14787057Y-9106829D01*
X14782611Y-9108020D01*
X14772339Y-9113951D01*
X14763951Y-9122339D01*
X14758020Y-9132611D01*
X14758020Y-9132611D01*
X14754950Y-9144069D01*
X14754950Y-9155931D01*
X14756778Y-9162752D01*
X14758020Y-9167389D01*
X14763809Y-9177416D01*
X14765081Y-9183401D01*
X14762593Y-9188990D01*
X14760736Y-9190597D01*
X14752222Y-9196286D01*
X14752221Y-9196286D01*
X14738286Y-9210221D01*
X14738286Y-9210222D01*
X14727337Y-9226609D01*
X14719795Y-9244816D01*
X14719795Y-9244817D01*
X14715950Y-9264146D01*
X14715950Y-9283854D01*
X14719795Y-9303183D01*
X14719795Y-9303184D01*
X14725318Y-9316517D01*
X14725798Y-9322617D01*
X14722601Y-9327834D01*
X14716948Y-9330175D01*
X14712383Y-9329452D01*
X14710891Y-9328834D01*
X14696392Y-9325950D01*
X14681608Y-9325950D01*
X14681608Y-9325950D01*
X14667109Y-9328834D01*
X14665617Y-9329452D01*
X14659517Y-9329932D01*
X14654300Y-9326735D01*
X14651959Y-9321082D01*
X14652682Y-9316517D01*
X14653788Y-9313848D01*
X14658205Y-9303184D01*
X14662050Y-9283854D01*
X14662050Y-9264146D01*
X14658205Y-9244817D01*
X14650663Y-9226609D01*
X14639714Y-9210222D01*
X14625778Y-9196286D01*
X14614829Y-9188970D01*
X14609391Y-9185337D01*
X14591183Y-9177795D01*
X14571854Y-9173950D01*
X14571854Y-9173950D01*
X14552146Y-9173950D01*
X14552146Y-9173950D01*
X14532816Y-9177795D01*
X14532816Y-9177795D01*
X14514609Y-9185337D01*
X14498222Y-9196286D01*
X14498221Y-9196286D01*
X14484286Y-9210221D01*
X14484286Y-9210222D01*
X14473337Y-9226609D01*
X14465795Y-9244816D01*
X14465795Y-9244817D01*
X14461950Y-9264146D01*
X14461950Y-9283854D01*
X14465795Y-9303183D01*
X14465795Y-9303184D01*
X14471318Y-9316517D01*
X14471798Y-9322617D01*
X14468601Y-9327834D01*
X14462948Y-9330175D01*
X14458383Y-9329452D01*
X14456891Y-9328834D01*
X14442392Y-9325950D01*
X14427608Y-9325950D01*
X14427608Y-9325950D01*
X14413109Y-9328834D01*
X14411617Y-9329452D01*
X14405517Y-9329932D01*
X14400300Y-9326735D01*
X14397959Y-9321082D01*
X14398682Y-9316517D01*
X14399788Y-9313848D01*
X14404205Y-9303184D01*
X14408050Y-9283854D01*
X14408050Y-9264146D01*
X14404205Y-9244817D01*
X14396663Y-9226609D01*
X14385714Y-9210222D01*
X14371778Y-9196286D01*
X14360829Y-9188970D01*
X14355391Y-9185337D01*
X14337183Y-9177795D01*
X14317854Y-9173950D01*
X14317854Y-9173950D01*
X14298146Y-9173950D01*
X14298146Y-9173950D01*
X14278816Y-9177795D01*
X14278816Y-9177795D01*
X14260609Y-9185337D01*
X14244222Y-9196286D01*
X14244221Y-9196286D01*
X14230286Y-9210221D01*
X14230286Y-9210222D01*
X14219337Y-9226609D01*
X14211795Y-9244816D01*
X14211795Y-9244817D01*
X14207950Y-9264146D01*
X14207950Y-9283854D01*
X14211795Y-9303183D01*
X14211795Y-9303184D01*
X14217318Y-9316517D01*
X14217798Y-9322617D01*
X14214601Y-9327834D01*
X14208948Y-9330175D01*
X14204383Y-9329452D01*
X14202891Y-9328834D01*
X14188392Y-9325950D01*
X14173608Y-9325950D01*
X14173608Y-9325950D01*
X14159109Y-9328834D01*
X14157617Y-9329452D01*
X14151517Y-9329932D01*
X14146300Y-9326735D01*
X14143959Y-9321082D01*
X14144682Y-9316517D01*
X14145788Y-9313848D01*
X14150205Y-9303184D01*
X14154050Y-9283854D01*
X14154050Y-9264146D01*
X14150205Y-9244817D01*
X14142663Y-9226609D01*
X14131714Y-9210222D01*
X14117778Y-9196286D01*
X14106859Y-9188990D01*
X14104400Y-9187347D01*
X14100612Y-9182542D01*
X14100000Y-9179115D01*
X14100000Y-8994069D01*
X14754950Y-8994069D01*
X14754950Y-9005931D01*
X14755510Y-9008020D01*
X14758020Y-9017389D01*
X14763951Y-9027661D01*
X14763951Y-9027661D01*
X14763951Y-9027661D01*
X14772339Y-9036049D01*
X14772339Y-9036049D01*
X14772339Y-9036049D01*
X14782611Y-9041980D01*
X14782611Y-9041980D01*
X14782611Y-9041980D01*
X14794069Y-9045050D01*
X14794069Y-9045050D01*
X14805931Y-9045050D01*
X14805931Y-9045050D01*
X14817389Y-9041980D01*
X14817389Y-9041980D01*
X14817389Y-9041980D01*
X14827661Y-9036049D01*
X14827661Y-9036049D01*
X14827661Y-9036049D01*
X14836049Y-9027661D01*
X14836049Y-9027661D01*
X14841980Y-9017389D01*
X14841980Y-9017389D01*
X14841980Y-9017389D01*
X14845050Y-9005931D01*
X14845050Y-8994069D01*
X14841980Y-8982611D01*
X14841980Y-8982611D01*
X14841980Y-8982611D01*
X14836049Y-8972339D01*
X14836049Y-8972339D01*
X14836049Y-8972339D01*
X14827661Y-8963951D01*
X14827661Y-8963951D01*
X14827661Y-8963951D01*
X14817389Y-8958020D01*
X14817389Y-8958020D01*
X14816035Y-8957657D01*
X14805931Y-8954950D01*
X14794069Y-8954950D01*
X14790408Y-8955931D01*
X14782611Y-8958020D01*
X14772339Y-8963951D01*
X14763951Y-8972339D01*
X14758020Y-8982611D01*
X14758020Y-8982611D01*
X14754950Y-8994069D01*
X14100000Y-8994069D01*
X14100000Y-8894069D01*
X15104950Y-8894069D01*
X15104950Y-8905931D01*
X15105510Y-8908020D01*
X15108020Y-8917389D01*
X15113951Y-8927661D01*
X15113951Y-8927661D01*
X15113951Y-8927661D01*
X15122339Y-8936049D01*
X15122339Y-8936049D01*
X15122339Y-8936049D01*
X15132611Y-8941980D01*
X15132611Y-8941980D01*
X15132611Y-8941980D01*
X15144069Y-8945050D01*
X15144069Y-8945050D01*
X15155931Y-8945050D01*
X15155931Y-8945050D01*
X15167389Y-8941980D01*
X15167389Y-8941980D01*
X15167389Y-8941980D01*
X15177661Y-8936049D01*
X15177661Y-8936049D01*
X15177661Y-8936049D01*
X15186049Y-8927661D01*
X15186049Y-8927661D01*
X15191980Y-8917389D01*
X15191980Y-8917389D01*
X15191980Y-8917389D01*
X15195050Y-8905931D01*
X15195050Y-8894069D01*
X15191980Y-8882611D01*
X15191980Y-8882611D01*
X15191980Y-8882611D01*
X15186049Y-8872339D01*
X15186049Y-8872339D01*
X15186049Y-8872339D01*
X15177661Y-8863951D01*
X15177661Y-8863951D01*
X15177661Y-8863951D01*
X15167389Y-8858020D01*
X15167389Y-8858020D01*
X15164915Y-8857357D01*
X15155931Y-8854950D01*
X15144069Y-8854950D01*
X15137057Y-8856829D01*
X15132611Y-8858020D01*
X15122339Y-8863951D01*
X15113951Y-8872339D01*
X15108020Y-8882611D01*
X15108020Y-8882611D01*
X15104950Y-8894069D01*
X14100000Y-8894069D01*
X14100000Y-8794069D01*
X15404950Y-8794069D01*
X15404950Y-8805931D01*
X15405510Y-8808020D01*
X15408020Y-8817389D01*
X15413951Y-8827661D01*
X15413951Y-8827661D01*
X15413951Y-8827661D01*
X15422339Y-8836049D01*
X15422339Y-8836049D01*
X15431653Y-8841426D01*
X15435747Y-8845973D01*
X15436386Y-8852058D01*
X15433327Y-8857357D01*
X15431653Y-8858574D01*
X15422339Y-8863951D01*
X15413951Y-8872339D01*
X15408020Y-8882611D01*
X15408020Y-8882611D01*
X15404950Y-8894069D01*
X15404950Y-8905931D01*
X15405510Y-8908020D01*
X15408020Y-8917389D01*
X15413951Y-8927661D01*
X15413951Y-8927661D01*
X15413951Y-8927661D01*
X15422339Y-8936049D01*
X15422339Y-8936049D01*
X15422339Y-8936049D01*
X15432611Y-8941980D01*
X15432611Y-8941980D01*
X15432611Y-8941980D01*
X15444069Y-8945050D01*
X15444069Y-8945050D01*
X15455931Y-8945050D01*
X15455931Y-8945050D01*
X15467389Y-8941980D01*
X15467389Y-8941980D01*
X15467389Y-8941980D01*
X15477661Y-8936049D01*
X15477661Y-8936049D01*
X15477661Y-8936049D01*
X15486049Y-8927661D01*
X15486049Y-8927661D01*
X15491980Y-8917389D01*
X15491980Y-8917389D01*
X15491980Y-8917389D01*
X15495050Y-8905931D01*
X15495050Y-8894069D01*
X15491980Y-8882611D01*
X15491980Y-8882611D01*
X15491980Y-8882611D01*
X15486049Y-8872339D01*
X15486049Y-8872339D01*
X15486049Y-8872339D01*
X15477661Y-8863951D01*
X15477661Y-8863951D01*
X15477661Y-8863951D01*
X15468347Y-8858574D01*
X15464253Y-8854027D01*
X15463614Y-8847942D01*
X15466673Y-8842643D01*
X15468347Y-8841426D01*
X15477661Y-8836049D01*
X15477661Y-8836049D01*
X15477661Y-8836049D01*
X15486049Y-8827661D01*
X15486049Y-8827661D01*
X15491980Y-8817389D01*
X15491980Y-8817389D01*
X15491980Y-8817389D01*
X15495050Y-8805931D01*
X15495050Y-8794069D01*
X15491980Y-8782611D01*
X15491980Y-8782611D01*
X15491980Y-8782611D01*
X15486049Y-8772339D01*
X15486049Y-8772339D01*
X15486049Y-8772339D01*
X15477661Y-8763951D01*
X15477661Y-8763951D01*
X15477661Y-8763951D01*
X15467389Y-8758020D01*
X15467389Y-8758020D01*
X15463506Y-8756980D01*
X15455931Y-8754950D01*
X15444069Y-8754950D01*
X15437057Y-8756829D01*
X15432611Y-8758020D01*
X15422339Y-8763951D01*
X15413951Y-8772339D01*
X15408020Y-8782611D01*
X15408020Y-8782611D01*
X15404950Y-8794069D01*
X14100000Y-8794069D01*
X14100000Y-8709069D01*
X14119950Y-8709069D01*
X14119950Y-8720931D01*
X14121753Y-8727661D01*
X14123020Y-8732389D01*
X14128951Y-8742661D01*
X14128951Y-8742661D01*
X14128951Y-8742661D01*
X14137339Y-8751049D01*
X14137339Y-8751049D01*
X14137339Y-8751049D01*
X14147611Y-8756980D01*
X14147611Y-8756980D01*
X14147611Y-8756980D01*
X14159069Y-8760050D01*
X14159069Y-8760050D01*
X14170931Y-8760050D01*
X14170931Y-8760050D01*
X14182389Y-8756980D01*
X14182389Y-8756980D01*
X14182389Y-8756980D01*
X14192661Y-8751049D01*
X14192661Y-8751049D01*
X14192661Y-8751049D01*
X14201049Y-8742661D01*
X14206980Y-8732389D01*
X14210050Y-8720931D01*
X14210050Y-8709069D01*
X14206980Y-8697611D01*
X14206980Y-8697611D01*
X14206980Y-8697611D01*
X14201049Y-8687339D01*
X14201049Y-8687339D01*
X14201049Y-8687339D01*
X14192661Y-8678951D01*
X14192661Y-8678951D01*
X14192661Y-8678951D01*
X14182389Y-8673020D01*
X14182389Y-8673020D01*
X14179846Y-8672339D01*
X14170931Y-8669950D01*
X14159069Y-8669950D01*
X14152057Y-8671829D01*
X14147611Y-8673020D01*
X14137339Y-8678951D01*
X14128951Y-8687339D01*
X14123020Y-8697611D01*
X14123020Y-8697611D01*
X14119950Y-8709069D01*
X14100000Y-8709069D01*
X14100000Y-8584069D01*
X14394950Y-8584069D01*
X14394950Y-8595931D01*
X14397131Y-8604069D01*
X14398020Y-8607389D01*
X14403951Y-8617661D01*
X14403951Y-8617661D01*
X14403951Y-8617661D01*
X14412339Y-8626049D01*
X14412339Y-8626049D01*
X14412339Y-8626049D01*
X14422611Y-8631980D01*
X14422611Y-8631980D01*
X14422611Y-8631980D01*
X14434069Y-8635050D01*
X14434069Y-8635050D01*
X14445931Y-8635050D01*
X14445931Y-8635050D01*
X14457389Y-8631980D01*
X14457389Y-8631980D01*
X14457389Y-8631980D01*
X14467661Y-8626049D01*
X14467661Y-8626049D01*
X14467661Y-8626049D01*
X14476049Y-8617661D01*
X14476049Y-8617661D01*
X14481980Y-8607389D01*
X14481980Y-8607389D01*
X14481980Y-8607389D01*
X14485050Y-8595931D01*
X14485050Y-8584069D01*
X14481980Y-8572611D01*
X14481980Y-8572611D01*
X14481980Y-8572611D01*
X14476049Y-8562339D01*
X14476049Y-8562339D01*
X14476049Y-8562339D01*
X14467661Y-8553951D01*
X14467661Y-8553951D01*
X14467661Y-8553951D01*
X14457389Y-8548020D01*
X14457389Y-8548020D01*
X14456035Y-8547657D01*
X14445931Y-8544950D01*
X14434069Y-8544950D01*
X14427057Y-8546829D01*
X14422611Y-8548020D01*
X14412339Y-8553951D01*
X14403951Y-8562339D01*
X14398020Y-8572611D01*
X14398020Y-8572611D01*
X14394950Y-8584069D01*
X14100000Y-8584069D01*
X14100000Y-8469069D01*
X14394950Y-8469069D01*
X14394950Y-8480931D01*
X14395791Y-8484069D01*
X14398020Y-8492389D01*
X14403951Y-8502661D01*
X14403951Y-8502661D01*
X14403951Y-8502661D01*
X14412339Y-8511049D01*
X14412339Y-8511049D01*
X14412339Y-8511049D01*
X14422611Y-8516980D01*
X14422611Y-8516980D01*
X14422611Y-8516980D01*
X14434069Y-8520050D01*
X14434069Y-8520050D01*
X14445931Y-8520050D01*
X14445931Y-8520050D01*
X14457389Y-8516980D01*
X14457389Y-8516980D01*
X14457389Y-8516980D01*
X14467661Y-8511049D01*
X14467661Y-8511049D01*
X14467661Y-8511049D01*
X14476049Y-8502661D01*
X14476442Y-8501980D01*
X14481980Y-8492389D01*
X14481980Y-8492389D01*
X14481980Y-8492389D01*
X14485050Y-8480931D01*
X14485050Y-8469069D01*
X14481980Y-8457611D01*
X14481980Y-8457611D01*
X14481980Y-8457611D01*
X14476049Y-8447339D01*
X14476049Y-8447339D01*
X14476049Y-8447339D01*
X14467661Y-8438951D01*
X14467661Y-8438951D01*
X14467661Y-8438951D01*
X14457389Y-8433020D01*
X14457389Y-8433020D01*
X14453506Y-8431980D01*
X14445931Y-8429950D01*
X14434069Y-8429950D01*
X14427057Y-8431829D01*
X14422611Y-8433020D01*
X14412339Y-8438951D01*
X14403951Y-8447339D01*
X14398020Y-8457611D01*
X14398020Y-8457611D01*
X14394950Y-8469069D01*
X14100000Y-8469069D01*
X14100000Y-8409069D01*
X14899950Y-8409069D01*
X14899950Y-8420931D01*
X14900759Y-8423951D01*
X14903020Y-8432389D01*
X14908951Y-8442661D01*
X14908951Y-8442661D01*
X14908951Y-8442661D01*
X14917339Y-8451049D01*
X14917339Y-8451049D01*
X14917339Y-8451049D01*
X14927611Y-8456980D01*
X14927611Y-8456980D01*
X14927611Y-8456980D01*
X14939069Y-8460050D01*
X14939069Y-8460050D01*
X14950931Y-8460050D01*
X14950931Y-8460050D01*
X14962389Y-8456980D01*
X14962389Y-8456980D01*
X14962389Y-8456980D01*
X14972661Y-8451049D01*
X14972661Y-8451049D01*
X14972661Y-8451049D01*
X14981049Y-8442661D01*
X14983191Y-8438951D01*
X14986980Y-8432389D01*
X14986980Y-8432389D01*
X14986980Y-8432389D01*
X14990050Y-8420931D01*
X14990050Y-8409069D01*
X14986980Y-8397611D01*
X14986980Y-8397611D01*
X14986980Y-8397611D01*
X14981049Y-8387339D01*
X14981049Y-8387339D01*
X14981049Y-8387339D01*
X14972661Y-8378951D01*
X14972661Y-8378951D01*
X14972661Y-8378951D01*
X14962389Y-8373020D01*
X14962389Y-8373020D01*
X14959846Y-8372339D01*
X14950931Y-8369950D01*
X14939069Y-8369950D01*
X14932057Y-8371829D01*
X14927611Y-8373020D01*
X14917339Y-8378951D01*
X14908951Y-8387339D01*
X14903020Y-8397611D01*
X14901563Y-8403050D01*
X14899950Y-8409069D01*
X14100000Y-8409069D01*
X14100000Y-8144069D01*
X14459950Y-8144069D01*
X14459950Y-8155931D01*
X14462433Y-8165198D01*
X14463020Y-8167389D01*
X14468951Y-8177661D01*
X14468951Y-8177661D01*
X14468951Y-8177661D01*
X14477339Y-8186049D01*
X14477339Y-8186049D01*
X14477339Y-8186049D01*
X14487611Y-8191980D01*
X14487611Y-8191980D01*
X14487611Y-8191980D01*
X14499069Y-8195050D01*
X14499069Y-8195050D01*
X14510931Y-8195050D01*
X14510931Y-8195050D01*
X14522389Y-8191980D01*
X14522389Y-8191980D01*
X14522389Y-8191980D01*
X14532661Y-8186049D01*
X14532661Y-8186049D01*
X14532661Y-8186049D01*
X14541049Y-8177661D01*
X14543936Y-8172661D01*
X14546980Y-8167389D01*
X14546980Y-8167389D01*
X14546980Y-8167389D01*
X14550050Y-8155931D01*
X14550050Y-8144069D01*
X14546980Y-8132611D01*
X14546980Y-8132611D01*
X14546980Y-8132611D01*
X14541049Y-8122339D01*
X14541049Y-8122339D01*
X14541049Y-8122339D01*
X14532661Y-8113951D01*
X14532661Y-8113951D01*
X14532661Y-8113951D01*
X14522389Y-8108020D01*
X14522389Y-8108020D01*
X14521035Y-8107657D01*
X14510931Y-8104950D01*
X14499069Y-8104950D01*
X14492057Y-8106829D01*
X14487611Y-8108020D01*
X14477339Y-8113951D01*
X14468951Y-8122339D01*
X14463020Y-8132611D01*
X14463020Y-8132611D01*
X14459950Y-8144069D01*
X14100000Y-8144069D01*
X14100000Y-7844884D01*
X14101891Y-7839065D01*
X14104400Y-7836653D01*
X14117778Y-7827714D01*
X14131714Y-7813778D01*
X14142663Y-7797391D01*
X14150205Y-7779183D01*
X14154050Y-7759854D01*
X14154050Y-7740146D01*
X14150205Y-7720816D01*
X14142663Y-7702609D01*
X14131714Y-7686222D01*
X14119658Y-7674166D01*
X14116880Y-7668714D01*
X14117837Y-7662671D01*
X14118426Y-7661666D01*
X14120508Y-7658549D01*
X14126166Y-7644891D01*
X14129050Y-7630392D01*
X14129050Y-7615608D01*
X14126166Y-7601109D01*
X14120508Y-7587450D01*
X14112295Y-7575158D01*
X14102899Y-7565763D01*
X14100122Y-7560311D01*
X14100000Y-7558763D01*
X14100000Y-7184069D01*
X14199950Y-7184069D01*
X14199950Y-7195931D01*
X14200901Y-7199480D01*
X14203020Y-7207389D01*
X14208951Y-7217661D01*
X14208951Y-7217661D01*
X14208951Y-7217661D01*
X14217339Y-7226049D01*
X14217339Y-7226049D01*
X14217339Y-7226049D01*
X14227611Y-7231980D01*
X14227611Y-7231980D01*
X14227611Y-7231980D01*
X14239069Y-7235050D01*
X14239069Y-7235050D01*
X14250931Y-7235050D01*
X14250931Y-7235050D01*
X14262389Y-7231980D01*
X14262389Y-7231980D01*
X14262389Y-7231980D01*
X14272661Y-7226049D01*
X14272661Y-7226049D01*
X14272661Y-7226049D01*
X14281049Y-7217661D01*
X14286980Y-7207389D01*
X14290050Y-7195931D01*
X14290050Y-7184069D01*
X14286980Y-7172611D01*
X14286980Y-7172611D01*
X14286980Y-7172611D01*
X14281049Y-7162339D01*
X14281049Y-7162339D01*
X14281049Y-7162339D01*
X14272661Y-7153951D01*
X14272661Y-7153951D01*
X14272661Y-7153951D01*
X14262389Y-7148020D01*
X14262389Y-7148020D01*
X14261035Y-7147657D01*
X14250931Y-7144950D01*
X14239069Y-7144950D01*
X14232057Y-7146829D01*
X14227611Y-7148020D01*
X14217339Y-7153951D01*
X14208951Y-7162339D01*
X14203020Y-7172611D01*
X14203020Y-7172611D01*
X14199950Y-7184069D01*
X14100000Y-7184069D01*
X14100000Y-6783124D01*
X14101891Y-6777305D01*
X14106841Y-6773709D01*
X14112959Y-6773709D01*
X14117909Y-6777305D01*
X14118474Y-6778174D01*
X14123951Y-6787661D01*
X14123951Y-6787661D01*
X14123951Y-6787661D01*
X14132339Y-6796049D01*
X14132339Y-6796049D01*
X14132339Y-6796049D01*
X14142611Y-6801980D01*
X14142611Y-6801980D01*
X14142611Y-6801980D01*
X14154069Y-6805050D01*
X14154069Y-6805050D01*
X14165931Y-6805050D01*
X14165931Y-6805050D01*
X14177389Y-6801980D01*
X14177389Y-6801980D01*
X14177389Y-6801980D01*
X14187661Y-6796049D01*
X14187661Y-6796049D01*
X14187661Y-6796049D01*
X14196049Y-6787661D01*
X14198668Y-6783124D01*
X14201980Y-6777389D01*
X14201980Y-6777389D01*
X14201980Y-6777389D01*
X14205050Y-6765931D01*
X14205050Y-6754069D01*
X14244950Y-6754069D01*
X14244950Y-6765931D01*
X14247034Y-6773709D01*
X14248020Y-6777389D01*
X14253951Y-6787661D01*
X14253951Y-6787661D01*
X14253951Y-6787661D01*
X14262339Y-6796049D01*
X14262339Y-6796049D01*
X14262339Y-6796049D01*
X14272611Y-6801980D01*
X14272611Y-6801980D01*
X14272611Y-6801980D01*
X14284069Y-6805050D01*
X14284069Y-6805050D01*
X14295931Y-6805050D01*
X14295931Y-6805050D01*
X14307389Y-6801980D01*
X14307389Y-6801980D01*
X14307389Y-6801980D01*
X14317661Y-6796049D01*
X14317661Y-6796049D01*
X14317661Y-6796049D01*
X14326049Y-6787661D01*
X14328668Y-6783124D01*
X14331980Y-6777389D01*
X14331980Y-6777389D01*
X14331980Y-6777389D01*
X14335050Y-6765931D01*
X14335050Y-6754069D01*
X14331980Y-6742611D01*
X14331980Y-6742611D01*
X14331980Y-6742611D01*
X14326049Y-6732339D01*
X14326049Y-6732339D01*
X14326049Y-6732339D01*
X14317661Y-6723951D01*
X14317661Y-6723951D01*
X14317661Y-6723951D01*
X14307389Y-6718020D01*
X14307389Y-6718020D01*
X14306035Y-6717657D01*
X14295931Y-6714950D01*
X14284069Y-6714950D01*
X14277057Y-6716829D01*
X14272611Y-6718020D01*
X14262339Y-6723951D01*
X14253951Y-6732339D01*
X14248020Y-6742611D01*
X14246740Y-6747389D01*
X14244950Y-6754069D01*
X14205050Y-6754069D01*
X14201980Y-6742611D01*
X14201980Y-6742611D01*
X14201980Y-6742611D01*
X14196049Y-6732339D01*
X14196049Y-6732339D01*
X14196049Y-6732339D01*
X14187661Y-6723951D01*
X14187661Y-6723951D01*
X14187661Y-6723951D01*
X14177389Y-6718020D01*
X14177389Y-6718020D01*
X14176035Y-6717657D01*
X14165931Y-6714950D01*
X14154069Y-6714950D01*
X14147057Y-6716829D01*
X14142611Y-6718020D01*
X14132339Y-6723951D01*
X14123951Y-6732339D01*
X14118474Y-6741826D01*
X14113927Y-6745920D01*
X14107842Y-6746559D01*
X14102543Y-6743500D01*
X14100054Y-6737910D01*
X14100000Y-6736876D01*
X14100000Y-6567611D01*
X14101891Y-6561792D01*
X14106841Y-6558195D01*
X14112959Y-6558195D01*
X14116900Y-6560610D01*
X14122339Y-6566049D01*
X14122339Y-6566049D01*
X14122339Y-6566049D01*
X14132611Y-6571980D01*
X14132611Y-6571980D01*
X14132611Y-6571980D01*
X14144069Y-6575050D01*
X14144069Y-6575050D01*
X14155931Y-6575050D01*
X14155931Y-6575050D01*
X14167389Y-6571980D01*
X14167389Y-6571980D01*
X14167389Y-6571980D01*
X14177661Y-6566049D01*
X14177661Y-6566049D01*
X14177661Y-6566049D01*
X14186049Y-6557661D01*
X14191980Y-6547389D01*
X14195050Y-6535931D01*
X14195050Y-6524069D01*
X14234950Y-6524069D01*
X14234950Y-6535931D01*
X14235341Y-6537389D01*
X14238020Y-6547389D01*
X14243951Y-6557661D01*
X14243951Y-6557661D01*
X14243951Y-6557661D01*
X14252339Y-6566049D01*
X14252339Y-6566049D01*
X14252339Y-6566049D01*
X14262611Y-6571980D01*
X14262611Y-6571980D01*
X14262611Y-6571980D01*
X14274069Y-6575050D01*
X14274069Y-6575050D01*
X14285931Y-6575050D01*
X14285931Y-6575050D01*
X14297389Y-6571980D01*
X14297389Y-6571980D01*
X14297389Y-6571980D01*
X14307661Y-6566049D01*
X14307661Y-6566049D01*
X14307661Y-6566049D01*
X14316049Y-6557661D01*
X14321980Y-6547389D01*
X14325050Y-6535931D01*
X14325050Y-6524069D01*
X14321980Y-6512611D01*
X14321980Y-6512611D01*
X14321980Y-6512611D01*
X14316049Y-6502339D01*
X14316049Y-6502339D01*
X14316049Y-6502339D01*
X14307661Y-6493951D01*
X14307661Y-6493951D01*
X14307661Y-6493951D01*
X14297389Y-6488020D01*
X14297389Y-6488020D01*
X14296035Y-6487657D01*
X14285931Y-6484950D01*
X14274069Y-6484950D01*
X14267057Y-6486829D01*
X14262611Y-6488020D01*
X14252339Y-6493951D01*
X14243951Y-6502339D01*
X14238020Y-6512611D01*
X14238020Y-6512611D01*
X14234950Y-6524069D01*
X14195050Y-6524069D01*
X14191980Y-6512611D01*
X14191980Y-6512611D01*
X14191980Y-6512611D01*
X14186049Y-6502339D01*
X14186049Y-6502339D01*
X14186049Y-6502339D01*
X14177661Y-6493951D01*
X14177661Y-6493951D01*
X14177661Y-6493951D01*
X14167389Y-6488020D01*
X14167389Y-6488020D01*
X14166035Y-6487657D01*
X14155931Y-6484950D01*
X14144069Y-6484950D01*
X14137057Y-6486829D01*
X14132611Y-6488020D01*
X14122339Y-6493951D01*
X14122339Y-6493951D01*
X14122339Y-6493951D01*
X14122339Y-6493951D01*
X14116900Y-6499390D01*
X14111449Y-6502167D01*
X14105405Y-6501210D01*
X14101079Y-6496884D01*
X14100000Y-6492389D01*
X14100000Y-6334069D01*
X14167450Y-6334069D01*
X14167450Y-6345931D01*
X14168554Y-6350050D01*
X14170520Y-6357389D01*
X14176451Y-6367661D01*
X14176451Y-6367661D01*
X14176451Y-6367661D01*
X14184839Y-6376049D01*
X14184839Y-6376049D01*
X14184839Y-6376049D01*
X14195111Y-6381980D01*
X14195111Y-6381980D01*
X14195111Y-6381980D01*
X14206569Y-6385050D01*
X14206569Y-6385050D01*
X14218431Y-6385050D01*
X14218431Y-6385050D01*
X14229889Y-6381980D01*
X14229889Y-6381980D01*
X14229889Y-6381980D01*
X14240161Y-6376049D01*
X14240161Y-6376049D01*
X14240161Y-6376049D01*
X14248549Y-6367661D01*
X14248706Y-6367389D01*
X14254479Y-6357389D01*
X14254479Y-6357389D01*
X14254480Y-6357389D01*
X14254480Y-6357388D01*
X14254603Y-6357090D01*
X14254754Y-6356914D01*
X14254804Y-6356827D01*
X14254820Y-6356836D01*
X14258577Y-6352438D01*
X14264526Y-6351009D01*
X14270179Y-6353350D01*
X14272897Y-6357090D01*
X14273020Y-6357389D01*
X14278951Y-6367661D01*
X14278951Y-6367661D01*
X14278951Y-6367661D01*
X14287339Y-6376049D01*
X14287339Y-6376049D01*
X14287339Y-6376049D01*
X14297611Y-6381980D01*
X14297611Y-6381980D01*
X14297611Y-6381980D01*
X14309069Y-6385050D01*
X14309069Y-6385050D01*
X14320931Y-6385050D01*
X14320931Y-6385050D01*
X14332389Y-6381980D01*
X14332389Y-6381980D01*
X14332389Y-6381980D01*
X14342661Y-6376049D01*
X14342661Y-6376049D01*
X14342661Y-6376049D01*
X14351049Y-6367661D01*
X14351049Y-6367661D01*
X14356980Y-6357389D01*
X14356980Y-6357389D01*
X14356980Y-6357389D01*
X14360050Y-6345931D01*
X14360050Y-6334069D01*
X14356980Y-6322611D01*
X14356980Y-6322611D01*
X14356980Y-6322611D01*
X14351049Y-6312339D01*
X14351049Y-6312339D01*
X14351049Y-6312339D01*
X14342661Y-6303951D01*
X14342661Y-6303951D01*
X14342661Y-6303951D01*
X14332389Y-6298020D01*
X14332389Y-6298020D01*
X14331035Y-6297657D01*
X14320931Y-6294950D01*
X14309069Y-6294950D01*
X14302057Y-6296829D01*
X14297611Y-6298020D01*
X14287339Y-6303951D01*
X14278951Y-6312339D01*
X14273020Y-6322611D01*
X14272896Y-6322910D01*
X14272746Y-6323086D01*
X14272696Y-6323173D01*
X14272679Y-6323164D01*
X14268923Y-6327562D01*
X14262973Y-6328991D01*
X14257320Y-6326649D01*
X14254604Y-6322910D01*
X14254480Y-6322611D01*
X14248549Y-6312339D01*
X14248549Y-6312339D01*
X14248549Y-6312339D01*
X14240161Y-6303951D01*
X14240161Y-6303951D01*
X14240161Y-6303951D01*
X14229889Y-6298020D01*
X14229889Y-6298020D01*
X14228535Y-6297657D01*
X14218431Y-6294950D01*
X14206569Y-6294950D01*
X14199557Y-6296829D01*
X14195111Y-6298020D01*
X14184839Y-6303951D01*
X14176451Y-6312339D01*
X14170520Y-6322611D01*
X14170369Y-6323173D01*
X14167450Y-6334069D01*
X14100000Y-6334069D01*
X14100000Y-6097986D01*
X14100048Y-6097016D01*
X14101826Y-6078961D01*
X14102204Y-6077058D01*
X14107329Y-6060163D01*
X14108071Y-6058373D01*
X14116394Y-6042802D01*
X14117471Y-6041190D01*
X14128671Y-6027543D01*
X14130043Y-6026171D01*
X14143690Y-6014971D01*
X14145302Y-6013894D01*
X14160873Y-6005571D01*
X14162663Y-6004829D01*
X14179558Y-5999704D01*
X14181461Y-5999326D01*
X14199516Y-5997548D01*
X14200486Y-5997500D01*
X14349514Y-5997500D01*
X14350484Y-5997548D01*
G37*
%TD.AperFunction*%
%TD*%
%TA.AperFunction,Conductor*%
%TO.N,3V3_PLL_RF*%
G36*
X17304159Y-7771326D02*
G01*
X17306471Y-7772661D01*
X17306471Y-7772661D01*
X17306471Y-7772661D01*
X17306471Y-7772661D01*
X17315386Y-7775050D01*
X17315386Y-7775050D01*
X17324614Y-7775050D01*
X17324614Y-7775050D01*
X17333529Y-7772661D01*
X17333529Y-7772661D01*
X17333529Y-7772661D01*
X17335841Y-7771326D01*
X17340791Y-7770000D01*
X17419701Y-7770000D01*
X17425520Y-7771891D01*
X17429116Y-7776841D01*
X17429116Y-7782959D01*
X17428275Y-7784850D01*
X17427339Y-7786471D01*
X17426396Y-7789987D01*
X17424950Y-7795386D01*
X17424950Y-7804614D01*
X17427339Y-7813529D01*
X17427339Y-7813529D01*
X17430442Y-7818903D01*
X17431953Y-7821521D01*
X17438479Y-7828047D01*
X17446471Y-7832661D01*
X17446998Y-7832802D01*
X17448046Y-7833483D01*
X17449273Y-7833727D01*
X17450550Y-7835109D01*
X17452129Y-7836135D01*
X17452577Y-7837302D01*
X17453426Y-7838220D01*
X17453647Y-7840090D01*
X17454322Y-7841847D01*
X17454145Y-7844296D01*
X17453101Y-7849549D01*
X17451622Y-7853118D01*
X17447307Y-7859576D01*
X17444576Y-7862307D01*
X17443318Y-7863147D01*
X17438118Y-7866622D01*
X17434549Y-7868100D01*
X17428080Y-7869387D01*
X17425956Y-7869810D01*
X17424025Y-7870000D01*
X17302412Y-7870000D01*
X17293455Y-7880151D01*
X17293455Y-7880151D01*
X17270718Y-7905921D01*
X17270718Y-7905921D01*
X17263116Y-7914536D01*
X17263116Y-7914536D01*
X17263213Y-7925979D01*
X17263213Y-7925983D01*
X17267143Y-8385809D01*
X17266807Y-8388456D01*
X17264950Y-8395385D01*
X17264950Y-8395386D01*
X17264950Y-8404614D01*
X17266801Y-8411521D01*
X17267056Y-8412473D01*
X17267393Y-8414951D01*
X17267890Y-8473086D01*
X17267361Y-8475805D01*
X17267507Y-8475844D01*
X17265870Y-8481953D01*
X17264950Y-8485386D01*
X17264950Y-8494614D01*
X17266542Y-8500557D01*
X17267339Y-8503529D01*
X17267430Y-8503750D01*
X17268183Y-8507454D01*
X17268697Y-8567549D01*
X17266856Y-8573384D01*
X17265798Y-8574634D01*
X17261953Y-8578479D01*
X17257339Y-8586471D01*
X17257339Y-8586471D01*
X17257339Y-8586471D01*
X17254950Y-8595386D01*
X17254950Y-8604614D01*
X17257339Y-8613529D01*
X17261953Y-8621521D01*
X17266356Y-8625924D01*
X17269133Y-8631375D01*
X17269255Y-8632840D01*
X17269629Y-8676617D01*
X17267788Y-8682452D01*
X17266730Y-8683702D01*
X17261953Y-8688479D01*
X17261953Y-8688479D01*
X17257339Y-8696471D01*
X17257339Y-8696471D01*
X17257339Y-8696471D01*
X17254950Y-8705386D01*
X17254950Y-8714614D01*
X17256916Y-8721953D01*
X17257339Y-8723529D01*
X17260442Y-8728903D01*
X17261953Y-8731521D01*
X17267304Y-8736872D01*
X17270082Y-8742324D01*
X17270203Y-8743788D01*
X17270561Y-8785685D01*
X17268720Y-8791520D01*
X17267662Y-8792770D01*
X17261953Y-8798479D01*
X17257339Y-8806471D01*
X17257339Y-8806471D01*
X17257339Y-8806471D01*
X17254950Y-8815386D01*
X17254950Y-8824614D01*
X17257339Y-8833529D01*
X17261953Y-8841521D01*
X17268252Y-8847821D01*
X17271030Y-8853272D01*
X17271152Y-8854736D01*
X17274562Y-9253763D01*
X17274386Y-9255707D01*
X17272733Y-9264357D01*
X17271270Y-9267955D01*
X17266967Y-9274470D01*
X17264232Y-9277228D01*
X17257754Y-9281586D01*
X17254170Y-9283080D01*
X17247308Y-9284453D01*
X17245533Y-9284808D01*
X17243591Y-9285000D01*
X17210975Y-9285000D01*
X17209044Y-9284810D01*
X17200451Y-9283101D01*
X17196882Y-9281622D01*
X17195625Y-9280782D01*
X17190424Y-9277307D01*
X17187693Y-9274576D01*
X17183378Y-9268118D01*
X17181899Y-9264549D01*
X17180190Y-9255956D01*
X17180000Y-9254025D01*
X17180000Y-8169801D01*
X17180050Y-8169614D01*
X17180050Y-8160386D01*
X17180000Y-8160199D01*
X17180000Y-7863401D01*
X17180190Y-7861470D01*
X17180567Y-7859576D01*
X17181899Y-7852877D01*
X17183377Y-7849309D01*
X17188245Y-7842023D01*
X17189476Y-7840524D01*
X17250524Y-7779475D01*
X17252024Y-7778245D01*
X17259309Y-7773377D01*
X17262877Y-7771899D01*
X17267361Y-7771008D01*
X17271470Y-7770190D01*
X17273402Y-7770000D01*
X17299209Y-7770000D01*
X17304159Y-7771326D01*
G37*
%TD.AperFunction*%
%TD*%
M02*
