%TF.GenerationSoftware,KiCad,Pcbnew,9.0.0*%
%TF.CreationDate,2025-03-30T18:56:19-05:00*%
%TF.ProjectId,radar-synth,72616461-722d-4737-996e-74682e6b6963,rev?*%
%TF.SameCoordinates,Original*%
%TF.FileFunction,Legend,Bot*%
%TF.FilePolarity,Positive*%
%FSLAX45Y45*%
G04 Gerber Fmt 4.5, Leading zero omitted, Abs format (unit mm)*
G04 Created by KiCad (PCBNEW 9.0.0) date 2025-03-30 18:56:19*
%MOMM*%
%LPD*%
G01*
G04 APERTURE LIST*
%ADD10C,0.160000*%
%ADD11C,0.150000*%
%ADD12C,0.300000*%
%ADD13C,0.120000*%
G04 APERTURE END LIST*
D10*
X14820000Y-7495000D02*
X14820000Y-7545000D01*
X15200000Y-9095000D02*
X15200000Y-9145000D01*
X15075000Y-7495000D02*
X15075000Y-7545000D01*
X15200000Y-7495000D02*
X15200000Y-7545000D01*
X14180000Y-9040000D02*
X14140000Y-9000000D01*
X14950000Y-9095000D02*
X14950000Y-9145000D01*
X15325000Y-9095000D02*
X15325000Y-9145000D01*
X14690000Y-9095000D02*
X14690000Y-9145000D01*
X14820000Y-9095000D02*
X14820000Y-9145000D01*
X14440000Y-9105000D02*
X14440000Y-9155000D01*
X15200000Y-9475000D02*
X15200000Y-9575000D01*
X14180000Y-9150000D02*
X14180000Y-9040000D01*
X15075000Y-9095000D02*
X15075000Y-9145000D01*
X14310000Y-9105000D02*
X14310000Y-9155000D01*
X14950000Y-9475000D02*
X14950000Y-9575000D01*
X14560000Y-9095000D02*
X14560000Y-9145000D01*
X14950000Y-7495000D02*
X14950000Y-7545000D01*
X15325000Y-7495000D02*
X15325000Y-7545000D01*
X14050000Y-7485000D02*
X14050000Y-7535000D01*
G36*
X14956014Y-8758498D02*
G01*
X14943780Y-8768522D01*
X14946321Y-8773004D01*
X14947569Y-8776996D01*
X14947748Y-8780642D01*
X14946943Y-8784206D01*
X14945100Y-8787795D01*
X14942025Y-8791499D01*
X14938105Y-8794823D01*
X14934601Y-8796730D01*
X14931393Y-8797523D01*
X14928108Y-8797439D01*
X14925432Y-8796567D01*
X14923203Y-8794936D01*
X14921655Y-8792785D01*
X14921014Y-8790390D01*
X14921275Y-8787705D01*
X14922713Y-8783855D01*
X14929355Y-8772183D01*
X14933572Y-8764232D01*
X14935810Y-8758181D01*
X14936595Y-8753607D01*
X14936380Y-8748758D01*
X14935264Y-8744428D01*
X14933266Y-8740503D01*
X14930322Y-8736903D01*
X14927216Y-8734339D01*
X14923704Y-8732445D01*
X14919715Y-8731200D01*
X14915567Y-8730747D01*
X14911309Y-8731158D01*
X14906855Y-8732489D01*
X14902650Y-8734564D01*
X14898286Y-8737569D01*
X14893723Y-8741649D01*
X14888661Y-8747405D01*
X14885257Y-8752720D01*
X14883226Y-8757685D01*
X14882365Y-8762408D01*
X14882530Y-8767294D01*
X14883697Y-8771893D01*
X14885897Y-8776308D01*
X14889246Y-8780611D01*
X14901128Y-8769613D01*
X14899070Y-8766081D01*
X14898099Y-8762985D01*
X14898009Y-8760194D01*
X14898731Y-8757479D01*
X14900418Y-8754464D01*
X14903342Y-8751041D01*
X14906873Y-8748029D01*
X14910133Y-8746185D01*
X14913204Y-8745290D01*
X14915211Y-8745260D01*
X14916960Y-8745820D01*
X14918544Y-8746996D01*
X14919979Y-8749259D01*
X14920295Y-8752146D01*
X14919667Y-8754774D01*
X14917696Y-8759270D01*
X14913608Y-8766481D01*
X14908049Y-8776439D01*
X14905377Y-8782939D01*
X14904475Y-8787033D01*
X14904317Y-8791020D01*
X14904883Y-8794963D01*
X14906193Y-8798716D01*
X14908404Y-8802465D01*
X14911656Y-8806262D01*
X14915127Y-8809135D01*
X14919047Y-8811269D01*
X14923494Y-8812690D01*
X14928108Y-8813232D01*
X14932736Y-8812804D01*
X14937472Y-8811367D01*
X14941933Y-8809104D01*
X14946712Y-8805751D01*
X14951869Y-8801108D01*
X14956935Y-8795330D01*
X14960399Y-8789892D01*
X14962514Y-8784713D01*
X14963458Y-8779696D01*
X14963333Y-8774552D01*
X14962124Y-8769368D01*
X14959742Y-8764046D01*
X14956014Y-8758498D01*
G37*
G36*
X14903587Y-8847179D02*
G01*
X14879675Y-8823266D01*
X14867527Y-8769613D01*
X14854114Y-8783026D01*
X14863306Y-8818876D01*
X14827721Y-8809419D01*
X14814544Y-8822596D01*
X14868356Y-8834744D01*
X14892189Y-8858578D01*
X14903587Y-8847179D01*
G37*
G36*
X14850456Y-8864056D02*
G01*
X14838222Y-8874080D01*
X14840763Y-8878562D01*
X14842011Y-8882554D01*
X14842191Y-8886200D01*
X14841385Y-8889763D01*
X14839542Y-8893353D01*
X14836467Y-8897057D01*
X14832547Y-8900381D01*
X14829043Y-8902288D01*
X14825835Y-8903081D01*
X14822551Y-8902997D01*
X14819874Y-8902125D01*
X14817646Y-8900493D01*
X14816097Y-8898343D01*
X14815456Y-8895948D01*
X14815717Y-8893263D01*
X14817155Y-8889413D01*
X14823797Y-8877741D01*
X14828014Y-8869790D01*
X14830252Y-8863739D01*
X14831037Y-8859165D01*
X14830822Y-8854315D01*
X14829706Y-8849986D01*
X14827708Y-8846061D01*
X14824765Y-8842461D01*
X14821659Y-8839896D01*
X14818146Y-8838003D01*
X14814157Y-8836758D01*
X14810009Y-8836304D01*
X14805751Y-8836716D01*
X14801297Y-8838046D01*
X14797092Y-8840122D01*
X14792728Y-8843127D01*
X14788165Y-8847207D01*
X14783103Y-8852963D01*
X14779699Y-8858278D01*
X14777668Y-8863243D01*
X14776808Y-8867966D01*
X14776972Y-8872852D01*
X14778139Y-8877451D01*
X14780339Y-8881865D01*
X14783688Y-8886169D01*
X14795570Y-8875171D01*
X14793513Y-8871639D01*
X14792542Y-8868543D01*
X14792451Y-8865752D01*
X14793174Y-8863037D01*
X14794860Y-8860022D01*
X14797784Y-8856598D01*
X14801315Y-8853587D01*
X14804575Y-8851743D01*
X14807646Y-8850847D01*
X14809653Y-8850817D01*
X14811402Y-8851378D01*
X14812986Y-8852554D01*
X14814421Y-8854817D01*
X14814737Y-8857704D01*
X14814110Y-8860332D01*
X14812139Y-8864828D01*
X14808050Y-8872038D01*
X14802491Y-8881996D01*
X14799819Y-8888497D01*
X14798917Y-8892591D01*
X14798759Y-8896578D01*
X14799325Y-8900521D01*
X14800635Y-8904274D01*
X14802846Y-8908023D01*
X14806099Y-8911819D01*
X14809570Y-8914693D01*
X14813490Y-8916827D01*
X14817936Y-8918248D01*
X14822550Y-8918789D01*
X14827178Y-8918361D01*
X14831915Y-8916925D01*
X14836376Y-8914662D01*
X14841155Y-8911309D01*
X14846311Y-8906666D01*
X14851378Y-8900888D01*
X14854841Y-8895449D01*
X14856956Y-8890271D01*
X14857900Y-8885254D01*
X14857775Y-8880110D01*
X14856567Y-8874926D01*
X14854184Y-8869603D01*
X14850456Y-8864056D01*
G37*
G36*
X14812869Y-8937898D02*
G01*
X14801429Y-8949338D01*
X14777775Y-8925684D01*
X14775457Y-8928002D01*
X14771975Y-8931866D01*
X14770338Y-8934399D01*
X14769490Y-8936999D01*
X14769250Y-8940192D01*
X14769715Y-8944450D01*
X14771540Y-8954536D01*
X14775616Y-8975151D01*
X14761938Y-8988829D01*
X14757800Y-8970861D01*
X14755746Y-8960827D01*
X14755116Y-8955148D01*
X14755353Y-8950059D01*
X14756484Y-8944267D01*
X14751977Y-8947178D01*
X14747778Y-8949050D01*
X14743817Y-8950030D01*
X14740018Y-8950212D01*
X14736213Y-8949642D01*
X14732592Y-8948349D01*
X14729097Y-8946292D01*
X14725683Y-8943380D01*
X14722673Y-8939801D01*
X14720531Y-8936004D01*
X14719186Y-8931936D01*
X14718666Y-8927701D01*
X14718824Y-8926064D01*
X14734992Y-8926064D01*
X14735433Y-8928158D01*
X14736455Y-8930213D01*
X14738153Y-8932278D01*
X14740891Y-8934403D01*
X14743627Y-8935432D01*
X14746462Y-8935524D01*
X14749265Y-8934658D01*
X14752532Y-8932324D01*
X14760249Y-8925083D01*
X14768711Y-8916621D01*
X14754121Y-8902030D01*
X14745196Y-8910956D01*
X14737044Y-8919501D01*
X14735352Y-8922844D01*
X14734992Y-8926064D01*
X14718824Y-8926064D01*
X14719049Y-8923718D01*
X14720319Y-8919888D01*
X14722377Y-8916302D01*
X14726073Y-8911500D01*
X14731980Y-8905160D01*
X14756055Y-8881085D01*
X14812869Y-8937898D01*
G37*
G36*
X14755762Y-8995005D02*
G01*
X14698948Y-8938192D01*
X14656943Y-8980197D01*
X14666449Y-8989703D01*
X14697018Y-8959134D01*
X14709618Y-8971735D01*
X14681177Y-9000176D01*
X14690683Y-9009681D01*
X14719124Y-8981240D01*
X14734819Y-8996936D01*
X14703169Y-9028586D01*
X14712675Y-9038092D01*
X14755762Y-8995005D01*
G37*
G36*
X14702907Y-9047860D02*
G01*
X14646094Y-8991046D01*
X14607255Y-9029885D01*
X14616761Y-9039390D01*
X14644159Y-9011992D01*
X14657865Y-9025698D01*
X14634215Y-9049348D01*
X14643721Y-9058854D01*
X14667371Y-9035204D01*
X14691467Y-9059300D01*
X14702907Y-9047860D01*
G37*
X13828521Y-9714378D02*
X13874236Y-9714378D01*
X13851378Y-9714378D02*
X13851378Y-9634378D01*
X13851378Y-9634378D02*
X13858997Y-9645806D01*
X13858997Y-9645806D02*
X13866616Y-9653425D01*
X13866616Y-9653425D02*
X13874236Y-9657235D01*
X13756140Y-9634378D02*
X13794235Y-9634378D01*
X13794235Y-9634378D02*
X13798045Y-9672473D01*
X13798045Y-9672473D02*
X13794235Y-9668663D01*
X13794235Y-9668663D02*
X13786616Y-9664854D01*
X13786616Y-9664854D02*
X13767569Y-9664854D01*
X13767569Y-9664854D02*
X13759950Y-9668663D01*
X13759950Y-9668663D02*
X13756140Y-9672473D01*
X13756140Y-9672473D02*
X13752331Y-9680092D01*
X13752331Y-9680092D02*
X13752331Y-9699139D01*
X13752331Y-9699139D02*
X13756140Y-9706758D01*
X13756140Y-9706758D02*
X13759950Y-9710568D01*
X13759950Y-9710568D02*
X13767569Y-9714378D01*
X13767569Y-9714378D02*
X13786616Y-9714378D01*
X13786616Y-9714378D02*
X13794235Y-9710568D01*
X13794235Y-9710568D02*
X13798045Y-9706758D01*
G36*
X15490436Y-6800330D02*
G01*
X15478996Y-6811770D01*
X15455343Y-6788116D01*
X15453025Y-6790434D01*
X15449542Y-6794298D01*
X15447906Y-6796831D01*
X15447057Y-6799431D01*
X15446818Y-6802624D01*
X15447282Y-6806883D01*
X15449108Y-6816969D01*
X15453184Y-6837583D01*
X15439505Y-6851261D01*
X15435367Y-6833293D01*
X15433314Y-6823259D01*
X15432684Y-6817580D01*
X15432921Y-6812491D01*
X15434051Y-6806700D01*
X15429545Y-6809610D01*
X15425346Y-6811482D01*
X15421385Y-6812462D01*
X15417586Y-6812644D01*
X15413781Y-6812074D01*
X15410160Y-6810781D01*
X15406664Y-6808724D01*
X15403251Y-6805812D01*
X15400241Y-6802233D01*
X15398099Y-6798437D01*
X15396754Y-6794368D01*
X15396234Y-6790133D01*
X15396391Y-6788496D01*
X15412560Y-6788496D01*
X15413001Y-6790590D01*
X15414023Y-6792645D01*
X15415720Y-6794710D01*
X15418459Y-6796836D01*
X15421195Y-6797864D01*
X15424030Y-6797956D01*
X15426832Y-6797090D01*
X15430099Y-6794756D01*
X15437816Y-6787515D01*
X15446279Y-6779053D01*
X15431689Y-6764463D01*
X15422763Y-6773388D01*
X15414612Y-6781934D01*
X15412920Y-6785276D01*
X15412560Y-6788496D01*
X15396391Y-6788496D01*
X15396617Y-6786150D01*
X15397887Y-6782320D01*
X15399945Y-6778734D01*
X15403641Y-6773932D01*
X15409548Y-6767592D01*
X15433623Y-6743517D01*
X15490436Y-6800330D01*
G37*
G36*
X15433329Y-6857437D02*
G01*
X15376516Y-6800624D01*
X15334511Y-6842629D01*
X15344016Y-6852135D01*
X15374585Y-6821566D01*
X15387186Y-6834167D01*
X15358745Y-6862608D01*
X15368250Y-6872114D01*
X15396692Y-6843672D01*
X15412387Y-6859368D01*
X15380737Y-6891018D01*
X15390243Y-6900524D01*
X15433329Y-6857437D01*
G37*
G36*
X15380475Y-6910292D02*
G01*
X15323661Y-6853479D01*
X15284823Y-6892317D01*
X15294329Y-6901822D01*
X15321727Y-6874424D01*
X15335433Y-6888130D01*
X15311783Y-6911781D01*
X15321288Y-6921286D01*
X15344939Y-6897636D01*
X15369035Y-6921732D01*
X15380475Y-6910292D01*
G37*
G36*
X15318477Y-6942225D02*
G01*
X15307645Y-6931393D01*
X15286312Y-6952726D01*
X15297144Y-6963558D01*
X15318477Y-6942225D01*
G37*
G36*
X15248583Y-7000182D02*
G01*
X15241028Y-7014810D01*
X15247194Y-7017810D01*
X15252906Y-7019613D01*
X15258257Y-7020365D01*
X15263342Y-7020157D01*
X15268323Y-7019021D01*
X15273206Y-7016952D01*
X15278054Y-7013864D01*
X15282910Y-7009625D01*
X15287048Y-7004837D01*
X15290130Y-6999872D01*
X15292251Y-6994685D01*
X15293460Y-6989209D01*
X15293752Y-6983364D01*
X15293100Y-6977652D01*
X15291475Y-6972025D01*
X15288819Y-6966413D01*
X15285023Y-6960759D01*
X15279936Y-6955019D01*
X15273842Y-6949593D01*
X15267923Y-6945566D01*
X15262131Y-6942762D01*
X15256404Y-6941051D01*
X15250669Y-6940357D01*
X15244793Y-6940638D01*
X15239225Y-6941881D01*
X15233883Y-6944094D01*
X15228702Y-6947341D01*
X15223634Y-6951738D01*
X15218916Y-6957284D01*
X15215648Y-6962917D01*
X15213665Y-6968711D01*
X15212891Y-6974770D01*
X15213260Y-6979662D01*
X15214742Y-6985028D01*
X15217530Y-6991001D01*
X15231505Y-6982331D01*
X15229659Y-6978610D01*
X15228762Y-6974924D01*
X15228746Y-6971185D01*
X15229587Y-6967540D01*
X15231288Y-6964131D01*
X15233941Y-6960884D01*
X15237299Y-6958118D01*
X15240828Y-6956294D01*
X15244597Y-6955323D01*
X15248700Y-6955195D01*
X15252604Y-6955958D01*
X15256922Y-6957823D01*
X15261781Y-6961043D01*
X15267300Y-6965955D01*
X15272566Y-6971833D01*
X15275992Y-6976897D01*
X15277964Y-6981290D01*
X15278779Y-6985163D01*
X15278697Y-6989262D01*
X15277773Y-6993004D01*
X15276002Y-6996487D01*
X15273300Y-6999781D01*
X15270040Y-7002376D01*
X15266480Y-7003992D01*
X15262523Y-7004693D01*
X15258492Y-7004404D01*
X15253903Y-7002988D01*
X15248583Y-7000182D01*
G37*
G36*
X15248379Y-7042388D02*
G01*
X15192229Y-6986238D01*
X15180789Y-6997678D01*
X15227433Y-7044322D01*
X15198992Y-7072763D01*
X15208498Y-7082269D01*
X15248379Y-7042388D01*
G37*
G36*
X15200173Y-7090593D02*
G01*
X15143360Y-7033780D01*
X15131923Y-7045217D01*
X15157017Y-7070311D01*
X15108815Y-7068325D01*
X15093434Y-7083706D01*
X15136852Y-7084459D01*
X15149087Y-7141680D01*
X15163888Y-7126879D01*
X15152841Y-7084683D01*
X15171611Y-7084904D01*
X15188737Y-7102030D01*
X15200173Y-7090593D01*
G37*
G36*
X15129467Y-7131234D02*
G01*
X15118635Y-7120402D01*
X15097303Y-7141735D01*
X15108135Y-7152567D01*
X15129467Y-7131234D01*
G37*
G36*
X15101593Y-7152919D02*
G01*
X15089358Y-7162943D01*
X15091900Y-7167425D01*
X15093148Y-7171417D01*
X15093327Y-7175064D01*
X15092521Y-7178627D01*
X15090678Y-7182216D01*
X15087604Y-7185920D01*
X15083683Y-7189244D01*
X15080179Y-7191151D01*
X15076972Y-7191944D01*
X15073687Y-7191860D01*
X15071010Y-7190988D01*
X15068782Y-7189357D01*
X15067233Y-7187207D01*
X15066592Y-7184811D01*
X15066854Y-7182126D01*
X15068292Y-7178276D01*
X15074934Y-7166605D01*
X15079151Y-7158653D01*
X15081389Y-7152602D01*
X15082174Y-7148028D01*
X15081959Y-7143179D01*
X15080843Y-7138849D01*
X15078844Y-7134925D01*
X15075901Y-7131324D01*
X15072795Y-7128760D01*
X15069283Y-7126866D01*
X15065293Y-7125621D01*
X15061145Y-7125168D01*
X15056888Y-7125579D01*
X15052434Y-7126910D01*
X15048228Y-7128985D01*
X15043864Y-7131990D01*
X15039301Y-7136070D01*
X15034240Y-7141826D01*
X15030836Y-7147141D01*
X15028804Y-7152106D01*
X15027944Y-7156829D01*
X15028109Y-7161715D01*
X15029276Y-7166315D01*
X15031476Y-7170729D01*
X15034825Y-7175033D01*
X15046707Y-7164035D01*
X15044649Y-7160503D01*
X15043678Y-7157407D01*
X15043588Y-7154615D01*
X15044310Y-7151900D01*
X15045996Y-7148885D01*
X15048921Y-7145462D01*
X15052451Y-7142451D01*
X15055711Y-7140606D01*
X15058782Y-7139711D01*
X15060790Y-7139681D01*
X15062539Y-7140242D01*
X15064123Y-7141417D01*
X15065558Y-7143680D01*
X15065874Y-7146567D01*
X15065246Y-7149195D01*
X15063275Y-7153692D01*
X15059187Y-7160902D01*
X15053627Y-7170860D01*
X15050955Y-7177361D01*
X15050054Y-7181454D01*
X15049896Y-7185441D01*
X15050461Y-7189384D01*
X15051771Y-7193138D01*
X15053983Y-7196886D01*
X15057235Y-7200683D01*
X15060706Y-7203556D01*
X15064626Y-7205691D01*
X15069072Y-7207111D01*
X15073687Y-7207653D01*
X15078315Y-7207225D01*
X15083051Y-7205788D01*
X15087512Y-7203525D01*
X15092291Y-7200172D01*
X15097448Y-7195529D01*
X15102514Y-7189751D01*
X15105977Y-7184313D01*
X15108093Y-7179134D01*
X15109036Y-7174117D01*
X15108911Y-7168973D01*
X15107703Y-7163789D01*
X15105321Y-7158467D01*
X15101593Y-7152919D01*
G37*
G36*
X15064043Y-7226723D02*
G01*
X15007230Y-7169910D01*
X14965224Y-7211916D01*
X14974730Y-7221421D01*
X15005299Y-7190852D01*
X15017900Y-7203453D01*
X14989458Y-7231894D01*
X14998964Y-7241400D01*
X15027405Y-7212959D01*
X15043101Y-7228654D01*
X15011451Y-7260304D01*
X15020956Y-7269810D01*
X15064043Y-7226723D01*
G37*
G36*
X15010957Y-7279810D02*
G01*
X14954807Y-7223660D01*
X14943367Y-7235100D01*
X14990011Y-7281744D01*
X14961570Y-7310185D01*
X14971076Y-7319691D01*
X15010957Y-7279810D01*
G37*
G36*
X14962907Y-7327860D02*
G01*
X14906093Y-7271047D01*
X14864088Y-7313052D01*
X14873593Y-7322558D01*
X14904162Y-7291989D01*
X14916763Y-7304590D01*
X14888322Y-7333031D01*
X14897828Y-7342536D01*
X14926269Y-7314095D01*
X14941964Y-7329791D01*
X14910314Y-7361441D01*
X14919820Y-7370947D01*
X14962907Y-7327860D01*
G37*
G36*
X14852879Y-7395885D02*
G01*
X14845325Y-7410513D01*
X14851490Y-7413514D01*
X14857202Y-7415317D01*
X14862554Y-7416069D01*
X14867639Y-7415860D01*
X14872620Y-7414725D01*
X14877503Y-7412655D01*
X14882350Y-7409568D01*
X14887206Y-7405329D01*
X14891345Y-7400540D01*
X14894427Y-7395576D01*
X14896548Y-7390388D01*
X14897756Y-7384913D01*
X14898049Y-7379067D01*
X14897397Y-7373355D01*
X14895772Y-7367728D01*
X14893115Y-7362116D01*
X14889319Y-7356463D01*
X14884232Y-7350723D01*
X14878138Y-7345297D01*
X14872219Y-7341270D01*
X14866428Y-7338465D01*
X14860701Y-7336755D01*
X14854965Y-7336060D01*
X14849089Y-7336342D01*
X14843522Y-7337584D01*
X14838180Y-7339797D01*
X14832998Y-7343044D01*
X14827930Y-7347441D01*
X14823212Y-7352987D01*
X14819944Y-7358620D01*
X14817962Y-7364415D01*
X14817188Y-7370473D01*
X14817556Y-7375365D01*
X14819038Y-7380732D01*
X14821827Y-7386704D01*
X14835802Y-7378034D01*
X14833956Y-7374314D01*
X14833059Y-7370628D01*
X14833042Y-7366888D01*
X14833883Y-7363243D01*
X14835584Y-7359834D01*
X14838237Y-7356588D01*
X14841595Y-7353821D01*
X14845125Y-7351997D01*
X14848894Y-7351026D01*
X14852997Y-7350899D01*
X14856901Y-7351661D01*
X14861218Y-7353527D01*
X14866077Y-7356747D01*
X14871597Y-7361658D01*
X14876863Y-7367537D01*
X14880289Y-7372600D01*
X14882261Y-7376993D01*
X14883075Y-7380867D01*
X14882994Y-7384966D01*
X14882069Y-7388707D01*
X14880299Y-7392191D01*
X14877597Y-7395485D01*
X14874336Y-7398079D01*
X14870777Y-7399695D01*
X14866820Y-7400396D01*
X14862789Y-7400108D01*
X14858199Y-7398692D01*
X14852879Y-7395885D01*
G37*
G36*
X14840230Y-7450536D02*
G01*
X14792923Y-7403229D01*
X14809734Y-7386418D01*
X14800228Y-7376912D01*
X14755207Y-7421933D01*
X14764713Y-7431438D01*
X14781486Y-7414665D01*
X14828794Y-7461973D01*
X14840230Y-7450536D01*
G37*
G36*
X13990021Y-7260746D02*
G01*
X13953455Y-7183684D01*
X13941052Y-7196088D01*
X13968716Y-7252428D01*
X13912842Y-7224298D01*
X13900708Y-7236432D01*
X13977810Y-7272956D01*
X13990021Y-7260746D01*
G37*
G36*
X13951656Y-7299111D02*
G01*
X13932375Y-7318392D01*
X13922251Y-7328182D01*
X13918192Y-7331800D01*
X13914675Y-7334223D01*
X13911234Y-7335852D01*
X13907827Y-7336778D01*
X13904305Y-7337081D01*
X13900733Y-7336772D01*
X13897060Y-7335828D01*
X13893562Y-7334342D01*
X13890463Y-7332429D01*
X13887720Y-7330080D01*
X13884850Y-7326572D01*
X13882948Y-7322813D01*
X13881935Y-7318727D01*
X13881850Y-7314515D01*
X13882748Y-7310176D01*
X13883190Y-7309160D01*
X13895887Y-7309160D01*
X13895931Y-7312171D01*
X13896954Y-7315023D01*
X13899050Y-7317763D01*
X13901209Y-7319533D01*
X13903342Y-7320578D01*
X13905502Y-7321003D01*
X13908785Y-7320644D01*
X13911930Y-7319127D01*
X13914376Y-7317146D01*
X13920123Y-7311632D01*
X13930710Y-7301045D01*
X13915457Y-7285792D01*
X13906220Y-7295028D01*
X13899358Y-7302424D01*
X13896898Y-7305988D01*
X13895887Y-7309160D01*
X13883190Y-7309160D01*
X13884732Y-7305608D01*
X13881138Y-7306595D01*
X13877556Y-7306865D01*
X13873921Y-7306430D01*
X13870430Y-7305326D01*
X13867294Y-7303612D01*
X13864457Y-7301256D01*
X13862251Y-7298652D01*
X13860633Y-7295871D01*
X13859559Y-7292876D01*
X13858844Y-7288206D01*
X13858998Y-7286071D01*
X13874432Y-7286071D01*
X13875191Y-7288972D01*
X13877230Y-7291771D01*
X13879180Y-7293324D01*
X13881189Y-7294207D01*
X13883320Y-7294496D01*
X13886559Y-7293880D01*
X13889952Y-7291898D01*
X13898456Y-7283781D01*
X13905951Y-7276286D01*
X13892908Y-7263243D01*
X13886339Y-7269813D01*
X13876757Y-7279781D01*
X13875325Y-7282017D01*
X13874586Y-7284091D01*
X13874432Y-7286071D01*
X13858998Y-7286071D01*
X13859162Y-7283788D01*
X13860454Y-7279559D01*
X13862733Y-7275533D01*
X13866068Y-7271404D01*
X13872197Y-7264943D01*
X13894843Y-7242297D01*
X13951656Y-7299111D01*
G37*
G36*
X13837812Y-7299328D02*
G01*
X13826375Y-7310765D01*
X13857424Y-7341814D01*
X13864038Y-7348705D01*
X13866581Y-7351820D01*
X13868069Y-7354757D01*
X13868776Y-7357779D01*
X13868736Y-7360967D01*
X13867920Y-7364054D01*
X13866176Y-7367258D01*
X13863310Y-7370656D01*
X13859858Y-7373586D01*
X13856775Y-7375273D01*
X13853956Y-7375982D01*
X13851036Y-7375961D01*
X13848424Y-7375303D01*
X13846036Y-7374010D01*
X13842267Y-7370943D01*
X13835794Y-7364777D01*
X13804079Y-7333061D01*
X13792639Y-7344501D01*
X13822551Y-7374414D01*
X13832340Y-7383633D01*
X13837971Y-7387975D01*
X13841514Y-7389893D01*
X13845022Y-7391117D01*
X13848537Y-7391702D01*
X13852100Y-7391673D01*
X13855851Y-7391018D01*
X13859845Y-7389678D01*
X13863589Y-7387746D01*
X13867770Y-7384767D01*
X13872467Y-7380510D01*
X13877649Y-7374820D01*
X13880983Y-7370151D01*
X13882895Y-7366317D01*
X13884138Y-7362217D01*
X13884694Y-7358397D01*
X13884625Y-7354798D01*
X13883535Y-7349615D01*
X13881520Y-7345275D01*
X13876835Y-7339007D01*
X13868187Y-7329704D01*
X13837812Y-7299328D01*
G37*
G36*
X13822175Y-7392337D02*
G01*
X13809940Y-7402361D01*
X13812482Y-7406843D01*
X13813730Y-7410835D01*
X13813909Y-7414482D01*
X13813103Y-7418045D01*
X13811260Y-7421634D01*
X13808186Y-7425338D01*
X13804266Y-7428662D01*
X13800762Y-7430569D01*
X13797554Y-7431362D01*
X13794269Y-7431278D01*
X13791592Y-7430406D01*
X13789364Y-7428775D01*
X13787816Y-7426625D01*
X13787174Y-7424229D01*
X13787436Y-7421544D01*
X13788874Y-7417694D01*
X13795516Y-7406022D01*
X13799733Y-7398071D01*
X13801971Y-7392020D01*
X13802756Y-7387446D01*
X13802541Y-7382597D01*
X13801425Y-7378267D01*
X13799426Y-7374342D01*
X13796483Y-7370742D01*
X13793377Y-7368178D01*
X13789865Y-7366284D01*
X13785876Y-7365039D01*
X13781728Y-7364586D01*
X13777470Y-7364997D01*
X13773016Y-7366328D01*
X13768810Y-7368403D01*
X13764446Y-7371408D01*
X13759883Y-7375488D01*
X13754822Y-7381244D01*
X13751418Y-7386559D01*
X13749386Y-7391524D01*
X13748526Y-7396247D01*
X13748691Y-7401133D01*
X13749858Y-7405732D01*
X13752058Y-7410147D01*
X13755407Y-7414450D01*
X13767289Y-7403453D01*
X13765231Y-7399920D01*
X13764260Y-7396824D01*
X13764170Y-7394033D01*
X13764892Y-7391318D01*
X13766578Y-7388303D01*
X13769503Y-7384880D01*
X13773034Y-7381868D01*
X13776294Y-7380024D01*
X13779365Y-7379129D01*
X13781372Y-7379099D01*
X13783121Y-7379660D01*
X13784705Y-7380835D01*
X13786140Y-7383098D01*
X13786456Y-7385985D01*
X13785828Y-7388613D01*
X13783857Y-7393109D01*
X13779769Y-7400320D01*
X13774209Y-7410278D01*
X13771538Y-7416779D01*
X13770636Y-7420872D01*
X13770478Y-7424859D01*
X13771044Y-7428802D01*
X13772354Y-7432555D01*
X13774565Y-7436304D01*
X13777817Y-7440101D01*
X13781288Y-7442974D01*
X13785208Y-7445108D01*
X13789654Y-7446529D01*
X13794269Y-7447071D01*
X13798897Y-7446643D01*
X13803633Y-7445206D01*
X13808094Y-7442943D01*
X13812873Y-7439590D01*
X13818030Y-7434947D01*
X13823096Y-7429169D01*
X13826559Y-7423731D01*
X13828675Y-7418552D01*
X13829618Y-7413535D01*
X13829493Y-7408391D01*
X13828285Y-7403207D01*
X13825903Y-7397885D01*
X13822175Y-7392337D01*
G37*
X14795664Y-9509378D02*
X14833759Y-9509378D01*
X14833759Y-9509378D02*
X14837569Y-9547473D01*
X14837569Y-9547473D02*
X14833759Y-9543663D01*
X14833759Y-9543663D02*
X14826140Y-9539854D01*
X14826140Y-9539854D02*
X14807093Y-9539854D01*
X14807093Y-9539854D02*
X14799474Y-9543663D01*
X14799474Y-9543663D02*
X14795664Y-9547473D01*
X14795664Y-9547473D02*
X14791855Y-9555092D01*
X14791855Y-9555092D02*
X14791855Y-9574139D01*
X14791855Y-9574139D02*
X14795664Y-9581758D01*
X14795664Y-9581758D02*
X14799474Y-9585568D01*
X14799474Y-9585568D02*
X14807093Y-9589378D01*
X14807093Y-9589378D02*
X14826140Y-9589378D01*
X14826140Y-9589378D02*
X14833759Y-9585568D01*
X14833759Y-9585568D02*
X14837569Y-9581758D01*
G36*
X14914445Y-8934319D02*
G01*
X14906891Y-8948947D01*
X14913057Y-8951948D01*
X14918768Y-8953750D01*
X14924120Y-8954502D01*
X14929205Y-8954294D01*
X14934186Y-8953159D01*
X14939069Y-8951089D01*
X14943916Y-8948002D01*
X14948772Y-8943763D01*
X14952911Y-8938974D01*
X14955993Y-8934010D01*
X14958114Y-8928822D01*
X14959322Y-8923347D01*
X14959615Y-8917501D01*
X14958963Y-8911789D01*
X14957338Y-8906162D01*
X14954681Y-8900550D01*
X14950886Y-8894896D01*
X14945798Y-8889157D01*
X14939704Y-8883731D01*
X14933786Y-8879703D01*
X14927994Y-8876899D01*
X14922267Y-8875189D01*
X14916532Y-8874494D01*
X14910656Y-8874776D01*
X14905088Y-8876018D01*
X14899746Y-8878231D01*
X14894565Y-8881478D01*
X14889496Y-8885875D01*
X14884778Y-8891421D01*
X14881510Y-8897054D01*
X14879528Y-8902849D01*
X14878754Y-8908907D01*
X14879122Y-8913799D01*
X14880604Y-8919166D01*
X14883393Y-8925138D01*
X14897368Y-8916468D01*
X14895522Y-8912748D01*
X14894625Y-8909062D01*
X14894608Y-8905322D01*
X14895450Y-8901677D01*
X14897151Y-8898268D01*
X14899803Y-8895022D01*
X14903161Y-8892255D01*
X14906691Y-8890431D01*
X14910460Y-8889460D01*
X14914563Y-8889333D01*
X14918467Y-8890095D01*
X14922785Y-8891960D01*
X14927643Y-8895180D01*
X14933163Y-8900092D01*
X14938429Y-8905971D01*
X14941855Y-8911034D01*
X14943827Y-8915427D01*
X14944641Y-8919301D01*
X14944560Y-8923400D01*
X14943636Y-8927141D01*
X14941865Y-8930624D01*
X14939163Y-8933919D01*
X14935902Y-8936513D01*
X14932343Y-8938129D01*
X14928386Y-8938830D01*
X14924355Y-8938541D01*
X14919765Y-8937126D01*
X14914445Y-8934319D01*
G37*
G36*
X14899320Y-8955192D02*
G01*
X14887085Y-8965216D01*
X14889627Y-8969699D01*
X14890875Y-8973691D01*
X14891054Y-8977337D01*
X14890248Y-8980900D01*
X14888405Y-8984489D01*
X14885331Y-8988193D01*
X14881410Y-8991517D01*
X14877907Y-8993425D01*
X14874699Y-8994217D01*
X14871414Y-8994133D01*
X14868737Y-8993261D01*
X14866509Y-8991630D01*
X14864960Y-8989480D01*
X14864319Y-8987084D01*
X14864581Y-8984399D01*
X14866019Y-8980549D01*
X14872661Y-8968878D01*
X14876878Y-8960926D01*
X14879116Y-8954876D01*
X14879901Y-8950301D01*
X14879686Y-8945452D01*
X14878570Y-8941122D01*
X14876571Y-8937198D01*
X14873628Y-8933597D01*
X14870522Y-8931033D01*
X14867010Y-8929139D01*
X14863020Y-8927895D01*
X14858872Y-8927441D01*
X14854615Y-8927852D01*
X14850161Y-8929183D01*
X14845955Y-8931258D01*
X14841591Y-8934263D01*
X14837028Y-8938343D01*
X14831967Y-8944099D01*
X14828563Y-8949414D01*
X14826531Y-8954380D01*
X14825671Y-8959102D01*
X14825836Y-8963988D01*
X14827003Y-8968588D01*
X14829203Y-8973002D01*
X14832552Y-8977306D01*
X14844434Y-8966308D01*
X14842376Y-8962776D01*
X14841405Y-8959680D01*
X14841315Y-8956888D01*
X14842037Y-8954174D01*
X14843723Y-8951158D01*
X14846648Y-8947735D01*
X14850178Y-8944724D01*
X14853438Y-8942879D01*
X14856509Y-8941984D01*
X14858517Y-8941954D01*
X14860266Y-8942515D01*
X14861850Y-8943690D01*
X14863285Y-8945953D01*
X14863601Y-8948840D01*
X14862973Y-8951468D01*
X14861002Y-8955965D01*
X14856914Y-8963175D01*
X14851354Y-8973133D01*
X14848682Y-8979634D01*
X14847781Y-8983728D01*
X14847623Y-8987715D01*
X14848188Y-8991658D01*
X14849499Y-8995411D01*
X14851710Y-8999159D01*
X14854962Y-9002956D01*
X14858433Y-9005829D01*
X14862353Y-9007964D01*
X14866799Y-9009384D01*
X14871414Y-9009926D01*
X14876042Y-9009498D01*
X14880778Y-9008061D01*
X14885239Y-9005798D01*
X14890018Y-9002445D01*
X14895175Y-8997802D01*
X14900241Y-8992024D01*
X14903704Y-8986586D01*
X14905820Y-8981407D01*
X14906763Y-8976390D01*
X14906638Y-8971246D01*
X14905430Y-8966063D01*
X14903048Y-8960740D01*
X14899320Y-8955192D01*
G37*
G36*
X14861732Y-9029035D02*
G01*
X14842451Y-9048315D01*
X14832327Y-9058106D01*
X14828269Y-9061724D01*
X14824751Y-9064147D01*
X14821310Y-9065776D01*
X14817903Y-9066702D01*
X14814381Y-9067004D01*
X14810809Y-9066696D01*
X14807136Y-9065752D01*
X14803638Y-9064265D01*
X14800539Y-9062353D01*
X14797796Y-9060004D01*
X14794927Y-9056496D01*
X14793024Y-9052737D01*
X14792011Y-9048650D01*
X14791926Y-9044438D01*
X14792825Y-9040100D01*
X14793266Y-9039084D01*
X14805963Y-9039084D01*
X14806007Y-9042095D01*
X14807031Y-9044947D01*
X14809126Y-9047687D01*
X14811285Y-9049457D01*
X14813418Y-9050502D01*
X14815578Y-9050927D01*
X14818861Y-9050568D01*
X14822006Y-9049051D01*
X14824452Y-9047070D01*
X14830199Y-9041556D01*
X14840786Y-9030969D01*
X14825533Y-9015715D01*
X14816297Y-9024952D01*
X14809434Y-9032348D01*
X14806974Y-9035912D01*
X14805963Y-9039084D01*
X14793266Y-9039084D01*
X14794809Y-9035532D01*
X14791214Y-9036519D01*
X14787632Y-9036789D01*
X14783997Y-9036354D01*
X14780507Y-9035250D01*
X14777370Y-9033536D01*
X14774533Y-9031180D01*
X14772327Y-9028576D01*
X14770709Y-9025795D01*
X14769635Y-9022800D01*
X14768921Y-9018130D01*
X14769074Y-9015995D01*
X14784508Y-9015995D01*
X14785267Y-9018896D01*
X14787306Y-9021695D01*
X14789256Y-9023248D01*
X14791266Y-9024131D01*
X14793396Y-9024420D01*
X14796635Y-9023803D01*
X14800028Y-9021822D01*
X14808532Y-9013705D01*
X14816027Y-9006210D01*
X14802984Y-8993167D01*
X14796415Y-8999737D01*
X14786833Y-9009705D01*
X14785401Y-9011940D01*
X14784663Y-9014015D01*
X14784508Y-9015995D01*
X14769074Y-9015995D01*
X14769238Y-9013712D01*
X14770530Y-9009483D01*
X14772809Y-9005457D01*
X14776144Y-9001328D01*
X14782274Y-8994866D01*
X14804919Y-8972221D01*
X14861732Y-9029035D01*
G37*
X13653521Y-9589378D02*
X13699236Y-9589378D01*
X13676378Y-9589378D02*
X13676378Y-9509378D01*
X13676378Y-9509378D02*
X13683997Y-9520806D01*
X13683997Y-9520806D02*
X13691616Y-9528425D01*
X13691616Y-9528425D02*
X13699236Y-9532235D01*
G36*
X15514146Y-8896621D02*
G01*
X15466838Y-8849313D01*
X15483649Y-8832502D01*
X15474144Y-8822996D01*
X15429123Y-8868017D01*
X15438628Y-8877523D01*
X15455401Y-8860750D01*
X15502709Y-8908058D01*
X15514146Y-8896621D01*
G37*
G36*
X15484299Y-8926468D02*
G01*
X15435147Y-8916513D01*
X15425668Y-8871472D01*
X15412298Y-8884842D01*
X15418083Y-8913059D01*
X15389808Y-8907332D01*
X15376554Y-8920586D01*
X15421548Y-8929967D01*
X15431627Y-8979140D01*
X15445423Y-8965344D01*
X15438732Y-8933549D01*
X15470579Y-8940188D01*
X15484299Y-8926468D01*
G37*
G36*
X15425800Y-8984967D02*
G01*
X15404277Y-9006489D01*
X15397927Y-9012162D01*
X15392951Y-9015411D01*
X15388393Y-9017395D01*
X15384227Y-9018526D01*
X15380378Y-9018914D01*
X15375278Y-9018544D01*
X15369936Y-9017255D01*
X15364275Y-9014949D01*
X15359917Y-9012450D01*
X15355319Y-9009044D01*
X15350445Y-9004593D01*
X15345358Y-8999045D01*
X15341566Y-8993971D01*
X15338873Y-8989312D01*
X15336824Y-8984350D01*
X15335576Y-8979495D01*
X15335077Y-8974698D01*
X15335224Y-8972152D01*
X15350465Y-8972152D01*
X15350945Y-8976237D01*
X15352745Y-8980926D01*
X15355854Y-8985684D01*
X15361747Y-8992248D01*
X15368342Y-8998183D01*
X15373359Y-9001540D01*
X15376782Y-9003107D01*
X15379573Y-9003887D01*
X15381863Y-9004054D01*
X15385301Y-9003432D01*
X15388854Y-9001809D01*
X15391693Y-8999733D01*
X15396315Y-8995440D01*
X15404857Y-8986898D01*
X15367056Y-8949096D01*
X15361916Y-8954236D01*
X15355664Y-8960834D01*
X15353070Y-8964173D01*
X15351146Y-8968186D01*
X15350465Y-8972152D01*
X15335224Y-8972152D01*
X15335354Y-8969908D01*
X15336451Y-8965339D01*
X15338386Y-8960923D01*
X15341749Y-8956022D01*
X15348082Y-8949058D01*
X15368986Y-8928154D01*
X15425800Y-8984967D01*
G37*
G36*
X15314477Y-8994269D02*
G01*
X15319054Y-8995250D01*
X15324099Y-8997267D01*
X15329719Y-9000518D01*
X15336018Y-9005252D01*
X15343101Y-9011764D01*
X15349861Y-9019067D01*
X15354677Y-9025352D01*
X15357902Y-9030763D01*
X15359840Y-9035438D01*
X15360735Y-9039518D01*
X15360781Y-9045084D01*
X15359649Y-9050133D01*
X15357348Y-9054808D01*
X15353764Y-9059213D01*
X15349362Y-9062840D01*
X15344856Y-9065137D01*
X15340155Y-9066260D01*
X15335129Y-9066242D01*
X15330555Y-9065260D01*
X15325506Y-9063238D01*
X15319873Y-9059975D01*
X15313549Y-9055219D01*
X15306429Y-9048671D01*
X15299853Y-9041524D01*
X15295089Y-9035198D01*
X15291832Y-9029584D01*
X15289823Y-9024571D01*
X15288858Y-9020047D01*
X15288825Y-9015111D01*
X15302664Y-9015111D01*
X15303036Y-9018046D01*
X15305113Y-9022624D01*
X15308920Y-9027813D01*
X15317790Y-9037311D01*
X15327365Y-9046202D01*
X15333033Y-9050315D01*
X15337043Y-9052104D01*
X15339930Y-9052412D01*
X15342524Y-9051700D01*
X15344701Y-9050149D01*
X15346251Y-9047982D01*
X15346963Y-9045421D01*
X15346873Y-9043623D01*
X15346150Y-9041197D01*
X15344535Y-9037929D01*
X15340725Y-9032736D01*
X15331858Y-9023242D01*
X15322276Y-9014342D01*
X15316574Y-9010196D01*
X15312563Y-9008406D01*
X15309679Y-9008096D01*
X15307083Y-9008810D01*
X15304909Y-9010358D01*
X15303362Y-9012532D01*
X15302664Y-9015111D01*
X15288825Y-9015111D01*
X15288824Y-9014959D01*
X15289938Y-9010218D01*
X15292228Y-9005695D01*
X15295846Y-9001294D01*
X15300246Y-8997670D01*
X15304750Y-8995374D01*
X15309451Y-8994251D01*
X15314477Y-8994269D01*
G37*
G36*
X15191316Y-8923197D02*
G01*
X15179081Y-8933220D01*
X15181623Y-8937703D01*
X15182871Y-8941695D01*
X15183050Y-8945341D01*
X15182244Y-8948904D01*
X15180401Y-8952494D01*
X15177326Y-8956197D01*
X15173406Y-8959522D01*
X15169902Y-8961429D01*
X15166695Y-8962221D01*
X15163410Y-8962138D01*
X15160733Y-8961266D01*
X15158505Y-8959634D01*
X15156956Y-8957484D01*
X15156315Y-8955088D01*
X15156576Y-8952403D01*
X15158014Y-8948553D01*
X15164657Y-8936882D01*
X15168873Y-8928931D01*
X15171111Y-8922880D01*
X15171897Y-8918306D01*
X15171682Y-8913456D01*
X15170566Y-8909126D01*
X15168567Y-8905202D01*
X15165624Y-8901601D01*
X15162518Y-8899037D01*
X15159006Y-8897144D01*
X15155016Y-8895899D01*
X15150868Y-8895445D01*
X15146610Y-8895856D01*
X15142157Y-8897187D01*
X15137951Y-8899263D01*
X15133587Y-8902268D01*
X15129024Y-8906347D01*
X15123963Y-8912104D01*
X15120559Y-8917418D01*
X15118527Y-8922384D01*
X15117667Y-8927107D01*
X15117832Y-8931992D01*
X15118999Y-8936592D01*
X15121198Y-8941006D01*
X15124548Y-8945310D01*
X15136430Y-8934312D01*
X15134372Y-8930780D01*
X15133401Y-8927684D01*
X15133311Y-8924893D01*
X15134033Y-8922178D01*
X15135719Y-8919163D01*
X15138644Y-8915739D01*
X15142174Y-8912728D01*
X15145434Y-8910884D01*
X15148505Y-8909988D01*
X15150512Y-8909958D01*
X15152262Y-8910519D01*
X15153845Y-8911694D01*
X15155280Y-8913958D01*
X15155597Y-8916845D01*
X15154969Y-8919472D01*
X15152998Y-8923969D01*
X15148909Y-8931179D01*
X15143350Y-8941137D01*
X15140678Y-8947638D01*
X15139776Y-8951732D01*
X15139619Y-8955719D01*
X15140184Y-8959662D01*
X15141494Y-8963415D01*
X15143706Y-8967163D01*
X15146958Y-8970960D01*
X15150429Y-8973833D01*
X15154349Y-8975968D01*
X15158795Y-8977388D01*
X15163410Y-8977930D01*
X15168038Y-8977502D01*
X15172774Y-8976065D01*
X15177235Y-8973803D01*
X15182014Y-8970449D01*
X15187171Y-8965807D01*
X15192237Y-8960028D01*
X15195700Y-8954590D01*
X15197816Y-8949411D01*
X15198759Y-8944395D01*
X15198634Y-8939250D01*
X15197426Y-8934067D01*
X15195043Y-8928744D01*
X15191316Y-8923197D01*
G37*
G36*
X15153804Y-8996963D02*
G01*
X15132281Y-9018485D01*
X15125931Y-9024157D01*
X15120955Y-9027407D01*
X15116397Y-9029391D01*
X15112231Y-9030522D01*
X15108382Y-9030910D01*
X15103282Y-9030540D01*
X15097940Y-9029251D01*
X15092279Y-9026944D01*
X15087921Y-9024446D01*
X15083323Y-9021040D01*
X15078449Y-9016589D01*
X15073363Y-9011041D01*
X15069570Y-9005967D01*
X15066878Y-9001308D01*
X15064828Y-8996346D01*
X15063580Y-8991490D01*
X15063082Y-8986694D01*
X15063229Y-8984148D01*
X15078470Y-8984148D01*
X15078949Y-8988233D01*
X15080749Y-8992921D01*
X15083858Y-8997680D01*
X15089751Y-9004244D01*
X15096346Y-9010179D01*
X15101364Y-9013536D01*
X15104787Y-9015103D01*
X15107577Y-9015883D01*
X15109868Y-9016050D01*
X15113305Y-9015428D01*
X15116859Y-9013805D01*
X15119697Y-9011729D01*
X15124320Y-9007436D01*
X15132862Y-8998894D01*
X15095060Y-8961092D01*
X15089920Y-8966231D01*
X15083669Y-8972830D01*
X15081074Y-8976169D01*
X15079150Y-8980182D01*
X15078470Y-8984148D01*
X15063229Y-8984148D01*
X15063358Y-8981904D01*
X15064455Y-8977335D01*
X15066391Y-8972919D01*
X15069753Y-8968018D01*
X15076086Y-8961054D01*
X15096991Y-8940149D01*
X15153804Y-8996963D01*
G37*
G36*
X15096970Y-9053797D02*
G01*
X15040157Y-8996983D01*
X15028717Y-9008423D01*
X15085530Y-9065237D01*
X15096970Y-9053797D01*
G37*
G36*
X14940235Y-8680531D02*
G01*
X14928795Y-8691971D01*
X14905142Y-8668317D01*
X14902824Y-8670635D01*
X14899341Y-8674499D01*
X14897705Y-8677032D01*
X14896857Y-8679632D01*
X14896617Y-8682825D01*
X14897081Y-8687084D01*
X14898907Y-8697170D01*
X14902983Y-8717784D01*
X14889304Y-8731462D01*
X14885166Y-8713494D01*
X14883113Y-8703460D01*
X14882483Y-8697781D01*
X14882720Y-8692692D01*
X14883850Y-8686901D01*
X14879344Y-8689811D01*
X14875145Y-8691683D01*
X14871184Y-8692663D01*
X14867385Y-8692845D01*
X14863580Y-8692275D01*
X14859959Y-8690982D01*
X14856463Y-8688925D01*
X14853050Y-8686013D01*
X14850040Y-8682434D01*
X14847898Y-8678638D01*
X14846553Y-8674569D01*
X14846033Y-8670334D01*
X14846190Y-8668697D01*
X14862359Y-8668697D01*
X14862800Y-8670791D01*
X14863822Y-8672846D01*
X14865519Y-8674911D01*
X14868258Y-8677037D01*
X14870994Y-8678065D01*
X14873829Y-8678157D01*
X14876631Y-8677291D01*
X14879898Y-8674957D01*
X14887615Y-8667716D01*
X14896078Y-8659254D01*
X14881488Y-8644664D01*
X14872562Y-8653589D01*
X14864411Y-8662135D01*
X14862719Y-8665477D01*
X14862359Y-8668697D01*
X14846190Y-8668697D01*
X14846416Y-8666351D01*
X14847686Y-8662521D01*
X14849744Y-8658935D01*
X14853440Y-8654133D01*
X14859347Y-8647793D01*
X14883422Y-8623718D01*
X14940235Y-8680531D01*
G37*
G36*
X14888887Y-8731880D02*
G01*
X14876752Y-8744014D01*
X14859254Y-8735870D01*
X14836612Y-8758511D01*
X14844487Y-8776279D01*
X14832042Y-8788724D01*
X14800952Y-8716309D01*
X14817359Y-8716309D01*
X14830774Y-8745337D01*
X14846232Y-8729880D01*
X14817359Y-8716309D01*
X14800952Y-8716309D01*
X14797912Y-8709228D01*
X14810008Y-8697132D01*
X14888887Y-8731880D01*
G37*
G36*
X14826139Y-8794628D02*
G01*
X14769326Y-8737814D01*
X14752207Y-8754933D01*
X14780683Y-8803967D01*
X14731766Y-8775374D01*
X14714606Y-8792534D01*
X14771419Y-8849348D01*
X14782047Y-8838719D01*
X14737327Y-8793999D01*
X14793290Y-8827476D01*
X14804306Y-8816461D01*
X14770790Y-8760535D01*
X14815511Y-8805256D01*
X14826139Y-8794628D01*
G37*
G36*
X14760051Y-8860715D02*
G01*
X14748615Y-8872152D01*
X14727172Y-8850709D01*
X14719714Y-8858166D01*
X14712168Y-8865238D01*
X14707034Y-8869216D01*
X14703118Y-8871177D01*
X14698409Y-8872459D01*
X14695115Y-8872764D01*
X14691662Y-8872514D01*
X14687999Y-8871672D01*
X14684536Y-8870241D01*
X14680988Y-8867986D01*
X14677312Y-8864770D01*
X14673298Y-8859963D01*
X14670778Y-8855214D01*
X14669540Y-8850429D01*
X14669411Y-8846149D01*
X14685902Y-8846149D01*
X14686363Y-8848598D01*
X14687462Y-8850915D01*
X14689277Y-8853158D01*
X14692034Y-8855252D01*
X14695055Y-8856346D01*
X14698244Y-8856476D01*
X14701459Y-8855600D01*
X14704914Y-8853378D01*
X14711407Y-8847462D01*
X14717666Y-8841203D01*
X14701307Y-8824844D01*
X14695781Y-8830371D01*
X14690236Y-8836168D01*
X14687943Y-8838996D01*
X14686699Y-8841276D01*
X14686027Y-8843642D01*
X14685902Y-8846149D01*
X14669411Y-8846149D01*
X14669390Y-8845467D01*
X14670260Y-8840935D01*
X14672134Y-8836712D01*
X14675620Y-8832075D01*
X14684883Y-8822257D01*
X14703238Y-8803902D01*
X14760051Y-8860715D01*
G37*
G36*
X14650024Y-8928740D02*
G01*
X14642470Y-8943369D01*
X14648635Y-8946369D01*
X14654347Y-8948172D01*
X14659698Y-8948924D01*
X14664784Y-8948716D01*
X14669764Y-8947580D01*
X14674648Y-8945511D01*
X14679495Y-8942423D01*
X14684351Y-8938184D01*
X14688490Y-8933396D01*
X14691572Y-8928431D01*
X14693693Y-8923243D01*
X14694901Y-8917768D01*
X14695194Y-8911922D01*
X14694542Y-8906210D01*
X14692917Y-8900583D01*
X14690260Y-8894972D01*
X14686464Y-8889318D01*
X14681377Y-8883578D01*
X14675283Y-8878152D01*
X14669364Y-8874125D01*
X14663573Y-8871321D01*
X14657846Y-8869610D01*
X14652110Y-8868915D01*
X14646234Y-8869197D01*
X14640667Y-8870439D01*
X14635325Y-8872652D01*
X14630143Y-8875899D01*
X14625075Y-8880297D01*
X14620357Y-8885842D01*
X14617089Y-8891475D01*
X14615107Y-8897270D01*
X14614333Y-8903329D01*
X14614701Y-8908221D01*
X14616183Y-8913587D01*
X14618972Y-8919559D01*
X14632947Y-8910890D01*
X14631101Y-8907169D01*
X14630204Y-8903483D01*
X14630187Y-8899743D01*
X14631028Y-8896098D01*
X14632729Y-8892689D01*
X14635382Y-8889443D01*
X14638740Y-8886676D01*
X14642270Y-8884852D01*
X14646039Y-8883882D01*
X14650142Y-8883754D01*
X14654046Y-8884517D01*
X14658363Y-8886382D01*
X14663222Y-8889602D01*
X14668742Y-8894514D01*
X14674008Y-8900392D01*
X14677434Y-8905455D01*
X14679406Y-8909849D01*
X14680220Y-8913722D01*
X14680139Y-8917821D01*
X14679214Y-8921563D01*
X14677443Y-8925046D01*
X14674742Y-8928340D01*
X14671481Y-8930935D01*
X14667922Y-8932550D01*
X14663965Y-8933252D01*
X14659934Y-8932963D01*
X14655344Y-8931547D01*
X14650024Y-8928740D01*
G37*
G36*
X14649820Y-8970946D02*
G01*
X14593670Y-8914796D01*
X14582230Y-8926236D01*
X14628875Y-8972881D01*
X14600433Y-9001322D01*
X14609939Y-9010828D01*
X14649820Y-8970946D01*
G37*
G36*
X14601615Y-9019152D02*
G01*
X14544801Y-8962339D01*
X14533365Y-8973775D01*
X14558459Y-8998869D01*
X14510257Y-8996883D01*
X14494876Y-9012264D01*
X14538294Y-9013017D01*
X14550528Y-9070238D01*
X14565329Y-9055437D01*
X14554283Y-9013242D01*
X14573053Y-9013463D01*
X14590178Y-9030589D01*
X14601615Y-9019152D01*
G37*
G36*
X14432921Y-7297345D02*
G01*
X14421081Y-7306526D01*
X14423222Y-7309795D01*
X14424404Y-7312804D01*
X14424783Y-7315638D01*
X14424438Y-7318455D01*
X14423410Y-7320942D01*
X14421664Y-7323186D01*
X14419249Y-7325031D01*
X14416548Y-7326056D01*
X14413451Y-7326294D01*
X14410380Y-7325708D01*
X14407342Y-7324229D01*
X14404259Y-7321704D01*
X14401874Y-7318784D01*
X14400490Y-7315907D01*
X14399959Y-7312996D01*
X14400207Y-7310057D01*
X14401187Y-7307501D01*
X14402929Y-7305224D01*
X14405282Y-7303239D01*
X14408725Y-7301052D01*
X14398757Y-7293480D01*
X14395697Y-7296166D01*
X14392853Y-7297697D01*
X14390135Y-7298302D01*
X14387374Y-7298104D01*
X14384846Y-7297117D01*
X14382453Y-7295262D01*
X14380831Y-7293235D01*
X14379918Y-7291178D01*
X14379624Y-7289028D01*
X14379928Y-7286877D01*
X14380841Y-7284828D01*
X14382450Y-7282817D01*
X14384445Y-7281255D01*
X14386645Y-7280320D01*
X14389123Y-7279978D01*
X14391614Y-7280279D01*
X14394251Y-7281300D01*
X14397116Y-7283183D01*
X14405440Y-7271488D01*
X14401170Y-7268960D01*
X14397392Y-7267303D01*
X14394028Y-7266376D01*
X14390578Y-7266051D01*
X14387021Y-7266375D01*
X14383296Y-7267388D01*
X14379759Y-7268983D01*
X14376362Y-7271189D01*
X14373079Y-7274061D01*
X14369491Y-7278333D01*
X14367083Y-7282696D01*
X14365720Y-7287220D01*
X14365352Y-7291998D01*
X14365787Y-7295994D01*
X14366847Y-7299509D01*
X14368513Y-7302628D01*
X14370809Y-7305414D01*
X14373919Y-7307902D01*
X14377370Y-7309522D01*
X14381256Y-7310318D01*
X14385706Y-7310245D01*
X14390874Y-7309169D01*
X14388807Y-7313247D01*
X14387793Y-7317369D01*
X14387773Y-7321638D01*
X14388726Y-7325802D01*
X14390648Y-7329675D01*
X14393638Y-7333341D01*
X14397607Y-7336618D01*
X14401903Y-7338891D01*
X14406605Y-7340229D01*
X14411824Y-7340625D01*
X14416997Y-7340042D01*
X14421802Y-7338496D01*
X14426331Y-7335958D01*
X14430649Y-7332329D01*
X14434143Y-7328232D01*
X14436619Y-7324025D01*
X14438183Y-7319654D01*
X14438883Y-7315051D01*
X14438716Y-7310382D01*
X14437691Y-7305923D01*
X14435786Y-7301597D01*
X14432921Y-7297345D01*
G37*
G36*
X14386944Y-7373823D02*
G01*
X14350378Y-7296762D01*
X14337975Y-7309165D01*
X14365639Y-7365505D01*
X14309765Y-7337375D01*
X14297631Y-7349509D01*
X14374733Y-7386033D01*
X14386944Y-7373823D01*
G37*
G36*
X14336151Y-7394116D02*
G01*
X14324310Y-7403297D01*
X14326452Y-7406566D01*
X14327634Y-7409574D01*
X14328013Y-7412409D01*
X14327667Y-7415225D01*
X14326640Y-7417712D01*
X14324894Y-7419956D01*
X14322478Y-7421801D01*
X14319777Y-7422826D01*
X14316680Y-7423065D01*
X14313609Y-7422478D01*
X14310572Y-7420999D01*
X14307489Y-7418474D01*
X14305104Y-7415555D01*
X14303720Y-7412678D01*
X14303188Y-7409766D01*
X14303436Y-7406828D01*
X14304417Y-7404272D01*
X14306159Y-7401995D01*
X14308511Y-7400010D01*
X14311955Y-7397822D01*
X14301986Y-7390251D01*
X14298926Y-7392936D01*
X14296083Y-7394468D01*
X14293365Y-7395073D01*
X14290604Y-7394875D01*
X14288075Y-7393887D01*
X14285683Y-7392033D01*
X14284061Y-7390006D01*
X14283148Y-7387948D01*
X14282854Y-7385798D01*
X14283157Y-7383648D01*
X14284071Y-7381598D01*
X14285679Y-7379588D01*
X14287674Y-7378025D01*
X14289875Y-7377091D01*
X14292353Y-7376748D01*
X14294843Y-7377049D01*
X14297481Y-7378070D01*
X14300346Y-7379954D01*
X14308670Y-7368258D01*
X14304399Y-7365731D01*
X14300621Y-7364074D01*
X14297258Y-7363146D01*
X14293808Y-7362821D01*
X14290250Y-7363145D01*
X14286526Y-7364158D01*
X14282989Y-7365754D01*
X14279591Y-7367959D01*
X14276308Y-7370832D01*
X14272721Y-7375104D01*
X14270312Y-7379467D01*
X14268949Y-7383990D01*
X14268581Y-7388769D01*
X14269016Y-7392765D01*
X14270077Y-7396280D01*
X14271742Y-7399399D01*
X14274039Y-7402185D01*
X14277149Y-7404673D01*
X14280600Y-7406292D01*
X14284485Y-7407088D01*
X14288935Y-7407015D01*
X14294104Y-7405939D01*
X14292036Y-7410018D01*
X14291022Y-7414140D01*
X14291002Y-7418409D01*
X14291955Y-7422572D01*
X14293877Y-7426445D01*
X14296867Y-7430111D01*
X14300836Y-7433389D01*
X14305133Y-7435661D01*
X14309835Y-7436999D01*
X14315053Y-7437396D01*
X14320227Y-7436813D01*
X14325032Y-7435267D01*
X14329561Y-7432729D01*
X14333878Y-7429099D01*
X14337372Y-7425003D01*
X14339848Y-7420795D01*
X14341413Y-7416425D01*
X14342113Y-7411822D01*
X14341945Y-7407152D01*
X14340920Y-7402693D01*
X14339016Y-7398368D01*
X14336151Y-7394116D01*
G37*
X14546140Y-9536044D02*
X14546140Y-9589378D01*
X14565188Y-9505568D02*
X14584236Y-9562711D01*
X14584236Y-9562711D02*
X14534712Y-9562711D01*
G36*
X14173346Y-7295860D02*
G01*
X14163841Y-7286355D01*
X14139189Y-7311007D01*
X14161851Y-7333669D01*
X14166478Y-7333194D01*
X14171928Y-7331820D01*
X14178362Y-7329351D01*
X14184439Y-7326218D01*
X14189905Y-7322494D01*
X14194810Y-7318167D01*
X14199001Y-7313476D01*
X14202308Y-7308725D01*
X14204810Y-7303888D01*
X14206565Y-7298931D01*
X14207591Y-7293745D01*
X14207803Y-7288616D01*
X14207210Y-7283484D01*
X14205787Y-7278293D01*
X14202882Y-7271719D01*
X14198965Y-7265580D01*
X14193964Y-7259824D01*
X14189288Y-7255636D01*
X14184496Y-7252269D01*
X14179567Y-7249655D01*
X14174469Y-7247748D01*
X14169144Y-7246566D01*
X14163834Y-7246217D01*
X14158479Y-7246692D01*
X14153019Y-7248017D01*
X14147767Y-7250238D01*
X14142324Y-7253741D01*
X14136622Y-7258749D01*
X14131599Y-7264410D01*
X14128052Y-7269731D01*
X14125757Y-7274778D01*
X14124547Y-7279633D01*
X14124256Y-7284717D01*
X14124896Y-7289661D01*
X14126482Y-7294546D01*
X14129089Y-7299442D01*
X14142660Y-7290292D01*
X14141073Y-7286602D01*
X14140378Y-7282919D01*
X14140532Y-7279156D01*
X14141524Y-7275523D01*
X14143420Y-7271985D01*
X14146349Y-7268476D01*
X14150354Y-7265116D01*
X14154427Y-7262883D01*
X14158633Y-7261644D01*
X14163063Y-7261350D01*
X14167391Y-7262018D01*
X14171878Y-7263748D01*
X14176623Y-7266707D01*
X14181705Y-7271143D01*
X14186532Y-7276634D01*
X14189766Y-7281690D01*
X14191683Y-7286403D01*
X14192479Y-7290876D01*
X14192289Y-7295507D01*
X14191143Y-7299792D01*
X14189022Y-7303834D01*
X14185816Y-7307708D01*
X14181900Y-7310924D01*
X14177180Y-7313490D01*
X14172144Y-7315297D01*
X14167519Y-7316229D01*
X14160248Y-7308958D01*
X14173346Y-7295860D01*
G37*
G36*
X14158798Y-7351969D02*
G01*
X14101984Y-7295156D01*
X14090855Y-7306285D01*
X14105704Y-7367502D01*
X14067671Y-7329469D01*
X14057043Y-7340097D01*
X14113856Y-7396910D01*
X14125334Y-7385432D01*
X14110706Y-7325127D01*
X14148173Y-7362594D01*
X14158798Y-7351969D01*
G37*
G36*
X14101808Y-7408958D02*
G01*
X14080285Y-7430481D01*
X14073936Y-7436153D01*
X14068959Y-7439403D01*
X14064401Y-7441386D01*
X14060235Y-7442518D01*
X14056386Y-7442905D01*
X14051286Y-7442535D01*
X14045944Y-7441246D01*
X14040283Y-7438940D01*
X14035925Y-7436442D01*
X14031328Y-7433036D01*
X14026453Y-7428585D01*
X14021367Y-7423036D01*
X14017574Y-7417963D01*
X14014882Y-7413304D01*
X14012832Y-7408341D01*
X14011584Y-7403486D01*
X14011086Y-7398689D01*
X14011233Y-7396144D01*
X14026474Y-7396144D01*
X14026953Y-7400229D01*
X14028754Y-7404917D01*
X14031862Y-7409676D01*
X14037755Y-7416240D01*
X14044350Y-7422175D01*
X14049368Y-7425531D01*
X14052791Y-7427098D01*
X14055581Y-7427879D01*
X14057872Y-7428046D01*
X14061309Y-7427424D01*
X14064863Y-7425801D01*
X14067701Y-7423725D01*
X14072324Y-7419431D01*
X14080866Y-7410889D01*
X14043064Y-7373087D01*
X14037924Y-7378227D01*
X14031673Y-7384825D01*
X14029078Y-7388165D01*
X14027154Y-7392178D01*
X14026474Y-7396144D01*
X14011233Y-7396144D01*
X14011362Y-7393899D01*
X14012459Y-7389330D01*
X14014395Y-7384914D01*
X14017757Y-7380014D01*
X14024090Y-7373049D01*
X14044995Y-7352145D01*
X14101808Y-7408958D01*
G37*
G36*
X15535647Y-7275119D02*
G01*
X15524207Y-7286559D01*
X15500554Y-7262905D01*
X15498236Y-7265223D01*
X15494753Y-7269087D01*
X15493117Y-7271620D01*
X15492269Y-7274220D01*
X15492029Y-7277413D01*
X15492493Y-7281671D01*
X15494319Y-7291758D01*
X15498395Y-7312372D01*
X15484717Y-7326050D01*
X15480578Y-7308082D01*
X15478525Y-7298048D01*
X15477895Y-7292369D01*
X15478132Y-7287280D01*
X15479262Y-7281488D01*
X15474756Y-7284399D01*
X15470557Y-7286271D01*
X15466596Y-7287251D01*
X15462797Y-7287433D01*
X15458992Y-7286863D01*
X15455371Y-7285570D01*
X15451875Y-7283513D01*
X15448462Y-7280601D01*
X15445452Y-7277022D01*
X15443310Y-7273226D01*
X15441965Y-7269157D01*
X15441445Y-7264922D01*
X15441602Y-7263285D01*
X15457771Y-7263285D01*
X15458212Y-7265379D01*
X15459234Y-7267434D01*
X15460931Y-7269499D01*
X15463670Y-7271624D01*
X15466406Y-7272653D01*
X15469241Y-7272745D01*
X15472043Y-7271879D01*
X15475311Y-7269545D01*
X15483027Y-7262304D01*
X15491490Y-7253842D01*
X15476900Y-7239252D01*
X15467974Y-7248177D01*
X15459823Y-7256722D01*
X15458131Y-7260065D01*
X15457771Y-7263285D01*
X15441602Y-7263285D01*
X15441828Y-7260939D01*
X15443098Y-7257109D01*
X15445156Y-7253523D01*
X15448852Y-7248721D01*
X15454759Y-7242381D01*
X15478834Y-7218306D01*
X15535647Y-7275119D01*
G37*
G36*
X15484299Y-7326468D02*
G01*
X15435147Y-7316513D01*
X15425668Y-7271472D01*
X15412298Y-7284842D01*
X15418083Y-7313059D01*
X15389808Y-7307332D01*
X15376554Y-7320586D01*
X15421548Y-7329967D01*
X15431627Y-7379140D01*
X15445422Y-7365344D01*
X15438732Y-7333549D01*
X15470579Y-7340188D01*
X15484299Y-7326468D01*
G37*
G36*
X15425800Y-7384967D02*
G01*
X15404277Y-7406489D01*
X15397927Y-7412162D01*
X15392951Y-7415411D01*
X15388393Y-7417395D01*
X15384227Y-7418526D01*
X15380378Y-7418914D01*
X15375278Y-7418544D01*
X15369936Y-7417255D01*
X15364275Y-7414949D01*
X15359917Y-7412450D01*
X15355319Y-7409044D01*
X15350445Y-7404593D01*
X15345358Y-7399045D01*
X15341566Y-7393971D01*
X15338873Y-7389312D01*
X15336824Y-7384350D01*
X15335576Y-7379495D01*
X15335077Y-7374698D01*
X15335224Y-7372152D01*
X15350465Y-7372152D01*
X15350945Y-7376237D01*
X15352745Y-7380926D01*
X15355854Y-7385684D01*
X15361747Y-7392248D01*
X15368342Y-7398183D01*
X15373359Y-7401540D01*
X15376782Y-7403107D01*
X15379573Y-7403887D01*
X15381863Y-7404054D01*
X15385301Y-7403432D01*
X15388854Y-7401809D01*
X15391693Y-7399733D01*
X15396315Y-7395440D01*
X15404857Y-7386898D01*
X15367056Y-7349096D01*
X15361916Y-7354236D01*
X15355664Y-7360834D01*
X15353070Y-7364173D01*
X15351146Y-7368186D01*
X15350465Y-7372152D01*
X15335224Y-7372152D01*
X15335354Y-7369908D01*
X15336451Y-7365339D01*
X15338386Y-7360923D01*
X15341749Y-7356022D01*
X15348082Y-7349058D01*
X15368986Y-7328154D01*
X15425800Y-7384967D01*
G37*
G36*
X15314477Y-7394269D02*
G01*
X15319054Y-7395250D01*
X15324099Y-7397267D01*
X15329718Y-7400518D01*
X15336018Y-7405252D01*
X15343101Y-7411764D01*
X15349861Y-7419067D01*
X15354677Y-7425352D01*
X15357902Y-7430763D01*
X15359840Y-7435438D01*
X15360734Y-7439518D01*
X15360781Y-7445084D01*
X15359649Y-7450133D01*
X15357348Y-7454808D01*
X15353764Y-7459213D01*
X15349362Y-7462839D01*
X15344856Y-7465137D01*
X15340155Y-7466259D01*
X15335129Y-7466242D01*
X15330555Y-7465260D01*
X15325506Y-7463238D01*
X15319873Y-7459975D01*
X15313549Y-7455219D01*
X15306429Y-7448671D01*
X15299853Y-7441524D01*
X15295089Y-7435198D01*
X15291832Y-7429583D01*
X15289823Y-7424571D01*
X15288858Y-7420047D01*
X15288825Y-7415111D01*
X15302664Y-7415111D01*
X15303036Y-7418046D01*
X15305113Y-7422624D01*
X15308920Y-7427813D01*
X15317789Y-7437310D01*
X15327365Y-7446202D01*
X15333032Y-7450315D01*
X15337043Y-7452104D01*
X15339930Y-7452412D01*
X15342524Y-7451700D01*
X15344700Y-7450149D01*
X15346251Y-7447982D01*
X15346963Y-7445421D01*
X15346873Y-7443623D01*
X15346150Y-7441197D01*
X15344535Y-7437929D01*
X15340725Y-7432736D01*
X15331858Y-7423242D01*
X15322276Y-7414342D01*
X15316574Y-7410196D01*
X15312563Y-7408406D01*
X15309679Y-7408096D01*
X15307083Y-7408810D01*
X15304909Y-7410358D01*
X15303362Y-7412532D01*
X15302664Y-7415111D01*
X15288825Y-7415111D01*
X15288824Y-7414959D01*
X15289938Y-7410218D01*
X15292228Y-7405694D01*
X15295845Y-7401294D01*
X15300245Y-7397670D01*
X15304750Y-7395374D01*
X15309451Y-7394251D01*
X15314477Y-7394269D01*
G37*
X14953521Y-9689378D02*
X14999236Y-9689378D01*
X14976378Y-9689378D02*
X14976378Y-9609378D01*
X14976378Y-9609378D02*
X14983997Y-9620806D01*
X14983997Y-9620806D02*
X14991616Y-9628425D01*
X14991616Y-9628425D02*
X14999236Y-9632235D01*
X14915426Y-9689378D02*
X14900188Y-9689378D01*
X14900188Y-9689378D02*
X14892569Y-9685568D01*
X14892569Y-9685568D02*
X14888759Y-9681758D01*
X14888759Y-9681758D02*
X14881140Y-9670330D01*
X14881140Y-9670330D02*
X14877331Y-9655092D01*
X14877331Y-9655092D02*
X14877331Y-9624616D01*
X14877331Y-9624616D02*
X14881140Y-9616997D01*
X14881140Y-9616997D02*
X14884950Y-9613187D01*
X14884950Y-9613187D02*
X14892569Y-9609378D01*
X14892569Y-9609378D02*
X14907807Y-9609378D01*
X14907807Y-9609378D02*
X14915426Y-9613187D01*
X14915426Y-9613187D02*
X14919235Y-9616997D01*
X14919235Y-9616997D02*
X14923045Y-9624616D01*
X14923045Y-9624616D02*
X14923045Y-9643663D01*
X14923045Y-9643663D02*
X14919235Y-9651282D01*
X14919235Y-9651282D02*
X14915426Y-9655092D01*
X14915426Y-9655092D02*
X14907807Y-9658901D01*
X14907807Y-9658901D02*
X14892569Y-9658901D01*
X14892569Y-9658901D02*
X14884950Y-9655092D01*
X14884950Y-9655092D02*
X14881140Y-9651282D01*
X14881140Y-9651282D02*
X14877331Y-9643663D01*
X15052807Y-9509378D02*
X15068045Y-9509378D01*
X15068045Y-9509378D02*
X15075664Y-9513187D01*
X15075664Y-9513187D02*
X15079474Y-9516997D01*
X15079474Y-9516997D02*
X15087093Y-9528425D01*
X15087093Y-9528425D02*
X15090902Y-9543663D01*
X15090902Y-9543663D02*
X15090902Y-9574139D01*
X15090902Y-9574139D02*
X15087093Y-9581758D01*
X15087093Y-9581758D02*
X15083283Y-9585568D01*
X15083283Y-9585568D02*
X15075664Y-9589378D01*
X15075664Y-9589378D02*
X15060426Y-9589378D01*
X15060426Y-9589378D02*
X15052807Y-9585568D01*
X15052807Y-9585568D02*
X15048997Y-9581758D01*
X15048997Y-9581758D02*
X15045188Y-9574139D01*
X15045188Y-9574139D02*
X15045188Y-9555092D01*
X15045188Y-9555092D02*
X15048997Y-9547473D01*
X15048997Y-9547473D02*
X15052807Y-9543663D01*
X15052807Y-9543663D02*
X15060426Y-9539854D01*
X15060426Y-9539854D02*
X15075664Y-9539854D01*
X15075664Y-9539854D02*
X15083283Y-9543663D01*
X15083283Y-9543663D02*
X15087093Y-9547473D01*
X15087093Y-9547473D02*
X15090902Y-9555092D01*
X15249236Y-9616997D02*
X15245426Y-9613187D01*
X15245426Y-9613187D02*
X15237807Y-9609378D01*
X15237807Y-9609378D02*
X15218759Y-9609378D01*
X15218759Y-9609378D02*
X15211140Y-9613187D01*
X15211140Y-9613187D02*
X15207331Y-9616997D01*
X15207331Y-9616997D02*
X15203521Y-9624616D01*
X15203521Y-9624616D02*
X15203521Y-9632235D01*
X15203521Y-9632235D02*
X15207331Y-9643663D01*
X15207331Y-9643663D02*
X15253045Y-9689378D01*
X15253045Y-9689378D02*
X15203521Y-9689378D01*
X15153997Y-9609378D02*
X15146378Y-9609378D01*
X15146378Y-9609378D02*
X15138759Y-9613187D01*
X15138759Y-9613187D02*
X15134950Y-9616997D01*
X15134950Y-9616997D02*
X15131140Y-9624616D01*
X15131140Y-9624616D02*
X15127331Y-9639854D01*
X15127331Y-9639854D02*
X15127331Y-9658901D01*
X15127331Y-9658901D02*
X15131140Y-9674139D01*
X15131140Y-9674139D02*
X15134950Y-9681758D01*
X15134950Y-9681758D02*
X15138759Y-9685568D01*
X15138759Y-9685568D02*
X15146378Y-9689378D01*
X15146378Y-9689378D02*
X15153997Y-9689378D01*
X15153997Y-9689378D02*
X15161616Y-9685568D01*
X15161616Y-9685568D02*
X15165426Y-9681758D01*
X15165426Y-9681758D02*
X15169235Y-9674139D01*
X15169235Y-9674139D02*
X15173045Y-9658901D01*
X15173045Y-9658901D02*
X15173045Y-9639854D01*
X15173045Y-9639854D02*
X15169235Y-9624616D01*
X15169235Y-9624616D02*
X15165426Y-9616997D01*
X15165426Y-9616997D02*
X15161616Y-9613187D01*
X15161616Y-9613187D02*
X15153997Y-9609378D01*
X15348045Y-9509378D02*
X15294712Y-9509378D01*
X15294712Y-9509378D02*
X15328997Y-9589378D01*
G36*
X15086465Y-7288047D02*
G01*
X15074230Y-7298071D01*
X15076772Y-7302554D01*
X15078020Y-7306546D01*
X15078199Y-7310192D01*
X15077393Y-7313755D01*
X15075550Y-7317344D01*
X15072475Y-7321048D01*
X15068555Y-7324372D01*
X15065051Y-7326280D01*
X15061844Y-7327072D01*
X15058559Y-7326988D01*
X15055882Y-7326117D01*
X15053654Y-7324485D01*
X15052105Y-7322335D01*
X15051464Y-7319939D01*
X15051726Y-7317254D01*
X15053164Y-7313404D01*
X15059806Y-7301733D01*
X15064022Y-7293781D01*
X15066260Y-7287731D01*
X15067046Y-7283156D01*
X15066831Y-7278307D01*
X15065715Y-7273977D01*
X15063716Y-7270053D01*
X15060773Y-7266452D01*
X15057667Y-7263888D01*
X15054155Y-7261994D01*
X15050165Y-7260750D01*
X15046017Y-7260296D01*
X15041760Y-7260707D01*
X15037306Y-7262038D01*
X15033100Y-7264113D01*
X15028736Y-7267118D01*
X15024173Y-7271198D01*
X15019112Y-7276954D01*
X15015708Y-7282269D01*
X15013676Y-7287235D01*
X15012816Y-7291958D01*
X15012981Y-7296843D01*
X15014148Y-7301443D01*
X15016347Y-7305857D01*
X15019697Y-7310161D01*
X15031579Y-7299163D01*
X15029521Y-7295631D01*
X15028550Y-7292535D01*
X15028460Y-7289743D01*
X15029182Y-7287029D01*
X15030868Y-7284013D01*
X15033793Y-7280590D01*
X15037323Y-7277579D01*
X15040583Y-7275734D01*
X15043654Y-7274839D01*
X15045662Y-7274809D01*
X15047411Y-7275370D01*
X15048994Y-7276545D01*
X15050430Y-7278808D01*
X15050746Y-7281695D01*
X15050118Y-7284323D01*
X15048147Y-7288820D01*
X15044058Y-7296030D01*
X15038499Y-7305988D01*
X15035827Y-7312489D01*
X15034925Y-7316583D01*
X15034768Y-7320570D01*
X15035333Y-7324513D01*
X15036643Y-7328266D01*
X15038855Y-7332014D01*
X15042107Y-7335811D01*
X15045578Y-7338684D01*
X15049498Y-7340819D01*
X15053944Y-7342239D01*
X15058559Y-7342781D01*
X15063187Y-7342353D01*
X15067923Y-7340916D01*
X15072384Y-7338653D01*
X15077163Y-7335300D01*
X15082320Y-7330657D01*
X15087386Y-7324879D01*
X15090849Y-7319441D01*
X15092965Y-7314262D01*
X15093908Y-7309245D01*
X15093783Y-7304101D01*
X15092575Y-7298918D01*
X15090193Y-7293595D01*
X15086465Y-7288047D01*
G37*
G36*
X15048953Y-7361814D02*
G01*
X15027430Y-7383336D01*
X15021080Y-7389008D01*
X15016104Y-7392258D01*
X15011546Y-7394242D01*
X15007380Y-7395373D01*
X15003531Y-7395761D01*
X14998431Y-7395391D01*
X14993089Y-7394101D01*
X14987428Y-7391795D01*
X14983070Y-7389297D01*
X14978472Y-7385891D01*
X14973598Y-7381440D01*
X14968512Y-7375892D01*
X14964719Y-7370818D01*
X14962027Y-7366159D01*
X14959977Y-7361196D01*
X14958729Y-7356341D01*
X14958231Y-7351544D01*
X14958378Y-7348999D01*
X14973619Y-7348999D01*
X14974098Y-7353084D01*
X14975898Y-7357772D01*
X14979007Y-7362531D01*
X14984900Y-7369095D01*
X14991495Y-7375030D01*
X14996513Y-7378386D01*
X14999936Y-7379954D01*
X15002726Y-7380734D01*
X15005017Y-7380901D01*
X15008454Y-7380279D01*
X15012008Y-7378656D01*
X15014846Y-7376580D01*
X15019469Y-7372286D01*
X15028011Y-7363744D01*
X14990209Y-7325943D01*
X14985069Y-7331082D01*
X14978818Y-7337680D01*
X14976223Y-7341020D01*
X14974299Y-7345033D01*
X14973619Y-7348999D01*
X14958378Y-7348999D01*
X14958507Y-7346754D01*
X14959604Y-7342186D01*
X14961540Y-7337769D01*
X14964902Y-7332869D01*
X14971235Y-7325905D01*
X14992140Y-7305000D01*
X15048953Y-7361814D01*
G37*
G36*
X14997528Y-7413238D02*
G01*
X14985394Y-7425373D01*
X14967895Y-7417228D01*
X14945254Y-7439870D01*
X14953129Y-7457638D01*
X14940684Y-7470083D01*
X14909594Y-7397667D01*
X14926000Y-7397667D01*
X14939416Y-7426696D01*
X14954873Y-7411238D01*
X14926000Y-7397667D01*
X14909594Y-7397667D01*
X14906554Y-7390586D01*
X14918650Y-7378490D01*
X14997528Y-7413238D01*
G37*
X14428521Y-9689378D02*
X14474236Y-9689378D01*
X14451378Y-9689378D02*
X14451378Y-9609378D01*
X14451378Y-9609378D02*
X14458997Y-9620806D01*
X14458997Y-9620806D02*
X14466616Y-9628425D01*
X14466616Y-9628425D02*
X14474236Y-9632235D01*
X14401855Y-9609378D02*
X14348521Y-9609378D01*
X14348521Y-9609378D02*
X14382807Y-9689378D01*
G36*
X15347677Y-7286835D02*
G01*
X15335443Y-7296859D01*
X15337984Y-7301341D01*
X15339232Y-7305333D01*
X15339412Y-7308979D01*
X15338606Y-7312542D01*
X15336763Y-7316132D01*
X15333688Y-7319835D01*
X15329768Y-7323160D01*
X15326264Y-7325067D01*
X15323056Y-7325859D01*
X15319772Y-7325776D01*
X15317095Y-7324904D01*
X15314867Y-7323272D01*
X15313318Y-7321122D01*
X15312677Y-7318727D01*
X15312938Y-7316041D01*
X15314376Y-7312191D01*
X15321019Y-7300520D01*
X15325235Y-7292569D01*
X15327473Y-7286518D01*
X15328258Y-7281944D01*
X15328043Y-7277094D01*
X15326927Y-7272764D01*
X15324929Y-7268840D01*
X15321986Y-7265240D01*
X15318880Y-7262675D01*
X15315367Y-7260782D01*
X15311378Y-7259537D01*
X15307230Y-7259083D01*
X15302972Y-7259494D01*
X15298518Y-7260825D01*
X15294313Y-7262901D01*
X15289949Y-7265906D01*
X15285386Y-7269986D01*
X15280324Y-7275742D01*
X15276920Y-7281057D01*
X15274889Y-7286022D01*
X15274029Y-7290745D01*
X15274193Y-7295630D01*
X15275360Y-7300230D01*
X15277560Y-7304644D01*
X15280909Y-7308948D01*
X15292791Y-7297950D01*
X15290734Y-7294418D01*
X15289763Y-7291322D01*
X15289672Y-7288531D01*
X15290395Y-7285816D01*
X15292081Y-7282801D01*
X15295006Y-7279377D01*
X15298536Y-7276366D01*
X15301796Y-7274522D01*
X15304867Y-7273626D01*
X15306874Y-7273596D01*
X15308623Y-7274157D01*
X15310207Y-7275333D01*
X15311642Y-7277596D01*
X15311958Y-7280483D01*
X15311331Y-7283110D01*
X15309360Y-7287607D01*
X15305271Y-7294817D01*
X15299712Y-7304775D01*
X15297040Y-7311276D01*
X15296138Y-7315370D01*
X15295980Y-7319357D01*
X15296546Y-7323300D01*
X15297856Y-7327053D01*
X15300068Y-7330802D01*
X15303320Y-7334598D01*
X15306791Y-7337472D01*
X15310711Y-7339606D01*
X15315157Y-7341026D01*
X15319771Y-7341568D01*
X15324399Y-7341140D01*
X15329136Y-7339703D01*
X15333597Y-7337441D01*
X15338376Y-7334088D01*
X15343532Y-7329445D01*
X15348599Y-7323667D01*
X15352062Y-7318228D01*
X15354177Y-7313049D01*
X15355121Y-7308033D01*
X15354996Y-7302889D01*
X15353788Y-7297705D01*
X15351405Y-7292382D01*
X15347677Y-7286835D01*
G37*
G36*
X15252879Y-7375885D02*
G01*
X15245325Y-7390513D01*
X15251490Y-7393514D01*
X15257202Y-7395317D01*
X15262554Y-7396069D01*
X15267639Y-7395860D01*
X15272620Y-7394725D01*
X15277503Y-7392655D01*
X15282350Y-7389568D01*
X15287206Y-7385329D01*
X15291345Y-7380540D01*
X15294427Y-7375576D01*
X15296548Y-7370388D01*
X15297756Y-7364913D01*
X15298049Y-7359067D01*
X15297397Y-7353355D01*
X15295772Y-7347728D01*
X15293115Y-7342116D01*
X15289319Y-7336463D01*
X15284232Y-7330723D01*
X15278138Y-7325297D01*
X15272220Y-7321270D01*
X15266428Y-7318465D01*
X15260701Y-7316755D01*
X15254965Y-7316060D01*
X15249089Y-7316342D01*
X15243522Y-7317584D01*
X15238180Y-7319797D01*
X15232998Y-7323044D01*
X15227930Y-7327441D01*
X15223212Y-7332987D01*
X15219944Y-7338620D01*
X15217962Y-7344415D01*
X15217188Y-7350473D01*
X15217556Y-7355365D01*
X15219038Y-7360732D01*
X15221827Y-7366704D01*
X15235802Y-7358034D01*
X15233956Y-7354314D01*
X15233059Y-7350628D01*
X15233042Y-7346888D01*
X15233883Y-7343243D01*
X15235584Y-7339834D01*
X15238237Y-7336588D01*
X15241595Y-7333821D01*
X15245125Y-7331997D01*
X15248894Y-7331026D01*
X15252997Y-7330899D01*
X15256901Y-7331661D01*
X15261218Y-7333527D01*
X15266077Y-7336747D01*
X15271597Y-7341658D01*
X15276863Y-7347537D01*
X15280289Y-7352600D01*
X15282261Y-7356993D01*
X15283075Y-7360867D01*
X15282994Y-7364966D01*
X15282069Y-7368707D01*
X15280299Y-7372191D01*
X15277597Y-7375485D01*
X15274336Y-7378079D01*
X15270777Y-7379695D01*
X15266820Y-7380396D01*
X15262789Y-7380108D01*
X15258199Y-7378692D01*
X15252879Y-7375885D01*
G37*
G36*
X15252675Y-7418091D02*
G01*
X15196525Y-7361941D01*
X15185085Y-7373381D01*
X15231730Y-7420025D01*
X15203288Y-7448467D01*
X15212794Y-7457972D01*
X15252675Y-7418091D01*
G37*
G36*
X14359244Y-8755269D02*
G01*
X14347009Y-8765293D01*
X14349551Y-8769775D01*
X14350798Y-8773767D01*
X14350978Y-8777413D01*
X14350172Y-8780976D01*
X14348329Y-8784566D01*
X14345254Y-8788269D01*
X14341334Y-8791594D01*
X14337830Y-8793501D01*
X14334623Y-8794293D01*
X14331338Y-8794210D01*
X14328661Y-8793338D01*
X14326433Y-8791706D01*
X14324884Y-8789556D01*
X14324243Y-8787161D01*
X14324504Y-8784475D01*
X14325942Y-8780625D01*
X14332585Y-8768954D01*
X14336801Y-8761003D01*
X14339039Y-8754952D01*
X14339824Y-8750378D01*
X14339609Y-8745528D01*
X14338494Y-8741198D01*
X14336495Y-8737274D01*
X14333552Y-8733674D01*
X14330446Y-8731109D01*
X14326933Y-8729216D01*
X14322944Y-8727971D01*
X14318796Y-8727517D01*
X14314538Y-8727928D01*
X14310085Y-8729259D01*
X14305879Y-8731335D01*
X14301515Y-8734340D01*
X14296952Y-8738419D01*
X14291890Y-8744176D01*
X14288486Y-8749491D01*
X14286455Y-8754456D01*
X14285595Y-8759179D01*
X14285759Y-8764064D01*
X14286926Y-8768664D01*
X14289126Y-8773078D01*
X14292475Y-8777382D01*
X14304358Y-8766384D01*
X14302300Y-8762852D01*
X14301329Y-8759756D01*
X14301239Y-8756965D01*
X14301961Y-8754250D01*
X14303647Y-8751235D01*
X14306572Y-8747811D01*
X14310102Y-8744800D01*
X14313362Y-8742956D01*
X14316433Y-8742060D01*
X14318440Y-8742030D01*
X14320190Y-8742591D01*
X14321773Y-8743766D01*
X14323208Y-8746030D01*
X14323525Y-8748917D01*
X14322897Y-8751544D01*
X14320926Y-8756041D01*
X14316837Y-8763251D01*
X14311278Y-8773209D01*
X14308606Y-8779710D01*
X14307704Y-8783804D01*
X14307547Y-8787791D01*
X14308112Y-8791734D01*
X14309422Y-8795487D01*
X14311634Y-8799236D01*
X14314886Y-8803032D01*
X14318357Y-8805905D01*
X14322277Y-8808040D01*
X14326723Y-8809460D01*
X14331338Y-8810002D01*
X14335966Y-8809574D01*
X14340702Y-8808137D01*
X14345163Y-8805875D01*
X14349942Y-8802521D01*
X14355099Y-8797879D01*
X14360165Y-8792101D01*
X14363628Y-8786662D01*
X14365743Y-8781483D01*
X14366687Y-8776467D01*
X14366562Y-8771323D01*
X14365354Y-8766139D01*
X14362971Y-8760816D01*
X14359244Y-8755269D01*
G37*
G36*
X14306817Y-8843950D02*
G01*
X14282904Y-8820037D01*
X14270756Y-8766384D01*
X14257344Y-8779796D01*
X14266535Y-8815647D01*
X14230951Y-8806189D01*
X14217773Y-8819367D01*
X14271585Y-8831515D01*
X14295418Y-8855348D01*
X14306817Y-8843950D01*
G37*
G36*
X14268798Y-8881969D02*
G01*
X14211984Y-8825156D01*
X14200855Y-8836285D01*
X14215704Y-8897502D01*
X14177671Y-8859469D01*
X14167043Y-8870097D01*
X14223856Y-8926911D01*
X14235334Y-8915433D01*
X14220706Y-8855127D01*
X14258173Y-8892594D01*
X14268798Y-8881969D01*
G37*
G36*
X14154522Y-8954243D02*
G01*
X14146967Y-8968871D01*
X14153133Y-8971872D01*
X14158845Y-8973674D01*
X14164196Y-8974426D01*
X14169281Y-8974218D01*
X14174262Y-8973083D01*
X14179145Y-8971013D01*
X14183993Y-8967926D01*
X14188849Y-8963687D01*
X14192987Y-8958898D01*
X14196069Y-8953933D01*
X14198190Y-8948746D01*
X14199399Y-8943270D01*
X14199691Y-8937425D01*
X14199039Y-8931713D01*
X14197414Y-8926086D01*
X14194758Y-8920474D01*
X14190962Y-8914820D01*
X14185875Y-8909080D01*
X14179780Y-8903654D01*
X14173862Y-8899627D01*
X14168070Y-8896823D01*
X14162343Y-8895112D01*
X14156608Y-8894418D01*
X14150732Y-8894700D01*
X14145164Y-8895942D01*
X14139822Y-8898155D01*
X14134641Y-8901402D01*
X14129572Y-8905799D01*
X14124854Y-8911345D01*
X14121587Y-8916978D01*
X14119604Y-8922772D01*
X14118830Y-8928831D01*
X14119199Y-8933723D01*
X14120681Y-8939089D01*
X14123469Y-8945062D01*
X14137444Y-8936392D01*
X14135598Y-8932671D01*
X14134701Y-8928986D01*
X14134685Y-8925246D01*
X14135526Y-8921601D01*
X14137227Y-8918192D01*
X14139880Y-8914946D01*
X14143237Y-8912179D01*
X14146767Y-8910355D01*
X14150536Y-8909384D01*
X14154639Y-8909257D01*
X14158543Y-8910019D01*
X14162861Y-8911884D01*
X14167720Y-8915104D01*
X14173239Y-8920016D01*
X14178505Y-8925895D01*
X14181931Y-8930958D01*
X14183903Y-8935351D01*
X14184717Y-8939224D01*
X14184636Y-8943323D01*
X14183712Y-8947065D01*
X14181941Y-8950548D01*
X14179239Y-8953842D01*
X14175978Y-8956437D01*
X14172419Y-8958053D01*
X14168462Y-8958754D01*
X14164431Y-8958465D01*
X14159842Y-8957050D01*
X14154522Y-8954243D01*
G37*
X14077569Y-9516997D02*
X14073759Y-9513187D01*
X14073759Y-9513187D02*
X14066140Y-9509378D01*
X14066140Y-9509378D02*
X14047093Y-9509378D01*
X14047093Y-9509378D02*
X14039474Y-9513187D01*
X14039474Y-9513187D02*
X14035664Y-9516997D01*
X14035664Y-9516997D02*
X14031855Y-9524616D01*
X14031855Y-9524616D02*
X14031855Y-9532235D01*
X14031855Y-9532235D02*
X14035664Y-9543663D01*
X14035664Y-9543663D02*
X14081378Y-9589378D01*
X14081378Y-9589378D02*
X14031855Y-9589378D01*
G36*
X14337300Y-8981464D02*
G01*
X14329746Y-8996092D01*
X14335912Y-8999093D01*
X14341623Y-9000895D01*
X14346975Y-9001647D01*
X14352060Y-9001439D01*
X14357041Y-9000304D01*
X14361924Y-8998234D01*
X14366771Y-8995147D01*
X14371627Y-8990908D01*
X14375766Y-8986119D01*
X14378848Y-8981155D01*
X14380969Y-8975967D01*
X14382177Y-8970491D01*
X14382470Y-8964646D01*
X14381818Y-8958934D01*
X14380193Y-8953307D01*
X14377537Y-8947695D01*
X14373741Y-8942041D01*
X14368653Y-8936302D01*
X14362559Y-8930876D01*
X14356641Y-8926848D01*
X14350849Y-8924044D01*
X14345122Y-8922334D01*
X14339387Y-8921639D01*
X14333511Y-8921921D01*
X14327943Y-8923163D01*
X14322601Y-8925376D01*
X14317420Y-8928623D01*
X14312351Y-8933020D01*
X14307633Y-8938566D01*
X14304366Y-8944199D01*
X14302383Y-8949993D01*
X14301609Y-8956052D01*
X14301977Y-8960944D01*
X14303460Y-8966310D01*
X14306248Y-8972283D01*
X14320223Y-8963613D01*
X14318377Y-8959893D01*
X14317480Y-8956207D01*
X14317463Y-8952467D01*
X14318305Y-8948822D01*
X14320006Y-8945413D01*
X14322658Y-8942167D01*
X14326016Y-8939400D01*
X14329546Y-8937576D01*
X14333315Y-8936605D01*
X14337418Y-8936478D01*
X14341322Y-8937240D01*
X14345640Y-8939105D01*
X14350498Y-8942325D01*
X14356018Y-8947237D01*
X14361284Y-8953116D01*
X14364710Y-8958179D01*
X14366682Y-8962572D01*
X14367496Y-8966446D01*
X14367415Y-8970545D01*
X14366491Y-8974286D01*
X14364720Y-8977769D01*
X14362018Y-8981063D01*
X14358757Y-8983658D01*
X14355198Y-8985274D01*
X14351241Y-8985975D01*
X14347210Y-8985686D01*
X14342620Y-8984271D01*
X14337300Y-8981464D01*
G37*
G36*
X14337404Y-9023363D02*
G01*
X14280591Y-8966549D01*
X14238585Y-9008555D01*
X14248091Y-9018060D01*
X14278660Y-8987492D01*
X14291261Y-9000092D01*
X14262819Y-9028533D01*
X14272325Y-9038039D01*
X14300766Y-9009598D01*
X14316462Y-9025293D01*
X14284812Y-9056943D01*
X14294317Y-9066449D01*
X14337404Y-9023363D01*
G37*
G36*
X15558163Y-6982603D02*
G01*
X15546723Y-6994043D01*
X15523070Y-6970389D01*
X15520752Y-6972707D01*
X15517269Y-6976571D01*
X15515633Y-6979104D01*
X15514784Y-6981704D01*
X15514545Y-6984897D01*
X15515009Y-6989156D01*
X15516835Y-6999242D01*
X15520911Y-7019856D01*
X15507232Y-7033534D01*
X15503094Y-7015566D01*
X15501041Y-7005532D01*
X15500411Y-6999853D01*
X15500648Y-6994764D01*
X15501778Y-6988973D01*
X15497272Y-6991883D01*
X15493073Y-6993755D01*
X15489112Y-6994735D01*
X15485313Y-6994917D01*
X15481508Y-6994347D01*
X15477887Y-6993054D01*
X15474391Y-6990997D01*
X15470978Y-6988085D01*
X15467968Y-6984506D01*
X15465826Y-6980710D01*
X15464481Y-6976641D01*
X15463961Y-6972406D01*
X15464118Y-6970769D01*
X15480287Y-6970769D01*
X15480728Y-6972863D01*
X15481750Y-6974918D01*
X15483447Y-6976983D01*
X15486186Y-6979109D01*
X15488922Y-6980137D01*
X15491757Y-6980229D01*
X15494559Y-6979363D01*
X15497826Y-6977029D01*
X15505543Y-6969788D01*
X15514006Y-6961326D01*
X15499416Y-6946736D01*
X15490490Y-6955661D01*
X15482339Y-6964207D01*
X15480647Y-6967549D01*
X15480287Y-6970769D01*
X15464118Y-6970769D01*
X15464344Y-6968423D01*
X15465614Y-6964593D01*
X15467672Y-6961007D01*
X15471368Y-6956205D01*
X15477275Y-6949865D01*
X15501350Y-6925790D01*
X15558163Y-6982603D01*
G37*
G36*
X15501056Y-7039710D02*
G01*
X15444243Y-6982897D01*
X15402238Y-7024902D01*
X15411743Y-7034408D01*
X15442312Y-7003839D01*
X15454913Y-7016440D01*
X15426472Y-7044881D01*
X15435977Y-7054387D01*
X15464419Y-7025945D01*
X15480114Y-7041641D01*
X15448464Y-7073291D01*
X15457970Y-7082797D01*
X15501056Y-7039710D01*
G37*
G36*
X15448202Y-7092565D02*
G01*
X15391388Y-7035752D01*
X15352550Y-7074590D01*
X15362056Y-7084095D01*
X15389454Y-7056697D01*
X15403160Y-7070403D01*
X15379510Y-7094054D01*
X15389015Y-7103559D01*
X15412666Y-7079909D01*
X15436762Y-7104005D01*
X15448202Y-7092565D01*
G37*
G36*
X15386204Y-7124498D02*
G01*
X15375372Y-7113666D01*
X15354039Y-7134999D01*
X15364871Y-7145831D01*
X15386204Y-7124498D01*
G37*
G36*
X15316310Y-7182455D02*
G01*
X15308755Y-7197083D01*
X15314921Y-7200083D01*
X15320633Y-7201886D01*
X15325984Y-7202638D01*
X15331069Y-7202430D01*
X15336050Y-7201294D01*
X15340933Y-7199225D01*
X15345781Y-7196137D01*
X15350637Y-7191898D01*
X15354775Y-7187110D01*
X15357857Y-7182145D01*
X15359978Y-7176958D01*
X15361187Y-7171482D01*
X15361479Y-7165637D01*
X15360827Y-7159925D01*
X15359202Y-7154298D01*
X15356546Y-7148686D01*
X15352750Y-7143032D01*
X15347663Y-7137292D01*
X15341569Y-7131866D01*
X15335650Y-7127839D01*
X15329858Y-7125035D01*
X15324131Y-7123324D01*
X15318396Y-7122630D01*
X15312520Y-7122911D01*
X15306952Y-7124154D01*
X15301610Y-7126367D01*
X15296429Y-7129614D01*
X15291361Y-7134011D01*
X15286643Y-7139557D01*
X15283375Y-7145190D01*
X15281392Y-7150984D01*
X15280618Y-7157043D01*
X15280987Y-7161935D01*
X15282469Y-7167301D01*
X15285257Y-7173274D01*
X15299232Y-7164604D01*
X15297386Y-7160883D01*
X15296489Y-7157197D01*
X15296473Y-7153458D01*
X15297314Y-7149813D01*
X15299015Y-7146404D01*
X15301668Y-7143157D01*
X15305026Y-7140391D01*
X15308555Y-7138567D01*
X15312324Y-7137596D01*
X15316427Y-7137468D01*
X15320331Y-7138231D01*
X15324649Y-7140096D01*
X15329508Y-7143316D01*
X15335027Y-7148228D01*
X15340293Y-7154106D01*
X15343719Y-7159170D01*
X15345691Y-7163563D01*
X15346506Y-7167436D01*
X15346424Y-7171535D01*
X15345500Y-7175277D01*
X15343729Y-7178760D01*
X15341027Y-7182054D01*
X15337767Y-7184649D01*
X15334207Y-7186265D01*
X15330250Y-7186966D01*
X15326219Y-7186677D01*
X15321630Y-7185261D01*
X15316310Y-7182455D01*
G37*
G36*
X15316106Y-7224661D02*
G01*
X15259956Y-7168511D01*
X15248516Y-7179951D01*
X15295160Y-7226595D01*
X15266719Y-7255036D01*
X15276225Y-7264542D01*
X15316106Y-7224661D01*
G37*
G36*
X15267900Y-7272866D02*
G01*
X15211087Y-7216053D01*
X15199650Y-7227490D01*
X15224744Y-7252584D01*
X15176542Y-7250598D01*
X15161161Y-7265979D01*
X15204579Y-7266732D01*
X15216814Y-7323953D01*
X15231615Y-7309152D01*
X15220568Y-7266956D01*
X15239338Y-7267177D01*
X15256464Y-7284303D01*
X15267900Y-7272866D01*
G37*
G36*
X15197194Y-7313507D02*
G01*
X15186362Y-7302675D01*
X15165030Y-7324008D01*
X15175862Y-7334840D01*
X15197194Y-7313507D01*
G37*
G36*
X15184549Y-7356218D02*
G01*
X15127736Y-7299404D01*
X15085730Y-7341410D01*
X15095236Y-7350915D01*
X15125805Y-7320347D01*
X15138405Y-7332947D01*
X15109964Y-7361388D01*
X15119470Y-7370894D01*
X15147911Y-7342453D01*
X15163607Y-7358148D01*
X15131957Y-7389798D01*
X15141462Y-7399304D01*
X15184549Y-7356218D01*
G37*
G36*
X15131653Y-7409114D02*
G01*
X15074839Y-7352301D01*
X15063710Y-7363430D01*
X15078559Y-7424647D01*
X15040526Y-7386614D01*
X15029898Y-7397242D01*
X15086711Y-7454055D01*
X15098189Y-7442577D01*
X15083561Y-7382272D01*
X15121028Y-7419739D01*
X15131653Y-7409114D01*
G37*
G36*
X15090886Y-8883626D02*
G01*
X15078651Y-8893650D01*
X15081193Y-8898132D01*
X15082441Y-8902124D01*
X15082620Y-8905771D01*
X15081814Y-8909334D01*
X15079971Y-8912923D01*
X15076897Y-8916627D01*
X15072977Y-8919951D01*
X15069473Y-8921858D01*
X15066265Y-8922651D01*
X15062980Y-8922567D01*
X15060303Y-8921695D01*
X15058075Y-8920064D01*
X15056527Y-8917914D01*
X15055885Y-8915518D01*
X15056147Y-8912833D01*
X15057585Y-8908983D01*
X15064227Y-8897311D01*
X15068444Y-8889360D01*
X15070682Y-8883309D01*
X15071467Y-8878735D01*
X15071252Y-8873886D01*
X15070136Y-8869556D01*
X15068137Y-8865632D01*
X15065194Y-8862031D01*
X15062088Y-8859467D01*
X15058576Y-8857573D01*
X15054587Y-8856328D01*
X15050439Y-8855875D01*
X15046181Y-8856286D01*
X15041727Y-8857617D01*
X15037521Y-8859692D01*
X15033158Y-8862697D01*
X15028594Y-8866777D01*
X15023533Y-8872533D01*
X15020129Y-8877848D01*
X15018097Y-8882813D01*
X15017237Y-8887536D01*
X15017402Y-8892422D01*
X15018569Y-8897021D01*
X15020769Y-8901436D01*
X15024118Y-8905740D01*
X15036000Y-8894742D01*
X15033942Y-8891210D01*
X15032971Y-8888113D01*
X15032881Y-8885322D01*
X15033603Y-8882607D01*
X15035289Y-8879592D01*
X15038214Y-8876169D01*
X15041745Y-8873157D01*
X15045005Y-8871313D01*
X15048076Y-8870418D01*
X15050083Y-8870388D01*
X15051832Y-8870949D01*
X15053416Y-8872124D01*
X15054851Y-8874387D01*
X15055167Y-8877274D01*
X15054539Y-8879902D01*
X15052568Y-8884399D01*
X15048480Y-8891609D01*
X15042920Y-8901567D01*
X15040249Y-8908068D01*
X15039347Y-8912161D01*
X15039189Y-8916148D01*
X15039755Y-8920091D01*
X15041065Y-8923844D01*
X15043276Y-8927593D01*
X15046528Y-8931390D01*
X15049999Y-8934263D01*
X15053919Y-8936398D01*
X15058365Y-8937818D01*
X15062980Y-8938360D01*
X15067608Y-8937932D01*
X15072344Y-8936495D01*
X15076805Y-8934232D01*
X15081584Y-8930879D01*
X15086741Y-8926236D01*
X15091807Y-8920458D01*
X15095270Y-8915020D01*
X15097386Y-8909841D01*
X15098330Y-8904824D01*
X15098204Y-8899680D01*
X15096996Y-8894496D01*
X15094614Y-8889174D01*
X15090886Y-8883626D01*
G37*
G36*
X15053374Y-8957392D02*
G01*
X15031852Y-8978915D01*
X15025502Y-8984587D01*
X15020526Y-8987837D01*
X15015968Y-8989820D01*
X15011801Y-8990952D01*
X15007953Y-8991339D01*
X15002852Y-8990969D01*
X14997510Y-8989680D01*
X14991850Y-8987374D01*
X14987492Y-8984876D01*
X14982894Y-8981470D01*
X14978019Y-8977019D01*
X14972933Y-8971470D01*
X14969140Y-8966397D01*
X14966448Y-8961738D01*
X14964398Y-8956775D01*
X14963150Y-8951920D01*
X14962652Y-8947123D01*
X14962799Y-8944578D01*
X14978040Y-8944578D01*
X14978519Y-8948663D01*
X14980320Y-8953351D01*
X14983428Y-8958110D01*
X14989321Y-8964674D01*
X14995916Y-8970609D01*
X15000934Y-8973965D01*
X15004357Y-8975532D01*
X15007147Y-8976313D01*
X15009438Y-8976480D01*
X15012875Y-8975858D01*
X15016429Y-8974235D01*
X15019267Y-8972159D01*
X15023890Y-8967865D01*
X15032432Y-8959323D01*
X14994630Y-8921521D01*
X14989490Y-8926661D01*
X14983239Y-8933259D01*
X14980644Y-8936599D01*
X14978720Y-8940612D01*
X14978040Y-8944578D01*
X14962799Y-8944578D01*
X14962929Y-8942333D01*
X14964025Y-8937764D01*
X14965961Y-8933348D01*
X14969323Y-8928448D01*
X14975657Y-8921483D01*
X14996561Y-8900579D01*
X15053374Y-8957392D01*
G37*
G36*
X14946991Y-8970481D02*
G01*
X14953388Y-8972318D01*
X14958783Y-8974951D01*
X14964486Y-8978873D01*
X14970562Y-8984310D01*
X14975721Y-8990140D01*
X14979553Y-8995880D01*
X14982214Y-9001574D01*
X14983817Y-9007284D01*
X14984420Y-9013083D01*
X14984034Y-9018939D01*
X14982662Y-9024580D01*
X14980275Y-9030082D01*
X14976788Y-9035511D01*
X14972064Y-9040913D01*
X14966734Y-9045566D01*
X14961352Y-9049005D01*
X14955872Y-9051359D01*
X14950231Y-9052709D01*
X14944349Y-9053078D01*
X14938544Y-9052458D01*
X14932809Y-9050828D01*
X14927068Y-9048125D01*
X14921261Y-9044232D01*
X14915341Y-9038985D01*
X14910049Y-9033014D01*
X14906130Y-9027163D01*
X14903415Y-9021386D01*
X14901785Y-9015619D01*
X14901176Y-9009788D01*
X14901294Y-9007974D01*
X14916515Y-9007974D01*
X14917270Y-9012223D01*
X14919107Y-9016725D01*
X14922223Y-9021585D01*
X14926895Y-9026893D01*
X14932259Y-9031607D01*
X14937200Y-9034763D01*
X14941808Y-9036633D01*
X14946183Y-9037407D01*
X14950725Y-9037230D01*
X14954874Y-9036145D01*
X14958733Y-9034147D01*
X14962376Y-9031148D01*
X14965371Y-9027507D01*
X14967374Y-9023633D01*
X14968468Y-9019452D01*
X14968655Y-9014858D01*
X14967890Y-9010423D01*
X14966051Y-9005814D01*
X14962967Y-9000936D01*
X14958389Y-8995709D01*
X14953064Y-8991026D01*
X14948172Y-8987898D01*
X14943623Y-8986050D01*
X14939316Y-8985291D01*
X14934858Y-8985484D01*
X14930719Y-8986603D01*
X14926798Y-8988672D01*
X14923026Y-8991799D01*
X14919891Y-8995574D01*
X14917822Y-8999478D01*
X14916707Y-9003579D01*
X14916515Y-9007974D01*
X14901294Y-9007974D01*
X14901560Y-9003874D01*
X14902925Y-8998205D01*
X14905295Y-8992702D01*
X14908748Y-8987302D01*
X14913413Y-8981958D01*
X14918250Y-8977655D01*
X14923059Y-8974371D01*
X14927872Y-8971996D01*
X14931702Y-8970739D01*
X14935835Y-8969997D01*
X14940321Y-8969793D01*
X14946991Y-8970481D01*
G37*
G36*
X15366465Y-8878048D02*
G01*
X15354230Y-8888071D01*
X15356772Y-8892554D01*
X15358020Y-8896546D01*
X15358199Y-8900192D01*
X15357393Y-8903755D01*
X15355550Y-8907345D01*
X15352475Y-8911048D01*
X15348555Y-8914373D01*
X15345051Y-8916280D01*
X15341844Y-8917072D01*
X15338559Y-8916989D01*
X15335882Y-8916117D01*
X15333654Y-8914485D01*
X15332105Y-8912335D01*
X15331464Y-8909939D01*
X15331726Y-8907254D01*
X15333164Y-8903404D01*
X15339806Y-8891733D01*
X15344022Y-8883782D01*
X15346260Y-8877731D01*
X15347046Y-8873157D01*
X15346831Y-8868307D01*
X15345715Y-8863977D01*
X15343716Y-8860053D01*
X15340773Y-8856452D01*
X15337667Y-8853888D01*
X15334155Y-8851995D01*
X15330165Y-8850750D01*
X15326017Y-8850296D01*
X15321760Y-8850707D01*
X15317306Y-8852038D01*
X15313100Y-8854114D01*
X15308736Y-8857118D01*
X15304173Y-8861198D01*
X15299112Y-8866955D01*
X15295708Y-8872269D01*
X15293676Y-8877235D01*
X15292816Y-8881958D01*
X15292981Y-8886843D01*
X15294148Y-8891443D01*
X15296347Y-8895857D01*
X15299697Y-8900161D01*
X15311579Y-8889163D01*
X15309521Y-8885631D01*
X15308550Y-8882535D01*
X15308460Y-8879744D01*
X15309182Y-8877029D01*
X15310868Y-8874013D01*
X15313793Y-8870590D01*
X15317323Y-8867579D01*
X15320583Y-8865735D01*
X15323654Y-8864839D01*
X15325662Y-8864809D01*
X15327411Y-8865370D01*
X15328994Y-8866545D01*
X15330430Y-8868809D01*
X15330746Y-8871695D01*
X15330118Y-8874323D01*
X15328147Y-8878820D01*
X15324058Y-8886030D01*
X15318499Y-8895988D01*
X15315827Y-8902489D01*
X15314925Y-8906583D01*
X15314768Y-8910570D01*
X15315333Y-8914513D01*
X15316643Y-8918266D01*
X15318855Y-8922014D01*
X15322107Y-8925811D01*
X15325578Y-8928684D01*
X15329498Y-8930819D01*
X15333944Y-8932239D01*
X15338559Y-8932781D01*
X15343187Y-8932353D01*
X15347923Y-8930916D01*
X15352384Y-8928654D01*
X15357163Y-8925300D01*
X15362320Y-8920658D01*
X15367386Y-8914879D01*
X15370849Y-8909441D01*
X15372965Y-8904262D01*
X15373908Y-8899245D01*
X15373783Y-8894101D01*
X15372575Y-8888918D01*
X15370193Y-8883595D01*
X15366465Y-8878048D01*
G37*
G36*
X15271666Y-8967098D02*
G01*
X15264112Y-8981726D01*
X15270278Y-8984727D01*
X15275989Y-8986529D01*
X15281341Y-8987281D01*
X15286426Y-8987073D01*
X15291407Y-8985938D01*
X15296290Y-8983868D01*
X15301138Y-8980781D01*
X15305993Y-8976542D01*
X15310132Y-8971753D01*
X15313214Y-8966788D01*
X15315335Y-8961601D01*
X15316543Y-8956125D01*
X15316836Y-8950280D01*
X15316184Y-8944568D01*
X15314559Y-8938941D01*
X15311903Y-8933329D01*
X15308107Y-8927675D01*
X15303019Y-8921936D01*
X15296925Y-8916510D01*
X15291007Y-8912482D01*
X15285215Y-8909678D01*
X15279488Y-8907968D01*
X15273753Y-8907273D01*
X15267877Y-8907555D01*
X15262309Y-8908797D01*
X15256967Y-8911010D01*
X15251786Y-8914257D01*
X15246717Y-8918654D01*
X15241999Y-8924200D01*
X15238732Y-8929833D01*
X15236749Y-8935627D01*
X15235975Y-8941686D01*
X15236343Y-8946578D01*
X15237826Y-8951944D01*
X15240614Y-8957917D01*
X15254589Y-8949247D01*
X15252743Y-8945527D01*
X15251846Y-8941841D01*
X15251829Y-8938101D01*
X15252671Y-8934456D01*
X15254372Y-8931047D01*
X15257024Y-8927801D01*
X15260382Y-8925034D01*
X15263912Y-8923210D01*
X15267681Y-8922239D01*
X15271784Y-8922112D01*
X15275688Y-8922874D01*
X15280006Y-8924739D01*
X15284865Y-8927959D01*
X15290384Y-8932871D01*
X15295650Y-8938750D01*
X15299076Y-8943813D01*
X15301048Y-8948206D01*
X15301862Y-8952080D01*
X15301781Y-8956178D01*
X15300857Y-8959920D01*
X15299086Y-8963403D01*
X15296384Y-8966697D01*
X15293123Y-8969292D01*
X15289564Y-8970908D01*
X15285607Y-8971609D01*
X15281576Y-8971320D01*
X15276987Y-8969905D01*
X15271666Y-8967098D01*
G37*
G36*
X15271615Y-9009152D02*
G01*
X15214801Y-8952339D01*
X15203365Y-8963775D01*
X15228459Y-8988869D01*
X15180257Y-8986883D01*
X15164876Y-9002264D01*
X15208294Y-9003017D01*
X15220528Y-9060238D01*
X15235329Y-9045437D01*
X15224283Y-9003242D01*
X15243053Y-9003463D01*
X15260178Y-9020589D01*
X15271615Y-9009152D01*
G37*
X14203521Y-9689378D02*
X14249236Y-9689378D01*
X14226378Y-9689378D02*
X14226378Y-9609378D01*
X14226378Y-9609378D02*
X14233997Y-9620806D01*
X14233997Y-9620806D02*
X14241616Y-9628425D01*
X14241616Y-9628425D02*
X14249236Y-9632235D01*
X14134950Y-9609378D02*
X14150188Y-9609378D01*
X14150188Y-9609378D02*
X14157807Y-9613187D01*
X14157807Y-9613187D02*
X14161616Y-9616997D01*
X14161616Y-9616997D02*
X14169235Y-9628425D01*
X14169235Y-9628425D02*
X14173045Y-9643663D01*
X14173045Y-9643663D02*
X14173045Y-9674139D01*
X14173045Y-9674139D02*
X14169235Y-9681758D01*
X14169235Y-9681758D02*
X14165426Y-9685568D01*
X14165426Y-9685568D02*
X14157807Y-9689378D01*
X14157807Y-9689378D02*
X14142569Y-9689378D01*
X14142569Y-9689378D02*
X14134950Y-9685568D01*
X14134950Y-9685568D02*
X14131140Y-9681758D01*
X14131140Y-9681758D02*
X14127331Y-9674139D01*
X14127331Y-9674139D02*
X14127331Y-9655092D01*
X14127331Y-9655092D02*
X14131140Y-9647473D01*
X14131140Y-9647473D02*
X14134950Y-9643663D01*
X14134950Y-9643663D02*
X14142569Y-9639854D01*
X14142569Y-9639854D02*
X14157807Y-9639854D01*
X14157807Y-9639854D02*
X14165426Y-9643663D01*
X14165426Y-9643663D02*
X14169235Y-9647473D01*
X14169235Y-9647473D02*
X14173045Y-9655092D01*
G36*
X14793874Y-8696893D02*
G01*
X14782434Y-8708333D01*
X14758780Y-8684679D01*
X14756462Y-8686997D01*
X14752980Y-8690861D01*
X14751343Y-8693394D01*
X14750495Y-8695994D01*
X14750255Y-8699187D01*
X14750720Y-8703445D01*
X14752545Y-8713531D01*
X14756621Y-8734146D01*
X14742943Y-8747824D01*
X14738805Y-8729856D01*
X14736751Y-8719822D01*
X14736121Y-8714143D01*
X14736358Y-8709054D01*
X14737489Y-8703262D01*
X14732982Y-8706173D01*
X14728783Y-8708045D01*
X14724822Y-8709025D01*
X14721023Y-8709207D01*
X14717218Y-8708637D01*
X14713597Y-8707344D01*
X14710102Y-8705287D01*
X14706688Y-8702375D01*
X14703678Y-8698796D01*
X14701536Y-8694999D01*
X14700191Y-8690931D01*
X14699671Y-8686696D01*
X14699829Y-8685059D01*
X14715997Y-8685059D01*
X14716438Y-8687153D01*
X14717460Y-8689208D01*
X14719158Y-8691273D01*
X14721896Y-8693398D01*
X14724632Y-8694427D01*
X14727467Y-8694519D01*
X14730270Y-8693653D01*
X14733537Y-8691319D01*
X14741254Y-8684078D01*
X14749716Y-8675616D01*
X14735126Y-8661025D01*
X14726201Y-8669951D01*
X14718049Y-8678496D01*
X14716357Y-8681839D01*
X14715997Y-8685059D01*
X14699829Y-8685059D01*
X14700054Y-8682713D01*
X14701324Y-8678883D01*
X14703382Y-8675297D01*
X14707078Y-8670495D01*
X14712985Y-8664155D01*
X14737060Y-8640080D01*
X14793874Y-8696893D01*
G37*
G36*
X14742525Y-8748242D02*
G01*
X14730390Y-8760376D01*
X14712892Y-8752231D01*
X14690250Y-8774873D01*
X14698126Y-8792641D01*
X14685680Y-8805086D01*
X14654590Y-8732671D01*
X14670997Y-8732671D01*
X14684413Y-8761699D01*
X14699870Y-8746242D01*
X14670997Y-8732671D01*
X14654590Y-8732671D01*
X14651550Y-8725590D01*
X14663647Y-8713493D01*
X14742525Y-8748242D01*
G37*
G36*
X14679777Y-8810989D02*
G01*
X14622964Y-8754176D01*
X14605845Y-8771295D01*
X14634321Y-8820329D01*
X14585404Y-8791736D01*
X14568244Y-8808896D01*
X14625057Y-8865709D01*
X14635685Y-8855081D01*
X14590965Y-8810361D01*
X14646929Y-8843838D01*
X14657944Y-8832823D01*
X14624429Y-8776897D01*
X14669149Y-8821618D01*
X14679777Y-8810989D01*
G37*
G36*
X14613690Y-8877077D02*
G01*
X14602253Y-8888513D01*
X14580810Y-8867070D01*
X14573353Y-8874528D01*
X14565806Y-8881600D01*
X14560672Y-8885577D01*
X14556756Y-8887539D01*
X14552048Y-8888821D01*
X14548753Y-8889126D01*
X14545300Y-8888876D01*
X14541637Y-8888033D01*
X14538174Y-8886602D01*
X14534626Y-8884347D01*
X14530950Y-8881132D01*
X14526936Y-8876325D01*
X14524417Y-8871576D01*
X14523178Y-8866791D01*
X14523049Y-8862511D01*
X14539540Y-8862511D01*
X14540001Y-8864960D01*
X14541100Y-8867277D01*
X14542915Y-8869519D01*
X14545672Y-8871613D01*
X14548694Y-8872707D01*
X14551882Y-8872838D01*
X14555098Y-8871961D01*
X14558552Y-8869740D01*
X14565045Y-8863823D01*
X14571304Y-8857565D01*
X14554946Y-8841206D01*
X14549419Y-8846733D01*
X14543874Y-8852529D01*
X14541582Y-8855357D01*
X14540337Y-8857637D01*
X14539665Y-8860003D01*
X14539540Y-8862511D01*
X14523049Y-8862511D01*
X14523028Y-8861829D01*
X14523898Y-8857297D01*
X14525772Y-8853074D01*
X14529259Y-8848437D01*
X14538521Y-8838619D01*
X14556876Y-8820264D01*
X14613690Y-8877077D01*
G37*
G36*
X14560949Y-8929818D02*
G01*
X14539426Y-8951340D01*
X14533076Y-8957013D01*
X14528100Y-8960262D01*
X14523542Y-8962246D01*
X14519376Y-8963377D01*
X14515527Y-8963765D01*
X14510427Y-8963395D01*
X14505085Y-8962106D01*
X14499424Y-8959800D01*
X14495066Y-8957301D01*
X14490468Y-8953895D01*
X14485594Y-8949444D01*
X14480507Y-8943896D01*
X14476715Y-8938822D01*
X14474023Y-8934163D01*
X14471973Y-8929201D01*
X14470725Y-8924346D01*
X14470226Y-8919549D01*
X14470374Y-8917003D01*
X14485615Y-8917003D01*
X14486094Y-8921088D01*
X14487894Y-8925776D01*
X14491003Y-8930535D01*
X14496896Y-8937099D01*
X14503491Y-8943034D01*
X14508508Y-8946391D01*
X14511931Y-8947958D01*
X14514722Y-8948738D01*
X14517012Y-8948905D01*
X14520450Y-8948283D01*
X14524004Y-8946660D01*
X14526842Y-8944584D01*
X14531464Y-8940291D01*
X14540006Y-8931749D01*
X14502205Y-8893947D01*
X14497065Y-8899087D01*
X14490814Y-8905685D01*
X14488219Y-8909024D01*
X14486295Y-8913037D01*
X14485615Y-8917003D01*
X14470374Y-8917003D01*
X14470503Y-8914759D01*
X14471600Y-8910190D01*
X14473535Y-8905774D01*
X14476898Y-8900873D01*
X14483231Y-8893909D01*
X14504136Y-8873005D01*
X14560949Y-8929818D01*
G37*
G36*
X14504115Y-8986652D02*
G01*
X14447301Y-8929839D01*
X14435861Y-8941279D01*
X14492675Y-8998092D01*
X14504115Y-8986652D01*
G37*
G36*
X14481732Y-9009034D02*
G01*
X14470292Y-9020475D01*
X14446638Y-8996821D01*
X14444321Y-8999138D01*
X14440838Y-9003003D01*
X14439202Y-9005535D01*
X14438353Y-9008135D01*
X14438114Y-9011328D01*
X14438578Y-9015587D01*
X14440404Y-9025673D01*
X14444479Y-9046287D01*
X14430801Y-9059965D01*
X14426663Y-9041997D01*
X14424610Y-9031963D01*
X14423979Y-9026284D01*
X14424217Y-9021196D01*
X14425347Y-9015404D01*
X14420840Y-9018314D01*
X14416642Y-9020186D01*
X14412681Y-9021167D01*
X14408881Y-9021348D01*
X14405077Y-9020778D01*
X14401456Y-9019485D01*
X14397960Y-9017428D01*
X14394547Y-9014516D01*
X14391537Y-9010938D01*
X14389395Y-9007141D01*
X14388050Y-9003073D01*
X14387530Y-8998838D01*
X14387687Y-8997201D01*
X14403856Y-8997201D01*
X14404297Y-8999294D01*
X14405319Y-9001349D01*
X14407016Y-9003415D01*
X14409754Y-9005540D01*
X14412491Y-9006568D01*
X14415325Y-9006660D01*
X14418128Y-9005795D01*
X14421395Y-9003461D01*
X14429112Y-8996220D01*
X14437575Y-8987757D01*
X14422985Y-8973167D01*
X14414059Y-8982092D01*
X14405907Y-8990638D01*
X14404215Y-8993981D01*
X14403856Y-8997201D01*
X14387687Y-8997201D01*
X14387913Y-8994855D01*
X14389183Y-8991025D01*
X14391241Y-8987438D01*
X14394937Y-8982636D01*
X14400844Y-8976296D01*
X14424919Y-8952221D01*
X14481732Y-9009034D01*
G37*
X14334712Y-9509378D02*
X14285188Y-9509378D01*
X14285188Y-9509378D02*
X14311855Y-9539854D01*
X14311855Y-9539854D02*
X14300426Y-9539854D01*
X14300426Y-9539854D02*
X14292807Y-9543663D01*
X14292807Y-9543663D02*
X14288997Y-9547473D01*
X14288997Y-9547473D02*
X14285188Y-9555092D01*
X14285188Y-9555092D02*
X14285188Y-9574139D01*
X14285188Y-9574139D02*
X14288997Y-9581758D01*
X14288997Y-9581758D02*
X14292807Y-9585568D01*
X14292807Y-9585568D02*
X14300426Y-9589378D01*
X14300426Y-9589378D02*
X14323283Y-9589378D01*
X14323283Y-9589378D02*
X14330902Y-9585568D01*
X14330902Y-9585568D02*
X14334712Y-9581758D01*
X14703521Y-9689378D02*
X14749236Y-9689378D01*
X14726378Y-9689378D02*
X14726378Y-9609378D01*
X14726378Y-9609378D02*
X14733997Y-9620806D01*
X14733997Y-9620806D02*
X14741616Y-9628425D01*
X14741616Y-9628425D02*
X14749236Y-9632235D01*
X14657807Y-9643663D02*
X14665426Y-9639854D01*
X14665426Y-9639854D02*
X14669235Y-9636044D01*
X14669235Y-9636044D02*
X14673045Y-9628425D01*
X14673045Y-9628425D02*
X14673045Y-9624616D01*
X14673045Y-9624616D02*
X14669235Y-9616997D01*
X14669235Y-9616997D02*
X14665426Y-9613187D01*
X14665426Y-9613187D02*
X14657807Y-9609378D01*
X14657807Y-9609378D02*
X14642569Y-9609378D01*
X14642569Y-9609378D02*
X14634950Y-9613187D01*
X14634950Y-9613187D02*
X14631140Y-9616997D01*
X14631140Y-9616997D02*
X14627331Y-9624616D01*
X14627331Y-9624616D02*
X14627331Y-9628425D01*
X14627331Y-9628425D02*
X14631140Y-9636044D01*
X14631140Y-9636044D02*
X14634950Y-9639854D01*
X14634950Y-9639854D02*
X14642569Y-9643663D01*
X14642569Y-9643663D02*
X14657807Y-9643663D01*
X14657807Y-9643663D02*
X14665426Y-9647473D01*
X14665426Y-9647473D02*
X14669235Y-9651282D01*
X14669235Y-9651282D02*
X14673045Y-9658901D01*
X14673045Y-9658901D02*
X14673045Y-9674139D01*
X14673045Y-9674139D02*
X14669235Y-9681758D01*
X14669235Y-9681758D02*
X14665426Y-9685568D01*
X14665426Y-9685568D02*
X14657807Y-9689378D01*
X14657807Y-9689378D02*
X14642569Y-9689378D01*
X14642569Y-9689378D02*
X14634950Y-9685568D01*
X14634950Y-9685568D02*
X14631140Y-9681758D01*
X14631140Y-9681758D02*
X14627331Y-9674139D01*
X14627331Y-9674139D02*
X14627331Y-9658901D01*
X14627331Y-9658901D02*
X14631140Y-9651282D01*
X14631140Y-9651282D02*
X14634950Y-9647473D01*
X14634950Y-9647473D02*
X14642569Y-9643663D01*
D11*
G36*
X14854109Y-8534500D02*
G01*
X14838424Y-8539502D01*
X14840662Y-8545983D01*
X14843426Y-8551297D01*
X14846679Y-8555613D01*
X14850421Y-8559061D01*
X14854746Y-8561780D01*
X14859663Y-8563770D01*
X14865274Y-8565014D01*
X14871705Y-8565451D01*
X14878017Y-8564991D01*
X14883707Y-8563660D01*
X14888875Y-8561492D01*
X14893601Y-8558474D01*
X14897941Y-8554548D01*
X14901519Y-8550047D01*
X14904349Y-8544920D01*
X14906439Y-8539073D01*
X14907753Y-8532391D01*
X14908214Y-8524735D01*
X14907742Y-8516589D01*
X14906404Y-8509557D01*
X14904292Y-8503478D01*
X14901452Y-8498219D01*
X14897888Y-8493672D01*
X14893533Y-8489717D01*
X14888718Y-8486658D01*
X14883376Y-8484446D01*
X14877416Y-8483078D01*
X14870723Y-8482603D01*
X14863465Y-8483189D01*
X14857171Y-8484861D01*
X14851672Y-8487557D01*
X14846841Y-8491294D01*
X14843642Y-8495013D01*
X14840896Y-8499856D01*
X14838644Y-8506051D01*
X14854657Y-8509802D01*
X14855982Y-8505866D01*
X14857954Y-8502625D01*
X14860587Y-8499969D01*
X14863759Y-8497987D01*
X14867372Y-8496779D01*
X14871544Y-8496359D01*
X14875874Y-8496777D01*
X14879660Y-8497983D01*
X14883012Y-8499962D01*
X14886003Y-8502773D01*
X14888224Y-8506073D01*
X14889958Y-8510445D01*
X14891117Y-8516157D01*
X14891547Y-8523534D01*
X14891114Y-8531414D01*
X14889956Y-8537416D01*
X14888244Y-8541918D01*
X14886081Y-8545232D01*
X14883125Y-8548073D01*
X14879826Y-8550065D01*
X14876110Y-8551276D01*
X14871871Y-8551695D01*
X14867730Y-8551224D01*
X14864071Y-8549850D01*
X14860777Y-8547548D01*
X14858131Y-8544493D01*
X14855887Y-8540247D01*
X14854109Y-8534500D01*
G37*
G36*
X14776084Y-8549819D02*
G01*
X14776084Y-8564200D01*
X14829910Y-8564200D01*
X14828945Y-8558942D01*
X14827207Y-8553863D01*
X14824664Y-8548915D01*
X14821384Y-8544296D01*
X14815872Y-8538048D01*
X14807396Y-8529757D01*
X14798129Y-8520733D01*
X14794666Y-8516675D01*
X14792851Y-8513405D01*
X14791825Y-8510301D01*
X14791495Y-8507301D01*
X14791836Y-8503994D01*
X14792774Y-8501426D01*
X14794255Y-8499427D01*
X14796254Y-8497936D01*
X14798749Y-8497006D01*
X14801881Y-8496672D01*
X14804964Y-8497017D01*
X14807471Y-8497989D01*
X14809530Y-8499568D01*
X14811040Y-8501688D01*
X14812170Y-8504783D01*
X14812808Y-8509177D01*
X14828107Y-8507648D01*
X14826945Y-8501312D01*
X14825081Y-8496314D01*
X14822605Y-8492403D01*
X14819530Y-8489393D01*
X14815803Y-8487025D01*
X14811612Y-8485301D01*
X14806876Y-8484228D01*
X14801495Y-8483854D01*
X14795585Y-8484298D01*
X14790612Y-8485550D01*
X14786412Y-8487531D01*
X14782859Y-8490229D01*
X14779878Y-8493632D01*
X14777786Y-8497356D01*
X14776519Y-8501472D01*
X14776084Y-8506080D01*
X14776572Y-8511360D01*
X14778023Y-8516348D01*
X14780427Y-8521166D01*
X14784173Y-8526557D01*
X14787607Y-8530394D01*
X14794226Y-8536747D01*
X14803434Y-8545569D01*
X14806575Y-8549819D01*
X14776084Y-8549819D01*
G37*
G36*
X14765979Y-7975354D02*
G01*
X14749805Y-7975354D01*
X14749805Y-8019264D01*
X14749608Y-8028813D01*
X14749204Y-8032814D01*
X14748179Y-8035943D01*
X14746543Y-8038580D01*
X14744261Y-8040806D01*
X14741500Y-8042411D01*
X14738002Y-8043444D01*
X14733572Y-8043820D01*
X14729059Y-8043452D01*
X14725687Y-8042464D01*
X14723192Y-8040972D01*
X14721142Y-8038893D01*
X14719761Y-8036580D01*
X14718986Y-8033977D01*
X14718489Y-8029144D01*
X14718273Y-8020207D01*
X14718273Y-7975354D01*
X14702094Y-7975354D01*
X14702094Y-8017657D01*
X14702497Y-8031097D01*
X14703408Y-8038149D01*
X14704558Y-8042011D01*
X14706173Y-8045356D01*
X14708244Y-8048255D01*
X14710784Y-8050754D01*
X14713899Y-8052944D01*
X14717672Y-8054821D01*
X14721685Y-8056102D01*
X14726748Y-8056951D01*
X14733079Y-8057263D01*
X14740767Y-8056904D01*
X14746426Y-8055960D01*
X14750489Y-8054601D01*
X14754267Y-8052581D01*
X14757362Y-8050273D01*
X14759858Y-8047679D01*
X14762751Y-8043243D01*
X14764396Y-8038749D01*
X14765516Y-8031004D01*
X14765979Y-8018311D01*
X14765979Y-7975354D01*
G37*
G36*
X14649152Y-8055700D02*
G01*
X14664510Y-8055700D01*
X14664510Y-7997990D01*
X14670426Y-8002808D01*
X14677012Y-8006718D01*
X14684348Y-8009743D01*
X14684348Y-7995675D01*
X14680475Y-7994091D01*
X14676146Y-7991653D01*
X14671286Y-7988201D01*
X14666982Y-7984221D01*
X14663800Y-7979955D01*
X14661614Y-7975354D01*
X14649152Y-7975354D01*
X14649152Y-8055700D01*
G37*
G36*
X15349200Y-7875754D02*
G01*
X15315748Y-7875754D01*
X15315748Y-7879032D01*
X15316018Y-7884227D01*
X15316652Y-7887175D01*
X15317890Y-7889613D01*
X15319979Y-7892040D01*
X15323319Y-7894723D01*
X15331741Y-7900565D01*
X15349200Y-7912259D01*
X15349200Y-7931603D01*
X15333568Y-7921823D01*
X15325022Y-7916181D01*
X15320560Y-7912611D01*
X15317130Y-7908845D01*
X15313834Y-7903950D01*
X15312705Y-7909195D01*
X15311060Y-7913487D01*
X15308952Y-7916981D01*
X15306394Y-7919796D01*
X15303300Y-7922083D01*
X15299826Y-7923730D01*
X15295899Y-7924747D01*
X15291427Y-7925101D01*
X15286768Y-7924699D01*
X15282569Y-7923529D01*
X15278741Y-7921604D01*
X15275379Y-7918977D01*
X15272833Y-7915889D01*
X15271023Y-7912283D01*
X15269942Y-7908292D01*
X15269160Y-7902283D01*
X15268854Y-7893623D01*
X15268854Y-7888377D01*
X15282297Y-7888377D01*
X15282575Y-7900184D01*
X15283743Y-7903744D01*
X15285765Y-7906275D01*
X15287557Y-7907444D01*
X15289733Y-7908174D01*
X15292394Y-7908434D01*
X15295833Y-7908001D01*
X15298495Y-7906793D01*
X15300564Y-7904853D01*
X15301934Y-7902260D01*
X15302594Y-7898299D01*
X15302931Y-7887722D01*
X15302931Y-7875754D01*
X15282297Y-7875754D01*
X15282297Y-7888377D01*
X15268854Y-7888377D01*
X15268854Y-7859576D01*
X15349200Y-7859576D01*
X15349200Y-7875754D01*
G37*
G36*
X15349200Y-7976241D02*
G01*
X15349200Y-7960883D01*
X15291490Y-7960883D01*
X15296308Y-7954967D01*
X15300218Y-7948381D01*
X15303243Y-7941045D01*
X15289175Y-7941045D01*
X15287591Y-7944918D01*
X15285153Y-7949247D01*
X15281701Y-7954107D01*
X15277721Y-7958411D01*
X15273455Y-7961593D01*
X15268854Y-7963779D01*
X15268854Y-7976241D01*
X15349200Y-7976241D01*
G37*
G36*
X15332181Y-7999512D02*
G01*
X15337086Y-8001134D01*
X15341330Y-8003777D01*
X15345023Y-8007523D01*
X15347482Y-8011287D01*
X15349267Y-8015515D01*
X15350376Y-8020292D01*
X15350763Y-8025719D01*
X15350292Y-8031528D01*
X15348951Y-8036511D01*
X15346800Y-8040813D01*
X15343827Y-8044546D01*
X15340143Y-8047611D01*
X15335978Y-8049802D01*
X15331238Y-8051153D01*
X15325792Y-8051624D01*
X15321418Y-8051225D01*
X15317496Y-8050066D01*
X15313936Y-8048156D01*
X15310846Y-8045553D01*
X15308244Y-8042214D01*
X15306120Y-8038020D01*
X15304323Y-8041310D01*
X15302113Y-8044001D01*
X15299472Y-8046163D01*
X15296458Y-8047762D01*
X15293172Y-8048728D01*
X15289541Y-8049059D01*
X15285170Y-8048650D01*
X15281304Y-8047464D01*
X15277840Y-8045515D01*
X15274711Y-8042748D01*
X15272250Y-8039447D01*
X15270428Y-8035485D01*
X15269268Y-8030731D01*
X15268865Y-8025172D01*
X15281046Y-8025172D01*
X15281355Y-8027907D01*
X15282229Y-8030157D01*
X15283655Y-8032031D01*
X15285538Y-8033448D01*
X15287816Y-8034321D01*
X15290601Y-8034629D01*
X15293569Y-8034312D01*
X15295930Y-8033426D01*
X15297821Y-8032006D01*
X15299243Y-8030112D01*
X15300119Y-8027819D01*
X15300405Y-8025231D01*
X15312622Y-8025231D01*
X15313015Y-8028320D01*
X15314153Y-8030961D01*
X15316066Y-8033262D01*
X15318532Y-8034984D01*
X15321522Y-8036052D01*
X15325181Y-8036432D01*
X15329408Y-8036040D01*
X15332649Y-8034972D01*
X15335127Y-8033315D01*
X15337044Y-8031053D01*
X15338180Y-8028467D01*
X15338570Y-8025451D01*
X15338167Y-8022365D01*
X15336988Y-8019694D01*
X15334990Y-8017332D01*
X15332420Y-8015590D01*
X15329161Y-8014484D01*
X15325020Y-8014084D01*
X15322054Y-8014388D01*
X15319244Y-8015297D01*
X15316535Y-8016844D01*
X15314396Y-8018953D01*
X15313090Y-8021681D01*
X15312622Y-8025231D01*
X15300405Y-8025231D01*
X15300429Y-8025011D01*
X15300123Y-8022238D01*
X15299257Y-8019970D01*
X15297850Y-8018094D01*
X15295976Y-8016693D01*
X15293624Y-8015816D01*
X15290655Y-8015500D01*
X15287871Y-8015811D01*
X15285584Y-8016691D01*
X15283684Y-8018123D01*
X15282247Y-8020021D01*
X15281361Y-8022331D01*
X15281046Y-8025172D01*
X15268865Y-8025172D01*
X15268854Y-8025016D01*
X15269271Y-8019238D01*
X15270434Y-8014458D01*
X15272256Y-8010500D01*
X15274711Y-8007225D01*
X15277837Y-8004484D01*
X15281299Y-8002551D01*
X15285167Y-8001374D01*
X15289541Y-8000968D01*
X15292966Y-8001272D01*
X15296167Y-8002170D01*
X15299199Y-8003674D01*
X15301839Y-8005753D01*
X15304146Y-8008592D01*
X15306120Y-8012335D01*
X15308449Y-8007993D01*
X15311240Y-8004655D01*
X15314508Y-8002170D01*
X15318243Y-8000381D01*
X15322200Y-7999309D01*
X15326446Y-7998946D01*
X15332181Y-7999512D01*
G37*
G36*
X14063317Y-9833200D02*
G01*
X14047139Y-9833200D01*
X14047139Y-9799748D01*
X14043861Y-9799748D01*
X14038666Y-9800018D01*
X14035718Y-9800652D01*
X14033280Y-9801890D01*
X14030853Y-9803979D01*
X14028170Y-9807319D01*
X14022329Y-9815742D01*
X14010634Y-9833200D01*
X13991290Y-9833200D01*
X14001070Y-9817568D01*
X14006713Y-9809022D01*
X14010283Y-9804560D01*
X14014049Y-9801130D01*
X14018943Y-9797834D01*
X14013699Y-9796705D01*
X14009406Y-9795060D01*
X14005912Y-9792952D01*
X14003097Y-9790394D01*
X14000810Y-9787300D01*
X13999164Y-9783826D01*
X13998146Y-9779900D01*
X13997869Y-9776394D01*
X14014459Y-9776394D01*
X14014892Y-9779833D01*
X14016100Y-9782495D01*
X14018040Y-9784564D01*
X14020634Y-9785934D01*
X14024594Y-9786594D01*
X14035171Y-9786931D01*
X14047139Y-9786931D01*
X14047139Y-9766297D01*
X14034516Y-9766297D01*
X14022710Y-9766575D01*
X14019150Y-9767743D01*
X14016618Y-9769765D01*
X14015449Y-9771557D01*
X14014719Y-9773733D01*
X14014459Y-9776394D01*
X13997869Y-9776394D01*
X13997792Y-9775427D01*
X13998194Y-9770768D01*
X13999364Y-9766569D01*
X14001289Y-9762741D01*
X14003917Y-9759379D01*
X14007004Y-9756833D01*
X14010610Y-9755023D01*
X14014601Y-9753942D01*
X14020610Y-9753160D01*
X14029270Y-9752854D01*
X14063317Y-9752854D01*
X14063317Y-9833200D01*
G37*
G36*
X13934084Y-9818819D02*
G01*
X13934084Y-9833200D01*
X13987910Y-9833200D01*
X13986945Y-9827942D01*
X13985207Y-9822863D01*
X13982664Y-9817915D01*
X13979384Y-9813296D01*
X13973872Y-9807048D01*
X13965396Y-9798757D01*
X13956129Y-9789733D01*
X13952666Y-9785675D01*
X13950851Y-9782405D01*
X13949825Y-9779301D01*
X13949495Y-9776301D01*
X13949836Y-9772994D01*
X13950774Y-9770426D01*
X13952255Y-9768427D01*
X13954254Y-9766936D01*
X13956749Y-9766006D01*
X13959881Y-9765672D01*
X13962964Y-9766017D01*
X13965471Y-9766989D01*
X13967530Y-9768568D01*
X13969040Y-9770688D01*
X13970170Y-9773783D01*
X13970808Y-9778177D01*
X13986107Y-9776648D01*
X13984945Y-9770312D01*
X13983081Y-9765314D01*
X13980605Y-9761403D01*
X13977530Y-9758393D01*
X13973803Y-9756025D01*
X13969612Y-9754301D01*
X13964876Y-9753228D01*
X13959495Y-9752854D01*
X13953585Y-9753298D01*
X13948612Y-9754550D01*
X13944412Y-9756531D01*
X13940859Y-9759229D01*
X13937878Y-9762632D01*
X13935786Y-9766356D01*
X13934519Y-9770472D01*
X13934084Y-9775080D01*
X13934572Y-9780360D01*
X13936023Y-9785348D01*
X13938427Y-9790166D01*
X13942173Y-9795557D01*
X13945607Y-9799394D01*
X13952226Y-9805747D01*
X13961434Y-9814569D01*
X13964575Y-9818819D01*
X13934084Y-9818819D01*
G37*
D12*
G36*
X14084288Y-7997929D02*
G01*
X14088910Y-8000020D01*
X14093078Y-8003602D01*
X14096107Y-8008192D01*
X14098081Y-8014313D01*
X14098811Y-8022424D01*
X14098001Y-8031382D01*
X14095788Y-8038313D01*
X14092354Y-8043664D01*
X14087667Y-8047946D01*
X14082805Y-8050355D01*
X14077599Y-8051147D01*
X14072551Y-8050461D01*
X14068171Y-8048451D01*
X14064281Y-8045020D01*
X14061542Y-8040591D01*
X14059670Y-8034130D01*
X14058951Y-8024934D01*
X14059712Y-8015498D01*
X14061716Y-8008703D01*
X14064694Y-8003895D01*
X14068884Y-8000154D01*
X14073601Y-7997965D01*
X14079037Y-7997218D01*
X14084288Y-7997929D01*
G37*
G36*
X14269727Y-8091848D02*
G01*
X14014102Y-8091848D01*
X14014102Y-8024787D01*
X14030768Y-8024787D01*
X14030780Y-8024934D01*
X14031686Y-8036059D01*
X14034298Y-8045741D01*
X14038493Y-8054117D01*
X14044296Y-8061396D01*
X14051478Y-8067385D01*
X14059535Y-8071650D01*
X14068641Y-8074270D01*
X14079037Y-8075181D01*
X14087925Y-8074454D01*
X14095973Y-8072336D01*
X14103336Y-8068858D01*
X14110132Y-8063956D01*
X14116433Y-8057485D01*
X14121189Y-8050463D01*
X14125176Y-8041562D01*
X14128287Y-8030402D01*
X14130244Y-8017185D01*
X14156953Y-8017185D01*
X14157395Y-8029777D01*
X14158558Y-8039182D01*
X14160232Y-8046027D01*
X14163975Y-8054257D01*
X14169259Y-8061264D01*
X14176215Y-8067203D01*
X14184307Y-8071463D01*
X14194330Y-8074194D01*
X14206751Y-8075181D01*
X14217806Y-8074303D01*
X14226978Y-8071845D01*
X14234613Y-8067963D01*
X14240970Y-8062669D01*
X14245966Y-8056110D01*
X14249715Y-8048030D01*
X14252147Y-8038109D01*
X14253060Y-8025941D01*
X14224474Y-8023011D01*
X14223694Y-8031683D01*
X14222358Y-8037527D01*
X14220682Y-8041283D01*
X14216835Y-8045786D01*
X14211963Y-8048451D01*
X14205726Y-8049389D01*
X14199237Y-8048646D01*
X14194621Y-8046659D01*
X14191382Y-8043564D01*
X14189363Y-8039328D01*
X14187817Y-8031772D01*
X14187178Y-8019347D01*
X14187178Y-7921601D01*
X14156953Y-7921601D01*
X14156953Y-8017185D01*
X14130244Y-8017185D01*
X14130340Y-8016540D01*
X14131088Y-7999472D01*
X14130311Y-7981994D01*
X14128178Y-7967773D01*
X14124942Y-7956300D01*
X14120787Y-7947125D01*
X14115820Y-7939864D01*
X14109276Y-7933228D01*
X14102145Y-7928175D01*
X14094342Y-7924568D01*
X14085738Y-7922362D01*
X14076161Y-7921601D01*
X14067700Y-7922252D01*
X14060267Y-7924120D01*
X14053689Y-7927137D01*
X14047832Y-7931319D01*
X14042903Y-7936501D01*
X14038865Y-7942800D01*
X14035718Y-7950395D01*
X14033534Y-7959520D01*
X14061406Y-7962634D01*
X14062557Y-7956993D01*
X14064366Y-7952817D01*
X14066736Y-7949783D01*
X14069828Y-7947512D01*
X14073495Y-7946123D01*
X14077901Y-7945634D01*
X14083575Y-7946540D01*
X14088647Y-7949258D01*
X14093325Y-7954070D01*
X14096493Y-7960208D01*
X14099290Y-7971084D01*
X14101266Y-7988829D01*
X14095438Y-7983172D01*
X14089126Y-7979260D01*
X14082215Y-7976917D01*
X14074521Y-7976116D01*
X14065800Y-7976971D01*
X14057855Y-7979482D01*
X14050505Y-7983672D01*
X14043628Y-7989708D01*
X14038087Y-7996857D01*
X14034100Y-8004955D01*
X14031631Y-8014185D01*
X14030768Y-8024787D01*
X14014102Y-8024787D01*
X14014102Y-7904934D01*
X14269727Y-7904934D01*
X14269727Y-8091848D01*
G37*
D11*
G36*
X15093200Y-7878754D02*
G01*
X15059748Y-7878754D01*
X15059748Y-7882032D01*
X15060018Y-7887227D01*
X15060652Y-7890175D01*
X15061890Y-7892613D01*
X15063979Y-7895040D01*
X15067319Y-7897723D01*
X15075741Y-7903565D01*
X15093200Y-7915259D01*
X15093200Y-7934603D01*
X15077568Y-7924823D01*
X15069022Y-7919181D01*
X15064560Y-7915611D01*
X15061130Y-7911845D01*
X15057834Y-7906950D01*
X15056705Y-7912195D01*
X15055060Y-7916487D01*
X15052952Y-7919981D01*
X15050394Y-7922796D01*
X15047300Y-7925083D01*
X15043826Y-7926730D01*
X15039899Y-7927747D01*
X15035427Y-7928101D01*
X15030768Y-7927699D01*
X15026569Y-7926529D01*
X15022741Y-7924604D01*
X15019379Y-7921977D01*
X15016833Y-7918889D01*
X15015023Y-7915283D01*
X15013942Y-7911292D01*
X15013160Y-7905283D01*
X15012854Y-7896623D01*
X15012854Y-7891377D01*
X15026297Y-7891377D01*
X15026575Y-7903184D01*
X15027743Y-7906744D01*
X15029765Y-7909275D01*
X15031557Y-7910444D01*
X15033733Y-7911174D01*
X15036394Y-7911434D01*
X15039833Y-7911001D01*
X15042495Y-7909793D01*
X15044564Y-7907853D01*
X15045934Y-7905260D01*
X15046594Y-7901299D01*
X15046931Y-7890722D01*
X15046931Y-7878754D01*
X15026297Y-7878754D01*
X15026297Y-7891377D01*
X15012854Y-7891377D01*
X15012854Y-7862576D01*
X15093200Y-7862576D01*
X15093200Y-7878754D01*
G37*
G36*
X15093200Y-7979241D02*
G01*
X15093200Y-7963883D01*
X15035490Y-7963883D01*
X15040308Y-7957967D01*
X15044218Y-7951381D01*
X15047243Y-7944045D01*
X15033175Y-7944045D01*
X15031591Y-7947918D01*
X15029153Y-7952247D01*
X15025701Y-7957107D01*
X15021721Y-7961411D01*
X15017455Y-7964593D01*
X15012854Y-7966779D01*
X15012854Y-7979241D01*
X15093200Y-7979241D01*
G37*
G36*
X15045390Y-8001421D02*
G01*
X15050343Y-8002741D01*
X15054669Y-8004868D01*
X15058469Y-8007817D01*
X15061682Y-8011485D01*
X15063908Y-8015379D01*
X15065237Y-8019562D01*
X15065688Y-8024128D01*
X15065262Y-8028322D01*
X15064017Y-8032074D01*
X15061947Y-8035482D01*
X15058967Y-8038611D01*
X15068391Y-8037528D01*
X15074176Y-8036029D01*
X15077446Y-8034347D01*
X15080020Y-8031873D01*
X15081466Y-8029214D01*
X15081945Y-8026262D01*
X15081681Y-8023838D01*
X15080935Y-8021847D01*
X15079723Y-8020195D01*
X15078094Y-8018929D01*
X15075868Y-8017965D01*
X15072879Y-8017352D01*
X15074550Y-8002488D01*
X15079549Y-8003653D01*
X15083651Y-8005305D01*
X15086997Y-8007398D01*
X15089697Y-8009923D01*
X15091856Y-8012944D01*
X15093431Y-8016422D01*
X15094416Y-8020443D01*
X15094763Y-8025114D01*
X15094357Y-8030246D01*
X15093180Y-8034852D01*
X15091257Y-8039024D01*
X15088565Y-8042831D01*
X15085032Y-8046320D01*
X15081161Y-8048970D01*
X15076273Y-8051187D01*
X15070167Y-8052912D01*
X15062604Y-8054049D01*
X15053315Y-8054463D01*
X15044167Y-8054063D01*
X15036746Y-8052967D01*
X15030780Y-8051307D01*
X15026028Y-8049181D01*
X15022286Y-8046647D01*
X15018840Y-8043287D01*
X15016228Y-8039658D01*
X15014373Y-8035720D01*
X15013242Y-8031410D01*
X15012854Y-8026643D01*
X15012916Y-8025935D01*
X15025672Y-8025935D01*
X15026098Y-8028744D01*
X15027391Y-8031345D01*
X15029682Y-8033829D01*
X15032545Y-8035650D01*
X15036229Y-8036821D01*
X15040961Y-8037248D01*
X15045283Y-8036862D01*
X15048554Y-8035818D01*
X15051014Y-8034215D01*
X15052933Y-8032009D01*
X15054053Y-8029554D01*
X15054434Y-8026756D01*
X15054036Y-8023856D01*
X15052870Y-8021339D01*
X15050877Y-8019101D01*
X15048318Y-8017514D01*
X15044715Y-8016447D01*
X15039730Y-8016043D01*
X15034796Y-8016423D01*
X15031331Y-8017412D01*
X15028959Y-8018857D01*
X15027119Y-8020915D01*
X15026040Y-8023242D01*
X15025672Y-8025935D01*
X15012916Y-8025935D01*
X15013339Y-8021161D01*
X15014737Y-8016336D01*
X15017021Y-8012045D01*
X15020235Y-8008198D01*
X15024131Y-8005086D01*
X15028592Y-8002842D01*
X15033725Y-8001447D01*
X15039677Y-8000959D01*
X15045390Y-8001421D01*
G37*
G36*
X15344424Y-8178200D02*
G01*
X15328245Y-8178200D01*
X15328245Y-8144748D01*
X15324968Y-8144748D01*
X15319773Y-8145018D01*
X15316825Y-8145652D01*
X15314387Y-8146890D01*
X15311959Y-8148979D01*
X15309276Y-8152319D01*
X15303435Y-8160741D01*
X15291741Y-8178200D01*
X15272397Y-8178200D01*
X15282176Y-8162568D01*
X15287819Y-8154022D01*
X15291389Y-8149560D01*
X15295155Y-8146130D01*
X15300050Y-8142834D01*
X15294805Y-8141705D01*
X15290513Y-8140060D01*
X15287019Y-8137952D01*
X15284204Y-8135394D01*
X15281916Y-8132300D01*
X15280270Y-8128826D01*
X15279253Y-8124899D01*
X15278975Y-8121394D01*
X15295566Y-8121394D01*
X15295999Y-8124833D01*
X15297207Y-8127495D01*
X15299146Y-8129564D01*
X15301740Y-8130934D01*
X15305701Y-8131594D01*
X15316278Y-8131931D01*
X15328245Y-8131931D01*
X15328245Y-8111297D01*
X15315623Y-8111297D01*
X15303816Y-8111575D01*
X15300256Y-8112743D01*
X15297725Y-8114765D01*
X15296556Y-8116557D01*
X15295826Y-8118733D01*
X15295566Y-8121394D01*
X15278975Y-8121394D01*
X15278899Y-8120427D01*
X15279301Y-8115768D01*
X15280471Y-8111569D01*
X15282396Y-8107741D01*
X15285023Y-8104379D01*
X15288110Y-8101833D01*
X15291717Y-8100023D01*
X15295708Y-8098942D01*
X15301717Y-8098160D01*
X15310377Y-8097854D01*
X15344424Y-8097854D01*
X15344424Y-8178200D01*
G37*
G36*
X15227759Y-8178200D02*
G01*
X15243117Y-8178200D01*
X15243117Y-8120490D01*
X15249033Y-8125308D01*
X15255618Y-8129218D01*
X15262954Y-8132243D01*
X15262954Y-8118175D01*
X15259082Y-8116591D01*
X15254753Y-8114153D01*
X15249892Y-8110701D01*
X15245589Y-8106721D01*
X15242407Y-8102455D01*
X15240220Y-8097854D01*
X15227759Y-8097854D01*
X15227759Y-8178200D01*
G37*
G36*
X15205386Y-8156633D02*
G01*
X15190522Y-8154753D01*
X15189725Y-8158579D01*
X15188433Y-8161542D01*
X15186697Y-8163814D01*
X15184461Y-8165561D01*
X15181976Y-8166593D01*
X15179155Y-8166945D01*
X15176142Y-8166542D01*
X15173507Y-8165357D01*
X15171148Y-8163335D01*
X15169392Y-8160749D01*
X15168290Y-8157556D01*
X15167895Y-8153590D01*
X15168273Y-8149839D01*
X15169329Y-8146826D01*
X15171012Y-8144392D01*
X15173265Y-8142489D01*
X15175766Y-8141375D01*
X15178608Y-8140997D01*
X15181675Y-8141257D01*
X15185656Y-8142145D01*
X15183961Y-8129742D01*
X15179899Y-8129477D01*
X15176805Y-8128550D01*
X15174456Y-8127055D01*
X15172643Y-8124963D01*
X15171553Y-8122477D01*
X15171173Y-8119474D01*
X15171460Y-8116894D01*
X15172269Y-8114793D01*
X15173581Y-8113065D01*
X15175316Y-8111759D01*
X15177412Y-8110956D01*
X15179971Y-8110672D01*
X15182486Y-8110977D01*
X15184703Y-8111872D01*
X15186697Y-8113383D01*
X15188245Y-8115356D01*
X15189388Y-8117944D01*
X15190082Y-8121301D01*
X15204238Y-8118917D01*
X15203006Y-8114110D01*
X15201506Y-8110267D01*
X15199783Y-8107233D01*
X15197574Y-8104563D01*
X15194829Y-8102277D01*
X15191479Y-8100360D01*
X15187850Y-8098987D01*
X15183888Y-8098144D01*
X15179536Y-8097854D01*
X15173978Y-8098338D01*
X15169190Y-8099720D01*
X15165027Y-8101955D01*
X15161389Y-8105074D01*
X15158870Y-8108207D01*
X15157135Y-8111442D01*
X15156107Y-8114825D01*
X15155761Y-8118419D01*
X15156201Y-8122377D01*
X15157496Y-8125963D01*
X15159680Y-8129273D01*
X15162879Y-8132368D01*
X15167294Y-8135262D01*
X15162948Y-8136684D01*
X15159316Y-8138882D01*
X15156284Y-8141886D01*
X15154013Y-8145504D01*
X15152634Y-8149602D01*
X15152156Y-8154308D01*
X15152645Y-8159432D01*
X15154076Y-8164077D01*
X15156455Y-8168348D01*
X15159864Y-8172319D01*
X15163935Y-8175565D01*
X15168426Y-8177869D01*
X15173423Y-8179277D01*
X15179042Y-8179763D01*
X15184409Y-8179337D01*
X15189136Y-8178113D01*
X15193332Y-8176129D01*
X15197082Y-8173369D01*
X15200265Y-8169949D01*
X15202694Y-8166071D01*
X15204405Y-8161666D01*
X15205386Y-8156633D01*
G37*
G36*
X13693216Y-7533500D02*
G01*
X13677531Y-7538502D01*
X13679769Y-7544983D01*
X13682533Y-7550297D01*
X13685785Y-7554612D01*
X13689528Y-7558061D01*
X13693853Y-7560780D01*
X13698770Y-7562770D01*
X13704380Y-7564014D01*
X13710811Y-7564450D01*
X13717124Y-7563991D01*
X13722814Y-7562660D01*
X13727982Y-7560491D01*
X13732708Y-7557474D01*
X13737048Y-7553547D01*
X13740626Y-7549047D01*
X13743456Y-7543920D01*
X13745546Y-7538073D01*
X13746859Y-7531391D01*
X13747321Y-7523735D01*
X13746848Y-7515589D01*
X13745511Y-7508556D01*
X13743398Y-7502478D01*
X13740559Y-7497219D01*
X13736994Y-7492672D01*
X13732640Y-7488717D01*
X13727824Y-7485658D01*
X13722483Y-7483446D01*
X13716523Y-7482078D01*
X13709830Y-7481603D01*
X13702572Y-7482189D01*
X13696278Y-7483861D01*
X13690779Y-7486557D01*
X13685947Y-7490293D01*
X13682749Y-7494013D01*
X13680002Y-7498856D01*
X13677751Y-7505051D01*
X13693763Y-7508802D01*
X13695089Y-7504866D01*
X13697061Y-7501625D01*
X13699693Y-7498969D01*
X13702865Y-7496987D01*
X13706479Y-7495779D01*
X13710650Y-7495359D01*
X13714981Y-7495777D01*
X13718767Y-7496983D01*
X13722118Y-7498962D01*
X13725109Y-7501773D01*
X13727331Y-7505073D01*
X13729065Y-7509445D01*
X13730224Y-7515157D01*
X13730654Y-7522533D01*
X13730221Y-7530414D01*
X13729063Y-7536416D01*
X13727351Y-7540917D01*
X13725188Y-7544232D01*
X13722232Y-7547073D01*
X13718932Y-7549065D01*
X13715217Y-7550276D01*
X13710977Y-7550695D01*
X13706837Y-7550224D01*
X13703178Y-7548850D01*
X13699884Y-7546547D01*
X13697238Y-7543493D01*
X13694993Y-7539246D01*
X13693216Y-7533500D01*
G37*
G36*
X13615190Y-7548819D02*
G01*
X13615190Y-7563200D01*
X13669017Y-7563200D01*
X13668051Y-7557942D01*
X13666314Y-7552863D01*
X13663770Y-7547915D01*
X13660491Y-7543295D01*
X13654979Y-7537048D01*
X13646502Y-7528757D01*
X13637236Y-7519733D01*
X13633772Y-7515675D01*
X13631957Y-7512405D01*
X13630932Y-7509301D01*
X13630602Y-7506301D01*
X13630943Y-7502994D01*
X13631881Y-7500425D01*
X13633362Y-7498427D01*
X13635361Y-7496936D01*
X13637855Y-7496005D01*
X13640987Y-7495672D01*
X13644071Y-7496017D01*
X13646578Y-7496989D01*
X13648637Y-7498568D01*
X13650147Y-7500688D01*
X13651276Y-7503783D01*
X13651915Y-7508177D01*
X13667214Y-7506648D01*
X13666052Y-7500312D01*
X13664188Y-7495313D01*
X13661711Y-7491403D01*
X13658636Y-7488393D01*
X13654910Y-7486024D01*
X13650719Y-7484300D01*
X13645983Y-7483228D01*
X13640601Y-7482854D01*
X13634692Y-7483298D01*
X13629719Y-7484550D01*
X13625519Y-7486531D01*
X13621966Y-7489229D01*
X13618984Y-7492632D01*
X13616893Y-7496356D01*
X13615626Y-7500472D01*
X13615190Y-7505080D01*
X13615678Y-7510360D01*
X13617130Y-7515348D01*
X13619534Y-7520166D01*
X13623280Y-7525557D01*
X13626713Y-7529394D01*
X13633333Y-7535747D01*
X13642541Y-7544569D01*
X13645682Y-7548819D01*
X13615190Y-7548819D01*
G37*
G36*
X13584762Y-7483271D02*
G01*
X13589542Y-7484434D01*
X13593500Y-7486256D01*
X13596774Y-7488711D01*
X13599516Y-7491837D01*
X13601448Y-7495299D01*
X13602625Y-7499167D01*
X13603032Y-7503541D01*
X13602728Y-7506966D01*
X13601829Y-7510167D01*
X13600326Y-7513199D01*
X13598247Y-7515839D01*
X13595408Y-7518146D01*
X13591665Y-7520120D01*
X13596007Y-7522449D01*
X13599345Y-7525240D01*
X13601830Y-7528508D01*
X13603618Y-7532243D01*
X13604691Y-7536200D01*
X13605054Y-7540446D01*
X13604488Y-7546181D01*
X13602866Y-7551086D01*
X13600223Y-7555330D01*
X13596476Y-7559023D01*
X13592713Y-7561482D01*
X13588484Y-7563267D01*
X13583708Y-7564376D01*
X13578280Y-7564763D01*
X13572472Y-7564292D01*
X13567489Y-7562951D01*
X13563187Y-7560800D01*
X13559454Y-7557827D01*
X13556389Y-7554143D01*
X13554197Y-7549978D01*
X13552847Y-7545238D01*
X13552376Y-7539792D01*
X13552432Y-7539181D01*
X13567568Y-7539181D01*
X13567960Y-7543408D01*
X13569028Y-7546649D01*
X13570684Y-7549127D01*
X13572947Y-7551044D01*
X13575533Y-7552180D01*
X13578549Y-7552570D01*
X13581635Y-7552167D01*
X13584306Y-7550988D01*
X13586668Y-7548990D01*
X13588409Y-7546420D01*
X13589515Y-7543161D01*
X13589916Y-7539020D01*
X13589612Y-7536054D01*
X13588703Y-7533244D01*
X13587156Y-7530535D01*
X13585047Y-7528396D01*
X13582319Y-7527090D01*
X13578769Y-7526622D01*
X13575679Y-7527015D01*
X13573039Y-7528153D01*
X13570738Y-7530066D01*
X13569016Y-7532532D01*
X13567948Y-7535522D01*
X13567568Y-7539181D01*
X13552432Y-7539181D01*
X13552774Y-7535418D01*
X13553933Y-7531496D01*
X13555844Y-7527936D01*
X13558447Y-7524846D01*
X13561786Y-7522244D01*
X13565980Y-7520120D01*
X13562690Y-7518323D01*
X13559999Y-7516113D01*
X13557837Y-7513472D01*
X13556238Y-7510458D01*
X13555271Y-7507172D01*
X13555037Y-7504601D01*
X13569370Y-7504601D01*
X13569688Y-7507569D01*
X13570574Y-7509930D01*
X13571994Y-7511821D01*
X13573887Y-7513243D01*
X13576181Y-7514119D01*
X13578989Y-7514429D01*
X13581762Y-7514123D01*
X13584030Y-7513257D01*
X13585906Y-7511850D01*
X13587307Y-7509976D01*
X13588184Y-7507624D01*
X13588499Y-7504655D01*
X13588189Y-7501871D01*
X13587309Y-7499584D01*
X13585876Y-7497684D01*
X13583979Y-7496247D01*
X13581669Y-7495361D01*
X13578827Y-7495046D01*
X13576093Y-7495355D01*
X13573843Y-7496229D01*
X13571969Y-7497655D01*
X13570552Y-7499538D01*
X13569679Y-7501816D01*
X13569370Y-7504601D01*
X13555037Y-7504601D01*
X13554941Y-7503541D01*
X13555350Y-7499170D01*
X13556536Y-7495304D01*
X13558485Y-7491840D01*
X13561252Y-7488711D01*
X13564553Y-7486250D01*
X13568515Y-7484428D01*
X13573269Y-7483268D01*
X13578984Y-7482854D01*
X13584762Y-7483271D01*
G37*
G36*
X15118200Y-8441754D02*
G01*
X15084748Y-8441754D01*
X15084748Y-8445032D01*
X15085018Y-8450227D01*
X15085652Y-8453175D01*
X15086890Y-8455613D01*
X15088979Y-8458041D01*
X15092319Y-8460724D01*
X15100741Y-8466565D01*
X15118200Y-8478259D01*
X15118200Y-8497603D01*
X15102568Y-8487824D01*
X15094022Y-8482181D01*
X15089560Y-8478611D01*
X15086130Y-8474845D01*
X15082834Y-8469950D01*
X15081705Y-8475195D01*
X15080060Y-8479487D01*
X15077952Y-8482981D01*
X15075394Y-8485796D01*
X15072300Y-8488084D01*
X15068826Y-8489730D01*
X15064899Y-8490747D01*
X15060427Y-8491101D01*
X15055768Y-8490699D01*
X15051569Y-8489529D01*
X15047741Y-8487604D01*
X15044379Y-8484977D01*
X15041833Y-8481889D01*
X15040023Y-8478283D01*
X15038942Y-8474292D01*
X15038160Y-8468283D01*
X15037854Y-8459623D01*
X15037854Y-8454377D01*
X15051297Y-8454377D01*
X15051575Y-8466184D01*
X15052743Y-8469744D01*
X15054765Y-8472275D01*
X15056557Y-8473444D01*
X15058733Y-8474174D01*
X15061394Y-8474434D01*
X15064833Y-8474001D01*
X15067495Y-8472793D01*
X15069564Y-8470854D01*
X15070934Y-8468260D01*
X15071594Y-8464299D01*
X15071931Y-8453722D01*
X15071931Y-8441754D01*
X15051297Y-8441754D01*
X15051297Y-8454377D01*
X15037854Y-8454377D01*
X15037854Y-8425576D01*
X15118200Y-8425576D01*
X15118200Y-8441754D01*
G37*
G36*
X15118200Y-8542241D02*
G01*
X15118200Y-8526883D01*
X15060490Y-8526883D01*
X15065308Y-8520967D01*
X15069218Y-8514381D01*
X15072243Y-8507045D01*
X15058175Y-8507045D01*
X15056591Y-8510918D01*
X15054153Y-8515247D01*
X15050701Y-8520108D01*
X15046721Y-8524411D01*
X15042455Y-8527593D01*
X15037854Y-8529780D01*
X15037854Y-8542241D01*
X15118200Y-8542241D01*
G37*
G36*
X15103819Y-8617023D02*
G01*
X15118200Y-8617023D01*
X15118200Y-8563197D01*
X15112942Y-8564162D01*
X15107863Y-8565900D01*
X15102915Y-8568443D01*
X15098295Y-8571722D01*
X15092048Y-8577235D01*
X15083757Y-8585711D01*
X15074733Y-8594978D01*
X15070675Y-8598441D01*
X15067405Y-8600256D01*
X15064301Y-8601281D01*
X15061301Y-8601611D01*
X15057994Y-8601271D01*
X15055425Y-8600333D01*
X15053427Y-8598851D01*
X15051936Y-8596852D01*
X15051005Y-8594358D01*
X15050672Y-8591226D01*
X15051017Y-8588143D01*
X15051989Y-8585636D01*
X15053568Y-8583576D01*
X15055688Y-8582066D01*
X15058783Y-8580937D01*
X15063177Y-8580299D01*
X15061648Y-8564999D01*
X15055312Y-8566161D01*
X15050313Y-8568025D01*
X15046403Y-8570502D01*
X15043393Y-8573577D01*
X15041024Y-8577304D01*
X15039300Y-8581495D01*
X15038228Y-8586231D01*
X15037854Y-8591612D01*
X15038298Y-8597522D01*
X15039550Y-8602495D01*
X15041531Y-8606695D01*
X15044229Y-8610248D01*
X15047632Y-8613229D01*
X15051356Y-8615321D01*
X15055472Y-8616588D01*
X15060080Y-8617023D01*
X15065360Y-8616535D01*
X15070348Y-8615084D01*
X15075166Y-8612680D01*
X15080557Y-8608934D01*
X15084394Y-8605500D01*
X15090747Y-8598881D01*
X15099569Y-8589673D01*
X15103819Y-8586532D01*
X15103819Y-8617023D01*
G37*
G36*
X14343317Y-8363200D02*
G01*
X14327139Y-8363200D01*
X14327139Y-8329748D01*
X14323861Y-8329748D01*
X14318666Y-8330018D01*
X14315718Y-8330652D01*
X14313280Y-8331890D01*
X14310853Y-8333979D01*
X14308170Y-8337319D01*
X14302329Y-8345741D01*
X14290634Y-8363200D01*
X14271290Y-8363200D01*
X14281070Y-8347568D01*
X14286713Y-8339022D01*
X14290283Y-8334560D01*
X14294049Y-8331130D01*
X14298943Y-8327834D01*
X14293699Y-8326705D01*
X14289406Y-8325060D01*
X14285912Y-8322952D01*
X14283097Y-8320394D01*
X14280810Y-8317300D01*
X14279164Y-8313826D01*
X14278146Y-8309899D01*
X14277869Y-8306394D01*
X14294459Y-8306394D01*
X14294892Y-8309833D01*
X14296100Y-8312495D01*
X14298040Y-8314564D01*
X14300634Y-8315934D01*
X14304594Y-8316594D01*
X14315171Y-8316931D01*
X14327139Y-8316931D01*
X14327139Y-8296297D01*
X14314516Y-8296297D01*
X14302710Y-8296575D01*
X14299150Y-8297743D01*
X14296618Y-8299765D01*
X14295449Y-8301557D01*
X14294719Y-8303733D01*
X14294459Y-8306394D01*
X14277869Y-8306394D01*
X14277792Y-8305427D01*
X14278194Y-8300768D01*
X14279364Y-8296569D01*
X14281289Y-8292741D01*
X14283917Y-8289379D01*
X14287004Y-8286833D01*
X14290610Y-8285023D01*
X14294601Y-8283942D01*
X14300610Y-8283160D01*
X14309270Y-8282854D01*
X14343317Y-8282854D01*
X14343317Y-8363200D01*
G37*
G36*
X14226652Y-8363200D02*
G01*
X14242010Y-8363200D01*
X14242010Y-8305490D01*
X14247926Y-8310308D01*
X14254512Y-8314218D01*
X14261848Y-8317243D01*
X14261848Y-8303175D01*
X14257975Y-8301591D01*
X14253646Y-8299153D01*
X14248786Y-8295701D01*
X14244482Y-8291721D01*
X14241300Y-8287455D01*
X14239114Y-8282854D01*
X14226652Y-8282854D01*
X14226652Y-8363200D01*
G37*
G36*
X14533317Y-8625700D02*
G01*
X14517139Y-8625700D01*
X14517139Y-8592248D01*
X14513861Y-8592248D01*
X14508666Y-8592518D01*
X14505718Y-8593152D01*
X14503280Y-8594390D01*
X14500853Y-8596479D01*
X14498170Y-8599819D01*
X14492329Y-8608242D01*
X14480634Y-8625700D01*
X14461290Y-8625700D01*
X14471070Y-8610068D01*
X14476713Y-8601522D01*
X14480283Y-8597060D01*
X14484049Y-8593630D01*
X14488943Y-8590334D01*
X14483699Y-8589205D01*
X14479406Y-8587560D01*
X14475912Y-8585452D01*
X14473097Y-8582894D01*
X14470810Y-8579800D01*
X14469164Y-8576326D01*
X14468146Y-8572400D01*
X14467869Y-8568894D01*
X14484459Y-8568894D01*
X14484892Y-8572333D01*
X14486100Y-8574995D01*
X14488040Y-8577064D01*
X14490634Y-8578434D01*
X14494594Y-8579094D01*
X14505171Y-8579431D01*
X14517139Y-8579431D01*
X14517139Y-8558797D01*
X14504516Y-8558797D01*
X14492710Y-8559075D01*
X14489150Y-8560243D01*
X14486618Y-8562265D01*
X14485449Y-8564057D01*
X14484719Y-8566233D01*
X14484459Y-8568894D01*
X14467869Y-8568894D01*
X14467792Y-8567927D01*
X14468194Y-8563268D01*
X14469364Y-8559069D01*
X14471289Y-8555241D01*
X14473917Y-8551879D01*
X14477004Y-8549333D01*
X14480610Y-8547523D01*
X14484601Y-8546442D01*
X14490610Y-8545660D01*
X14499270Y-8545354D01*
X14533317Y-8545354D01*
X14533317Y-8625700D01*
G37*
G36*
X14456493Y-8604133D02*
G01*
X14441629Y-8602253D01*
X14440832Y-8606079D01*
X14439540Y-8609042D01*
X14437804Y-8611314D01*
X14435568Y-8613061D01*
X14433083Y-8614093D01*
X14430262Y-8614445D01*
X14427249Y-8614042D01*
X14424614Y-8612857D01*
X14422255Y-8610835D01*
X14420499Y-8608249D01*
X14419397Y-8605056D01*
X14419002Y-8601090D01*
X14419380Y-8597339D01*
X14420435Y-8594326D01*
X14422119Y-8591892D01*
X14424372Y-8589989D01*
X14426873Y-8588876D01*
X14429714Y-8588497D01*
X14432781Y-8588757D01*
X14436763Y-8589645D01*
X14435068Y-8577242D01*
X14431006Y-8576978D01*
X14427912Y-8576050D01*
X14425562Y-8574556D01*
X14423750Y-8572463D01*
X14422660Y-8569977D01*
X14422280Y-8566974D01*
X14422567Y-8564394D01*
X14423375Y-8562293D01*
X14424688Y-8560565D01*
X14426423Y-8559259D01*
X14428518Y-8558456D01*
X14431077Y-8558172D01*
X14433593Y-8558478D01*
X14435809Y-8559373D01*
X14437804Y-8560883D01*
X14439352Y-8562857D01*
X14440495Y-8565444D01*
X14441189Y-8568801D01*
X14455345Y-8566417D01*
X14454113Y-8561610D01*
X14452613Y-8557767D01*
X14450890Y-8554733D01*
X14448681Y-8552063D01*
X14445936Y-8549777D01*
X14442586Y-8547860D01*
X14438957Y-8546487D01*
X14434995Y-8545644D01*
X14430643Y-8545354D01*
X14425085Y-8545838D01*
X14420297Y-8547220D01*
X14416134Y-8549455D01*
X14412495Y-8552574D01*
X14409977Y-8555707D01*
X14408242Y-8558942D01*
X14407214Y-8562325D01*
X14406868Y-8565919D01*
X14407308Y-8569878D01*
X14408603Y-8573463D01*
X14410787Y-8576773D01*
X14413985Y-8579868D01*
X14418401Y-8582762D01*
X14414055Y-8584184D01*
X14410423Y-8586382D01*
X14407391Y-8589386D01*
X14405120Y-8593004D01*
X14403741Y-8597102D01*
X14403263Y-8601808D01*
X14403752Y-8606932D01*
X14405183Y-8611577D01*
X14407562Y-8615848D01*
X14410971Y-8619819D01*
X14415042Y-8623065D01*
X14419533Y-8625369D01*
X14424530Y-8626777D01*
X14430149Y-8627263D01*
X14435516Y-8626837D01*
X14440243Y-8625613D01*
X14444439Y-8623629D01*
X14448189Y-8620869D01*
X14451372Y-8617449D01*
X14453801Y-8613571D01*
X14455512Y-8609166D01*
X14456493Y-8604133D01*
G37*
G36*
X14530817Y-8508200D02*
G01*
X14514639Y-8508200D01*
X14514639Y-8474748D01*
X14511361Y-8474748D01*
X14506166Y-8475018D01*
X14503218Y-8475652D01*
X14500780Y-8476890D01*
X14498353Y-8478979D01*
X14495670Y-8482319D01*
X14489829Y-8490742D01*
X14478134Y-8508200D01*
X14458790Y-8508200D01*
X14468570Y-8492568D01*
X14474213Y-8484022D01*
X14477783Y-8479560D01*
X14481549Y-8476130D01*
X14486443Y-8472834D01*
X14481199Y-8471705D01*
X14476906Y-8470060D01*
X14473412Y-8467952D01*
X14470597Y-8465394D01*
X14468310Y-8462300D01*
X14466664Y-8458826D01*
X14465646Y-8454900D01*
X14465369Y-8451394D01*
X14481959Y-8451394D01*
X14482392Y-8454833D01*
X14483600Y-8457495D01*
X14485540Y-8459564D01*
X14488134Y-8460934D01*
X14492094Y-8461594D01*
X14502671Y-8461931D01*
X14514639Y-8461931D01*
X14514639Y-8441297D01*
X14502016Y-8441297D01*
X14490210Y-8441575D01*
X14486650Y-8442743D01*
X14484118Y-8444765D01*
X14482949Y-8446557D01*
X14482219Y-8448733D01*
X14481959Y-8451394D01*
X14465369Y-8451394D01*
X14465292Y-8450427D01*
X14465694Y-8445768D01*
X14466864Y-8441569D01*
X14468789Y-8437741D01*
X14471417Y-8434379D01*
X14474504Y-8431833D01*
X14478110Y-8430023D01*
X14482101Y-8428942D01*
X14488110Y-8428160D01*
X14496770Y-8427854D01*
X14530817Y-8427854D01*
X14530817Y-8508200D01*
G37*
G36*
X14456123Y-8478554D02*
G01*
X14456123Y-8491943D01*
X14423331Y-8491943D01*
X14423331Y-8508200D01*
X14408466Y-8508200D01*
X14408466Y-8491943D01*
X14398521Y-8491943D01*
X14398521Y-8478500D01*
X14408466Y-8478500D01*
X14423331Y-8478500D01*
X14441752Y-8478500D01*
X14423331Y-8451624D01*
X14423331Y-8478500D01*
X14408466Y-8478500D01*
X14408466Y-8427854D01*
X14421367Y-8427854D01*
X14456123Y-8478554D01*
G37*
G36*
X14654220Y-7525507D02*
G01*
X14638534Y-7530509D01*
X14640772Y-7536990D01*
X14643536Y-7542304D01*
X14646789Y-7546619D01*
X14650531Y-7550068D01*
X14654857Y-7552787D01*
X14659773Y-7554777D01*
X14665384Y-7556021D01*
X14671815Y-7556457D01*
X14678127Y-7555998D01*
X14683817Y-7554666D01*
X14688985Y-7552498D01*
X14693711Y-7549481D01*
X14698051Y-7545554D01*
X14701630Y-7541054D01*
X14704459Y-7535926D01*
X14706549Y-7530080D01*
X14707863Y-7523398D01*
X14708324Y-7515742D01*
X14707852Y-7507596D01*
X14706514Y-7500563D01*
X14704402Y-7494485D01*
X14701562Y-7489226D01*
X14697998Y-7484679D01*
X14693643Y-7480724D01*
X14688828Y-7477665D01*
X14683486Y-7475453D01*
X14677526Y-7474085D01*
X14670833Y-7473610D01*
X14663575Y-7474195D01*
X14657281Y-7475868D01*
X14651782Y-7478563D01*
X14646951Y-7482300D01*
X14643752Y-7486020D01*
X14641006Y-7490862D01*
X14638754Y-7497057D01*
X14654767Y-7500809D01*
X14656092Y-7496873D01*
X14658064Y-7493632D01*
X14660697Y-7490976D01*
X14663869Y-7488993D01*
X14667482Y-7487785D01*
X14671654Y-7487366D01*
X14675984Y-7487784D01*
X14679770Y-7488990D01*
X14683122Y-7490969D01*
X14686113Y-7493780D01*
X14688334Y-7497079D01*
X14690068Y-7501451D01*
X14691227Y-7507164D01*
X14691657Y-7514540D01*
X14691224Y-7522420D01*
X14690066Y-7528423D01*
X14688354Y-7532924D01*
X14686191Y-7536239D01*
X14683235Y-7539080D01*
X14679936Y-7541072D01*
X14676221Y-7542283D01*
X14671981Y-7542701D01*
X14667840Y-7542231D01*
X14664181Y-7540856D01*
X14660887Y-7538554D01*
X14658241Y-7535500D01*
X14655997Y-7531253D01*
X14654220Y-7525507D01*
G37*
G36*
X14576194Y-7540826D02*
G01*
X14576194Y-7555207D01*
X14630020Y-7555207D01*
X14629055Y-7549949D01*
X14627317Y-7544870D01*
X14624774Y-7539922D01*
X14621494Y-7535302D01*
X14615982Y-7529055D01*
X14607506Y-7520764D01*
X14598239Y-7511740D01*
X14594776Y-7507682D01*
X14592961Y-7504411D01*
X14591936Y-7501308D01*
X14591605Y-7498308D01*
X14591946Y-7495001D01*
X14592884Y-7492432D01*
X14594365Y-7490433D01*
X14596364Y-7488943D01*
X14598859Y-7488012D01*
X14601991Y-7487678D01*
X14605074Y-7488023D01*
X14607581Y-7488996D01*
X14609640Y-7490575D01*
X14611150Y-7492695D01*
X14612280Y-7495790D01*
X14612918Y-7500184D01*
X14628217Y-7498655D01*
X14627056Y-7492319D01*
X14625191Y-7487320D01*
X14622715Y-7483409D01*
X14619640Y-7480400D01*
X14615913Y-7478031D01*
X14611722Y-7476307D01*
X14606986Y-7475235D01*
X14601605Y-7474861D01*
X14595695Y-7475305D01*
X14590722Y-7476557D01*
X14586522Y-7478538D01*
X14582969Y-7481235D01*
X14579988Y-7484639D01*
X14577896Y-7488363D01*
X14576629Y-7492478D01*
X14576194Y-7497087D01*
X14576682Y-7502367D01*
X14578133Y-7507355D01*
X14580537Y-7512172D01*
X14584283Y-7517564D01*
X14587717Y-7521401D01*
X14594336Y-7527754D01*
X14603544Y-7536576D01*
X14606685Y-7540826D01*
X14576194Y-7540826D01*
G37*
G36*
X14546842Y-7475346D02*
G01*
X14551667Y-7476744D01*
X14555958Y-7479027D01*
X14559805Y-7482242D01*
X14562917Y-7486138D01*
X14565162Y-7490599D01*
X14566556Y-7495732D01*
X14567044Y-7501683D01*
X14566583Y-7507396D01*
X14565263Y-7512349D01*
X14563136Y-7516676D01*
X14560186Y-7520475D01*
X14556518Y-7523689D01*
X14552624Y-7525915D01*
X14548441Y-7527244D01*
X14543876Y-7527695D01*
X14539681Y-7527269D01*
X14535929Y-7526024D01*
X14532521Y-7523954D01*
X14529392Y-7520974D01*
X14530475Y-7530398D01*
X14531974Y-7536183D01*
X14533656Y-7539453D01*
X14536131Y-7542027D01*
X14538789Y-7543473D01*
X14541741Y-7543952D01*
X14544165Y-7543688D01*
X14546156Y-7542941D01*
X14547808Y-7541729D01*
X14549074Y-7540101D01*
X14550038Y-7537874D01*
X14550651Y-7534886D01*
X14565515Y-7536556D01*
X14564351Y-7541556D01*
X14562698Y-7545658D01*
X14560606Y-7549004D01*
X14558081Y-7551704D01*
X14555060Y-7553863D01*
X14551581Y-7555437D01*
X14547560Y-7556423D01*
X14542889Y-7556770D01*
X14537757Y-7556364D01*
X14533151Y-7555186D01*
X14528980Y-7553264D01*
X14525172Y-7550572D01*
X14521684Y-7547039D01*
X14519033Y-7543168D01*
X14516817Y-7538280D01*
X14515091Y-7532174D01*
X14513954Y-7524611D01*
X14513541Y-7515322D01*
X14513940Y-7506174D01*
X14514414Y-7502968D01*
X14530755Y-7502968D01*
X14531141Y-7507290D01*
X14532185Y-7510560D01*
X14533788Y-7513021D01*
X14535994Y-7514939D01*
X14538449Y-7516060D01*
X14541247Y-7516440D01*
X14544147Y-7516043D01*
X14546665Y-7514877D01*
X14548902Y-7512884D01*
X14550489Y-7510325D01*
X14551556Y-7506722D01*
X14551960Y-7501737D01*
X14551580Y-7496802D01*
X14550591Y-7493338D01*
X14549146Y-7490966D01*
X14547088Y-7489126D01*
X14544761Y-7488047D01*
X14542068Y-7487678D01*
X14539259Y-7488105D01*
X14536658Y-7489398D01*
X14534174Y-7491689D01*
X14532353Y-7494552D01*
X14531182Y-7498235D01*
X14530755Y-7502968D01*
X14514414Y-7502968D01*
X14515037Y-7498753D01*
X14516697Y-7492787D01*
X14518822Y-7488035D01*
X14521356Y-7484293D01*
X14524716Y-7480847D01*
X14528345Y-7478235D01*
X14532283Y-7476379D01*
X14536593Y-7475249D01*
X14541360Y-7474861D01*
X14546842Y-7475346D01*
G37*
D13*
%TO.C,C2*%
X14831216Y-8379000D02*
X14852784Y-8379000D01*
X14831216Y-8451000D02*
X14852784Y-8451000D01*
%TO.C,U1*%
X14629000Y-8331000D02*
X14770000Y-8331000D01*
X14630000Y-8099000D02*
X14770000Y-8099000D01*
X14616000Y-8359000D02*
X14568000Y-8359000D01*
X14592000Y-8326000D01*
X14616000Y-8359000D01*
G36*
X14616000Y-8359000D02*
G01*
X14568000Y-8359000D01*
X14592000Y-8326000D01*
X14616000Y-8359000D01*
G37*
%TO.C,R18*%
X15161000Y-7969364D02*
X15161000Y-7938636D01*
X15237000Y-7969364D02*
X15237000Y-7938636D01*
%TO.C,R2*%
X14015364Y-9642000D02*
X13984636Y-9642000D01*
X14015364Y-9718000D02*
X13984636Y-9718000D01*
%TO.C,J6*%
X13559000Y-8949000D02*
X13559000Y-8106000D01*
X13841000Y-7979000D02*
X13986000Y-7979000D01*
X13841000Y-9076000D02*
X13986000Y-9076000D01*
X13986000Y-7979000D02*
X13986000Y-8159000D01*
X13986000Y-8896000D02*
X14085000Y-8896000D01*
X13986000Y-9076000D02*
X13986000Y-8896000D01*
%TO.C,R19*%
X14905000Y-7972364D02*
X14905000Y-7941636D01*
X14981000Y-7972364D02*
X14981000Y-7941636D01*
%TO.C,R13*%
X15045364Y-8112000D02*
X15014636Y-8112000D01*
X15045364Y-8188000D02*
X15014636Y-8188000D01*
%TO.C,C28*%
X13860784Y-7494000D02*
X13839216Y-7494000D01*
X13860784Y-7566000D02*
X13839216Y-7566000D01*
%TO.C,R12*%
X15047000Y-8284636D02*
X15047000Y-8315364D01*
X15123000Y-8284636D02*
X15123000Y-8315364D01*
%TO.C,R1*%
X14274636Y-8177000D02*
X14305364Y-8177000D01*
X14274636Y-8253000D02*
X14305364Y-8253000D01*
%TO.C,R3*%
X14274636Y-8552000D02*
X14305364Y-8552000D01*
X14274636Y-8628000D02*
X14305364Y-8628000D01*
%TO.C,R4*%
X14273636Y-8432000D02*
X14304364Y-8432000D01*
X14273636Y-8508000D02*
X14304364Y-8508000D01*
%TO.C,C29*%
X14366787Y-7496007D02*
X14345220Y-7496007D01*
X14366787Y-7568007D02*
X14345220Y-7568007D01*
%TD*%
M02*
