M48
; DRILL file {KiCad 9.0.0} date 2025-03-30T18:56:19-0500
; FORMAT={-:-/ absolute / inch / decimal}
; #@! TF.CreationDate,2025-03-30T18:56:19-05:00
; #@! TF.GenerationSoftware,Kicad,Pcbnew,9.0.0
; #@! TF.FileFunction,MixedPlating,1,4
FMAT,2
INCH
; #@! TA.AperFunction,Plated,PTH,ComponentDrill
T1C0.0079
; #@! TA.AperFunction,Plated,PTH,ViaDrill
T2C0.0118
; #@! TA.AperFunction,Plated,PTH,ComponentDrill
T3C0.0197
; #@! TA.AperFunction,Plated,PTH,ComponentDrill
T4C0.0236
; #@! TA.AperFunction,Plated,PTH,ComponentDrill
T5C0.0335
; #@! TA.AperFunction,NonPlated,NPTH,ComponentDrill
T6C0.1063
%
G90
G05
T1
X6.5382Y-3.0709
X6.5382Y-3.1417
X6.5735Y-3.1063
X6.5788Y-3.0303
X6.5788Y-3.1823
X6.6142Y-3.0657
X6.6142Y-3.1469
X6.6495Y-3.0303
X6.6495Y-3.1823
X6.6548Y-3.1063
X6.6902Y-3.0709
X6.6902Y-3.1417
T2
X5.3543Y-2.4449
X5.3543Y-2.7874
X5.4055Y-2.4449
X5.4094Y-2.7874
X5.4291Y-2.8307
X5.438Y-3.4803
X5.4528Y-2.4449
X5.4567Y-2.7874
X5.4961Y-3.7677
X5.499Y-2.7293
X5.5Y-2.5079
X5.5Y-2.9646
X5.5197Y-2.5709
X5.5236Y-2.6614
X5.561Y-3.811
X5.5709Y-2.5709
X5.5748Y-2.6614
X5.5768Y-3.4311
X5.5955Y-2.4961
X5.5965Y-2.4045
X5.6083Y-2.8307
X5.622Y-2.5709
X5.626Y-2.6614
X5.6358Y-2.4961
X5.6368Y-2.4055
X5.685Y-3.3366
X5.685Y-3.3819
X5.689Y-2.4803
X5.6929Y-2.9646
X5.7087Y-2.7382
X5.7106Y-3.2087
X5.7449Y-2.4327
X5.752Y-2.6433
X5.752Y-2.7382
X5.7677Y-2.5236
X5.7677Y-2.7728
X5.7736Y-2.4567
X5.7953Y-3.313
X5.7972Y-2.4823
X5.8268Y-3.5433
X5.8268Y-3.6024
X5.878Y-2.5236
X5.8818Y-2.5669
X5.8839Y-3.313
X5.9341Y-3.1516
X5.9646Y-3.5039
X5.965Y-2.4598
X5.9882Y-2.3937
X6.0012Y-2.937
X6.0079Y-2.5276
X6.0354Y-2.9154
X6.0441Y-2.4323
X6.0748Y-2.372
X6.0827Y-3.4646
X6.0827Y-3.5039
X6.0906Y-2.5965
X6.0906Y-2.8543
X6.1024Y-2.8179
X6.1073Y-2.6217
X6.1142Y-2.372
X6.126Y-2.5787
X6.1417Y-3.4252
X6.1417Y-3.5039
X6.1457Y-2.874
X6.1496Y-2.4488
X6.1516Y-2.5502
X6.1526Y-2.5118
X6.1929Y-2.4409
X6.2008Y-3.3858
X6.2008Y-3.4252
X6.2008Y-3.4843
X6.2077Y-2.7195
X6.2126Y-2.9331
X6.2126Y-2.9724
X6.2126Y-3.0118
X6.2126Y-3.0512
X6.2126Y-3.0906
X6.2126Y-3.1299
X6.2126Y-3.1693
X6.2402Y-3.5039
X6.251Y-2.5128
X6.252Y-2.4449
X6.2913Y-2.4409
X6.2913Y-2.7244
X6.2913Y-2.7992
X6.2913Y-2.8386
X6.2913Y-2.878
X6.2913Y-2.9213
X6.2913Y-2.9567
X6.2913Y-3.0
X6.2913Y-3.0354
X6.2913Y-3.0748
X6.2913Y-3.1142
X6.2913Y-3.1535
X6.2992Y-3.3858
X6.3051Y-3.2067
X6.3189Y-3.4252
X6.3228Y-2.6929
X6.3268Y-2.6102
X6.3307Y-2.6496
X6.3327Y-3.0591
X6.3346Y-2.5669
X6.3386Y-2.5
X6.3386Y-3.5236
X6.3583Y-3.4449
X6.3602Y-3.3435
X6.372Y-2.9911
X6.3748Y-3.1329
X6.3976Y-3.4449
X6.3996Y-2.9636
X6.4272Y-2.936
X6.4421Y-3.2906
X6.4547Y-2.9085
X6.474Y-3.0264
X6.4764Y-3.4449
X6.4823Y-2.8809
X6.4961Y-3.3858
X6.5043Y-3.228
X6.5212Y-2.9759
X6.5472Y-2.8858
X6.5866Y-3.7303
X6.5866Y-3.7756
X6.6261Y-3.4331
X6.628Y-3.4685
X6.6299Y-2.9134
X6.6496Y-3.2756
X6.6535Y-3.5463
X6.6575Y-3.8031
X6.6579Y-3.6157
X6.6791Y-3.3642
X6.6811Y-3.7756
X6.6831Y-2.9547
X6.686Y-3.2421
X6.7008Y-3.3898
X6.7025Y-3.3443
X6.7224Y-2.8602
X6.7275Y-3.2305
X6.7351Y-3.0143
X6.7456Y-3.2673
X6.748Y-3.3031
X6.7496Y-2.9772
X6.75Y-2.8878
X6.75Y-3.2146
X6.7567Y-3.7776
X6.7776Y-2.9154
X6.7823Y-3.6138
X6.7823Y-3.8031
X6.8031Y-2.8583
X6.8071Y-3.3858
X6.8071Y-3.4291
X6.8071Y-3.4724
X6.811Y-3.3071
X6.811Y-3.3425
X6.815Y-3.1476
X6.8189Y-3.0472
X6.8329Y-3.0763
X6.8492Y-3.7323
X6.8492Y-3.7736
X6.8504Y-3.2874
X6.8504Y-3.3307
X6.8504Y-3.563
X6.8543Y-2.8583
X6.8543Y-3.3701
X6.8543Y-3.4055
X6.8543Y-3.4449
X6.8543Y-3.4843
X6.8543Y-3.5236
X6.8583Y-2.6575
X6.8583Y-2.6969
X6.8583Y-2.7362
X6.8583Y-2.7756
X6.8583Y-2.815
X6.8583Y-3.0276
X6.8701Y-3.189
X6.874Y-2.6063
X6.874Y-3.0709
X6.874Y-3.1496
X6.874Y-3.6181
X6.878Y-3.315
X6.8819Y-2.563
X6.8819Y-3.3504
X6.8819Y-3.3858
X6.8819Y-3.4252
X6.8819Y-3.4646
X6.8819Y-3.5039
X6.8819Y-3.5433
X6.8819Y-3.5827
X6.8858Y-2.8858
X6.8858Y-3.0039
X6.8858Y-3.0354
X6.8898Y-2.6378
X6.8898Y-2.6772
X6.8898Y-2.7165
X6.8898Y-2.7953
X6.8898Y-2.8346
X6.8898Y-3.2283
X6.8937Y-2.7559
X6.8996Y-3.1102
X6.9055Y-2.9724
X6.9055Y-3.1969
X6.9094Y-2.5984
X6.9094Y-3.0591
X6.9094Y-3.1575
X6.9094Y-3.622
X6.9173Y-3.0118
X6.9173Y-3.6535
X6.9213Y-2.5709
X6.9252Y-3.2283
X6.9291Y-2.9488
X6.9291Y-3.0984
X6.9291Y-3.2677
X6.9331Y-2.9803
X6.9331Y-3.1929
X6.9449Y-2.7402
X6.9449Y-3.6378
X6.9488Y-2.5787
X6.9488Y-2.9173
X6.9567Y-2.6496
X6.9567Y-2.6772
X6.9567Y-2.7165
X6.9567Y-2.7559
X6.9567Y-2.7953
X6.9567Y-2.8346
X6.9567Y-2.878
X6.9567Y-3.0157
X6.9567Y-3.3071
X6.9567Y-3.3465
X6.9567Y-3.3858
X6.9567Y-3.4252
X6.9567Y-3.4646
X6.9567Y-3.5039
X6.9567Y-3.5433
X6.9606Y-2.9488
X6.9606Y-3.248
X6.9685Y-2.5551
X6.9685Y-3.6693
X6.9764Y-2.9055
X6.9843Y-3.2795
X6.9843Y-3.3307
X6.9843Y-3.3661
X6.9843Y-3.4055
X6.9843Y-3.4449
X6.9843Y-3.4843
X6.9882Y-2.5787
X6.9882Y-2.6575
X6.9882Y-2.7362
X6.9882Y-2.7756
X6.9882Y-2.815
X6.9882Y-2.8583
X6.9882Y-3.5276
X6.9882Y-3.563
X6.9882Y-3.6417
X7.0039Y-2.689
X7.0039Y-3.685
X7.0079Y-2.5512
X7.0236Y-2.4724
X7.0236Y-3.6496
X7.0276Y-2.5787
X7.0276Y-2.6614
X7.0276Y-3.5591
X7.0315Y-3.4843
X7.0433Y-2.5157
X7.0433Y-2.6969
X7.0433Y-3.6811
X7.0472Y-2.5512
X7.0472Y-3.5276
X7.0591Y-3.7244
X7.0662Y-2.5747
X7.0669Y-2.6693
X7.0669Y-3.6535
X7.0709Y-2.4882
X7.0709Y-3.4685
X7.0709Y-3.5512
X7.0748Y-3.689
X7.0787Y-2.4528
X7.0827Y-3.7559
X7.0866Y-2.5472
X7.0866Y-2.6969
X7.0906Y-3.5236
X7.0945Y-2.7717
X7.0945Y-3.4331
X7.1004Y-2.7293
X7.1024Y-2.5079
X7.1024Y-3.7146
X7.1037Y-3.4912
X7.1102Y-2.5669
X7.1102Y-2.6732
X7.1142Y-3.5512
X7.1142Y-3.6614
X7.122Y-2.7913
X7.122Y-3.7717
X7.1299Y-2.4528
X7.1378Y-3.4331
X7.1654Y-2.7913
X7.1693Y-3.7717
X7.1732Y-2.4528
X7.1811Y-3.4331
X7.2126Y-2.7913
X7.2126Y-3.7717
X7.2165Y-2.4528
X7.2205Y-3.4331
X7.252Y-2.7913
X7.252Y-3.7717
X7.2559Y-2.4528
X7.2559Y-3.4331
T3
X6.3583Y-2.7598
X6.563Y-3.5827
T4
X5.4331Y-3.0012
X5.4331Y-3.7012
X5.4831Y-3.7012
X5.5331Y-3.0012
X5.5331Y-3.7012
X5.5831Y-3.7012
X5.6331Y-3.0012
X5.6331Y-3.7012
X5.6831Y-3.7012
X5.7331Y-3.0012
X5.7331Y-3.7012
X5.7831Y-3.0012
X5.7831Y-3.7012
X5.8331Y-3.0012
X5.8331Y-3.7012
X5.8831Y-3.0012
X5.8831Y-3.7012
X5.9331Y-3.0012
X5.9331Y-3.7012
X5.9831Y-3.0012
X5.9831Y-3.7012
X6.0331Y-3.0012
X6.0331Y-3.7012
T5
X5.4331Y-3.0512
X5.4331Y-3.6512
X5.5331Y-3.0512
X5.5331Y-3.6512
X5.6331Y-3.0512
X5.6331Y-3.6512
X5.7331Y-3.0512
X5.7331Y-3.6512
X5.8331Y-3.0512
X5.8331Y-3.6512
X5.9331Y-3.0512
X5.9331Y-3.6512
X6.0331Y-3.0512
X6.0331Y-3.6512
T6
X5.4724Y-2.1654
X5.4724Y-4.0551
X7.126Y-2.1654
X7.126Y-4.0551
M30
