%TF.GenerationSoftware,KiCad,Pcbnew,9.0.0*%
%TF.CreationDate,2025-03-30T18:56:19-05:00*%
%TF.ProjectId,radar-synth,72616461-722d-4737-996e-74682e6b6963,rev?*%
%TF.SameCoordinates,Original*%
%TF.FileFunction,Soldermask,Top*%
%TF.FilePolarity,Negative*%
%FSLAX45Y45*%
G04 Gerber Fmt 4.5, Leading zero omitted, Abs format (unit mm)*
G04 Created by KiCad (PCBNEW 9.0.0) date 2025-03-30 18:56:19*
%MOMM*%
%LPD*%
G01*
G04 APERTURE LIST*
G04 Aperture macros list*
%AMRoundRect*
0 Rectangle with rounded corners*
0 $1 Rounding radius*
0 $2 $3 $4 $5 $6 $7 $8 $9 X,Y pos of 4 corners*
0 Add a 4 corners polygon primitive as box body*
4,1,4,$2,$3,$4,$5,$6,$7,$8,$9,$2,$3,0*
0 Add four circle primitives for the rounded corners*
1,1,$1+$1,$2,$3*
1,1,$1+$1,$4,$5*
1,1,$1+$1,$6,$7*
1,1,$1+$1,$8,$9*
0 Add four rect primitives between the rounded corners*
20,1,$1+$1,$2,$3,$4,$5,0*
20,1,$1+$1,$4,$5,$6,$7,0*
20,1,$1+$1,$6,$7,$8,$9,0*
20,1,$1+$1,$8,$9,$2,$3,0*%
%AMRotRect*
0 Rectangle, with rotation*
0 The origin of the aperture is its center*
0 $1 length*
0 $2 width*
0 $3 Rotation angle, in degrees counterclockwise*
0 Add horizontal line*
21,1,$1,$2,0,0,$3*%
G04 Aperture macros list end*
%ADD10C,0.000000*%
%ADD11RoundRect,0.140000X0.219203X0.021213X0.021213X0.219203X-0.219203X-0.021213X-0.021213X-0.219203X0*%
%ADD12RoundRect,0.140000X-0.140000X-0.170000X0.140000X-0.170000X0.140000X0.170000X-0.140000X0.170000X0*%
%ADD13RoundRect,0.140000X0.021213X-0.219203X0.219203X-0.021213X-0.021213X0.219203X-0.219203X0.021213X0*%
%ADD14RoundRect,0.140000X0.140000X0.170000X-0.140000X0.170000X-0.140000X-0.170000X0.140000X-0.170000X0*%
%ADD15RoundRect,0.140000X-0.219203X-0.021213X-0.021213X-0.219203X0.219203X0.021213X0.021213X0.219203X0*%
%ADD16C,2.700000*%
%ADD17R,1.000000X1.000000*%
%ADD18RoundRect,0.135000X0.185000X-0.135000X0.185000X0.135000X-0.185000X0.135000X-0.185000X-0.135000X0*%
%ADD19R,1.700000X2.150000*%
%ADD20R,1.550000X1.300000*%
%ADD21RoundRect,0.140000X0.170000X-0.140000X0.170000X0.140000X-0.170000X0.140000X-0.170000X-0.140000X0*%
%ADD22RoundRect,0.140000X-0.021213X0.219203X-0.219203X0.021213X0.021213X-0.219203X0.219203X-0.021213X0*%
%ADD23RoundRect,0.250000X1.350000X-0.385000X1.350000X0.385000X-1.350000X0.385000X-1.350000X-0.385000X0*%
%ADD24RoundRect,0.250000X1.600000X-0.425000X1.600000X0.425000X-1.600000X0.425000X-1.600000X-0.425000X0*%
%ADD25RoundRect,0.147500X-0.147500X-0.172500X0.147500X-0.172500X0.147500X0.172500X-0.147500X0.172500X0*%
%ADD26RoundRect,0.250000X-1.350000X0.385000X-1.350000X-0.385000X1.350000X-0.385000X1.350000X0.385000X0*%
%ADD27RoundRect,0.250000X-1.600000X0.425000X-1.600000X-0.425000X1.600000X-0.425000X1.600000X0.425000X0*%
%ADD28RoundRect,0.140000X-0.170000X0.140000X-0.170000X-0.140000X0.170000X-0.140000X0.170000X0.140000X0*%
%ADD29C,0.976200*%
%ADD30C,1.476200*%
%ADD31RoundRect,0.135000X-0.226274X-0.035355X-0.035355X-0.226274X0.226274X0.035355X0.035355X0.226274X0*%
%ADD32R,0.203200X0.609600*%
%ADD33R,0.889000X1.092200*%
%ADD34RotRect,0.249999X0.599999X135.000000*%
%ADD35RotRect,0.249999X0.599999X45.000000*%
%ADD36RotRect,4.500001X4.500001X45.000000*%
%ADD37C,0.499999*%
%ADD38RoundRect,0.147500X0.172500X-0.147500X0.172500X0.147500X-0.172500X0.147500X-0.172500X-0.147500X0*%
%ADD39R,1.200000X1.200000*%
%ADD40RoundRect,0.135000X-0.135000X-0.185000X0.135000X-0.185000X0.135000X0.185000X-0.135000X0.185000X0*%
%ADD41RoundRect,0.135000X0.135000X0.185000X-0.135000X0.185000X-0.135000X-0.185000X0.135000X-0.185000X0*%
%ADD42RoundRect,0.225000X0.335876X0.017678X0.017678X0.335876X-0.335876X-0.017678X-0.017678X-0.335876X0*%
%ADD43RoundRect,0.218750X-0.218750X-0.256250X0.218750X-0.256250X0.218750X0.256250X-0.218750X0.256250X0*%
%ADD44RoundRect,0.135000X0.035355X-0.226274X0.226274X-0.035355X-0.035355X0.226274X-0.226274X0.035355X0*%
%ADD45RoundRect,0.100000X-0.225000X-0.100000X0.225000X-0.100000X0.225000X0.100000X-0.225000X0.100000X0*%
%ADD46C,0.500000*%
G04 APERTURE END LIST*
%TO.C,U3*%
G36*
X13845180Y-7704280D02*
G01*
X13754820Y-7704280D01*
X13754820Y-7617920D01*
X13845180Y-7617920D01*
X13845180Y-7704280D01*
G37*
G36*
X13845180Y-9406080D02*
G01*
X13754820Y-9406080D01*
X13754820Y-9319720D01*
X13845180Y-9319720D01*
X13845180Y-9406080D01*
G37*
G36*
X14099180Y-7704280D02*
G01*
X14008820Y-7704280D01*
X14008820Y-7617920D01*
X14099180Y-7617920D01*
X14099180Y-7704280D01*
G37*
G36*
X14099180Y-9406080D02*
G01*
X14008820Y-9406080D01*
X14008820Y-9319720D01*
X14099180Y-9319720D01*
X14099180Y-9406080D01*
G37*
G36*
X14353180Y-7704280D02*
G01*
X14262820Y-7704280D01*
X14262820Y-7617920D01*
X14353180Y-7617920D01*
X14353180Y-7704280D01*
G37*
G36*
X14353180Y-9406080D02*
G01*
X14262820Y-9406080D01*
X14262820Y-9319720D01*
X14353180Y-9319720D01*
X14353180Y-9406080D01*
G37*
G36*
X14607180Y-7704280D02*
G01*
X14516820Y-7704280D01*
X14516820Y-7617920D01*
X14607180Y-7617920D01*
X14607180Y-7704280D01*
G37*
G36*
X14607180Y-9406080D02*
G01*
X14516820Y-9406080D01*
X14516820Y-9319720D01*
X14607180Y-9319720D01*
X14607180Y-9406080D01*
G37*
G36*
X14861180Y-7704280D02*
G01*
X14770820Y-7704280D01*
X14770820Y-7617920D01*
X14861180Y-7617920D01*
X14861180Y-7704280D01*
G37*
G36*
X14861180Y-9406080D02*
G01*
X14770820Y-9406080D01*
X14770820Y-9319720D01*
X14861180Y-9319720D01*
X14861180Y-9406080D01*
G37*
G36*
X15115180Y-7704280D02*
G01*
X15024820Y-7704280D01*
X15024820Y-7617920D01*
X15115180Y-7617920D01*
X15115180Y-7704280D01*
G37*
G36*
X15115180Y-9406080D02*
G01*
X15024820Y-9406080D01*
X15024820Y-9319720D01*
X15115180Y-9319720D01*
X15115180Y-9406080D01*
G37*
G36*
X15369180Y-7704280D02*
G01*
X15278820Y-7704280D01*
X15278820Y-7617920D01*
X15369180Y-7617920D01*
X15369180Y-7704280D01*
G37*
G36*
X15369180Y-9406080D02*
G01*
X15278820Y-9406080D01*
X15278820Y-9319720D01*
X15369180Y-9319720D01*
X15369180Y-9406080D01*
G37*
D10*
G36*
X13942363Y-9321773D02*
G01*
X13954418Y-9327916D01*
X13964278Y-9337776D01*
X13972180Y-9362095D01*
X13972180Y-9406080D01*
X13881820Y-9406080D01*
X13881820Y-9362500D01*
X13883873Y-9349537D01*
X13890015Y-9337482D01*
X13899876Y-9327622D01*
X13924195Y-9319720D01*
X13929400Y-9319720D01*
X13942363Y-9321773D01*
G37*
G36*
X14196363Y-9321773D02*
G01*
X14208418Y-9327916D01*
X14218278Y-9337776D01*
X14226180Y-9362095D01*
X14226180Y-9406080D01*
X14135820Y-9406080D01*
X14135820Y-9362500D01*
X14137873Y-9349537D01*
X14144015Y-9337482D01*
X14153876Y-9327622D01*
X14178195Y-9319720D01*
X14183400Y-9319720D01*
X14196363Y-9321773D01*
G37*
G36*
X14450363Y-9321773D02*
G01*
X14462418Y-9327916D01*
X14472278Y-9337776D01*
X14480180Y-9362095D01*
X14480180Y-9406080D01*
X14389820Y-9406080D01*
X14389820Y-9362500D01*
X14391873Y-9349537D01*
X14398015Y-9337482D01*
X14407876Y-9327622D01*
X14432195Y-9319720D01*
X14437400Y-9319720D01*
X14450363Y-9321773D01*
G37*
G36*
X14704363Y-9321773D02*
G01*
X14716418Y-9327916D01*
X14726278Y-9337776D01*
X14734180Y-9362095D01*
X14734180Y-9406080D01*
X14643820Y-9406080D01*
X14643820Y-9362500D01*
X14645873Y-9349537D01*
X14652015Y-9337482D01*
X14661876Y-9327622D01*
X14686195Y-9319720D01*
X14691400Y-9319720D01*
X14704363Y-9321773D01*
G37*
G36*
X14734180Y-7661500D02*
G01*
X14732127Y-7674463D01*
X14725984Y-7686518D01*
X14716124Y-7696378D01*
X14691805Y-7704280D01*
X14686600Y-7704280D01*
X14673637Y-7702227D01*
X14661582Y-7696084D01*
X14651722Y-7686224D01*
X14643820Y-7661905D01*
X14643820Y-7617920D01*
X14734180Y-7617920D01*
X14734180Y-7661500D01*
G37*
G36*
X14958363Y-9321773D02*
G01*
X14970418Y-9327916D01*
X14980278Y-9337776D01*
X14988180Y-9362095D01*
X14988180Y-9406080D01*
X14897820Y-9406080D01*
X14897820Y-9362500D01*
X14899873Y-9349537D01*
X14906015Y-9337482D01*
X14915876Y-9327622D01*
X14940195Y-9319720D01*
X14945400Y-9319720D01*
X14958363Y-9321773D01*
G37*
G36*
X14988180Y-7661500D02*
G01*
X14986127Y-7674463D01*
X14979984Y-7686518D01*
X14970124Y-7696378D01*
X14945805Y-7704280D01*
X14940600Y-7704280D01*
X14927637Y-7702227D01*
X14915582Y-7696084D01*
X14905722Y-7686224D01*
X14897820Y-7661905D01*
X14897820Y-7617920D01*
X14988180Y-7617920D01*
X14988180Y-7661500D01*
G37*
G36*
X15212363Y-9321773D02*
G01*
X15224418Y-9327916D01*
X15234278Y-9337776D01*
X15242180Y-9362095D01*
X15242180Y-9406080D01*
X15151820Y-9406080D01*
X15151820Y-9362500D01*
X15153873Y-9349537D01*
X15160015Y-9337482D01*
X15169876Y-9327622D01*
X15194195Y-9319720D01*
X15199400Y-9319720D01*
X15212363Y-9321773D01*
G37*
G36*
X15242180Y-7661500D02*
G01*
X15240127Y-7674463D01*
X15233984Y-7686518D01*
X15224124Y-7696378D01*
X15199805Y-7704280D01*
X15194600Y-7704280D01*
X15181637Y-7702227D01*
X15169582Y-7696084D01*
X15159722Y-7686224D01*
X15151820Y-7661905D01*
X15151820Y-7617920D01*
X15242180Y-7617920D01*
X15242180Y-7661500D01*
G37*
%TD*%
D11*
%TO.C,C6*%
X16448941Y-7583941D03*
X16381059Y-7516059D03*
%TD*%
D12*
%TO.C,C41*%
X17224000Y-9590000D03*
X17320000Y-9590000D03*
%TD*%
D13*
%TO.C,C21*%
X17356059Y-7613941D03*
X17423941Y-7546059D03*
%TD*%
D14*
%TO.C,C4*%
X16908000Y-9590000D03*
X16812000Y-9590000D03*
%TD*%
D15*
%TO.C,C14*%
X16931059Y-8361059D03*
X16998941Y-8428941D03*
%TD*%
D13*
%TO.C,C16*%
X16296059Y-8533941D03*
X16363941Y-8466059D03*
%TD*%
D16*
%TO.C,H1*%
X13900000Y-5500000D03*
%TD*%
D17*
%TO.C,TP1*%
X16150000Y-7010000D03*
%TD*%
D11*
%TO.C,C27*%
X16518941Y-7513941D03*
X16451059Y-7446059D03*
%TD*%
D18*
%TO.C,R23*%
X15700000Y-7091000D03*
X15700000Y-6989000D03*
%TD*%
D15*
%TO.C,C22*%
X17246059Y-8191059D03*
X17313941Y-8258941D03*
%TD*%
D16*
%TO.C,H3*%
X18100000Y-10300000D03*
%TD*%
D19*
%TO.C,U5*%
X14830000Y-7250000D03*
X15080000Y-7250000D03*
X15330000Y-7250000D03*
X15330000Y-6830000D03*
X15080000Y-6830000D03*
X14830000Y-6830000D03*
D20*
X14795000Y-7040000D03*
X15365000Y-7040000D03*
%TD*%
D21*
%TO.C,C38*%
X14316000Y-6270000D03*
X14316000Y-6174000D03*
%TD*%
D22*
%TO.C,C18*%
X16473941Y-8246059D03*
X16406059Y-8313941D03*
%TD*%
D23*
%TO.C,J4*%
X18296000Y-6650000D03*
D24*
X18271000Y-6367500D03*
X18271000Y-6932500D03*
%TD*%
D13*
%TO.C,C17*%
X16366059Y-8603941D03*
X16433941Y-8536059D03*
%TD*%
D25*
%TO.C,FB1*%
X13861500Y-7190000D03*
X13958500Y-7190000D03*
%TD*%
D15*
%TO.C,C23*%
X17311059Y-8126059D03*
X17378941Y-8193941D03*
%TD*%
D21*
%TO.C,C37*%
X15810000Y-6478000D03*
X15810000Y-6382000D03*
%TD*%
D26*
%TO.C,J3*%
X13710000Y-6650000D03*
D27*
X13735000Y-6932500D03*
X13735000Y-6367500D03*
%TD*%
D23*
%TO.C,J5*%
X18296000Y-9150000D03*
D24*
X18271000Y-8867500D03*
X18271000Y-9432500D03*
%TD*%
D28*
%TO.C,C34*%
X15430000Y-6082000D03*
X15430000Y-6178000D03*
%TD*%
D29*
%TO.C,U3*%
X13800000Y-9401000D03*
D30*
X13800000Y-9274000D03*
D29*
X14054000Y-9401000D03*
D30*
X14054000Y-9274000D03*
D29*
X14308000Y-9401000D03*
D30*
X14308000Y-9274000D03*
D29*
X14562000Y-9401000D03*
D30*
X14562000Y-9274000D03*
D29*
X14816000Y-9401000D03*
D30*
X14816000Y-9274000D03*
D29*
X15070000Y-9401000D03*
D30*
X15070000Y-9274000D03*
D29*
X15324000Y-9401000D03*
D30*
X15324000Y-9274000D03*
X15324000Y-7750000D03*
D29*
X15324000Y-7623000D03*
D30*
X15070000Y-7750000D03*
D29*
X15070000Y-7623000D03*
D30*
X14816000Y-7750000D03*
D29*
X14816000Y-7623000D03*
D30*
X14562000Y-7750000D03*
D29*
X14562000Y-7623000D03*
D30*
X14308000Y-7750000D03*
D29*
X14308000Y-7623000D03*
D30*
X14054000Y-7750000D03*
D29*
X14054000Y-7623000D03*
D30*
X13800000Y-7750000D03*
D29*
X13800000Y-7623000D03*
X13927000Y-9401000D03*
X14181000Y-9401000D03*
X14435000Y-9401000D03*
X14689000Y-9401000D03*
X14943000Y-9401000D03*
X15197000Y-9401000D03*
X15197000Y-7623000D03*
X14943000Y-7623000D03*
X14689000Y-7623000D03*
%TD*%
D16*
%TO.C,H4*%
X13900000Y-10300000D03*
%TD*%
D28*
%TO.C,C35*%
X15700000Y-6380000D03*
X15700000Y-6476000D03*
%TD*%
D31*
%TO.C,R7*%
X17173938Y-8258938D03*
X17246062Y-8331062D03*
%TD*%
D32*
%TO.C,U7*%
X15390000Y-6520000D03*
X15430000Y-6520000D03*
X15470000Y-6520000D03*
X15470000Y-6314260D03*
X15430000Y-6314260D03*
X15390000Y-6314260D03*
D33*
X15430000Y-6417130D03*
%TD*%
D14*
%TO.C,C40*%
X17320000Y-9480000D03*
X17224000Y-9480000D03*
%TD*%
D12*
%TO.C,C13*%
X17357000Y-7900000D03*
X17453000Y-7900000D03*
%TD*%
D34*
%TO.C,U2*%
X16435840Y-7935962D03*
X16471195Y-7971317D03*
X16506550Y-8006672D03*
X16541906Y-8042028D03*
X16577261Y-8077383D03*
X16612617Y-8112738D03*
X16647972Y-8148094D03*
X16683327Y-8183449D03*
X16718682Y-8218804D03*
X16754038Y-8254160D03*
D35*
X16845962Y-8254160D03*
X16881317Y-8218805D03*
X16916672Y-8183449D03*
X16952028Y-8148094D03*
X16987383Y-8112738D03*
X17022738Y-8077383D03*
X17058094Y-8042028D03*
X17093449Y-8006672D03*
X17128804Y-7971317D03*
X17164160Y-7935962D03*
D34*
X17164160Y-7844038D03*
X17128804Y-7808682D03*
X17093449Y-7773327D03*
X17058094Y-7737972D03*
X17022738Y-7702617D03*
X16987383Y-7667261D03*
X16952028Y-7631906D03*
X16916672Y-7596550D03*
X16881317Y-7561195D03*
X16845962Y-7525840D03*
D35*
X16754038Y-7525840D03*
X16718682Y-7561195D03*
X16683327Y-7596550D03*
X16647972Y-7631906D03*
X16612617Y-7667261D03*
X16577261Y-7702617D03*
X16541906Y-7737972D03*
X16506550Y-7773327D03*
X16471195Y-7808683D03*
X16435840Y-7844038D03*
D36*
X16800000Y-7890000D03*
D37*
X16606959Y-7979802D03*
X16710197Y-8083040D03*
X16606959Y-7800197D03*
X16696762Y-7890000D03*
X16800000Y-7993238D03*
X16889802Y-8083040D03*
X16710197Y-7696959D03*
X16800000Y-7786762D03*
X16903238Y-7890000D03*
X16993040Y-7979802D03*
X16889802Y-7696959D03*
X16993040Y-7800197D03*
%TD*%
D28*
%TO.C,C33*%
X14610000Y-6792000D03*
X14610000Y-6888000D03*
%TD*%
D15*
%TO.C,C11*%
X17026059Y-8276059D03*
X17093941Y-8343941D03*
%TD*%
D17*
%TO.C,TP2*%
X16670000Y-9100000D03*
%TD*%
D38*
%TO.C,FB2*%
X16911000Y-9361500D03*
X16911000Y-9264500D03*
%TD*%
D39*
%TO.C,D1*%
X13800000Y-7370000D03*
X14080000Y-7370000D03*
%TD*%
D14*
%TO.C,C24*%
X17193000Y-8610000D03*
X17097000Y-8610000D03*
%TD*%
D40*
%TO.C,R21*%
X15009000Y-6520000D03*
X15111000Y-6520000D03*
%TD*%
D13*
%TO.C,C20*%
X17281059Y-7543941D03*
X17348941Y-7476059D03*
%TD*%
D28*
%TO.C,C39*%
X14213000Y-6174000D03*
X14213000Y-6270000D03*
%TD*%
D41*
%TO.C,R15*%
X17001000Y-8710000D03*
X16899000Y-8710000D03*
%TD*%
D32*
%TO.C,U6*%
X15660000Y-6827950D03*
X15700000Y-6827950D03*
X15740000Y-6827950D03*
X15740000Y-6622210D03*
X15700000Y-6622210D03*
X15660000Y-6622210D03*
D33*
X15700000Y-6725080D03*
%TD*%
D42*
%TO.C,C12*%
X16334801Y-8154801D03*
X16225199Y-8045199D03*
%TD*%
D11*
%TO.C,C7*%
X16378941Y-7653941D03*
X16311059Y-7586059D03*
%TD*%
D15*
%TO.C,C5*%
X16856059Y-8436059D03*
X16923941Y-8503941D03*
%TD*%
D18*
%TO.C,R26*%
X15700000Y-7298500D03*
X15700000Y-7196500D03*
%TD*%
D13*
%TO.C,C10*%
X16961059Y-7378941D03*
X17028941Y-7311059D03*
%TD*%
D38*
%TO.C,FB3*%
X17227000Y-9364500D03*
X17227000Y-9267500D03*
%TD*%
D31*
%TO.C,R5*%
X16153938Y-8543938D03*
X16226062Y-8616062D03*
%TD*%
D11*
%TO.C,C19*%
X16588941Y-7443941D03*
X16521059Y-7376059D03*
%TD*%
D14*
%TO.C,C25*%
X17193000Y-8710000D03*
X17097000Y-8710000D03*
%TD*%
D40*
%TO.C,R25*%
X15879000Y-6730000D03*
X15981000Y-6730000D03*
%TD*%
D25*
%TO.C,FB4*%
X14414500Y-6179000D03*
X14511500Y-6179000D03*
%TD*%
D43*
%TO.C,D2*%
X13771250Y-9680000D03*
X13928750Y-9680000D03*
%TD*%
D21*
%TO.C,C32*%
X14500000Y-6888000D03*
X14500000Y-6792000D03*
%TD*%
D12*
%TO.C,C31*%
X14782000Y-6520000D03*
X14878000Y-6520000D03*
%TD*%
D44*
%TO.C,R14*%
X16073938Y-7906062D03*
X16146062Y-7833938D03*
%TD*%
D16*
%TO.C,H2*%
X18100000Y-5500000D03*
%TD*%
D41*
%TO.C,R20*%
X15170000Y-7459000D03*
X15068000Y-7459000D03*
%TD*%
D14*
%TO.C,C1*%
X14178000Y-7190000D03*
X14082000Y-7190000D03*
%TD*%
D41*
%TO.C,R17*%
X17001000Y-8910000D03*
X16899000Y-8910000D03*
%TD*%
D13*
%TO.C,C9*%
X17101059Y-7518941D03*
X17168941Y-7451059D03*
%TD*%
D21*
%TO.C,C30*%
X15150000Y-6173000D03*
X15150000Y-6077000D03*
%TD*%
D18*
%TO.C,R24*%
X15980000Y-6416000D03*
X15980000Y-6314000D03*
%TD*%
D21*
%TO.C,C36*%
X15530000Y-6178000D03*
X15530000Y-6082000D03*
%TD*%
D22*
%TO.C,C15*%
X17098941Y-7381059D03*
X17031059Y-7448941D03*
%TD*%
D31*
%TO.C,R6*%
X17338938Y-7328938D03*
X17411062Y-7401062D03*
%TD*%
D14*
%TO.C,C26*%
X16998000Y-8810000D03*
X16902000Y-8810000D03*
%TD*%
D45*
%TO.C,U4*%
X14820000Y-6175000D03*
X14820000Y-6240000D03*
X14820000Y-6305000D03*
X15010000Y-6305000D03*
X15010000Y-6175000D03*
%TD*%
D41*
%TO.C,R16*%
X17196000Y-8810000D03*
X17094000Y-8810000D03*
%TD*%
D12*
%TO.C,C3*%
X16812000Y-9475000D03*
X16908000Y-9475000D03*
%TD*%
D11*
%TO.C,C8*%
X16308941Y-7723941D03*
X16241059Y-7656059D03*
%TD*%
D41*
%TO.C,R22*%
X15981000Y-6620000D03*
X15879000Y-6620000D03*
%TD*%
D46*
X16444000Y-7687000D03*
X17355519Y-7813902D03*
X16085000Y-7770000D03*
X17145000Y-8165000D03*
X17310000Y-7995000D03*
X17107259Y-7656350D03*
X16840000Y-7400000D03*
X16630000Y-7330000D03*
X17087883Y-8205469D03*
X16975000Y-7505000D03*
M02*
