%TF.GenerationSoftware,KiCad,Pcbnew,9.0.0*%
%TF.CreationDate,2025-03-30T18:56:19-05:00*%
%TF.ProjectId,radar-synth,72616461-722d-4737-996e-74682e6b6963,rev?*%
%TF.SameCoordinates,Original*%
%TF.FileFunction,Profile,NP*%
%FSLAX45Y45*%
G04 Gerber Fmt 4.5, Leading zero omitted, Abs format (unit mm)*
G04 Created by KiCad (PCBNEW 9.0.0) date 2025-03-30 18:56:19*
%MOMM*%
%LPD*%
G01*
G04 APERTURE LIST*
%TA.AperFunction,Profile*%
%ADD10C,0.050000*%
%TD*%
G04 APERTURE END LIST*
D10*
X13500000Y-9900000D02*
X13500000Y-5900000D01*
X13500000Y-5900000D02*
X13500000Y-5500000D01*
X18500000Y-5100000D02*
X18500000Y-5100000D01*
X17700000Y-5500000D02*
G75*
G02*
X17300000Y-5900000I-400000J0D01*
G01*
X17700000Y-5500000D02*
G75*
G02*
X18500000Y-5500000I400000J0D01*
G01*
X14700000Y-5900000D02*
G75*
G02*
X14300000Y-5500000I0J400000D01*
G01*
X18500000Y-9900000D02*
X18500000Y-10300000D01*
X17700000Y-10700000D02*
X17700000Y-10700000D01*
X18500000Y-10700000D02*
X18500000Y-10700000D01*
X14300000Y-10300000D02*
G75*
G02*
X14700000Y-9900000I400000J0D01*
G01*
X18500000Y-5900000D02*
X18500000Y-5500000D01*
X14700000Y-5900000D02*
X17300000Y-5900000D01*
X13500000Y-5500000D02*
G75*
G02*
X14300000Y-5500000I400000J0D01*
G01*
X14700000Y-9900000D02*
X17300000Y-9900000D01*
X18500000Y-5900000D02*
X18500000Y-9900000D01*
X17300000Y-9900000D02*
G75*
G02*
X17700000Y-10300000I0J-400000D01*
G01*
X18500000Y-10300000D02*
G75*
G02*
X17700000Y-10300000I-400000J0D01*
G01*
X14300000Y-10300000D02*
G75*
G02*
X13500000Y-10300000I-400000J0D01*
G01*
X13500000Y-9900000D02*
X13500000Y-10300000D01*
X16900000Y-5900000D02*
X16900000Y-5900000D01*
M02*
