%TF.GenerationSoftware,KiCad,Pcbnew,9.0.0*%
%TF.CreationDate,2025-03-30T18:56:19-05:00*%
%TF.ProjectId,radar-synth,72616461-722d-4737-996e-74682e6b6963,rev?*%
%TF.SameCoordinates,Original*%
%TF.FileFunction,Copper,L1,Top*%
%TF.FilePolarity,Positive*%
%FSLAX45Y45*%
G04 Gerber Fmt 4.5, Leading zero omitted, Abs format (unit mm)*
G04 Created by KiCad (PCBNEW 9.0.0) date 2025-03-30 18:56:19*
%MOMM*%
%LPD*%
G01*
G04 APERTURE LIST*
G04 Aperture macros list*
%AMRoundRect*
0 Rectangle with rounded corners*
0 $1 Rounding radius*
0 $2 $3 $4 $5 $6 $7 $8 $9 X,Y pos of 4 corners*
0 Add a 4 corners polygon primitive as box body*
4,1,4,$2,$3,$4,$5,$6,$7,$8,$9,$2,$3,0*
0 Add four circle primitives for the rounded corners*
1,1,$1+$1,$2,$3*
1,1,$1+$1,$4,$5*
1,1,$1+$1,$6,$7*
1,1,$1+$1,$8,$9*
0 Add four rect primitives between the rounded corners*
20,1,$1+$1,$2,$3,$4,$5,0*
20,1,$1+$1,$4,$5,$6,$7,0*
20,1,$1+$1,$6,$7,$8,$9,0*
20,1,$1+$1,$8,$9,$2,$3,0*%
%AMRotRect*
0 Rectangle, with rotation*
0 The origin of the aperture is its center*
0 $1 length*
0 $2 width*
0 $3 Rotation angle, in degrees counterclockwise*
0 Add horizontal line*
21,1,$1,$2,0,0,$3*%
G04 Aperture macros list end*
%TA.AperFunction,Conductor*%
%ADD10C,0.200000*%
%TD*%
%TA.AperFunction,EtchedComponent*%
%ADD11C,0.000000*%
%TD*%
%TA.AperFunction,SMDPad,CuDef*%
%ADD12RoundRect,0.140000X0.219203X0.021213X0.021213X0.219203X-0.219203X-0.021213X-0.021213X-0.219203X0*%
%TD*%
%TA.AperFunction,SMDPad,CuDef*%
%ADD13RoundRect,0.140000X-0.140000X-0.170000X0.140000X-0.170000X0.140000X0.170000X-0.140000X0.170000X0*%
%TD*%
%TA.AperFunction,SMDPad,CuDef*%
%ADD14RoundRect,0.140000X0.021213X-0.219203X0.219203X-0.021213X-0.021213X0.219203X-0.219203X0.021213X0*%
%TD*%
%TA.AperFunction,SMDPad,CuDef*%
%ADD15RoundRect,0.140000X0.140000X0.170000X-0.140000X0.170000X-0.140000X-0.170000X0.140000X-0.170000X0*%
%TD*%
%TA.AperFunction,SMDPad,CuDef*%
%ADD16RoundRect,0.140000X-0.219203X-0.021213X-0.021213X-0.219203X0.219203X0.021213X0.021213X0.219203X0*%
%TD*%
%TA.AperFunction,ComponentPad*%
%ADD17R,1.000000X1.000000*%
%TD*%
%TA.AperFunction,SMDPad,CuDef*%
%ADD18RoundRect,0.135000X0.185000X-0.135000X0.185000X0.135000X-0.185000X0.135000X-0.185000X-0.135000X0*%
%TD*%
%TA.AperFunction,SMDPad,CuDef*%
%ADD19R,1.700000X2.150000*%
%TD*%
%TA.AperFunction,SMDPad,CuDef*%
%ADD20R,1.550000X1.300000*%
%TD*%
%TA.AperFunction,SMDPad,CuDef*%
%ADD21RoundRect,0.140000X0.170000X-0.140000X0.170000X0.140000X-0.170000X0.140000X-0.170000X-0.140000X0*%
%TD*%
%TA.AperFunction,SMDPad,CuDef*%
%ADD22RoundRect,0.140000X-0.021213X0.219203X-0.219203X0.021213X0.021213X-0.219203X0.219203X-0.021213X0*%
%TD*%
%TA.AperFunction,SMDPad,CuDef*%
%ADD23RoundRect,0.250000X1.350000X-0.385000X1.350000X0.385000X-1.350000X0.385000X-1.350000X-0.385000X0*%
%TD*%
%TA.AperFunction,SMDPad,CuDef*%
%ADD24RoundRect,0.250000X1.600000X-0.425000X1.600000X0.425000X-1.600000X0.425000X-1.600000X-0.425000X0*%
%TD*%
%TA.AperFunction,SMDPad,CuDef*%
%ADD25RoundRect,0.147500X-0.147500X-0.172500X0.147500X-0.172500X0.147500X0.172500X-0.147500X0.172500X0*%
%TD*%
%TA.AperFunction,SMDPad,CuDef*%
%ADD26RoundRect,0.250000X-1.350000X0.385000X-1.350000X-0.385000X1.350000X-0.385000X1.350000X0.385000X0*%
%TD*%
%TA.AperFunction,SMDPad,CuDef*%
%ADD27RoundRect,0.250000X-1.600000X0.425000X-1.600000X-0.425000X1.600000X-0.425000X1.600000X0.425000X0*%
%TD*%
%TA.AperFunction,SMDPad,CuDef*%
%ADD28RoundRect,0.140000X-0.170000X0.140000X-0.170000X-0.140000X0.170000X-0.140000X0.170000X0.140000X0*%
%TD*%
%TA.AperFunction,ComponentPad*%
%ADD29C,0.900000*%
%TD*%
%TA.AperFunction,ComponentPad*%
%ADD30C,1.400000*%
%TD*%
%TA.AperFunction,SMDPad,CuDef*%
%ADD31RoundRect,0.135000X-0.226274X-0.035355X-0.035355X-0.226274X0.226274X0.035355X0.035355X0.226274X0*%
%TD*%
%TA.AperFunction,SMDPad,CuDef*%
%ADD32R,0.203200X0.609600*%
%TD*%
%TA.AperFunction,SMDPad,CuDef*%
%ADD33R,0.889000X1.092200*%
%TD*%
%TA.AperFunction,SMDPad,CuDef*%
%ADD34RotRect,0.249999X0.599999X135.000000*%
%TD*%
%TA.AperFunction,SMDPad,CuDef*%
%ADD35RotRect,0.249999X0.599999X45.000000*%
%TD*%
%TA.AperFunction,SMDPad,CuDef*%
%ADD36RotRect,4.500001X4.500001X45.000000*%
%TD*%
%TA.AperFunction,ComponentPad*%
%ADD37C,0.499999*%
%TD*%
%TA.AperFunction,SMDPad,CuDef*%
%ADD38RoundRect,0.147500X0.172500X-0.147500X0.172500X0.147500X-0.172500X0.147500X-0.172500X-0.147500X0*%
%TD*%
%TA.AperFunction,SMDPad,CuDef*%
%ADD39R,1.200000X1.200000*%
%TD*%
%TA.AperFunction,SMDPad,CuDef*%
%ADD40RoundRect,0.135000X-0.135000X-0.185000X0.135000X-0.185000X0.135000X0.185000X-0.135000X0.185000X0*%
%TD*%
%TA.AperFunction,SMDPad,CuDef*%
%ADD41RoundRect,0.135000X0.135000X0.185000X-0.135000X0.185000X-0.135000X-0.185000X0.135000X-0.185000X0*%
%TD*%
%TA.AperFunction,SMDPad,CuDef*%
%ADD42RoundRect,0.225000X0.335876X0.017678X0.017678X0.335876X-0.335876X-0.017678X-0.017678X-0.335876X0*%
%TD*%
%TA.AperFunction,SMDPad,CuDef*%
%ADD43RoundRect,0.218750X-0.218750X-0.256250X0.218750X-0.256250X0.218750X0.256250X-0.218750X0.256250X0*%
%TD*%
%TA.AperFunction,SMDPad,CuDef*%
%ADD44RoundRect,0.135000X0.035355X-0.226274X0.226274X-0.035355X-0.035355X0.226274X-0.226274X0.035355X0*%
%TD*%
%TA.AperFunction,SMDPad,CuDef*%
%ADD45RoundRect,0.100000X-0.225000X-0.100000X0.225000X-0.100000X0.225000X0.100000X-0.225000X0.100000X0*%
%TD*%
%TA.AperFunction,ViaPad*%
%ADD46C,0.500000*%
%TD*%
%TA.AperFunction,ViaPad*%
%ADD47C,0.600000*%
%TD*%
%TA.AperFunction,Conductor*%
%ADD48C,0.400000*%
%TD*%
%TA.AperFunction,Conductor*%
%ADD49C,0.300000*%
%TD*%
%TA.AperFunction,Conductor*%
%ADD50C,0.160000*%
%TD*%
%TA.AperFunction,Conductor*%
%ADD51C,0.500000*%
%TD*%
%TA.AperFunction,Conductor*%
%ADD52C,0.250000*%
%TD*%
%TA.AperFunction,Conductor*%
%ADD53C,0.310000*%
%TD*%
%TA.AperFunction,Conductor*%
%ADD54C,0.600000*%
%TD*%
G04 APERTURE END LIST*
D10*
%TO.N,/lmx2572_rf_pll_synth/rf_out_b_p*%
X18151873Y-9204209D02*
X17683873Y-9155209D01*
X17683873Y-9145209D01*
X18142873Y-9098209D01*
X18151873Y-9097209D01*
X18151873Y-9204209D01*
%TA.AperFunction,Conductor*%
G36*
X18151873Y-9204209D02*
G01*
X17683873Y-9155209D01*
X17683873Y-9145209D01*
X18142873Y-9098209D01*
X18151873Y-9097209D01*
X18151873Y-9204209D01*
G37*
%TD.AperFunction*%
%TO.N,/lmx2572_rf_pll_synth/rf_out_a_p*%
X18159000Y-6704000D02*
X17691000Y-6655000D01*
X17691000Y-6645000D01*
X18150000Y-6598000D01*
X18159000Y-6597000D01*
X18159000Y-6704000D01*
%TA.AperFunction,Conductor*%
G36*
X18159000Y-6704000D02*
G01*
X17691000Y-6655000D01*
X17691000Y-6645000D01*
X18150000Y-6598000D01*
X18159000Y-6597000D01*
X18159000Y-6704000D01*
G37*
%TD.AperFunction*%
%TA.AperFunction,EtchedComponent*%
%TD*%
%TO.C,U3*%
G36*
X13845180Y-7704280D02*
G01*
X13754820Y-7704280D01*
X13754820Y-7617920D01*
X13845180Y-7617920D01*
X13845180Y-7704280D01*
G37*
%TD.AperFunction*%
%TA.AperFunction,EtchedComponent*%
%TO.C,U3*%
G36*
X13845180Y-9406080D02*
G01*
X13754820Y-9406080D01*
X13754820Y-9319720D01*
X13845180Y-9319720D01*
X13845180Y-9406080D01*
G37*
%TD.AperFunction*%
%TA.AperFunction,EtchedComponent*%
G36*
X14099180Y-7704280D02*
G01*
X14008820Y-7704280D01*
X14008820Y-7617920D01*
X14099180Y-7617920D01*
X14099180Y-7704280D01*
G37*
%TD.AperFunction*%
%TA.AperFunction,EtchedComponent*%
G36*
X14099180Y-9406080D02*
G01*
X14008820Y-9406080D01*
X14008820Y-9319720D01*
X14099180Y-9319720D01*
X14099180Y-9406080D01*
G37*
%TD.AperFunction*%
%TA.AperFunction,EtchedComponent*%
G36*
X14353180Y-7704280D02*
G01*
X14262820Y-7704280D01*
X14262820Y-7617920D01*
X14353180Y-7617920D01*
X14353180Y-7704280D01*
G37*
%TD.AperFunction*%
%TA.AperFunction,EtchedComponent*%
G36*
X14353180Y-9406080D02*
G01*
X14262820Y-9406080D01*
X14262820Y-9319720D01*
X14353180Y-9319720D01*
X14353180Y-9406080D01*
G37*
%TD.AperFunction*%
%TA.AperFunction,EtchedComponent*%
G36*
X14607180Y-7704280D02*
G01*
X14516820Y-7704280D01*
X14516820Y-7617920D01*
X14607180Y-7617920D01*
X14607180Y-7704280D01*
G37*
%TD.AperFunction*%
%TA.AperFunction,EtchedComponent*%
G36*
X14607180Y-9406080D02*
G01*
X14516820Y-9406080D01*
X14516820Y-9319720D01*
X14607180Y-9319720D01*
X14607180Y-9406080D01*
G37*
%TD.AperFunction*%
%TA.AperFunction,EtchedComponent*%
G36*
X14861180Y-7704280D02*
G01*
X14770820Y-7704280D01*
X14770820Y-7617920D01*
X14861180Y-7617920D01*
X14861180Y-7704280D01*
G37*
%TD.AperFunction*%
%TA.AperFunction,EtchedComponent*%
G36*
X14861180Y-9406080D02*
G01*
X14770820Y-9406080D01*
X14770820Y-9319720D01*
X14861180Y-9319720D01*
X14861180Y-9406080D01*
G37*
%TD.AperFunction*%
%TA.AperFunction,EtchedComponent*%
G36*
X15115180Y-7704280D02*
G01*
X15024820Y-7704280D01*
X15024820Y-7617920D01*
X15115180Y-7617920D01*
X15115180Y-7704280D01*
G37*
%TD.AperFunction*%
%TA.AperFunction,EtchedComponent*%
G36*
X15115180Y-9406080D02*
G01*
X15024820Y-9406080D01*
X15024820Y-9319720D01*
X15115180Y-9319720D01*
X15115180Y-9406080D01*
G37*
%TD.AperFunction*%
%TA.AperFunction,EtchedComponent*%
G36*
X15369180Y-7704280D02*
G01*
X15278820Y-7704280D01*
X15278820Y-7617920D01*
X15369180Y-7617920D01*
X15369180Y-7704280D01*
G37*
%TD.AperFunction*%
%TA.AperFunction,EtchedComponent*%
G36*
X15369180Y-9406080D02*
G01*
X15278820Y-9406080D01*
X15278820Y-9319720D01*
X15369180Y-9319720D01*
X15369180Y-9406080D01*
G37*
%TD.AperFunction*%
D11*
%TA.AperFunction,EtchedComponent*%
G36*
X13942363Y-9321773D02*
G01*
X13954418Y-9327916D01*
X13964278Y-9337776D01*
X13972180Y-9362095D01*
X13972180Y-9406080D01*
X13881820Y-9406080D01*
X13881820Y-9362500D01*
X13883873Y-9349537D01*
X13890015Y-9337482D01*
X13899876Y-9327622D01*
X13924195Y-9319720D01*
X13929400Y-9319720D01*
X13942363Y-9321773D01*
G37*
%TD.AperFunction*%
%TA.AperFunction,EtchedComponent*%
G36*
X14196363Y-9321773D02*
G01*
X14208418Y-9327916D01*
X14218278Y-9337776D01*
X14226180Y-9362095D01*
X14226180Y-9406080D01*
X14135820Y-9406080D01*
X14135820Y-9362500D01*
X14137873Y-9349537D01*
X14144015Y-9337482D01*
X14153876Y-9327622D01*
X14178195Y-9319720D01*
X14183400Y-9319720D01*
X14196363Y-9321773D01*
G37*
%TD.AperFunction*%
%TA.AperFunction,EtchedComponent*%
G36*
X14450363Y-9321773D02*
G01*
X14462418Y-9327916D01*
X14472278Y-9337776D01*
X14480180Y-9362095D01*
X14480180Y-9406080D01*
X14389820Y-9406080D01*
X14389820Y-9362500D01*
X14391873Y-9349537D01*
X14398015Y-9337482D01*
X14407876Y-9327622D01*
X14432195Y-9319720D01*
X14437400Y-9319720D01*
X14450363Y-9321773D01*
G37*
%TD.AperFunction*%
%TA.AperFunction,EtchedComponent*%
G36*
X14704363Y-9321773D02*
G01*
X14716418Y-9327916D01*
X14726278Y-9337776D01*
X14734180Y-9362095D01*
X14734180Y-9406080D01*
X14643820Y-9406080D01*
X14643820Y-9362500D01*
X14645873Y-9349537D01*
X14652015Y-9337482D01*
X14661876Y-9327622D01*
X14686195Y-9319720D01*
X14691400Y-9319720D01*
X14704363Y-9321773D01*
G37*
%TD.AperFunction*%
%TA.AperFunction,EtchedComponent*%
G36*
X14734180Y-7661500D02*
G01*
X14732127Y-7674463D01*
X14725984Y-7686518D01*
X14716124Y-7696378D01*
X14691805Y-7704280D01*
X14686600Y-7704280D01*
X14673637Y-7702227D01*
X14661582Y-7696084D01*
X14651722Y-7686224D01*
X14643820Y-7661905D01*
X14643820Y-7617920D01*
X14734180Y-7617920D01*
X14734180Y-7661500D01*
G37*
%TD.AperFunction*%
%TA.AperFunction,EtchedComponent*%
G36*
X14958363Y-9321773D02*
G01*
X14970418Y-9327916D01*
X14980278Y-9337776D01*
X14988180Y-9362095D01*
X14988180Y-9406080D01*
X14897820Y-9406080D01*
X14897820Y-9362500D01*
X14899873Y-9349537D01*
X14906015Y-9337482D01*
X14915876Y-9327622D01*
X14940195Y-9319720D01*
X14945400Y-9319720D01*
X14958363Y-9321773D01*
G37*
%TD.AperFunction*%
%TA.AperFunction,EtchedComponent*%
G36*
X14988180Y-7661500D02*
G01*
X14986127Y-7674463D01*
X14979984Y-7686518D01*
X14970124Y-7696378D01*
X14945805Y-7704280D01*
X14940600Y-7704280D01*
X14927637Y-7702227D01*
X14915582Y-7696084D01*
X14905722Y-7686224D01*
X14897820Y-7661905D01*
X14897820Y-7617920D01*
X14988180Y-7617920D01*
X14988180Y-7661500D01*
G37*
%TD.AperFunction*%
%TA.AperFunction,EtchedComponent*%
G36*
X15212363Y-9321773D02*
G01*
X15224418Y-9327916D01*
X15234278Y-9337776D01*
X15242180Y-9362095D01*
X15242180Y-9406080D01*
X15151820Y-9406080D01*
X15151820Y-9362500D01*
X15153873Y-9349537D01*
X15160015Y-9337482D01*
X15169876Y-9327622D01*
X15194195Y-9319720D01*
X15199400Y-9319720D01*
X15212363Y-9321773D01*
G37*
%TD.AperFunction*%
%TA.AperFunction,EtchedComponent*%
G36*
X15242180Y-7661500D02*
G01*
X15240127Y-7674463D01*
X15233984Y-7686518D01*
X15224124Y-7696378D01*
X15199805Y-7704280D01*
X15194600Y-7704280D01*
X15181637Y-7702227D01*
X15169582Y-7696084D01*
X15159722Y-7686224D01*
X15151820Y-7661905D01*
X15151820Y-7617920D01*
X15242180Y-7617920D01*
X15242180Y-7661500D01*
G37*
%TD.AperFunction*%
%TD*%
D12*
%TO.P,C6,1*%
%TO.N,Net-(U2-VREFVCO)*%
X16448941Y-7583941D03*
%TO.P,C6,2*%
%TO.N,GND*%
X16381059Y-7516059D03*
%TD*%
D13*
%TO.P,C41,1*%
%TO.N,3V3*%
X17224000Y-9590000D03*
%TO.P,C41,2*%
%TO.N,GND*%
X17320000Y-9590000D03*
%TD*%
D14*
%TO.P,C21,1*%
%TO.N,Net-(U2-RFOUTAM)*%
X17356059Y-7613941D03*
%TO.P,C21,2*%
%TO.N,/lmx2572_rf_pll_synth/rf_out_a_p*%
X17423941Y-7546059D03*
%TD*%
D15*
%TO.P,C4,1*%
%TO.N,3V3*%
X16908000Y-9590000D03*
%TO.P,C4,2*%
%TO.N,GND*%
X16812000Y-9590000D03*
%TD*%
D16*
%TO.P,C14,1*%
%TO.N,3V3_PLL*%
X16931059Y-8361059D03*
%TO.P,C14,2*%
%TO.N,GND*%
X16998941Y-8428941D03*
%TD*%
D14*
%TO.P,C16,1*%
%TO.N,/lmx2572_rf_pll_synth/REF_OSC_N*%
X16296059Y-8533941D03*
%TO.P,C16,2*%
%TO.N,Net-(U2-OSCINP)*%
X16363941Y-8466059D03*
%TD*%
D17*
%TO.P,TP1,1,1*%
%TO.N,/lmx2572_rf_pll_synth/REF_OSC_P*%
X16150000Y-7010000D03*
%TD*%
D12*
%TO.P,C27,1*%
%TO.N,Net-(U2-VTUNE)*%
X16518941Y-7513941D03*
%TO.P,C27,2*%
%TO.N,GND*%
X16451059Y-7446059D03*
%TD*%
D18*
%TO.P,R23,1*%
%TO.N,Net-(R23-Pad1)*%
X15700000Y-7091000D03*
%TO.P,R23,2*%
%TO.N,Net-(U6-CLK1)*%
X15700000Y-6989000D03*
%TD*%
D16*
%TO.P,C22,1*%
%TO.N,Net-(U2-RFOUTBM)*%
X17246059Y-8191059D03*
%TO.P,C22,2*%
%TO.N,/lmx2572_rf_pll_synth/rf_out_b_n*%
X17313941Y-8258941D03*
%TD*%
D19*
%TO.P,U5,1,NC*%
%TO.N,unconnected-(U5-NC-Pad1)*%
X14830000Y-7250000D03*
%TO.P,U5,2,OE*%
%TO.N,/controller/ref_clk_en*%
X15080000Y-7250000D03*
%TO.P,U5,3,GND*%
%TO.N,GND*%
X15330000Y-7250000D03*
%TO.P,U5,4,CLK+*%
%TO.N,Net-(U5-CLK+)*%
X15330000Y-6830000D03*
%TO.P,U5,5,CLK-*%
%TO.N,unconnected-(U5-CLK--Pad5)*%
X15080000Y-6830000D03*
%TO.P,U5,6,Vcc*%
%TO.N,3V3_OSC*%
X14830000Y-6830000D03*
D20*
%TO.P,U5,7,SDA*%
%TO.N,/controller/i2c0.sda*%
X14795000Y-7040000D03*
%TO.P,U5,8,SCL*%
%TO.N,/controller/i2c0.scl*%
X15365000Y-7040000D03*
%TD*%
D21*
%TO.P,C38,1*%
%TO.N,GND*%
X14316000Y-6270000D03*
%TO.P,C38,2*%
%TO.N,3V3*%
X14316000Y-6174000D03*
%TD*%
D22*
%TO.P,C18,1*%
%TO.N,3V3_PLL*%
X16473941Y-8246059D03*
%TO.P,C18,2*%
%TO.N,GND*%
X16406059Y-8313941D03*
%TD*%
D23*
%TO.P,J4,1,In*%
%TO.N,/lmx2572_rf_pll_synth/rf_out_a_p*%
X18296000Y-6650000D03*
D24*
%TO.P,J4,2,Ext*%
%TO.N,GND*%
X18271000Y-6367500D03*
X18271000Y-6932500D03*
%TD*%
D14*
%TO.P,C17,1*%
%TO.N,/lmx2572_rf_pll_synth/REF_OSC_P*%
X16366059Y-8603941D03*
%TO.P,C17,2*%
%TO.N,Net-(U2-OSCINM)*%
X16433941Y-8536059D03*
%TD*%
D25*
%TO.P,FB1,1*%
%TO.N,/J6_5V_EXT*%
X13861500Y-7190000D03*
%TO.P,FB1,2*%
%TO.N,5V0_EXT*%
X13958500Y-7190000D03*
%TD*%
D16*
%TO.P,C23,1*%
%TO.N,Net-(U2-RFOUTBP)*%
X17311059Y-8126059D03*
%TO.P,C23,2*%
%TO.N,/lmx2572_rf_pll_synth/rf_out_b_p*%
X17378941Y-8193941D03*
%TD*%
D21*
%TO.P,C37,1*%
%TO.N,3V3_OSC*%
X15810000Y-6478000D03*
%TO.P,C37,2*%
%TO.N,GND*%
X15810000Y-6382000D03*
%TD*%
D26*
%TO.P,J3,1,In*%
%TO.N,/ref_osc/clk_ext*%
X13710000Y-6650000D03*
D27*
%TO.P,J3,2,Ext*%
%TO.N,GND*%
X13735000Y-6932500D03*
X13735000Y-6367500D03*
%TD*%
D23*
%TO.P,J5,1,In*%
%TO.N,/lmx2572_rf_pll_synth/rf_out_b_p*%
X18296000Y-9150000D03*
D24*
%TO.P,J5,2,Ext*%
%TO.N,GND*%
X18271000Y-8867500D03*
X18271000Y-9432500D03*
%TD*%
D28*
%TO.P,C34,1*%
%TO.N,GND*%
X15430000Y-6082000D03*
%TO.P,C34,2*%
%TO.N,3V3_OSC*%
X15430000Y-6178000D03*
%TD*%
D29*
%TO.P,U3,1,GPIO1_D0/A0*%
%TO.N,/controller/LED0*%
X13800000Y-9401000D03*
D30*
X13800000Y-9274000D03*
D29*
%TO.P,U3,2,GPIO2_D1/A1*%
%TO.N,unconnected-(U3-GPIO2_D1{slash}A1-Pad2)*%
X14054000Y-9401000D03*
D30*
%TO.N,unconnected-(U3-GPIO2_D1{slash}A1-Pad2)_1*%
X14054000Y-9274000D03*
D29*
%TO.P,U3,3,GPIO3_D2/A2*%
%TO.N,/controller/lmx2572.ce*%
X14308000Y-9401000D03*
D30*
X14308000Y-9274000D03*
D29*
%TO.P,U3,4,GPIO4_D3/A3*%
%TO.N,/controller/lmx2572.rampclk*%
X14562000Y-9401000D03*
D30*
X14562000Y-9274000D03*
D29*
%TO.P,U3,5,GPIO5_D4/A4/I2C_SDA*%
%TO.N,/controller/lmx2572.csb*%
X14816000Y-9401000D03*
D30*
X14816000Y-9274000D03*
D29*
%TO.P,U3,6,GPIO6_D5/A5/I2C_SCL*%
%TO.N,/controller/lmx2572.sdi*%
X15070000Y-9401000D03*
D30*
X15070000Y-9274000D03*
D29*
%TO.P,U3,7,U0TXD_D6/TX*%
%TO.N,/controller/TXD0*%
X15324000Y-9401000D03*
D30*
X15324000Y-9274000D03*
%TO.P,U3,8,U0RXD_D7/RX*%
%TO.N,/controller/RXD0*%
X15324000Y-7750000D03*
D29*
X15324000Y-7623000D03*
D30*
%TO.P,U3,9,GPIO7_D8/A8/SCK*%
%TO.N,/controller/ref_clk_en*%
X15070000Y-7750000D03*
D29*
X15070000Y-7623000D03*
D30*
%TO.P,U3,10,GPIO8_D9/A9/MISO*%
%TO.N,/controller/ref_clk_select*%
X14816000Y-7750000D03*
D29*
X14816000Y-7623000D03*
D30*
%TO.P,U3,11,GPIO9_D10/A10/MOSI*%
%TO.N,unconnected-(U3-GPIO9_D10{slash}A10{slash}MOSI-Pad11)*%
X14562000Y-7750000D03*
D29*
%TO.N,unconnected-(U3-GPIO9_D10{slash}A10{slash}MOSI-Pad11)_1*%
X14562000Y-7623000D03*
D30*
%TO.P,U3,12,VCC_3V3*%
%TO.N,3V3*%
X14308000Y-7750000D03*
D29*
X14308000Y-7623000D03*
D30*
%TO.P,U3,13,GND*%
%TO.N,GND*%
X14054000Y-7750000D03*
D29*
X14054000Y-7623000D03*
D30*
%TO.P,U3,14,VBUS*%
%TO.N,VBUS*%
X13800000Y-7750000D03*
D29*
X13800000Y-7623000D03*
%TO.P,U3,15,GPIO38_DVP_VSYNC/I2S_SD*%
%TO.N,unconnected-(U3-GPIO38_DVP_VSYNC{slash}I2S_SD-Pad15)*%
X13927000Y-9401000D03*
%TO.P,U3,16,GPIO39_CAM_SCL/I2S_SCK*%
%TO.N,/controller/lmx2572.sync*%
X14181000Y-9401000D03*
%TO.P,U3,17,GPIO40_CAM_SDA/I2S_WS*%
%TO.N,/controller/lmx2572.rampdir*%
X14435000Y-9401000D03*
%TO.P,U3,18,GPIO41_PDM_DATA/RX1*%
%TO.N,/controller/lmx2572.sysreffreq*%
X14689000Y-9401000D03*
%TO.P,U3,19,GPIO42_PDM_CLK/TX1*%
%TO.N,/controller/lmx2572.muxout*%
X14943000Y-9401000D03*
%TO.P,U3,20,GPIO10_XMCLK/ADC_BAT*%
%TO.N,/controller/lmx2572.sck*%
X15197000Y-9401000D03*
%TO.P,U3,21,GPIO11_DVP_Y8/SPI_MOSI1*%
%TO.N,/controller/i2c0.scl*%
X15197000Y-7623000D03*
%TO.P,U3,22,GPIO12_DVP_Y7/SPI_MISO1*%
%TO.N,/controller/i2c0.sda*%
X14943000Y-7623000D03*
%TO.P,U3,23,GPIO13_DVP_PCLK/SPI_SCK1*%
%TO.N,unconnected-(U3-GPIO13_DVP_PCLK{slash}SPI_SCK1-Pad23)*%
X14689000Y-7623000D03*
%TD*%
D28*
%TO.P,C35,1*%
%TO.N,GND*%
X15700000Y-6380000D03*
%TO.P,C35,2*%
%TO.N,3V3_OSC*%
X15700000Y-6476000D03*
%TD*%
D31*
%TO.P,R7,1*%
%TO.N,GND*%
X17173938Y-8258938D03*
%TO.P,R7,2*%
%TO.N,/lmx2572_rf_pll_synth/rf_out_b_n*%
X17246062Y-8331062D03*
%TD*%
D32*
%TO.P,U7,1,FIN*%
%TO.N,Net-(U7-FIN)*%
X15390000Y-6520000D03*
%TO.P,U7,2,CLK1*%
%TO.N,unconnected-(U7-CLK1-Pad2)*%
X15430000Y-6520000D03*
%TO.P,U7,3,GND*%
%TO.N,GND*%
X15470000Y-6520000D03*
%TO.P,U7,4,CLK0*%
%TO.N,Net-(U7-CLK0)*%
X15470000Y-6314260D03*
%TO.P,U7,5,VDD*%
%TO.N,3V3_OSC*%
X15430000Y-6314260D03*
%TO.P,U7,6,OE*%
%TO.N,Net-(U7-OE)*%
X15390000Y-6314260D03*
D33*
%TO.P,U7,7,EPAD*%
%TO.N,GND*%
X15430000Y-6417130D03*
%TD*%
D15*
%TO.P,C40,1*%
%TO.N,GND*%
X17320000Y-9480000D03*
%TO.P,C40,2*%
%TO.N,3V3*%
X17224000Y-9480000D03*
%TD*%
D13*
%TO.P,C13,1*%
%TO.N,3V3_PLL_RF*%
X17357000Y-7900000D03*
%TO.P,C13,2*%
%TO.N,GND*%
X17453000Y-7900000D03*
%TD*%
D34*
%TO.P,U2,1,CE*%
%TO.N,/controller/lmx2572.ce*%
X16435840Y-7935962D03*
%TO.P,U2,2,GND*%
%TO.N,GND*%
X16471195Y-7971317D03*
%TO.P,U2,3,VBIASVCO*%
%TO.N,Net-(U2-VBIASVCO)*%
X16506550Y-8006672D03*
%TO.P,U2,4,GND*%
%TO.N,GND*%
X16541906Y-8042028D03*
%TO.P,U2,5,SYNC*%
%TO.N,Net-(U2-SYNC)*%
X16577261Y-8077383D03*
%TO.P,U2,6,GND*%
%TO.N,GND*%
X16612617Y-8112738D03*
%TO.P,U2,7,VCCDIG*%
%TO.N,3V3_PLL*%
X16647972Y-8148094D03*
%TO.P,U2,8,OSCINP*%
%TO.N,Net-(U2-OSCINP)*%
X16683327Y-8183449D03*
%TO.P,U2,9,OSCINM*%
%TO.N,Net-(U2-OSCINM)*%
X16718682Y-8218804D03*
%TO.P,U2,10,VREGIN*%
%TO.N,Net-(U2-VREGIN)*%
X16754038Y-8254160D03*
D35*
%TO.P,U2,11,VCCCP*%
%TO.N,3V3_PLL*%
X16845962Y-8254160D03*
%TO.P,U2,12,CPOUT*%
%TO.N,Net-(U2-CPOUT)*%
X16881317Y-8218805D03*
%TO.P,U2,13,GND*%
%TO.N,GND*%
X16916672Y-8183449D03*
%TO.P,U2,14,GND*%
X16952028Y-8148094D03*
%TO.P,U2,15,VCCMASH*%
%TO.N,3V3_PLL*%
X16987383Y-8112738D03*
%TO.P,U2,16,SCK*%
%TO.N,/controller/lmx2572.sck*%
X17022738Y-8077383D03*
%TO.P,U2,17,SDI*%
%TO.N,/controller/lmx2572.sdi*%
X17058094Y-8042028D03*
%TO.P,U2,18,RFOUTBM*%
%TO.N,Net-(U2-RFOUTBM)*%
X17093449Y-8006672D03*
%TO.P,U2,19,RFOUTBP*%
%TO.N,Net-(U2-RFOUTBP)*%
X17128804Y-7971317D03*
%TO.P,U2,20,MUXOUT*%
%TO.N,/controller/lmx2572.muxout*%
X17164160Y-7935962D03*
D34*
%TO.P,U2,21,VCCBUF*%
%TO.N,3V3_PLL_RF*%
X17164160Y-7844038D03*
%TO.P,U2,22,RFOUTAM*%
%TO.N,Net-(U2-RFOUTAM)*%
X17128804Y-7808682D03*
%TO.P,U2,23,RFOUTAP*%
%TO.N,Net-(U2-RFOUTAP)*%
X17093449Y-7773327D03*
%TO.P,U2,24,CSB*%
%TO.N,/controller/lmx2572.csb*%
X17058094Y-7737972D03*
%TO.P,U2,25,GND*%
%TO.N,GND*%
X17022738Y-7702617D03*
%TO.P,U2,26,VCCVCO2*%
%TO.N,3V3_PLL*%
X16987383Y-7667261D03*
%TO.P,U2,27,VBIASVCO2*%
%TO.N,Net-(U2-VBIASVCO2)*%
X16952028Y-7631906D03*
%TO.P,U2,28,SYSREFREQ*%
%TO.N,/controller/lmx2572.sysreffreq*%
X16916672Y-7596550D03*
%TO.P,U2,29,VREFVCO2*%
%TO.N,Net-(U2-VREFVCO2)*%
X16881317Y-7561195D03*
%TO.P,U2,30,RAMPCLK*%
%TO.N,/controller/lmx2572.rampclk*%
X16845962Y-7525840D03*
D35*
%TO.P,U2,31,GND*%
%TO.N,GND*%
X16754038Y-7525840D03*
%TO.P,U2,32,RAMPDIR*%
%TO.N,/controller/lmx2572.rampdir*%
X16718682Y-7561195D03*
%TO.P,U2,33,VBIASVARAC*%
%TO.N,Net-(U2-VBIASVARAC)*%
X16683327Y-7596550D03*
%TO.P,U2,34,GND*%
%TO.N,GND*%
X16647972Y-7631906D03*
%TO.P,U2,35,VTUNE*%
%TO.N,Net-(U2-VTUNE)*%
X16612617Y-7667261D03*
%TO.P,U2,36,VREFVCO*%
%TO.N,Net-(U2-VREFVCO)*%
X16577261Y-7702617D03*
%TO.P,U2,37,VCCVCO*%
%TO.N,3V3_PLL*%
X16541906Y-7737972D03*
%TO.P,U2,38,VREGVCO*%
%TO.N,Net-(U2-VREGVCO)*%
X16506550Y-7773327D03*
%TO.P,U2,39,GND*%
%TO.N,GND*%
X16471195Y-7808683D03*
%TO.P,U2,40,GND*%
X16435840Y-7844038D03*
D36*
%TO.P,U2,41,GND*%
X16800000Y-7890000D03*
D37*
%TO.P,U2,V*%
X16606959Y-7979802D03*
X16710197Y-8083040D03*
X16606959Y-7800197D03*
X16696762Y-7890000D03*
X16800000Y-7993238D03*
X16889802Y-8083040D03*
X16710197Y-7696959D03*
X16800000Y-7786762D03*
X16903238Y-7890000D03*
X16993040Y-7979802D03*
X16889802Y-7696959D03*
X16993040Y-7800197D03*
%TD*%
D28*
%TO.P,C33,1*%
%TO.N,3V3_OSC*%
X14610000Y-6792000D03*
%TO.P,C33,2*%
%TO.N,GND*%
X14610000Y-6888000D03*
%TD*%
D16*
%TO.P,C11,1*%
%TO.N,3V3_PLL*%
X17026059Y-8276059D03*
%TO.P,C11,2*%
%TO.N,GND*%
X17093941Y-8343941D03*
%TD*%
D17*
%TO.P,TP2,1,1*%
%TO.N,Net-(U2-VTUNE)*%
X16670000Y-9100000D03*
%TD*%
D38*
%TO.P,FB2,1*%
%TO.N,3V3*%
X16911000Y-9361500D03*
%TO.P,FB2,2*%
%TO.N,3V3_PLL*%
X16911000Y-9264500D03*
%TD*%
D39*
%TO.P,D1,1,K*%
%TO.N,VBUS*%
X13800000Y-7370000D03*
%TO.P,D1,2,A*%
%TO.N,5V0_EXT*%
X14080000Y-7370000D03*
%TD*%
D15*
%TO.P,C24,1*%
%TO.N,Net-(U2-CPOUT)*%
X17193000Y-8610000D03*
%TO.P,C24,2*%
%TO.N,GND*%
X17097000Y-8610000D03*
%TD*%
D40*
%TO.P,R21,1*%
%TO.N,Net-(C31-Pad2)*%
X15009000Y-6520000D03*
%TO.P,R21,2*%
%TO.N,Net-(U7-FIN)*%
X15111000Y-6520000D03*
%TD*%
D14*
%TO.P,C20,1*%
%TO.N,Net-(U2-RFOUTAP)*%
X17281059Y-7543941D03*
%TO.P,C20,2*%
%TO.N,/lmx2572_rf_pll_synth/rf_out_a_n*%
X17348941Y-7476059D03*
%TD*%
D28*
%TO.P,C39,1*%
%TO.N,3V3*%
X14213000Y-6174000D03*
%TO.P,C39,2*%
%TO.N,GND*%
X14213000Y-6270000D03*
%TD*%
D41*
%TO.P,R15,1*%
%TO.N,Net-(C25-Pad2)*%
X17001000Y-8710000D03*
%TO.P,R15,2*%
%TO.N,GND*%
X16899000Y-8710000D03*
%TD*%
D32*
%TO.P,U6,1,FIN*%
%TO.N,Net-(U5-CLK+)*%
X15660000Y-6827950D03*
%TO.P,U6,2,CLK1*%
%TO.N,Net-(U6-CLK1)*%
X15700000Y-6827950D03*
%TO.P,U6,3,GND*%
%TO.N,GND*%
X15740000Y-6827950D03*
%TO.P,U6,4,CLK0*%
%TO.N,Net-(U6-CLK0)*%
X15740000Y-6622210D03*
%TO.P,U6,5,VDD*%
%TO.N,3V3_OSC*%
X15700000Y-6622210D03*
%TO.P,U6,6,OE*%
%TO.N,/controller/ref_clk_select*%
X15660000Y-6622210D03*
D33*
%TO.P,U6,7,EPAD*%
%TO.N,GND*%
X15700000Y-6725080D03*
%TD*%
D42*
%TO.P,C12,1*%
%TO.N,Net-(U2-VBIASVCO)*%
X16334801Y-8154801D03*
%TO.P,C12,2*%
%TO.N,GND*%
X16225199Y-8045199D03*
%TD*%
D12*
%TO.P,C7,1*%
%TO.N,3V3_PLL*%
X16378941Y-7653941D03*
%TO.P,C7,2*%
%TO.N,GND*%
X16311059Y-7586059D03*
%TD*%
D16*
%TO.P,C5,1*%
%TO.N,Net-(U2-VREGIN)*%
X16856059Y-8436059D03*
%TO.P,C5,2*%
%TO.N,GND*%
X16923941Y-8503941D03*
%TD*%
D18*
%TO.P,R26,1*%
%TO.N,Net-(C31-Pad2)*%
X15700000Y-7298500D03*
%TO.P,R26,2*%
%TO.N,Net-(R23-Pad1)*%
X15700000Y-7196500D03*
%TD*%
D14*
%TO.P,C10,1*%
%TO.N,Net-(U2-VREFVCO2)*%
X16961059Y-7378941D03*
%TO.P,C10,2*%
%TO.N,GND*%
X17028941Y-7311059D03*
%TD*%
D38*
%TO.P,FB3,1*%
%TO.N,3V3*%
X17227000Y-9364500D03*
%TO.P,FB3,2*%
%TO.N,3V3_PLL_RF*%
X17227000Y-9267500D03*
%TD*%
D31*
%TO.P,R5,1*%
%TO.N,GND*%
X16153938Y-8543938D03*
%TO.P,R5,2*%
%TO.N,/lmx2572_rf_pll_synth/REF_OSC_N*%
X16226062Y-8616062D03*
%TD*%
D12*
%TO.P,C19,1*%
%TO.N,Net-(U2-VBIASVARAC)*%
X16588941Y-7443941D03*
%TO.P,C19,2*%
%TO.N,GND*%
X16521059Y-7376059D03*
%TD*%
D15*
%TO.P,C25,1*%
%TO.N,Net-(U2-CPOUT)*%
X17193000Y-8710000D03*
%TO.P,C25,2*%
%TO.N,Net-(C25-Pad2)*%
X17097000Y-8710000D03*
%TD*%
D40*
%TO.P,R25,1*%
%TO.N,/lmx2572_rf_pll_synth/REF_OSC_P*%
X15879000Y-6730000D03*
%TO.P,R25,2*%
%TO.N,Net-(R22-Pad1)*%
X15981000Y-6730000D03*
%TD*%
D25*
%TO.P,FB4,1*%
%TO.N,3V3*%
X14414500Y-6179000D03*
%TO.P,FB4,2*%
%TO.N,3V3_OSC*%
X14511500Y-6179000D03*
%TD*%
D43*
%TO.P,D2,1,K*%
%TO.N,/controller/LED0*%
X13771250Y-9680000D03*
%TO.P,D2,2,A*%
%TO.N,Net-(D2-A)*%
X13928750Y-9680000D03*
%TD*%
D21*
%TO.P,C32,1*%
%TO.N,GND*%
X14500000Y-6888000D03*
%TO.P,C32,2*%
%TO.N,3V3_OSC*%
X14500000Y-6792000D03*
%TD*%
D13*
%TO.P,C31,1*%
%TO.N,/ref_osc/clk_ext*%
X14782000Y-6520000D03*
%TO.P,C31,2*%
%TO.N,Net-(C31-Pad2)*%
X14878000Y-6520000D03*
%TD*%
D44*
%TO.P,R14,1*%
%TO.N,GND*%
X16073938Y-7906062D03*
%TO.P,R14,2*%
%TO.N,/controller/lmx2572.ce*%
X16146062Y-7833938D03*
%TD*%
D41*
%TO.P,R20,1*%
%TO.N,GND*%
X15170000Y-7459000D03*
%TO.P,R20,2*%
%TO.N,/controller/ref_clk_en*%
X15068000Y-7459000D03*
%TD*%
D15*
%TO.P,C1,1*%
%TO.N,GND*%
X14178000Y-7190000D03*
%TO.P,C1,2*%
%TO.N,5V0_EXT*%
X14082000Y-7190000D03*
%TD*%
D41*
%TO.P,R17,1*%
%TO.N,Net-(C26-Pad1)*%
X17001000Y-8910000D03*
%TO.P,R17,2*%
%TO.N,Net-(U2-VTUNE)*%
X16899000Y-8910000D03*
%TD*%
D14*
%TO.P,C9,1*%
%TO.N,3V3_PLL*%
X17101059Y-7518941D03*
%TO.P,C9,2*%
%TO.N,GND*%
X17168941Y-7451059D03*
%TD*%
D21*
%TO.P,C30,1*%
%TO.N,3V3_OSC*%
X15150000Y-6173000D03*
%TO.P,C30,2*%
%TO.N,GND*%
X15150000Y-6077000D03*
%TD*%
D18*
%TO.P,R24,1*%
%TO.N,Net-(R22-Pad1)*%
X15980000Y-6416000D03*
%TO.P,R24,2*%
%TO.N,Net-(U7-CLK0)*%
X15980000Y-6314000D03*
%TD*%
D21*
%TO.P,C36,1*%
%TO.N,3V3_OSC*%
X15530000Y-6178000D03*
%TO.P,C36,2*%
%TO.N,GND*%
X15530000Y-6082000D03*
%TD*%
D22*
%TO.P,C15,1*%
%TO.N,GND*%
X17098941Y-7381059D03*
%TO.P,C15,2*%
%TO.N,Net-(U2-VBIASVCO2)*%
X17031059Y-7448941D03*
%TD*%
D31*
%TO.P,R6,1*%
%TO.N,GND*%
X17338938Y-7328938D03*
%TO.P,R6,2*%
%TO.N,/lmx2572_rf_pll_synth/rf_out_a_n*%
X17411062Y-7401062D03*
%TD*%
D15*
%TO.P,C26,1*%
%TO.N,Net-(C26-Pad1)*%
X16998000Y-8810000D03*
%TO.P,C26,2*%
%TO.N,GND*%
X16902000Y-8810000D03*
%TD*%
D45*
%TO.P,U4,1*%
%TO.N,N/C*%
X14820000Y-6175000D03*
%TO.P,U4,2*%
%TO.N,/controller/ref_clk_select*%
X14820000Y-6240000D03*
%TO.P,U4,3,GND*%
%TO.N,GND*%
X14820000Y-6305000D03*
%TO.P,U4,4*%
%TO.N,Net-(U7-OE)*%
X15010000Y-6305000D03*
%TO.P,U4,5,VCC*%
%TO.N,3V3_OSC*%
X15010000Y-6175000D03*
%TD*%
D41*
%TO.P,R16,1*%
%TO.N,Net-(U2-CPOUT)*%
X17196000Y-8810000D03*
%TO.P,R16,2*%
%TO.N,Net-(C26-Pad1)*%
X17094000Y-8810000D03*
%TD*%
D13*
%TO.P,C3,1*%
%TO.N,GND*%
X16812000Y-9475000D03*
%TO.P,C3,2*%
%TO.N,3V3*%
X16908000Y-9475000D03*
%TD*%
D12*
%TO.P,C8,1*%
%TO.N,Net-(U2-VREGVCO)*%
X16308941Y-7723941D03*
%TO.P,C8,2*%
%TO.N,GND*%
X16241059Y-7656059D03*
%TD*%
D41*
%TO.P,R22,1*%
%TO.N,Net-(R22-Pad1)*%
X15981000Y-6620000D03*
%TO.P,R22,2*%
%TO.N,Net-(U6-CLK0)*%
X15879000Y-6620000D03*
%TD*%
D46*
%TO.N,GND*%
X17570000Y-7650000D03*
X17670000Y-6900000D03*
X17750000Y-6550000D03*
X17600000Y-8300000D03*
X17680000Y-8250000D03*
X13967500Y-6932500D03*
X17950000Y-6780000D03*
X15850000Y-8900000D03*
X15780000Y-7450000D03*
X17020000Y-8610000D03*
X17650000Y-6550000D03*
X15330000Y-7405000D03*
X17800000Y-6480000D03*
X18035000Y-6932516D03*
X14460000Y-7530000D03*
X15880000Y-6210000D03*
X17550000Y-7770000D03*
X15750000Y-8600000D03*
X16100000Y-8950000D03*
X18240000Y-8720000D03*
X17640000Y-6960000D03*
X17890000Y-9350000D03*
X17850000Y-6760000D03*
X18320000Y-9580000D03*
X17500000Y-6800000D03*
X14945000Y-8415000D03*
X17590000Y-8200000D03*
X17480000Y-8600000D03*
X17670000Y-7660000D03*
X17750000Y-6750000D03*
X17290000Y-8710000D03*
X16000000Y-8600000D03*
X18010000Y-8950000D03*
X15150000Y-8900000D03*
X17133938Y-8298938D03*
X18090000Y-7090000D03*
X17570000Y-9280000D03*
X17490000Y-7330000D03*
X16090000Y-6520000D03*
D47*
X16465000Y-7317500D03*
D46*
X17400000Y-8350000D03*
X18340000Y-8720000D03*
X17290000Y-8820000D03*
X14650000Y-6410000D03*
X17420000Y-7150000D03*
X17450000Y-8100000D03*
X17540000Y-7550000D03*
X17510000Y-7000000D03*
X15243000Y-7460000D03*
X14165000Y-8715000D03*
X16155000Y-8492500D03*
X14212500Y-6340000D03*
X15980000Y-7620000D03*
X18110000Y-6230000D03*
X17500000Y-8200000D03*
X15600000Y-8700000D03*
X17480000Y-8800000D03*
D47*
X16395000Y-7387500D03*
D46*
X15780000Y-7650000D03*
X16060000Y-6840000D03*
X17670000Y-7000000D03*
X17525000Y-7900000D03*
X17480000Y-8700000D03*
X15980000Y-6920000D03*
X13740000Y-7080000D03*
X18420000Y-7090000D03*
X17790000Y-9360000D03*
X17420000Y-7690000D03*
X17610000Y-7570000D03*
X15780000Y-8050000D03*
X17740000Y-8750000D03*
X15980000Y-7420000D03*
X17750000Y-7050000D03*
X17410000Y-8850000D03*
X14290000Y-6760000D03*
X18330000Y-6230000D03*
X17290000Y-8600000D03*
X17550000Y-9200000D03*
X17300000Y-8400000D03*
X17460000Y-6620000D03*
X17740000Y-8550000D03*
X17500000Y-7100000D03*
X17610000Y-8110000D03*
X15530000Y-6025000D03*
X18070000Y-9300000D03*
X17740000Y-8850000D03*
X17890000Y-6850000D03*
X15470000Y-7250000D03*
X17550000Y-8020000D03*
X18430000Y-6230000D03*
X15980000Y-8010000D03*
X17410000Y-7260000D03*
X17490000Y-7710000D03*
X17740000Y-8460000D03*
X16070000Y-6630000D03*
X14930000Y-6410000D03*
X16363000Y-8358000D03*
X17420000Y-7050000D03*
X17580000Y-6530000D03*
X18130000Y-8720000D03*
X15750000Y-8700000D03*
X13730000Y-6210000D03*
X17740000Y-8330000D03*
X17750000Y-9250000D03*
X17670000Y-8400000D03*
X18060000Y-6790000D03*
X17840000Y-6280000D03*
X17740000Y-8650000D03*
X13860000Y-7080000D03*
X17700000Y-6490000D03*
X17750000Y-7260000D03*
X17960000Y-9020000D03*
X17670000Y-7310000D03*
X17280000Y-7260000D03*
X13970000Y-6370000D03*
X17410000Y-8560000D03*
X17410000Y-8950000D03*
X17948185Y-6539732D03*
X18220000Y-6230000D03*
X15780000Y-7750000D03*
X14500000Y-6955000D03*
X18320000Y-7090000D03*
X15600000Y-8900000D03*
X17420000Y-6950000D03*
X13850000Y-6210000D03*
X17600000Y-7490000D03*
X17900000Y-8960000D03*
X17540000Y-8120000D03*
X13600000Y-6210000D03*
X14245000Y-7190000D03*
X17490000Y-7630000D03*
X15780000Y-7950000D03*
X17500000Y-7200000D03*
X17480000Y-9100000D03*
X17410000Y-8650000D03*
X17480000Y-8510000D03*
X16730000Y-9475000D03*
X14160000Y-6760000D03*
X17420000Y-6850000D03*
X15430000Y-6025000D03*
X15877500Y-6382500D03*
X14150000Y-6530000D03*
X17720000Y-7380000D03*
X17075000Y-7265000D03*
X15450000Y-8800000D03*
X17890000Y-6390000D03*
X14020000Y-6530000D03*
X15980000Y-6200000D03*
X18040000Y-9435000D03*
X17145000Y-7335000D03*
X15470000Y-6595000D03*
X15730000Y-6200000D03*
X17990000Y-9540000D03*
X17840000Y-9270000D03*
X15620000Y-6220000D03*
X17670000Y-7200000D03*
X15780000Y-7850000D03*
X16500000Y-8600000D03*
X17320000Y-7740000D03*
X18000000Y-6850000D03*
X14450000Y-6300000D03*
X17750000Y-6950000D03*
D47*
X16255000Y-7527500D03*
D46*
X15450000Y-8900000D03*
X17930000Y-9460000D03*
X16150000Y-8750000D03*
X17850000Y-9040000D03*
X17480000Y-9000000D03*
X17215000Y-7405000D03*
X15980000Y-7710000D03*
X17480000Y-6510000D03*
X17480000Y-8900000D03*
X17970000Y-9370000D03*
X17670000Y-8600000D03*
X17410000Y-8750000D03*
X18060000Y-6520000D03*
X18210000Y-9580000D03*
D47*
X16325000Y-7457500D03*
D46*
X16250000Y-8750000D03*
X17300000Y-8490000D03*
X17500000Y-6700000D03*
X16730000Y-9590000D03*
X18000000Y-6470000D03*
X14505000Y-8150000D03*
X17670000Y-8700000D03*
X16835000Y-8810000D03*
X17750000Y-7150000D03*
X17670000Y-8900000D03*
X18200000Y-7090000D03*
X15980000Y-7110000D03*
X16830339Y-8720000D03*
X17640000Y-9240000D03*
X13970000Y-7530000D03*
X17950000Y-9280000D03*
X15980000Y-7510000D03*
X17500000Y-6900000D03*
X16050000Y-8700000D03*
X17670000Y-7100000D03*
X15980000Y-7910000D03*
X16100000Y-6350000D03*
X13600000Y-7080000D03*
X17860000Y-8850000D03*
X17980000Y-6230000D03*
X17460000Y-7800000D03*
X18020000Y-7040000D03*
X17400000Y-8460000D03*
X15260000Y-6420000D03*
X15560000Y-6550000D03*
X18040000Y-6370000D03*
D47*
X16185000Y-7597500D03*
D46*
X17960000Y-6320000D03*
X17700000Y-9320000D03*
X17397000Y-9480000D03*
X16450000Y-8750000D03*
X17670000Y-6730000D03*
X17750000Y-8960000D03*
X17460000Y-9190000D03*
X17470000Y-8420000D03*
X14725000Y-6305000D03*
X15210000Y-6080000D03*
X16080000Y-6730000D03*
X15980000Y-7810000D03*
X17680000Y-7490000D03*
X18043355Y-8867601D03*
X14800000Y-9000000D03*
X15750000Y-8850000D03*
X18090000Y-9580000D03*
X14610000Y-6955000D03*
X18070000Y-9020000D03*
X14030000Y-6760000D03*
X17397000Y-9585000D03*
X17670000Y-8500000D03*
X17750000Y-9050000D03*
X14315000Y-6340000D03*
X15767500Y-6907500D03*
X17960000Y-8810000D03*
X17550000Y-6600000D03*
X17600000Y-7870000D03*
X17900000Y-6480000D03*
X17670000Y-9000000D03*
X16965000Y-8545000D03*
X17024412Y-8494519D03*
X14800000Y-9150000D03*
X17460000Y-8000000D03*
X18430000Y-8720000D03*
X18420000Y-9580000D03*
X17670000Y-6800000D03*
X15780000Y-7550000D03*
X18020000Y-8720000D03*
X17400000Y-9050000D03*
X16192000Y-7957657D03*
X15627500Y-6380000D03*
X14280000Y-6530000D03*
X15980000Y-7310000D03*
X17850000Y-6550000D03*
X17650000Y-7410000D03*
X17420000Y-6750000D03*
X17790000Y-6830000D03*
X17670000Y-8800000D03*
X17140000Y-8390000D03*
X15980000Y-7210000D03*
%TO.N,3V3*%
X14317500Y-6110000D03*
X14215000Y-6107500D03*
X16910000Y-9660000D03*
X17162000Y-9595000D03*
X14125000Y-9680000D03*
X17227000Y-9660000D03*
X14720000Y-8415000D03*
X16970000Y-9590000D03*
X15072500Y-8005000D03*
%TO.N,Net-(U2-VTUNE)*%
X16563750Y-7558750D03*
X16900000Y-9007500D03*
%TO.N,3V3_PLL*%
X16444000Y-7687000D03*
X16890000Y-8320000D03*
X16982500Y-8235000D03*
X16911000Y-9184000D03*
X16521000Y-8199000D03*
X17144000Y-7562000D03*
%TO.N,3V3_PLL_RF*%
X17227000Y-9179000D03*
X17355519Y-7813902D03*
%TO.N,3V3_OSC*%
X15625000Y-6477500D03*
X14610000Y-6714000D03*
X15151000Y-6248000D03*
X14592000Y-6179000D03*
X15352000Y-6178000D03*
%TO.N,Net-(C31-Pad2)*%
X15610000Y-7300000D03*
X14939872Y-6520000D03*
%TO.N,Net-(D2-A)*%
X13960000Y-9570000D03*
%TO.N,/controller/TXD0*%
X14440000Y-8590000D03*
%TO.N,/controller/RXD0*%
X14440000Y-8475000D03*
%TO.N,Net-(U2-SYNC)*%
X16015000Y-8145000D03*
%TO.N,/controller/lmx2572.ce*%
X16085000Y-7770000D03*
%TO.N,/controller/i2c0.scl*%
X15500000Y-7157500D03*
%TO.N,/controller/i2c0.sda*%
X14650000Y-7043000D03*
%TO.N,/controller/lmx2572.sdi*%
X17145000Y-8165000D03*
%TO.N,/controller/lmx2572.muxout*%
X17310000Y-7995000D03*
%TO.N,/controller/lmx2572.csb*%
X17107259Y-7656350D03*
%TO.N,/controller/ref_clk_select*%
X15512500Y-6659100D03*
X14665000Y-6240000D03*
%TO.N,/controller/lmx2572.rampclk*%
X16840000Y-7400000D03*
%TO.N,/controller/lmx2572.rampdir*%
X16630000Y-7330000D03*
%TO.N,/controller/lmx2572.sck*%
X17087883Y-8205469D03*
%TO.N,/controller/lmx2572.sysreffreq*%
X16975000Y-7505000D03*
%TO.N,/J6_5V_EXT*%
X13790000Y-7190000D03*
X13812500Y-8840000D03*
%TD*%
D10*
%TO.N,GND*%
X16471195Y-7971317D02*
X16552512Y-7890000D01*
X16781729Y-7552760D02*
X16794793Y-7565825D01*
X16795540Y-7565825D02*
X16795540Y-7713299D01*
D48*
X17168941Y-7451059D02*
X17215000Y-7405000D01*
X18042500Y-9432500D02*
X18040000Y-9435000D01*
X15810000Y-6382000D02*
X15877000Y-6382000D01*
X17028941Y-7311059D02*
X17075000Y-7265000D01*
X14212500Y-6340000D02*
X14213000Y-6339500D01*
D49*
X15877000Y-6382000D02*
X15877500Y-6382500D01*
D48*
X14610000Y-6888000D02*
X14610000Y-6955000D01*
X16521059Y-7373559D02*
X16465000Y-7317500D01*
X17320000Y-9590000D02*
X17392000Y-9590000D01*
D10*
X15170000Y-7459000D02*
X15242000Y-7459000D01*
D48*
X15330000Y-7250000D02*
X15470000Y-7250000D01*
X14213000Y-6339500D02*
X14213000Y-6270000D01*
D10*
X16612617Y-8112738D02*
X16800000Y-7925355D01*
X16794793Y-7565825D02*
X16795540Y-7565825D01*
D48*
X15530000Y-6082000D02*
X15530000Y-6025000D01*
X15330000Y-7250000D02*
X15330000Y-7405000D01*
D50*
X15740000Y-6880000D02*
X15767500Y-6907500D01*
X15470000Y-6520000D02*
X15470000Y-6595000D01*
D48*
X16381059Y-7513559D02*
X16325000Y-7457500D01*
X16311059Y-7583559D02*
X16255000Y-7527500D01*
X16363000Y-8358000D02*
X16365000Y-8358000D01*
X16889000Y-8720000D02*
X16830339Y-8720000D01*
X15207000Y-6077000D02*
X15210000Y-6080000D01*
X18043456Y-8867500D02*
X18043355Y-8867601D01*
X16812000Y-9475000D02*
X16730000Y-9475000D01*
X17024412Y-8494519D02*
X16998941Y-8469048D01*
X16241059Y-7653559D02*
X16185000Y-7597500D01*
X18035000Y-6932516D02*
X18270984Y-6932516D01*
X18040000Y-9435000D02*
X18268500Y-9435000D01*
X14315000Y-6337500D02*
X14316000Y-6336500D01*
X16365000Y-8358000D02*
X16406059Y-8316941D01*
X15150000Y-6077000D02*
X15207000Y-6077000D01*
D10*
X16916672Y-8183449D02*
X16800000Y-8066776D01*
D48*
X14316000Y-6336500D02*
X14316000Y-6270000D01*
X17392000Y-9590000D02*
X17397000Y-9585000D01*
X14500000Y-6888000D02*
X14500000Y-6955000D01*
D10*
X16474521Y-7882719D02*
X16626120Y-7882719D01*
D48*
X14054000Y-7750000D02*
X14054000Y-7623000D01*
X13967500Y-6932500D02*
X13735000Y-6932500D01*
X17098941Y-7381059D02*
X17145000Y-7335000D01*
X15430000Y-6082000D02*
X15430000Y-6025000D01*
X16923941Y-8503941D02*
X16965000Y-8545000D01*
X17093941Y-8343941D02*
X17140000Y-8390000D01*
D10*
X16435840Y-7844038D02*
X16474521Y-7882719D01*
D48*
X17320000Y-9480000D02*
X17397000Y-9480000D01*
X16998941Y-8469048D02*
X16998941Y-8428941D01*
D10*
X16647972Y-7631906D02*
X16710197Y-7694131D01*
D48*
X18042500Y-6367500D02*
X18271000Y-6367500D01*
X15700000Y-6380000D02*
X15627500Y-6380000D01*
X14315000Y-6340000D02*
X14315000Y-6337500D01*
D10*
X17022738Y-7702617D02*
X16835355Y-7890000D01*
X16951536Y-8148094D02*
X16889802Y-8086360D01*
D48*
X17453000Y-7900000D02*
X17525000Y-7900000D01*
X18043355Y-8867601D02*
X18270899Y-8867601D01*
D10*
X15242000Y-7459000D02*
X15243000Y-7460000D01*
D48*
X17093941Y-8338934D02*
X17173938Y-8258938D01*
D49*
X16153938Y-8543938D02*
X16153938Y-8493562D01*
X16153938Y-8493562D02*
X16155000Y-8492500D01*
D10*
X16754808Y-7525840D02*
X16781729Y-7552760D01*
D48*
X16451059Y-7443559D02*
X16395000Y-7387500D01*
X16067875Y-7900000D02*
X16000000Y-7900000D01*
X14820000Y-6305000D02*
X14725000Y-6305000D01*
D50*
X15740000Y-6827950D02*
X15740000Y-6880000D01*
D48*
X14178000Y-7190000D02*
X14245000Y-7190000D01*
X16812000Y-9590000D02*
X16730000Y-9590000D01*
X17097000Y-8610000D02*
X17020000Y-8610000D01*
D10*
X16471195Y-7808683D02*
X16529689Y-7867177D01*
D48*
X18040000Y-6370000D02*
X18042500Y-6367500D01*
X16902000Y-8810000D02*
X16835000Y-8810000D01*
D10*
X16541906Y-8042028D02*
X16604131Y-7979802D01*
D50*
X15470000Y-6595000D02*
X15470000Y-6595000D01*
D48*
X16225199Y-7990856D02*
X16225199Y-8045199D01*
X16192000Y-7957657D02*
X16225199Y-7990856D01*
X13970000Y-6370000D02*
X13737500Y-6370000D01*
D49*
%TO.N,5V0_EXT*%
X14082000Y-7190000D02*
X13958500Y-7190000D01*
X14080000Y-7370000D02*
X14080000Y-7192000D01*
D10*
%TO.N,Net-(U2-CPOUT)*%
X16881317Y-8218805D02*
X17193000Y-8530488D01*
X17193000Y-8610000D02*
X17193000Y-8710000D01*
X17193000Y-8710000D02*
X17193000Y-8807000D01*
X17193000Y-8530488D02*
X17193000Y-8610000D01*
D48*
%TO.N,3V3*%
X14316000Y-6111500D02*
X14317500Y-6110000D01*
X17224000Y-9480000D02*
X17224000Y-9590000D01*
X14213000Y-6174000D02*
X14213000Y-6109500D01*
D51*
X17227000Y-9364500D02*
X17227000Y-9477000D01*
D48*
X14316000Y-6174000D02*
X14409500Y-6174000D01*
X17162000Y-9595000D02*
X17219000Y-9595000D01*
X14316000Y-6174000D02*
X14316000Y-6111500D01*
X14308000Y-7750000D02*
X14308000Y-7623000D01*
X14213000Y-6174000D02*
X14316000Y-6174000D01*
X16970000Y-9590000D02*
X16908000Y-9590000D01*
X14213000Y-6109500D02*
X14215000Y-6107500D01*
D51*
X16911000Y-9361500D02*
X16911000Y-9472000D01*
D48*
X16908000Y-9658000D02*
X16910000Y-9660000D01*
X17224000Y-9657000D02*
X17227000Y-9660000D01*
X16908000Y-9475000D02*
X16908000Y-9590000D01*
X16908000Y-9590000D02*
X16908000Y-9658000D01*
X17224000Y-9590000D02*
X17224000Y-9657000D01*
D10*
%TO.N,Net-(C25-Pad2)*%
X17097000Y-8710000D02*
X17001000Y-8710000D01*
%TO.N,Net-(C26-Pad1)*%
X17001000Y-8910000D02*
X17001000Y-8813000D01*
X17094000Y-8810000D02*
X16998000Y-8810000D01*
%TO.N,Net-(U2-VTUNE)*%
X16563750Y-7558750D02*
X16573636Y-7568636D01*
X16807500Y-9100000D02*
X16670000Y-9100000D01*
X16573636Y-7568636D02*
X16573636Y-7628281D01*
X16518941Y-7513941D02*
X16563750Y-7558750D01*
X16573636Y-7628281D02*
X16612617Y-7667261D01*
D48*
X16899000Y-9006500D02*
X16900000Y-9007500D01*
X16899000Y-8910000D02*
X16899000Y-9006500D01*
D10*
X16900000Y-9007500D02*
X16807500Y-9100000D01*
%TO.N,Net-(U2-VREGIN)*%
X16856059Y-8436059D02*
X16740000Y-8320000D01*
X16740000Y-8320000D02*
X16740000Y-8268198D01*
%TO.N,Net-(U2-VREFVCO)*%
X16458586Y-7583941D02*
X16577261Y-7702617D01*
%TO.N,3V3_PLL*%
X16982500Y-8235000D02*
X17026059Y-8191441D01*
X17026059Y-8191441D02*
X17026059Y-8151414D01*
X16438000Y-7687000D02*
X16444000Y-7687000D01*
D51*
X17101059Y-7519059D02*
X17144000Y-7562000D01*
D49*
X16412000Y-7687000D02*
X16378941Y-7653941D01*
D10*
X16987383Y-8112738D02*
X17026059Y-8151414D01*
D48*
X16985000Y-8235000D02*
X17026059Y-8276059D01*
D10*
X16845962Y-8275962D02*
X16890000Y-8320000D01*
X16845962Y-8254160D02*
X16845962Y-8275962D01*
X16521000Y-8199000D02*
X16597065Y-8199000D01*
D51*
X16911000Y-9264500D02*
X16911000Y-9184000D01*
D10*
X16597065Y-8199000D02*
X16647972Y-8148094D01*
D48*
X16982500Y-8235000D02*
X16985000Y-8235000D01*
D49*
X16444000Y-7687000D02*
X16412000Y-7687000D01*
D10*
X17101059Y-7553585D02*
X17101059Y-7518941D01*
D48*
X16521000Y-8199000D02*
X16473941Y-8246059D01*
D10*
X16541906Y-7737972D02*
X16490934Y-7687000D01*
X16490934Y-7687000D02*
X16438000Y-7687000D01*
D48*
X16890000Y-8320000D02*
X16931059Y-8361059D01*
D10*
X16987383Y-7667261D02*
X17101059Y-7553585D01*
%TO.N,Net-(U2-VREGVCO)*%
X16478223Y-7745000D02*
X16506550Y-7773327D01*
X16449884Y-7745000D02*
X16478223Y-7745000D01*
X16308941Y-7723941D02*
X16350000Y-7765000D01*
X16350000Y-7765000D02*
X16429884Y-7765000D01*
X16429884Y-7765000D02*
X16449884Y-7745000D01*
%TO.N,Net-(U2-VREFVCO2)*%
X16961059Y-7378941D02*
X16906114Y-7433886D01*
D52*
X16906114Y-7536398D02*
X16881317Y-7561195D01*
D10*
X16906114Y-7433886D02*
X16906114Y-7536398D01*
%TO.N,Net-(U2-VBIASVCO)*%
X16506550Y-8006672D02*
X16358422Y-8154801D01*
%TO.N,3V3_PLL_RF*%
X17220122Y-7900000D02*
X17164160Y-7844038D01*
D51*
X17227000Y-9267500D02*
X17227000Y-9179000D01*
D48*
X17357000Y-7900000D02*
X17357000Y-7815383D01*
D10*
X17357000Y-7900000D02*
X17220122Y-7900000D01*
D48*
X17357000Y-7815383D02*
X17355519Y-7813902D01*
D10*
%TO.N,Net-(U2-VBIASVCO2)*%
X16952028Y-7631906D02*
X17031059Y-7552874D01*
X17031059Y-7552874D02*
X17031059Y-7448941D01*
%TO.N,Net-(U2-OSCINP)*%
X16414859Y-8466059D02*
X16363941Y-8466059D01*
X16630033Y-8250886D02*
X16414859Y-8466059D01*
X16683327Y-8183449D02*
X16630033Y-8236743D01*
X16630033Y-8236743D02*
X16630033Y-8250886D01*
%TO.N,Net-(U2-OSCINM)*%
X16433941Y-8503546D02*
X16433941Y-8536059D01*
X16718682Y-8218804D02*
X16433941Y-8503546D01*
%TO.N,Net-(U2-VBIASVARAC)*%
X16625000Y-7538223D02*
X16683327Y-7596550D01*
X16625000Y-7538223D02*
X16625000Y-7480000D01*
X16625000Y-7480000D02*
X16588941Y-7443941D01*
%TO.N,/lmx2572_rf_pll_synth/rf_out_a_n*%
X17348941Y-7463184D02*
X17411062Y-7401062D01*
%TO.N,Net-(U2-RFOUTAP)*%
X17281059Y-7585717D02*
X17281059Y-7543941D01*
X17093449Y-7773327D02*
X17281059Y-7585717D01*
%TO.N,Net-(U2-RFOUTAM)*%
X17323546Y-7613941D02*
X17356059Y-7613941D01*
X17128804Y-7808682D02*
X17323546Y-7613941D01*
D53*
%TO.N,/lmx2572_rf_pll_synth/rf_out_a_p*%
X17580000Y-7298076D02*
X17580000Y-6740000D01*
X17423941Y-7546059D02*
X17515000Y-7455000D01*
X17670000Y-6650000D02*
X18296000Y-6650000D01*
X17580000Y-6740000D02*
G75*
G02*
X17670000Y-6650000I90000J0D01*
G01*
X17515000Y-7455000D02*
G75*
G03*
X17579998Y-7298076I-156920J156920D01*
G01*
D49*
%TO.N,/lmx2572_rf_pll_synth/rf_out_b_n*%
X17246062Y-8326820D02*
X17313941Y-8258941D01*
D10*
%TO.N,Net-(U2-RFOUTBM)*%
X17093449Y-8006672D02*
X17246059Y-8159282D01*
X17246059Y-8159282D02*
X17246059Y-8191059D01*
D53*
%TO.N,/lmx2572_rf_pll_synth/rf_out_b_p*%
X17662500Y-9150000D02*
X18296000Y-9150000D01*
X17378941Y-8193941D02*
X17497500Y-8312500D01*
X17575000Y-8499602D02*
X17575000Y-9062500D01*
X17497500Y-8312500D02*
G75*
G02*
X17574999Y-8499602I-187100J-187100D01*
G01*
X17575000Y-9062500D02*
G75*
G03*
X17662500Y-9150000I87500J0D01*
G01*
D10*
%TO.N,Net-(U2-RFOUTBP)*%
X17128804Y-7971317D02*
X17283546Y-8126059D01*
X17283546Y-8126059D02*
X17311059Y-8126059D01*
X17283546Y-8126059D02*
X17316059Y-8126059D01*
D48*
%TO.N,VBUS*%
X13800000Y-7750000D02*
X13800000Y-7623000D01*
D54*
X13800000Y-7623000D02*
X13800000Y-7370000D01*
D49*
%TO.N,3V3_OSC*%
X15150000Y-6247000D02*
X15151000Y-6248000D01*
D50*
X15430000Y-6178000D02*
X15352000Y-6178000D01*
D48*
X14610000Y-6792000D02*
X14792000Y-6792000D01*
D49*
X15700000Y-6476000D02*
X15808000Y-6476000D01*
D50*
X15700000Y-6622210D02*
X15700000Y-6476000D01*
D49*
X15430000Y-6178000D02*
X15530000Y-6178000D01*
D48*
X14610000Y-6792000D02*
X14610000Y-6714000D01*
D50*
X15430000Y-6314260D02*
X15430000Y-6178000D01*
D51*
X14592000Y-6179000D02*
X14511500Y-6179000D01*
D48*
X14610000Y-6792000D02*
X14500000Y-6792000D01*
X15698500Y-6477500D02*
X15625500Y-6477500D01*
D49*
X15010000Y-6175000D02*
X15148000Y-6175000D01*
X15150000Y-6173000D02*
X15150000Y-6247000D01*
%TO.N,/ref_osc/clk_ext*%
X14782000Y-6520000D02*
X14482070Y-6520000D01*
X14375000Y-6650000D02*
X13710000Y-6650000D01*
X14435000Y-6590000D02*
X14435000Y-6567070D01*
X14482070Y-6520000D02*
G75*
G03*
X14435000Y-6567070I0J-47070D01*
G01*
X14435000Y-6590000D02*
G75*
G02*
X14375000Y-6650000I-60000J0D01*
G01*
%TO.N,Net-(C31-Pad2)*%
X15700000Y-7298500D02*
X15611500Y-7298500D01*
X15009000Y-6520000D02*
X14939872Y-6520000D01*
X14939872Y-6520000D02*
X14878000Y-6520000D01*
X15611500Y-7298500D02*
X15610000Y-7300000D01*
D10*
%TO.N,Net-(D2-A)*%
X13958750Y-9571250D02*
X13960000Y-9570000D01*
X13958750Y-9680000D02*
X13958750Y-9571250D01*
D49*
%TO.N,/controller/LED0*%
X13800000Y-9401000D02*
X13800000Y-9678750D01*
D10*
%TO.N,/controller/TXD0*%
X15324000Y-8869000D02*
X15324000Y-9274000D01*
X14440000Y-8590000D02*
X15045000Y-8590000D01*
X15045000Y-8590000D02*
X15324000Y-8869000D01*
X15324000Y-9274000D02*
X15324000Y-9401000D01*
%TO.N,/controller/RXD0*%
X15324000Y-7750000D02*
X15324000Y-8246000D01*
X15095000Y-8475000D02*
X14440000Y-8475000D01*
X15324000Y-7750000D02*
X15324000Y-7623000D01*
X15324000Y-8246000D02*
X15095000Y-8475000D01*
D49*
%TO.N,/lmx2572_rf_pll_synth/REF_OSC_N*%
X16296059Y-8546066D02*
X16226062Y-8616062D01*
D53*
%TO.N,/lmx2572_rf_pll_synth/REF_OSC_P*%
X16366059Y-8603941D02*
X16366059Y-8746441D01*
X15879000Y-7010000D02*
X15879000Y-6730000D01*
X15879000Y-8721500D02*
X15879000Y-7010000D01*
X16252500Y-8860000D02*
X16017500Y-8860000D01*
D10*
X16150000Y-7010000D02*
X15879000Y-7010000D01*
D53*
X16017500Y-8860000D02*
G75*
G02*
X15879000Y-8721500I0J138500D01*
G01*
X16366059Y-8746441D02*
G75*
G02*
X16252500Y-8859999I-113559J1D01*
G01*
D10*
%TO.N,Net-(U2-SYNC)*%
X16015000Y-8145000D02*
X16150000Y-8280000D01*
X16150000Y-8280000D02*
X16340000Y-8280000D01*
X16340000Y-8280000D02*
X16485356Y-8134644D01*
X16520000Y-8134644D02*
X16577261Y-8077383D01*
X16485356Y-8134644D02*
X16520000Y-8134644D01*
%TO.N,/controller/lmx2572.ce*%
X16396802Y-7975000D02*
X16435840Y-7935962D01*
X16146062Y-7833938D02*
X16287125Y-7975000D01*
X16287125Y-7975000D02*
X16396802Y-7975000D01*
X16085000Y-7770000D02*
X16146062Y-7831062D01*
%TO.N,/controller/i2c0.scl*%
X15500000Y-7157500D02*
X15382500Y-7040000D01*
%TO.N,/controller/i2c0.sda*%
X14650000Y-7043000D02*
X14792000Y-7043000D01*
D49*
%TO.N,/controller/ref_clk_en*%
X15070000Y-7750000D02*
X15070000Y-7623000D01*
D10*
X15070000Y-7623000D02*
X15070000Y-7260000D01*
D50*
%TO.N,Net-(U7-FIN)*%
X15390000Y-6520000D02*
X15111000Y-6520000D01*
%TO.N,Net-(U6-CLK0)*%
X15879000Y-6620000D02*
X15742210Y-6620000D01*
D49*
%TO.N,Net-(R23-Pad1)*%
X15700000Y-7091000D02*
X15700000Y-7196500D01*
D10*
%TO.N,Net-(R22-Pad1)*%
X15981000Y-6420000D02*
X15981000Y-6620000D01*
D49*
X15981000Y-6730000D02*
X15981000Y-6620000D01*
D50*
%TO.N,Net-(U6-CLK1)*%
X15700000Y-6827950D02*
X15700000Y-6989000D01*
%TO.N,Net-(U7-CLK0)*%
X15470000Y-6314260D02*
X15984740Y-6314260D01*
D10*
%TO.N,/controller/lmx2572.sdi*%
X17145000Y-8128934D02*
X17145000Y-8165000D01*
X17058094Y-8042028D02*
X17145000Y-8128934D01*
%TO.N,/controller/lmx2572.muxout*%
X17222198Y-7994000D02*
X17309000Y-7994000D01*
X17309000Y-7994000D02*
X17310000Y-7995000D01*
X17164160Y-7935962D02*
X17222198Y-7994000D01*
%TO.N,/controller/lmx2572.csb*%
X17107282Y-7656404D02*
X17107259Y-7656350D01*
X14816000Y-9274000D02*
X14816000Y-9401000D01*
X17107282Y-7687519D02*
X17107282Y-7656404D01*
X17105000Y-7690000D02*
X17107282Y-7687519D01*
X17058847Y-7736153D02*
X17105000Y-7690000D01*
D50*
%TO.N,/controller/ref_clk_select*%
X15512500Y-6659100D02*
X15549390Y-6622210D01*
X14665000Y-6240000D02*
X14820000Y-6240000D01*
D49*
X14816000Y-7750000D02*
X14816000Y-7623000D01*
D50*
X15549390Y-6622210D02*
X15660000Y-6622210D01*
D10*
%TO.N,/controller/lmx2572.rampclk*%
X16860000Y-7420000D02*
X16840000Y-7400000D01*
X16860000Y-7511802D02*
X16860000Y-7420000D01*
%TO.N,/controller/lmx2572.rampdir*%
X16680000Y-7522513D02*
X16718682Y-7561195D01*
X16630000Y-7330000D02*
X16630000Y-7335000D01*
X16630000Y-7335000D02*
X16680000Y-7385000D01*
X16680000Y-7385000D02*
X16680000Y-7522513D01*
%TO.N,/controller/lmx2572.sck*%
X17090339Y-8195000D02*
X17090339Y-8203729D01*
X17022738Y-8077383D02*
X17089900Y-8144545D01*
X17089900Y-8144545D02*
X17089900Y-8182823D01*
X17090339Y-8195000D02*
X17090339Y-8199540D01*
X17090339Y-8183262D02*
X17090339Y-8195000D01*
X17089900Y-8182823D02*
X17090339Y-8183262D01*
X17090339Y-8199540D02*
G75*
G02*
X17087882Y-8205467I-8379J0D01*
G01*
%TO.N,/controller/lmx2572.sysreffreq*%
X16975688Y-7502202D02*
X16975688Y-7504312D01*
X16975688Y-7502202D02*
X16975688Y-7537567D01*
X16975688Y-7537567D02*
X16916704Y-7596550D01*
X16975688Y-7504312D02*
X16975000Y-7505000D01*
D50*
%TO.N,Net-(U5-CLK+)*%
X15610450Y-6827950D02*
X15610000Y-6827500D01*
D49*
X15610000Y-6827500D02*
X15332500Y-6827500D01*
D50*
X15660000Y-6827950D02*
X15610450Y-6827950D01*
%TO.N,Net-(U7-OE)*%
X15019260Y-6314260D02*
X15390000Y-6314260D01*
D51*
%TO.N,/J6_5V_EXT*%
X13812500Y-8840000D02*
X13650000Y-8677500D01*
X13705000Y-7190000D02*
X13861500Y-7190000D01*
X13650000Y-7245000D02*
X13705000Y-7190000D01*
X13650000Y-8677500D02*
X13650000Y-7245000D01*
%TD*%
%TA.AperFunction,Conductor*%
%TO.N,GND*%
G36*
X14586882Y-5900378D02*
G01*
X14593301Y-5902204D01*
X14604644Y-5905432D01*
X14642457Y-5912500D01*
X14642458Y-5912500D01*
X14642459Y-5912500D01*
X14680765Y-5916050D01*
X14680765Y-5916050D01*
X17319235Y-5916050D01*
X17319235Y-5916050D01*
X17357541Y-5912500D01*
X17357542Y-5912500D01*
X17395356Y-5905432D01*
X17406699Y-5902204D01*
X17413118Y-5900378D01*
X17415827Y-5900000D01*
X18399514Y-5900000D01*
X18400484Y-5900048D01*
X18418539Y-5901826D01*
X18420442Y-5902204D01*
X18437336Y-5907329D01*
X18439128Y-5908071D01*
X18454697Y-5916393D01*
X18456310Y-5917471D01*
X18465877Y-5925322D01*
X18469957Y-5928671D01*
X18471329Y-5930043D01*
X18481703Y-5942683D01*
X18483933Y-5948381D01*
X18483950Y-5948964D01*
X18483950Y-6312116D01*
X18482059Y-6317935D01*
X18477109Y-6321531D01*
X18474076Y-6322015D01*
X18100000Y-6323000D01*
X18100000Y-6553420D01*
X18098109Y-6559239D01*
X18093159Y-6562835D01*
X18091109Y-6563268D01*
X17689432Y-6604398D01*
X17688423Y-6604450D01*
X17659332Y-6604450D01*
X17638259Y-6607787D01*
X17617967Y-6614381D01*
X17598957Y-6624067D01*
X17581695Y-6636608D01*
X17566608Y-6651695D01*
X17554067Y-6668956D01*
X17544381Y-6687967D01*
X17537788Y-6708259D01*
X17534450Y-6729332D01*
X17534450Y-6729332D01*
X17534450Y-6734003D01*
X17534450Y-7292080D01*
X17534450Y-7292080D01*
X17534450Y-7294179D01*
X17534450Y-7295636D01*
X17534450Y-7297753D01*
X17534429Y-7298400D01*
X17532984Y-7320450D01*
X17532815Y-7321734D01*
X17528567Y-7343090D01*
X17528232Y-7344341D01*
X17521234Y-7364958D01*
X17520738Y-7366154D01*
X17511108Y-7385682D01*
X17510461Y-7386804D01*
X17498364Y-7404907D01*
X17497576Y-7405935D01*
X17496239Y-7407460D01*
X17494349Y-7409615D01*
X17489090Y-7412743D01*
X17482997Y-7412183D01*
X17478397Y-7408149D01*
X17477047Y-7402182D01*
X17477116Y-7401615D01*
X17477732Y-7397527D01*
X17475775Y-7384545D01*
X17470079Y-7372717D01*
X17468194Y-7370442D01*
X17468193Y-7370441D01*
X17468192Y-7370440D01*
X17441683Y-7343931D01*
X17441682Y-7343930D01*
X17439408Y-7342046D01*
X17427580Y-7336350D01*
X17414598Y-7334393D01*
X17414598Y-7334393D01*
X17401616Y-7336350D01*
X17389788Y-7342046D01*
X17387512Y-7343931D01*
X17353932Y-7377512D01*
X17353931Y-7377513D01*
X17352046Y-7379788D01*
X17352046Y-7379788D01*
X17346350Y-7391616D01*
X17344656Y-7402856D01*
X17341919Y-7408329D01*
X17336488Y-7411147D01*
X17336342Y-7411170D01*
X17333689Y-7411570D01*
X17333689Y-7411570D01*
X17321725Y-7417331D01*
X17319424Y-7419238D01*
X17292120Y-7446542D01*
X17290214Y-7448843D01*
X17284452Y-7460807D01*
X17284452Y-7460807D01*
X17283099Y-7469785D01*
X17280362Y-7475257D01*
X17274931Y-7478076D01*
X17274785Y-7478099D01*
X17265807Y-7479452D01*
X17265807Y-7479452D01*
X17253843Y-7485214D01*
X17251542Y-7487120D01*
X17224238Y-7514424D01*
X17222332Y-7516725D01*
X17216570Y-7528689D01*
X17216570Y-7528689D01*
X17214820Y-7540298D01*
X17212083Y-7545771D01*
X17206653Y-7548589D01*
X17200602Y-7547677D01*
X17196244Y-7543383D01*
X17196120Y-7543136D01*
X17195711Y-7542292D01*
X17195298Y-7540751D01*
X17193422Y-7537501D01*
X17188051Y-7528198D01*
X17176578Y-7516725D01*
X17164659Y-7504807D01*
X17162740Y-7502102D01*
X17160803Y-7498079D01*
X17159786Y-7495968D01*
X17157880Y-7493667D01*
X17126333Y-7462120D01*
X17124032Y-7460214D01*
X17123692Y-7460050D01*
X17112068Y-7454452D01*
X17112068Y-7454452D01*
X17104937Y-7453377D01*
X17099464Y-7450640D01*
X17096646Y-7445210D01*
X17096623Y-7445063D01*
X17095548Y-7437932D01*
X17095548Y-7437932D01*
X17093889Y-7434486D01*
X17089786Y-7425968D01*
X17087880Y-7423667D01*
X17056333Y-7392120D01*
X17054032Y-7390214D01*
X17052029Y-7389249D01*
X17042068Y-7384452D01*
X17042068Y-7384452D01*
X17034937Y-7383377D01*
X17029464Y-7380640D01*
X17026646Y-7375210D01*
X17026623Y-7375063D01*
X17025548Y-7367932D01*
X17025548Y-7367932D01*
X17023505Y-7363689D01*
X17019786Y-7355968D01*
X17017880Y-7353667D01*
X16986333Y-7322120D01*
X16984032Y-7320214D01*
X16984032Y-7320214D01*
X16972068Y-7314452D01*
X16972068Y-7314452D01*
X16958938Y-7312473D01*
X16958937Y-7312473D01*
X16945807Y-7314452D01*
X16945807Y-7314452D01*
X16933843Y-7320214D01*
X16931542Y-7322120D01*
X16904238Y-7349424D01*
X16902332Y-7351725D01*
X16897739Y-7361262D01*
X16893511Y-7365684D01*
X16887490Y-7366777D01*
X16881978Y-7364122D01*
X16881823Y-7363971D01*
X16873802Y-7355949D01*
X16873801Y-7355949D01*
X16873801Y-7355949D01*
X16861249Y-7348702D01*
X16861249Y-7348702D01*
X16858290Y-7347909D01*
X16847248Y-7344950D01*
X16832753Y-7344950D01*
X16826579Y-7346604D01*
X16818751Y-7348702D01*
X16806199Y-7355949D01*
X16795949Y-7366199D01*
X16788702Y-7378751D01*
X16785498Y-7390709D01*
X16784950Y-7392752D01*
X16784950Y-7407247D01*
X16787652Y-7417331D01*
X16788702Y-7421249D01*
X16795949Y-7433801D01*
X16795949Y-7433801D01*
X16795949Y-7433801D01*
X16806199Y-7444051D01*
X16815000Y-7449132D01*
X16819094Y-7453679D01*
X16819950Y-7457706D01*
X16819950Y-7487576D01*
X16818059Y-7493395D01*
X16817050Y-7494576D01*
X16791489Y-7520137D01*
X16791488Y-7520139D01*
X16789918Y-7522121D01*
X16789918Y-7522121D01*
X16785860Y-7532597D01*
X16785860Y-7544297D01*
X16783969Y-7550116D01*
X16779019Y-7553712D01*
X16772900Y-7553712D01*
X16768959Y-7551297D01*
X16724385Y-7506723D01*
X16724384Y-7506722D01*
X16724384Y-7506722D01*
X16724383Y-7506721D01*
X16723802Y-7506261D01*
X16720415Y-7501166D01*
X16720050Y-7498501D01*
X16720050Y-7379727D01*
X16719922Y-7379248D01*
X16719446Y-7377473D01*
X16717321Y-7369541D01*
X16713359Y-7362679D01*
X16712048Y-7360409D01*
X16704591Y-7352952D01*
X16704591Y-7352952D01*
X16704245Y-7352606D01*
X16704245Y-7352606D01*
X16687950Y-7336310D01*
X16685172Y-7330859D01*
X16685050Y-7329310D01*
X16685050Y-7322752D01*
X16684647Y-7321248D01*
X16681298Y-7308751D01*
X16681298Y-7308751D01*
X16681298Y-7308751D01*
X16674051Y-7296199D01*
X16674051Y-7296199D01*
X16674051Y-7296198D01*
X16663801Y-7285949D01*
X16663801Y-7285949D01*
X16663801Y-7285949D01*
X16651249Y-7278702D01*
X16651249Y-7278702D01*
X16644198Y-7276812D01*
X16637247Y-7274950D01*
X16622752Y-7274950D01*
X16616579Y-7276604D01*
X16608751Y-7278702D01*
X16596199Y-7285949D01*
X16585949Y-7296199D01*
X16578702Y-7308751D01*
X16575567Y-7320450D01*
X16574950Y-7322752D01*
X16574950Y-7337247D01*
X16576515Y-7343090D01*
X16578702Y-7351249D01*
X16586273Y-7364363D01*
X16586043Y-7364497D01*
X16587708Y-7369201D01*
X16585969Y-7375067D01*
X16581114Y-7378791D01*
X16579287Y-7379248D01*
X16577932Y-7379452D01*
X16577932Y-7379452D01*
X16565968Y-7385214D01*
X16563667Y-7387120D01*
X16532120Y-7418667D01*
X16530214Y-7420968D01*
X16524452Y-7432932D01*
X16524452Y-7432932D01*
X16523377Y-7440063D01*
X16520640Y-7445536D01*
X16515210Y-7448354D01*
X16515063Y-7448377D01*
X16507932Y-7449452D01*
X16507932Y-7449452D01*
X16495968Y-7455214D01*
X16493667Y-7457120D01*
X16462120Y-7488667D01*
X16460214Y-7490968D01*
X16454452Y-7502932D01*
X16454452Y-7502932D01*
X16453377Y-7510063D01*
X16450640Y-7515536D01*
X16445210Y-7518354D01*
X16445063Y-7518377D01*
X16437932Y-7519452D01*
X16437932Y-7519452D01*
X16425968Y-7525214D01*
X16423667Y-7527120D01*
X16392120Y-7558667D01*
X16390214Y-7560968D01*
X16384452Y-7572932D01*
X16384452Y-7572932D01*
X16383377Y-7580063D01*
X16380640Y-7585536D01*
X16375210Y-7588354D01*
X16375063Y-7588377D01*
X16367932Y-7589452D01*
X16367932Y-7589452D01*
X16355968Y-7595214D01*
X16353667Y-7597120D01*
X16322120Y-7628667D01*
X16320214Y-7630968D01*
X16314452Y-7642932D01*
X16314452Y-7642932D01*
X16313377Y-7650063D01*
X16310640Y-7655536D01*
X16305210Y-7658354D01*
X16305063Y-7658377D01*
X16297932Y-7659452D01*
X16297932Y-7659452D01*
X16285968Y-7665214D01*
X16283667Y-7667120D01*
X16252120Y-7698667D01*
X16250214Y-7700968D01*
X16244452Y-7712932D01*
X16244452Y-7712932D01*
X16242473Y-7726062D01*
X16242473Y-7726063D01*
X16244452Y-7739193D01*
X16244452Y-7739193D01*
X16249055Y-7748751D01*
X16250214Y-7751157D01*
X16252120Y-7753458D01*
X16279424Y-7780762D01*
X16281725Y-7782668D01*
X16291841Y-7787540D01*
X16293689Y-7788430D01*
X16293689Y-7788430D01*
X16306820Y-7790409D01*
X16306820Y-7790409D01*
X16312262Y-7789589D01*
X16318298Y-7790591D01*
X16319604Y-7791403D01*
X16320208Y-7791847D01*
X16325409Y-7797048D01*
X16333631Y-7801795D01*
X16334541Y-7802321D01*
X16344727Y-7805050D01*
X16344727Y-7805050D01*
X16344727Y-7805050D01*
X16355879Y-7805050D01*
X16355881Y-7805050D01*
X16435156Y-7805050D01*
X16435156Y-7805050D01*
X16445342Y-7802321D01*
X16445343Y-7802320D01*
X16445343Y-7802320D01*
X16454474Y-7797048D01*
X16454475Y-7797048D01*
X16454475Y-7797048D01*
X16454475Y-7797048D01*
X16455285Y-7796238D01*
X16460736Y-7793460D01*
X16466779Y-7794416D01*
X16469286Y-7796237D01*
X16485712Y-7812663D01*
X16500849Y-7827800D01*
X16502831Y-7829371D01*
X16513307Y-7833429D01*
X16513308Y-7833429D01*
X16524542Y-7833429D01*
X16524542Y-7833429D01*
X16535018Y-7829371D01*
X16537001Y-7827800D01*
X16561023Y-7803778D01*
X16562594Y-7801795D01*
X16563187Y-7800264D01*
X16567052Y-7795521D01*
X16568842Y-7794609D01*
X16570373Y-7794016D01*
X16572356Y-7792445D01*
X16596379Y-7768422D01*
X16597949Y-7766440D01*
X16598542Y-7764909D01*
X16602407Y-7760166D01*
X16604197Y-7759253D01*
X16605729Y-7758660D01*
X16607712Y-7757090D01*
X16631734Y-7733067D01*
X16633305Y-7731084D01*
X16633898Y-7729553D01*
X16637763Y-7724810D01*
X16639552Y-7723898D01*
X16641084Y-7723305D01*
X16643067Y-7721734D01*
X16667089Y-7697712D01*
X16668660Y-7695729D01*
X16672719Y-7685253D01*
X16672719Y-7674018D01*
X16669836Y-7666578D01*
X16669497Y-7660469D01*
X16672814Y-7655327D01*
X16678519Y-7653117D01*
X16682644Y-7653770D01*
X16690084Y-7656652D01*
X16690084Y-7656652D01*
X16701319Y-7656652D01*
X16701319Y-7656652D01*
X16711795Y-7652594D01*
X16713778Y-7651023D01*
X16737800Y-7627001D01*
X16739371Y-7625018D01*
X16739964Y-7623487D01*
X16743829Y-7618744D01*
X16745618Y-7617832D01*
X16747150Y-7617239D01*
X16749133Y-7615668D01*
X16773155Y-7591646D01*
X16774726Y-7589663D01*
X16778785Y-7579187D01*
X16778785Y-7567952D01*
X16778785Y-7567487D01*
X16780675Y-7561668D01*
X16785625Y-7558071D01*
X16791744Y-7558071D01*
X16795684Y-7560486D01*
X16815511Y-7580313D01*
X16817494Y-7581883D01*
X16819025Y-7582476D01*
X16823768Y-7586341D01*
X16824680Y-7588132D01*
X16825192Y-7589452D01*
X16825273Y-7589663D01*
X16826844Y-7591646D01*
X16850866Y-7615668D01*
X16852849Y-7617239D01*
X16854380Y-7617832D01*
X16859123Y-7621697D01*
X16860036Y-7623487D01*
X16860629Y-7625018D01*
X16860629Y-7625018D01*
X16862199Y-7627000D01*
X16862199Y-7627001D01*
X16886222Y-7651023D01*
X16888205Y-7652594D01*
X16889736Y-7653187D01*
X16894479Y-7657052D01*
X16895391Y-7658842D01*
X16895984Y-7660373D01*
X16895984Y-7660374D01*
X16895984Y-7660374D01*
X16896923Y-7661559D01*
X16897555Y-7662356D01*
X16921577Y-7686379D01*
X16923560Y-7687949D01*
X16925091Y-7688542D01*
X16929834Y-7692407D01*
X16930746Y-7694197D01*
X16931339Y-7695729D01*
X16931340Y-7695729D01*
X16932910Y-7697712D01*
X16956933Y-7721734D01*
X16958915Y-7723305D01*
X16969391Y-7727363D01*
X16969392Y-7727363D01*
X16980626Y-7727363D01*
X16980626Y-7727363D01*
X16988066Y-7724481D01*
X16994175Y-7724142D01*
X16999317Y-7727458D01*
X17001527Y-7733164D01*
X17000874Y-7737289D01*
X16997992Y-7744728D01*
X16997992Y-7755964D01*
X17002050Y-7766439D01*
X17002574Y-7767100D01*
X17003621Y-7768422D01*
X17027643Y-7792445D01*
X17029626Y-7794015D01*
X17031157Y-7794608D01*
X17035900Y-7798473D01*
X17036812Y-7800264D01*
X17037405Y-7801795D01*
X17037405Y-7801795D01*
X17038975Y-7803777D01*
X17038976Y-7803778D01*
X17062999Y-7827800D01*
X17064981Y-7829371D01*
X17066513Y-7829964D01*
X17071256Y-7833829D01*
X17072167Y-7835619D01*
X17072761Y-7837150D01*
X17072761Y-7837150D01*
X17072761Y-7837151D01*
X17073959Y-7838663D01*
X17074331Y-7839133D01*
X17098354Y-7863155D01*
X17100337Y-7864726D01*
X17101868Y-7865319D01*
X17106611Y-7869184D01*
X17107523Y-7870974D01*
X17108116Y-7872505D01*
X17108116Y-7872506D01*
X17109687Y-7874488D01*
X17116688Y-7881489D01*
X17118198Y-7882999D01*
X17120976Y-7888451D01*
X17120019Y-7894494D01*
X17118198Y-7897000D01*
X17109688Y-7905511D01*
X17109686Y-7905512D01*
X17108116Y-7907494D01*
X17108116Y-7907494D01*
X17107523Y-7909025D01*
X17103658Y-7913768D01*
X17101868Y-7914680D01*
X17100337Y-7915273D01*
X17100337Y-7915273D01*
X17098354Y-7916844D01*
X17074332Y-7940866D01*
X17074331Y-7940867D01*
X17072761Y-7942849D01*
X17072761Y-7942850D01*
X17072167Y-7944381D01*
X17068302Y-7949124D01*
X17066513Y-7950035D01*
X17064981Y-7950629D01*
X17062999Y-7952199D01*
X17038977Y-7976221D01*
X17038976Y-7976223D01*
X17037406Y-7978204D01*
X17037405Y-7978205D01*
X17036812Y-7979736D01*
X17032947Y-7984479D01*
X17031157Y-7985391D01*
X17029627Y-7985984D01*
X17029626Y-7985984D01*
X17027643Y-7987555D01*
X17003621Y-8011577D01*
X17003620Y-8011578D01*
X17002050Y-8013560D01*
X17001457Y-8015091D01*
X16997592Y-8019834D01*
X16995802Y-8020746D01*
X16994271Y-8021339D01*
X16994271Y-8021339D01*
X16992288Y-8022910D01*
X16968266Y-8046932D01*
X16968265Y-8046933D01*
X16966695Y-8048915D01*
X16966695Y-8048916D01*
X16966101Y-8050447D01*
X16962236Y-8055190D01*
X16960447Y-8056101D01*
X16958915Y-8056695D01*
X16956933Y-8058265D01*
X16932911Y-8082287D01*
X16932910Y-8082288D01*
X16931340Y-8084270D01*
X16931340Y-8084271D01*
X16927281Y-8094746D01*
X16927281Y-8105981D01*
X16931339Y-8116457D01*
X16931340Y-8116457D01*
X16932910Y-8118440D01*
X16956862Y-8142392D01*
X16978244Y-8163774D01*
X16981022Y-8169226D01*
X16980065Y-8175269D01*
X16975739Y-8179596D01*
X16973807Y-8180337D01*
X16961252Y-8183702D01*
X16961251Y-8183702D01*
X16961251Y-8183702D01*
X16948699Y-8190949D01*
X16948698Y-8190949D01*
X16938168Y-8201480D01*
X16932716Y-8204258D01*
X16926673Y-8203300D01*
X16924167Y-8201480D01*
X16887019Y-8164332D01*
X16887019Y-8164332D01*
X16887019Y-8164332D01*
X16887017Y-8164331D01*
X16885036Y-8162761D01*
X16885036Y-8162761D01*
X16879428Y-8160588D01*
X16874560Y-8158703D01*
X16874560Y-8158703D01*
X16863325Y-8158703D01*
X16863325Y-8158703D01*
X16852849Y-8162761D01*
X16850866Y-8164332D01*
X16826845Y-8188353D01*
X16826843Y-8188355D01*
X16825273Y-8190337D01*
X16825273Y-8190337D01*
X16824680Y-8191868D01*
X16820815Y-8196611D01*
X16819025Y-8197523D01*
X16817494Y-8198116D01*
X16817494Y-8198117D01*
X16815511Y-8199687D01*
X16807000Y-8208198D01*
X16801548Y-8210975D01*
X16795505Y-8210018D01*
X16793000Y-8208198D01*
X16784489Y-8199687D01*
X16784489Y-8199687D01*
X16782506Y-8198116D01*
X16780974Y-8197523D01*
X16776231Y-8193658D01*
X16775319Y-8191868D01*
X16774726Y-8190337D01*
X16773155Y-8188354D01*
X16749133Y-8164331D01*
X16748430Y-8163774D01*
X16747150Y-8162761D01*
X16747150Y-8162761D01*
X16745619Y-8162167D01*
X16740876Y-8158302D01*
X16739964Y-8156513D01*
X16739371Y-8154981D01*
X16737800Y-8152998D01*
X16713778Y-8128976D01*
X16712670Y-8128099D01*
X16711795Y-8127405D01*
X16711795Y-8127405D01*
X16710263Y-8126812D01*
X16705520Y-8122947D01*
X16704608Y-8121157D01*
X16704015Y-8119626D01*
X16704015Y-8119626D01*
X16702445Y-8117643D01*
X16678422Y-8093621D01*
X16676439Y-8092050D01*
X16671019Y-8089950D01*
X16665964Y-8087992D01*
X16665963Y-8087992D01*
X16654729Y-8087992D01*
X16654728Y-8087992D01*
X16647289Y-8090874D01*
X16641180Y-8091213D01*
X16636038Y-8087896D01*
X16633828Y-8082191D01*
X16634481Y-8078066D01*
X16634602Y-8077753D01*
X16637363Y-8070626D01*
X16637363Y-8059391D01*
X16633305Y-8048915D01*
X16631734Y-8046933D01*
X16607712Y-8022910D01*
X16605729Y-8021339D01*
X16600122Y-8019167D01*
X16595253Y-8017281D01*
X16595253Y-8017281D01*
X16584018Y-8017281D01*
X16584018Y-8017281D01*
X16576578Y-8020163D01*
X16570469Y-8020502D01*
X16565327Y-8017186D01*
X16563117Y-8011480D01*
X16563770Y-8007356D01*
X16564298Y-8005992D01*
X16566652Y-7999915D01*
X16566652Y-7988681D01*
X16562594Y-7978205D01*
X16561023Y-7976222D01*
X16537001Y-7952199D01*
X16535018Y-7950629D01*
X16529411Y-7948456D01*
X16524542Y-7946570D01*
X16524542Y-7946570D01*
X16513307Y-7946570D01*
X16513307Y-7946570D01*
X16513307Y-7946570D01*
X16505867Y-7949452D01*
X16499758Y-7949791D01*
X16494616Y-7946475D01*
X16492406Y-7940769D01*
X16493059Y-7936645D01*
X16495942Y-7929205D01*
X16495942Y-7917970D01*
X16491883Y-7907494D01*
X16490313Y-7905511D01*
X16466290Y-7881489D01*
X16464308Y-7879918D01*
X16458562Y-7877692D01*
X16453832Y-7875860D01*
X16453832Y-7875860D01*
X16442597Y-7875860D01*
X16442597Y-7875860D01*
X16432121Y-7879918D01*
X16430138Y-7881489D01*
X16381367Y-7930260D01*
X16381366Y-7930261D01*
X16380624Y-7931197D01*
X16375529Y-7934585D01*
X16372864Y-7934950D01*
X16307815Y-7934950D01*
X16301996Y-7933059D01*
X16300814Y-7932050D01*
X16215415Y-7846651D01*
X16212637Y-7841199D01*
X16212626Y-7838175D01*
X16212732Y-7837473D01*
X16210775Y-7824492D01*
X16205079Y-7812663D01*
X16203194Y-7810388D01*
X16194875Y-7802069D01*
X16169612Y-7776807D01*
X16169612Y-7776806D01*
X16167337Y-7774921D01*
X16167336Y-7774921D01*
X16155508Y-7769225D01*
X16155509Y-7769225D01*
X16147616Y-7768035D01*
X16142144Y-7765298D01*
X16139529Y-7760808D01*
X16139273Y-7759854D01*
X16136298Y-7748751D01*
X16133976Y-7744729D01*
X16129051Y-7736199D01*
X16129051Y-7736199D01*
X16129051Y-7736198D01*
X16118801Y-7725949D01*
X16118801Y-7725949D01*
X16118801Y-7725949D01*
X16106249Y-7718702D01*
X16106249Y-7718702D01*
X16102833Y-7717786D01*
X16092247Y-7714950D01*
X16077752Y-7714950D01*
X16071579Y-7716604D01*
X16063751Y-7718702D01*
X16051199Y-7725949D01*
X16040949Y-7736199D01*
X16033702Y-7748751D01*
X16030464Y-7760832D01*
X16029950Y-7762752D01*
X16029950Y-7777247D01*
X16032708Y-7787540D01*
X16033702Y-7791249D01*
X16040949Y-7803801D01*
X16040949Y-7803801D01*
X16040949Y-7803801D01*
X16051198Y-7814051D01*
X16051199Y-7814051D01*
X16051199Y-7814051D01*
X16063751Y-7821298D01*
X16063751Y-7821298D01*
X16063751Y-7821298D01*
X16063751Y-7821298D01*
X16072360Y-7823605D01*
X16077492Y-7826937D01*
X16079587Y-7831692D01*
X16081350Y-7843384D01*
X16083726Y-7848319D01*
X16087046Y-7855212D01*
X16088931Y-7857487D01*
X16088931Y-7857487D01*
X16088931Y-7857488D01*
X16122512Y-7891068D01*
X16122513Y-7891069D01*
X16124122Y-7892402D01*
X16124788Y-7892954D01*
X16124788Y-7892954D01*
X16124788Y-7892954D01*
X16130905Y-7895900D01*
X16136616Y-7898650D01*
X16136616Y-7898650D01*
X16149598Y-7900607D01*
X16150299Y-7900501D01*
X16156335Y-7901503D01*
X16158776Y-7903290D01*
X16207684Y-7952199D01*
X16255077Y-7999591D01*
X16255077Y-7999591D01*
X16262533Y-8007048D01*
X16268441Y-8010459D01*
X16271666Y-8012321D01*
X16281852Y-8015050D01*
X16281852Y-8015050D01*
X16281852Y-8015050D01*
X16293004Y-8015050D01*
X16293005Y-8015050D01*
X16402074Y-8015050D01*
X16402074Y-8015050D01*
X16412260Y-8012321D01*
X16412261Y-8012320D01*
X16412261Y-8012320D01*
X16421393Y-8007048D01*
X16422448Y-8005992D01*
X16432984Y-7995457D01*
X16434371Y-7994750D01*
X16435471Y-7993646D01*
X16436410Y-7993225D01*
X16436528Y-7993179D01*
X16437565Y-7993122D01*
X16438435Y-7992679D01*
X16440288Y-7992973D01*
X16442637Y-7992844D01*
X16443665Y-7993508D01*
X16444478Y-7993636D01*
X16446969Y-7995442D01*
X16447040Y-7995513D01*
X16447174Y-7995773D01*
X16447777Y-7996163D01*
X16449023Y-7999383D01*
X16449829Y-8000958D01*
X16449773Y-8001322D01*
X16449984Y-8001869D01*
X16449329Y-8005992D01*
X16449285Y-8006107D01*
X16448943Y-8006631D01*
X16448885Y-8007003D01*
X16448351Y-8007540D01*
X16447055Y-8009528D01*
X16379615Y-8076968D01*
X16374163Y-8079746D01*
X16368120Y-8078789D01*
X16366499Y-8077753D01*
X16364130Y-8075891D01*
X16350879Y-8070136D01*
X16338849Y-8068482D01*
X16336569Y-8068169D01*
X16336568Y-8068169D01*
X16322258Y-8070136D01*
X16322257Y-8070136D01*
X16309007Y-8075891D01*
X16302320Y-8081145D01*
X16261145Y-8122320D01*
X16255891Y-8129007D01*
X16250136Y-8142257D01*
X16250136Y-8142258D01*
X16248169Y-8156568D01*
X16250136Y-8170879D01*
X16250136Y-8170879D01*
X16255891Y-8184130D01*
X16259758Y-8189051D01*
X16261145Y-8190818D01*
X16293377Y-8223050D01*
X16296155Y-8228501D01*
X16295198Y-8234544D01*
X16290871Y-8238871D01*
X16286377Y-8239950D01*
X16170690Y-8239950D01*
X16164871Y-8238059D01*
X16163690Y-8237050D01*
X16072950Y-8146310D01*
X16070172Y-8140859D01*
X16070050Y-8139310D01*
X16070050Y-8137752D01*
X16067826Y-8129452D01*
X16066298Y-8123751D01*
X16066298Y-8123751D01*
X16066298Y-8123751D01*
X16059051Y-8111199D01*
X16059051Y-8111199D01*
X16059051Y-8111198D01*
X16048801Y-8100949D01*
X16048801Y-8100949D01*
X16048801Y-8100949D01*
X16036249Y-8093702D01*
X16036249Y-8093702D01*
X16030085Y-8092050D01*
X16022247Y-8089950D01*
X16007752Y-8089950D01*
X16004305Y-8090874D01*
X15993751Y-8093702D01*
X15981199Y-8100949D01*
X15970949Y-8111199D01*
X15963702Y-8123751D01*
X15960580Y-8135402D01*
X15959950Y-8137752D01*
X15959950Y-8152247D01*
X15961572Y-8158302D01*
X15963702Y-8166249D01*
X15970949Y-8178801D01*
X15970949Y-8178801D01*
X15970949Y-8178801D01*
X15981198Y-8189051D01*
X15981199Y-8189051D01*
X15981199Y-8189051D01*
X15993751Y-8196298D01*
X15993751Y-8196298D01*
X15993751Y-8196298D01*
X16007752Y-8200050D01*
X16009310Y-8200050D01*
X16015129Y-8201941D01*
X16016310Y-8202950D01*
X16117952Y-8304591D01*
X16117952Y-8304591D01*
X16122617Y-8309256D01*
X16125409Y-8312048D01*
X16134541Y-8317321D01*
X16144727Y-8320050D01*
X16144727Y-8320050D01*
X16345272Y-8320050D01*
X16345273Y-8320050D01*
X16355459Y-8317321D01*
X16355459Y-8317320D01*
X16355459Y-8317320D01*
X16364591Y-8312048D01*
X16364591Y-8312048D01*
X16364591Y-8312048D01*
X16404213Y-8272426D01*
X16409664Y-8269649D01*
X16415708Y-8270606D01*
X16418213Y-8272426D01*
X16448667Y-8302880D01*
X16450968Y-8304786D01*
X16454133Y-8306310D01*
X16462932Y-8310548D01*
X16462932Y-8310548D01*
X16476062Y-8312527D01*
X16476062Y-8312527D01*
X16476063Y-8312527D01*
X16482715Y-8311524D01*
X16488336Y-8310677D01*
X16494372Y-8311679D01*
X16498666Y-8316038D01*
X16499578Y-8322088D01*
X16496812Y-8327467D01*
X16409128Y-8415150D01*
X16403677Y-8417928D01*
X16397633Y-8416971D01*
X16395128Y-8415151D01*
X16389215Y-8409238D01*
X16386914Y-8407332D01*
X16382223Y-8405072D01*
X16374950Y-8401570D01*
X16374950Y-8401570D01*
X16361820Y-8399591D01*
X16361820Y-8399591D01*
X16348689Y-8401570D01*
X16348689Y-8401570D01*
X16336725Y-8407332D01*
X16334424Y-8409238D01*
X16307120Y-8436542D01*
X16305214Y-8438843D01*
X16299452Y-8450807D01*
X16299452Y-8450807D01*
X16298099Y-8459785D01*
X16295362Y-8465257D01*
X16289931Y-8468076D01*
X16289785Y-8468099D01*
X16280807Y-8469452D01*
X16280807Y-8469452D01*
X16268843Y-8475214D01*
X16266542Y-8477120D01*
X16239238Y-8504424D01*
X16237331Y-8506725D01*
X16231570Y-8518689D01*
X16231570Y-8518689D01*
X16229591Y-8531820D01*
X16229591Y-8531820D01*
X16230705Y-8539214D01*
X16229703Y-8545250D01*
X16225344Y-8549544D01*
X16222392Y-8550479D01*
X16216616Y-8551350D01*
X16204788Y-8557046D01*
X16202512Y-8558932D01*
X16168932Y-8592512D01*
X16168931Y-8592513D01*
X16167046Y-8594788D01*
X16167046Y-8594789D01*
X16161350Y-8606616D01*
X16161350Y-8606616D01*
X16159393Y-8619598D01*
X16161350Y-8632580D01*
X16167046Y-8644408D01*
X16167312Y-8644729D01*
X16168931Y-8646683D01*
X16168933Y-8646685D01*
X16195442Y-8673194D01*
X16195443Y-8673195D01*
X16197717Y-8675079D01*
X16197717Y-8675079D01*
X16197717Y-8675079D01*
X16209545Y-8680775D01*
X16220223Y-8682384D01*
X16222527Y-8682732D01*
X16222527Y-8682732D01*
X16222527Y-8682732D01*
X16224484Y-8682437D01*
X16235508Y-8680775D01*
X16247337Y-8675079D01*
X16249612Y-8673194D01*
X16283193Y-8639612D01*
X16285079Y-8637337D01*
X16289801Y-8627531D01*
X16294029Y-8623108D01*
X16300049Y-8622016D01*
X16305562Y-8624670D01*
X16305964Y-8625078D01*
X16306964Y-8626151D01*
X16307332Y-8626914D01*
X16309238Y-8629216D01*
X16317734Y-8637711D01*
X16317852Y-8637839D01*
X16319074Y-8640461D01*
X16320387Y-8643038D01*
X16320410Y-8643330D01*
X16320436Y-8643385D01*
X16320420Y-8643463D01*
X16320509Y-8644587D01*
X16320509Y-8745885D01*
X16320447Y-8746994D01*
X16318928Y-8760466D01*
X16318435Y-8762627D01*
X16314142Y-8774895D01*
X16313180Y-8776893D01*
X16306265Y-8787899D01*
X16304882Y-8789632D01*
X16295691Y-8798823D01*
X16293958Y-8800205D01*
X16282952Y-8807121D01*
X16280955Y-8808082D01*
X16268686Y-8812375D01*
X16266525Y-8812869D01*
X16253043Y-8814388D01*
X16251934Y-8814450D01*
X16017932Y-8814450D01*
X16017069Y-8814412D01*
X16002223Y-8813113D01*
X16000523Y-8812814D01*
X15986546Y-8809068D01*
X15984924Y-8808478D01*
X15971810Y-8802363D01*
X15970315Y-8801500D01*
X15958463Y-8793201D01*
X15957141Y-8792092D01*
X15946908Y-8781859D01*
X15945799Y-8780537D01*
X15945667Y-8780348D01*
X15937500Y-8768684D01*
X15936637Y-8767190D01*
X15932819Y-8759002D01*
X15930521Y-8754076D01*
X15929931Y-8752454D01*
X15926186Y-8738477D01*
X15925887Y-8736778D01*
X15924588Y-8721931D01*
X15924550Y-8721068D01*
X15924550Y-7059950D01*
X15926441Y-7054131D01*
X15931391Y-7050534D01*
X15934450Y-7050050D01*
X16060050Y-7050050D01*
X16065869Y-7051941D01*
X16069466Y-7056891D01*
X16069950Y-7059950D01*
X16069950Y-7064486D01*
X16070241Y-7066999D01*
X16071946Y-7070858D01*
X16074779Y-7077276D01*
X16082723Y-7085221D01*
X16093001Y-7089758D01*
X16095513Y-7090050D01*
X16204486Y-7090050D01*
X16206999Y-7089758D01*
X16217276Y-7085221D01*
X16225221Y-7077276D01*
X16229758Y-7066999D01*
X16230050Y-7064486D01*
X16230050Y-6955514D01*
X16229758Y-6953001D01*
X16225221Y-6942723D01*
X16217276Y-6934779D01*
X16206999Y-6930241D01*
X16206999Y-6930241D01*
X16206999Y-6930241D01*
X16204487Y-6929950D01*
X16095514Y-6929950D01*
X16095514Y-6929950D01*
X16093001Y-6930241D01*
X16082723Y-6934779D01*
X16074779Y-6942723D01*
X16070241Y-6953001D01*
X16069950Y-6955513D01*
X16069950Y-6960050D01*
X16068059Y-6965869D01*
X16063109Y-6969465D01*
X16060050Y-6969950D01*
X15934450Y-6969950D01*
X15928631Y-6968059D01*
X15925034Y-6963109D01*
X15924550Y-6960050D01*
X15924550Y-6790539D01*
X15926441Y-6784720D01*
X15931391Y-6781123D01*
X15937509Y-6781123D01*
X15940329Y-6782573D01*
X15946920Y-6787438D01*
X15946920Y-6787438D01*
X15946921Y-6787438D01*
X15959312Y-6791774D01*
X15962254Y-6792050D01*
X15999746Y-6792050D01*
X15999746Y-6792050D01*
X16000334Y-6791995D01*
X16002688Y-6791774D01*
X16015079Y-6787438D01*
X16021709Y-6782545D01*
X16025642Y-6779643D01*
X16025642Y-6779642D01*
X16025642Y-6779642D01*
X16033438Y-6769079D01*
X16037774Y-6756688D01*
X16038050Y-6753746D01*
X16038050Y-6706254D01*
X16037774Y-6703312D01*
X16033438Y-6690921D01*
X16029490Y-6685571D01*
X16027984Y-6683531D01*
X16027972Y-6683494D01*
X16027941Y-6683471D01*
X16027005Y-6680591D01*
X16026050Y-6677726D01*
X16026050Y-6677652D01*
X16026050Y-6672347D01*
X16027941Y-6666528D01*
X16027977Y-6666479D01*
X16033438Y-6659079D01*
X16037774Y-6646688D01*
X16038050Y-6643746D01*
X16038050Y-6596254D01*
X16037774Y-6593312D01*
X16033438Y-6580921D01*
X16033328Y-6580771D01*
X16025642Y-6570358D01*
X16025642Y-6570358D01*
X16025071Y-6569936D01*
X16021512Y-6564959D01*
X16021050Y-6561971D01*
X16021050Y-6471981D01*
X16022941Y-6466162D01*
X16025071Y-6464016D01*
X16029642Y-6460642D01*
X16037438Y-6450079D01*
X16041774Y-6437688D01*
X16042050Y-6434746D01*
X16042050Y-6397254D01*
X16041774Y-6394312D01*
X16037438Y-6381921D01*
X16032175Y-6374790D01*
X16029289Y-6370879D01*
X16027355Y-6365074D01*
X16029202Y-6359241D01*
X16029289Y-6359121D01*
X16037438Y-6348079D01*
X16037438Y-6348079D01*
X16037438Y-6348079D01*
X16041774Y-6335688D01*
X16042050Y-6332746D01*
X16042050Y-6295254D01*
X16042031Y-6295050D01*
X16041774Y-6292312D01*
X16041774Y-6292312D01*
X16037438Y-6279921D01*
X16037438Y-6279920D01*
X16029643Y-6269358D01*
X16029642Y-6269357D01*
X16019079Y-6261562D01*
X16006688Y-6257226D01*
X16006687Y-6257226D01*
X16003746Y-6256950D01*
X15956254Y-6256950D01*
X15953312Y-6257226D01*
X15953312Y-6257226D01*
X15940921Y-6261562D01*
X15930358Y-6269358D01*
X15930357Y-6269358D01*
X15928268Y-6272189D01*
X15923291Y-6275748D01*
X15920303Y-6276210D01*
X15516117Y-6276210D01*
X15510298Y-6274319D01*
X15507061Y-6270309D01*
X15505380Y-6266504D01*
X15505380Y-6266503D01*
X15497436Y-6258559D01*
X15487159Y-6254021D01*
X15487159Y-6254021D01*
X15487159Y-6254021D01*
X15484647Y-6253730D01*
X15484646Y-6253730D01*
X15477950Y-6253730D01*
X15476459Y-6253245D01*
X15474891Y-6253245D01*
X15473622Y-6252324D01*
X15472131Y-6251839D01*
X15471209Y-6250571D01*
X15469941Y-6249649D01*
X15469456Y-6248158D01*
X15468534Y-6246889D01*
X15468050Y-6243830D01*
X15468050Y-6236210D01*
X15469941Y-6230391D01*
X15472070Y-6228245D01*
X15474121Y-6226731D01*
X15479926Y-6224797D01*
X15485759Y-6226644D01*
X15485879Y-6226731D01*
X15492184Y-6231385D01*
X15492184Y-6231385D01*
X15492184Y-6231385D01*
X15504718Y-6235771D01*
X15507462Y-6236028D01*
X15507692Y-6236050D01*
X15507693Y-6236050D01*
X15507693Y-6236050D01*
X15552307Y-6236050D01*
X15552307Y-6236050D01*
X15555282Y-6235771D01*
X15567816Y-6231385D01*
X15578500Y-6223500D01*
X15586385Y-6212816D01*
X15590771Y-6200282D01*
X15591050Y-6197307D01*
X15591050Y-6158693D01*
X15591050Y-6158693D01*
X15591050Y-6158692D01*
X15590868Y-6156751D01*
X15590771Y-6155718D01*
X15586385Y-6143184D01*
X15583433Y-6139184D01*
X15578500Y-6132500D01*
X15578499Y-6132500D01*
X15567816Y-6124615D01*
X15555282Y-6120229D01*
X15555281Y-6120229D01*
X15552308Y-6119950D01*
X15552307Y-6119950D01*
X15507693Y-6119950D01*
X15507692Y-6119950D01*
X15504718Y-6120229D01*
X15504718Y-6120229D01*
X15492184Y-6124615D01*
X15485879Y-6129268D01*
X15480074Y-6131202D01*
X15474241Y-6129355D01*
X15474121Y-6129268D01*
X15467816Y-6124615D01*
X15467816Y-6124615D01*
X15455282Y-6120229D01*
X15455281Y-6120229D01*
X15452308Y-6119950D01*
X15452307Y-6119950D01*
X15407693Y-6119950D01*
X15407692Y-6119950D01*
X15404718Y-6120229D01*
X15404718Y-6120229D01*
X15392184Y-6124615D01*
X15387502Y-6128071D01*
X15381697Y-6130005D01*
X15376673Y-6128679D01*
X15373249Y-6126702D01*
X15373248Y-6126702D01*
X15359247Y-6122950D01*
X15344752Y-6122950D01*
X15341020Y-6123950D01*
X15330751Y-6126702D01*
X15318199Y-6133949D01*
X15307949Y-6144199D01*
X15300702Y-6156751D01*
X15299336Y-6161848D01*
X15296950Y-6170752D01*
X15296950Y-6185247D01*
X15299817Y-6195949D01*
X15300702Y-6199249D01*
X15307949Y-6211801D01*
X15307949Y-6211801D01*
X15307949Y-6211801D01*
X15318198Y-6222051D01*
X15318199Y-6222051D01*
X15318199Y-6222051D01*
X15330751Y-6229298D01*
X15330751Y-6229298D01*
X15330751Y-6229298D01*
X15344752Y-6233050D01*
X15344753Y-6233050D01*
X15359247Y-6233050D01*
X15359247Y-6233050D01*
X15373248Y-6229298D01*
X15376673Y-6227321D01*
X15379217Y-6226780D01*
X15381698Y-6225995D01*
X15382170Y-6226153D01*
X15382658Y-6226049D01*
X15387502Y-6227930D01*
X15387929Y-6228245D01*
X15391488Y-6233222D01*
X15391950Y-6236210D01*
X15391950Y-6243830D01*
X15390059Y-6249649D01*
X15385109Y-6253245D01*
X15382050Y-6253730D01*
X15375354Y-6253730D01*
X15375353Y-6253730D01*
X15372841Y-6254021D01*
X15362563Y-6258559D01*
X15354619Y-6266504D01*
X15352939Y-6270309D01*
X15348859Y-6274868D01*
X15343883Y-6276210D01*
X15213335Y-6276210D01*
X15207516Y-6274319D01*
X15203919Y-6269369D01*
X15203772Y-6263748D01*
X15206050Y-6255247D01*
X15206050Y-6240752D01*
X15202298Y-6226751D01*
X15201199Y-6224847D01*
X15199927Y-6218863D01*
X15201807Y-6214019D01*
X15206385Y-6207816D01*
X15210771Y-6195282D01*
X15211050Y-6192307D01*
X15211050Y-6153693D01*
X15211050Y-6153693D01*
X15211050Y-6153692D01*
X15210865Y-6151718D01*
X15210771Y-6150718D01*
X15206385Y-6138184D01*
X15206385Y-6138184D01*
X15198500Y-6127500D01*
X15198499Y-6127500D01*
X15187816Y-6119615D01*
X15175282Y-6115229D01*
X15175281Y-6115229D01*
X15172308Y-6114950D01*
X15172307Y-6114950D01*
X15127693Y-6114950D01*
X15127692Y-6114950D01*
X15124718Y-6115229D01*
X15124718Y-6115229D01*
X15112184Y-6119615D01*
X15100903Y-6127941D01*
X15100712Y-6127681D01*
X15096498Y-6129828D01*
X15094949Y-6129950D01*
X15054305Y-6129950D01*
X15049810Y-6128871D01*
X15048240Y-6128071D01*
X15045030Y-6126435D01*
X15045029Y-6126435D01*
X15035652Y-6124950D01*
X14984348Y-6124950D01*
X14984348Y-6124950D01*
X14974970Y-6126435D01*
X14974969Y-6126435D01*
X14963666Y-6132195D01*
X14954695Y-6141166D01*
X14948935Y-6152469D01*
X14947450Y-6161848D01*
X14947450Y-6188152D01*
X14947450Y-6188152D01*
X14948935Y-6197530D01*
X14948935Y-6197530D01*
X14954695Y-6208834D01*
X14963666Y-6217805D01*
X14974970Y-6223565D01*
X14984348Y-6225050D01*
X15035652Y-6225050D01*
X15035652Y-6225050D01*
X15035652Y-6225050D01*
X15039049Y-6224512D01*
X15045030Y-6223565D01*
X15045030Y-6223565D01*
X15045030Y-6223565D01*
X15045030Y-6223565D01*
X15048217Y-6221941D01*
X15049811Y-6221129D01*
X15054305Y-6220050D01*
X15088595Y-6220050D01*
X15094414Y-6221941D01*
X15098011Y-6226891D01*
X15098158Y-6232512D01*
X15095950Y-6240752D01*
X15095950Y-6255247D01*
X15098228Y-6263748D01*
X15098080Y-6266556D01*
X15098080Y-6269369D01*
X15097922Y-6269588D01*
X15097907Y-6269858D01*
X15096138Y-6272043D01*
X15094484Y-6274319D01*
X15094227Y-6274403D01*
X15094057Y-6274613D01*
X15088665Y-6276210D01*
X15073942Y-6276210D01*
X15068123Y-6274319D01*
X15065889Y-6271704D01*
X15065763Y-6271796D01*
X15065305Y-6271166D01*
X15065305Y-6271166D01*
X15056334Y-6262195D01*
X15045030Y-6256435D01*
X15045030Y-6256435D01*
X15035652Y-6254950D01*
X14984348Y-6254950D01*
X14984348Y-6254950D01*
X14974970Y-6256435D01*
X14974969Y-6256435D01*
X14963666Y-6262195D01*
X14954695Y-6271166D01*
X14948935Y-6282469D01*
X14947450Y-6291848D01*
X14947450Y-6318152D01*
X14947450Y-6318152D01*
X14948935Y-6327530D01*
X14948935Y-6327530D01*
X14954695Y-6338834D01*
X14963666Y-6347805D01*
X14974970Y-6353565D01*
X14984348Y-6355050D01*
X15035652Y-6355050D01*
X15035652Y-6355050D01*
X15035652Y-6355050D01*
X15039049Y-6354512D01*
X15045030Y-6353565D01*
X15045030Y-6353565D01*
X15045030Y-6353565D01*
X15045235Y-6353460D01*
X15045375Y-6353389D01*
X15049869Y-6352310D01*
X15343883Y-6352310D01*
X15349702Y-6354201D01*
X15352939Y-6358211D01*
X15353341Y-6359121D01*
X15354619Y-6362016D01*
X15362563Y-6369961D01*
X15372841Y-6374498D01*
X15375353Y-6374790D01*
X15404646Y-6374790D01*
X15407159Y-6374498D01*
X15407160Y-6374498D01*
X15407400Y-6374433D01*
X15407726Y-6374433D01*
X15407899Y-6374413D01*
X15407901Y-6374433D01*
X15412099Y-6374433D01*
X15412101Y-6374413D01*
X15412274Y-6374433D01*
X15412599Y-6374433D01*
X15412840Y-6374498D01*
X15412841Y-6374498D01*
X15415353Y-6374790D01*
X15444646Y-6374790D01*
X15447159Y-6374498D01*
X15447160Y-6374498D01*
X15447400Y-6374433D01*
X15447726Y-6374433D01*
X15447899Y-6374413D01*
X15447901Y-6374433D01*
X15452099Y-6374433D01*
X15452101Y-6374413D01*
X15452273Y-6374433D01*
X15452599Y-6374433D01*
X15452840Y-6374498D01*
X15452841Y-6374498D01*
X15455353Y-6374790D01*
X15484646Y-6374790D01*
X15487159Y-6374498D01*
X15497436Y-6369961D01*
X15505380Y-6362016D01*
X15506659Y-6359121D01*
X15507061Y-6358211D01*
X15511141Y-6353652D01*
X15516117Y-6352310D01*
X15920686Y-6352310D01*
X15922143Y-6352783D01*
X15923675Y-6352772D01*
X15924980Y-6353705D01*
X15926506Y-6354201D01*
X15928652Y-6356331D01*
X15930711Y-6359121D01*
X15932645Y-6364926D01*
X15930798Y-6370759D01*
X15930711Y-6370879D01*
X15922562Y-6381921D01*
X15918226Y-6394312D01*
X15918226Y-6394312D01*
X15917950Y-6397253D01*
X15917950Y-6434746D01*
X15918226Y-6437687D01*
X15918226Y-6437688D01*
X15922562Y-6450079D01*
X15930357Y-6460642D01*
X15930358Y-6460642D01*
X15936929Y-6465492D01*
X15940488Y-6470469D01*
X15940950Y-6473457D01*
X15940950Y-6561971D01*
X15940476Y-6563428D01*
X15940488Y-6564960D01*
X15939555Y-6566264D01*
X15939059Y-6567790D01*
X15936929Y-6569936D01*
X15935879Y-6570711D01*
X15930074Y-6572645D01*
X15924241Y-6570798D01*
X15924121Y-6570711D01*
X15913079Y-6562562D01*
X15900688Y-6558226D01*
X15900687Y-6558226D01*
X15897746Y-6557950D01*
X15860254Y-6557950D01*
X15857312Y-6558226D01*
X15857312Y-6558226D01*
X15844920Y-6562562D01*
X15834358Y-6570357D01*
X15834357Y-6570358D01*
X15828770Y-6577929D01*
X15823793Y-6581488D01*
X15820804Y-6581950D01*
X15785141Y-6581950D01*
X15779322Y-6580059D01*
X15776085Y-6576049D01*
X15775931Y-6575700D01*
X15775380Y-6574453D01*
X15767436Y-6566509D01*
X15757159Y-6561971D01*
X15757159Y-6561971D01*
X15757159Y-6561971D01*
X15754647Y-6561680D01*
X15754646Y-6561680D01*
X15747950Y-6561680D01*
X15746459Y-6561195D01*
X15744891Y-6561195D01*
X15743622Y-6560274D01*
X15742131Y-6559789D01*
X15741209Y-6558521D01*
X15739941Y-6557599D01*
X15739456Y-6556108D01*
X15738534Y-6554839D01*
X15738050Y-6551780D01*
X15738050Y-6534210D01*
X15739941Y-6528391D01*
X15742071Y-6526244D01*
X15746488Y-6522984D01*
X15752293Y-6521050D01*
X15752367Y-6521050D01*
X15754949Y-6521050D01*
X15760768Y-6522941D01*
X15760935Y-6523083D01*
X15772184Y-6531385D01*
X15772184Y-6531385D01*
X15772184Y-6531385D01*
X15784718Y-6535771D01*
X15787462Y-6536028D01*
X15787692Y-6536050D01*
X15787693Y-6536050D01*
X15787693Y-6536050D01*
X15832307Y-6536050D01*
X15832307Y-6536050D01*
X15835282Y-6535771D01*
X15847816Y-6531385D01*
X15858500Y-6523500D01*
X15866385Y-6512816D01*
X15870771Y-6500282D01*
X15871050Y-6497307D01*
X15871050Y-6458693D01*
X15871050Y-6458693D01*
X15871050Y-6458692D01*
X15871006Y-6458226D01*
X15870771Y-6455718D01*
X15866385Y-6443184D01*
X15866385Y-6443184D01*
X15866385Y-6443184D01*
X15858500Y-6432500D01*
X15858499Y-6432500D01*
X15847816Y-6424615D01*
X15835282Y-6420229D01*
X15835281Y-6420229D01*
X15832308Y-6419950D01*
X15832307Y-6419950D01*
X15787693Y-6419950D01*
X15787692Y-6419950D01*
X15784718Y-6420229D01*
X15784718Y-6420229D01*
X15772184Y-6424615D01*
X15766221Y-6429015D01*
X15766185Y-6429028D01*
X15766162Y-6429059D01*
X15763281Y-6429995D01*
X15760417Y-6430950D01*
X15760343Y-6430950D01*
X15752367Y-6430950D01*
X15746548Y-6429059D01*
X15746488Y-6429015D01*
X15737816Y-6422615D01*
X15725282Y-6418229D01*
X15725281Y-6418229D01*
X15722308Y-6417950D01*
X15722307Y-6417950D01*
X15677693Y-6417950D01*
X15677692Y-6417950D01*
X15674718Y-6418229D01*
X15674718Y-6418229D01*
X15662184Y-6422615D01*
X15658254Y-6425515D01*
X15658217Y-6425528D01*
X15658194Y-6425559D01*
X15655314Y-6426495D01*
X15652449Y-6427450D01*
X15652375Y-6427450D01*
X15651063Y-6427450D01*
X15646896Y-6426333D01*
X15646848Y-6426450D01*
X15646249Y-6426202D01*
X15639248Y-6424326D01*
X15632247Y-6422450D01*
X15617752Y-6422450D01*
X15611579Y-6424104D01*
X15603751Y-6426202D01*
X15591199Y-6433449D01*
X15580949Y-6443699D01*
X15573702Y-6456251D01*
X15572761Y-6459761D01*
X15569950Y-6470252D01*
X15569950Y-6484747D01*
X15571711Y-6491321D01*
X15573702Y-6498749D01*
X15580949Y-6511301D01*
X15580949Y-6511301D01*
X15580949Y-6511301D01*
X15591198Y-6521551D01*
X15591199Y-6521551D01*
X15591199Y-6521551D01*
X15603751Y-6528798D01*
X15603751Y-6528798D01*
X15603751Y-6528798D01*
X15617752Y-6532550D01*
X15617753Y-6532550D01*
X15632247Y-6532550D01*
X15632247Y-6532550D01*
X15646248Y-6528798D01*
X15646249Y-6528798D01*
X15646848Y-6528550D01*
X15646896Y-6528666D01*
X15651063Y-6527550D01*
X15652050Y-6527550D01*
X15657869Y-6529441D01*
X15661465Y-6534391D01*
X15661950Y-6537450D01*
X15661950Y-6551780D01*
X15660059Y-6557599D01*
X15655109Y-6561195D01*
X15652050Y-6561680D01*
X15645354Y-6561680D01*
X15645354Y-6561680D01*
X15642841Y-6561971D01*
X15632564Y-6566509D01*
X15624619Y-6574454D01*
X15622939Y-6578259D01*
X15618859Y-6582818D01*
X15613883Y-6584160D01*
X15544380Y-6584160D01*
X15534703Y-6586753D01*
X15534703Y-6586753D01*
X15534703Y-6586753D01*
X15534703Y-6586753D01*
X15527423Y-6590956D01*
X15526026Y-6591763D01*
X15516639Y-6601150D01*
X15511187Y-6603928D01*
X15509638Y-6604050D01*
X15505252Y-6604050D01*
X15501894Y-6604950D01*
X15491251Y-6607802D01*
X15478699Y-6615049D01*
X15468449Y-6625299D01*
X15461202Y-6637851D01*
X15457492Y-6651695D01*
X15457450Y-6651852D01*
X15457450Y-6666347D01*
X15458415Y-6669949D01*
X15461202Y-6680349D01*
X15468449Y-6692901D01*
X15468449Y-6692901D01*
X15468449Y-6692901D01*
X15478698Y-6703151D01*
X15478699Y-6703151D01*
X15478699Y-6703151D01*
X15491251Y-6710398D01*
X15491251Y-6710398D01*
X15491251Y-6710398D01*
X15505252Y-6714150D01*
X15505253Y-6714150D01*
X15519747Y-6714150D01*
X15519747Y-6714150D01*
X15533748Y-6710398D01*
X15533749Y-6710398D01*
X15533749Y-6710398D01*
X15546301Y-6703151D01*
X15546301Y-6703151D01*
X15546301Y-6703151D01*
X15556551Y-6692901D01*
X15563798Y-6680348D01*
X15567215Y-6667597D01*
X15570547Y-6662466D01*
X15576260Y-6660274D01*
X15576778Y-6660260D01*
X15613883Y-6660260D01*
X15619702Y-6662151D01*
X15622939Y-6666161D01*
X15624612Y-6669949D01*
X15624619Y-6669966D01*
X15632564Y-6677911D01*
X15642841Y-6682448D01*
X15645354Y-6682740D01*
X15674646Y-6682740D01*
X15677159Y-6682448D01*
X15677160Y-6682448D01*
X15677400Y-6682383D01*
X15677726Y-6682383D01*
X15677899Y-6682363D01*
X15677901Y-6682383D01*
X15682099Y-6682383D01*
X15682101Y-6682363D01*
X15682274Y-6682383D01*
X15682599Y-6682383D01*
X15682840Y-6682448D01*
X15682841Y-6682448D01*
X15685353Y-6682740D01*
X15714646Y-6682740D01*
X15717159Y-6682448D01*
X15717160Y-6682448D01*
X15717400Y-6682383D01*
X15717726Y-6682383D01*
X15717899Y-6682363D01*
X15717901Y-6682383D01*
X15722099Y-6682383D01*
X15722101Y-6682363D01*
X15722274Y-6682383D01*
X15722599Y-6682383D01*
X15722840Y-6682448D01*
X15722841Y-6682448D01*
X15725353Y-6682740D01*
X15754646Y-6682740D01*
X15757159Y-6682448D01*
X15767436Y-6677911D01*
X15775380Y-6669966D01*
X15777766Y-6664564D01*
X15778037Y-6663951D01*
X15782117Y-6659392D01*
X15787093Y-6658050D01*
X15820804Y-6658050D01*
X15822261Y-6658523D01*
X15823793Y-6658512D01*
X15825098Y-6659445D01*
X15826623Y-6659941D01*
X15828770Y-6662071D01*
X15833973Y-6669121D01*
X15835907Y-6674926D01*
X15834060Y-6680759D01*
X15833973Y-6680879D01*
X15826562Y-6690920D01*
X15822226Y-6703312D01*
X15822226Y-6703312D01*
X15821950Y-6706253D01*
X15821950Y-6753746D01*
X15822226Y-6756687D01*
X15822226Y-6756688D01*
X15826562Y-6769079D01*
X15826562Y-6769080D01*
X15831515Y-6775791D01*
X15833450Y-6781596D01*
X15833450Y-6781670D01*
X15833450Y-7004003D01*
X15833450Y-8715503D01*
X15833450Y-8721500D01*
X15833450Y-8733563D01*
X15835935Y-8752438D01*
X15836599Y-8757483D01*
X15836599Y-8757483D01*
X15842844Y-8780788D01*
X15852076Y-8803077D01*
X15852076Y-8803078D01*
X15852076Y-8803078D01*
X15863514Y-8822888D01*
X15864140Y-8823972D01*
X15878826Y-8843112D01*
X15878827Y-8843113D01*
X15878827Y-8843113D01*
X15895887Y-8860173D01*
X15895887Y-8860173D01*
X15895888Y-8860174D01*
X15914088Y-8874139D01*
X15915028Y-8874860D01*
X15935922Y-8886924D01*
X15958212Y-8896156D01*
X15981517Y-8902401D01*
X16005437Y-8905550D01*
X16005437Y-8905550D01*
X16259138Y-8905550D01*
X16259155Y-8905549D01*
X16263880Y-8905549D01*
X16275143Y-8903929D01*
X16286407Y-8902310D01*
X16308245Y-8895898D01*
X16328947Y-8886444D01*
X16348093Y-8874139D01*
X16365294Y-8859235D01*
X16380198Y-8842035D01*
X16392503Y-8822889D01*
X16401957Y-8802186D01*
X16408370Y-8780349D01*
X16411609Y-8757821D01*
X16411609Y-8754407D01*
X16411609Y-8754407D01*
X16411609Y-8648830D01*
X16413500Y-8643010D01*
X16414508Y-8641830D01*
X16422880Y-8633458D01*
X16424786Y-8631157D01*
X16430548Y-8619193D01*
X16431901Y-8610215D01*
X16434638Y-8604743D01*
X16440068Y-8601924D01*
X16440213Y-8601901D01*
X16442961Y-8601487D01*
X16449193Y-8600548D01*
X16449193Y-8600548D01*
X16449193Y-8600548D01*
X16461157Y-8594786D01*
X16463458Y-8592880D01*
X16490762Y-8565576D01*
X16492668Y-8563275D01*
X16498430Y-8551311D01*
X16498430Y-8551311D01*
X16498430Y-8551311D01*
X16500409Y-8538180D01*
X16500409Y-8538180D01*
X16498430Y-8525050D01*
X16498430Y-8525050D01*
X16497889Y-8523926D01*
X16492668Y-8513086D01*
X16492668Y-8513085D01*
X16492428Y-8512712D01*
X16490878Y-8506793D01*
X16493102Y-8501093D01*
X16493760Y-8500366D01*
X16683050Y-8311076D01*
X16688501Y-8308299D01*
X16694544Y-8309256D01*
X16698871Y-8313582D01*
X16699950Y-8318077D01*
X16699950Y-8325273D01*
X16700554Y-8327527D01*
X16702679Y-8335459D01*
X16707952Y-8344591D01*
X16707952Y-8344591D01*
X16707952Y-8344591D01*
X16749694Y-8386333D01*
X16787622Y-8424262D01*
X16790400Y-8429713D01*
X16790411Y-8432737D01*
X16789591Y-8438180D01*
X16789591Y-8438180D01*
X16791570Y-8451311D01*
X16791570Y-8451311D01*
X16796397Y-8461333D01*
X16797332Y-8463275D01*
X16799238Y-8465576D01*
X16826542Y-8492880D01*
X16828843Y-8494786D01*
X16838292Y-8499336D01*
X16840807Y-8500548D01*
X16840807Y-8500548D01*
X16853937Y-8502527D01*
X16853938Y-8502527D01*
X16853938Y-8502527D01*
X16867068Y-8500548D01*
X16867068Y-8500548D01*
X16867068Y-8500548D01*
X16879032Y-8494786D01*
X16881333Y-8492880D01*
X16912880Y-8461333D01*
X16914786Y-8459032D01*
X16920548Y-8447068D01*
X16921432Y-8441199D01*
X16922278Y-8435592D01*
X16925014Y-8430119D01*
X16930445Y-8427301D01*
X16930589Y-8427278D01*
X16934162Y-8426739D01*
X16942068Y-8425548D01*
X16942068Y-8425548D01*
X16942068Y-8425548D01*
X16954032Y-8419786D01*
X16956333Y-8417880D01*
X16983043Y-8391170D01*
X16988494Y-8388392D01*
X16994537Y-8389350D01*
X16997043Y-8391170D01*
X17071449Y-8465576D01*
X17150050Y-8544177D01*
X17150413Y-8544889D01*
X17151059Y-8545359D01*
X17151776Y-8547563D01*
X17152828Y-8549629D01*
X17152950Y-8551178D01*
X17152950Y-8552480D01*
X17151059Y-8558299D01*
X17148929Y-8560446D01*
X17147500Y-8561500D01*
X17147500Y-8561501D01*
X17139615Y-8572184D01*
X17135229Y-8584718D01*
X17135229Y-8584719D01*
X17134950Y-8587692D01*
X17134950Y-8632308D01*
X17135229Y-8635281D01*
X17135229Y-8635282D01*
X17135229Y-8635282D01*
X17135948Y-8637336D01*
X17136226Y-8638130D01*
X17136363Y-8644247D01*
X17132878Y-8649276D01*
X17127103Y-8651297D01*
X17123611Y-8650744D01*
X17121471Y-8649995D01*
X17119282Y-8649229D01*
X17119282Y-8649229D01*
X17119281Y-8649229D01*
X17116308Y-8648950D01*
X17116307Y-8648950D01*
X17077693Y-8648950D01*
X17077692Y-8648950D01*
X17074719Y-8649229D01*
X17074718Y-8649229D01*
X17062184Y-8653615D01*
X17055224Y-8658752D01*
X17049419Y-8660686D01*
X17043586Y-8658839D01*
X17043470Y-8658754D01*
X17035079Y-8652562D01*
X17035079Y-8652562D01*
X17022688Y-8648226D01*
X17022687Y-8648226D01*
X17019747Y-8647950D01*
X16982254Y-8647950D01*
X16979312Y-8648226D01*
X16979312Y-8648226D01*
X16966920Y-8652562D01*
X16956358Y-8660357D01*
X16956357Y-8660358D01*
X16948562Y-8670920D01*
X16944226Y-8683312D01*
X16944226Y-8683313D01*
X16943950Y-8686253D01*
X16943950Y-8733746D01*
X16944226Y-8736688D01*
X16944226Y-8736688D01*
X16948562Y-8749079D01*
X16948562Y-8749079D01*
X16950776Y-8752079D01*
X16952710Y-8757884D01*
X16950863Y-8763717D01*
X16950776Y-8763837D01*
X16944615Y-8772184D01*
X16940229Y-8784718D01*
X16940229Y-8784719D01*
X16939950Y-8787692D01*
X16939950Y-8832308D01*
X16940229Y-8835281D01*
X16940229Y-8835282D01*
X16941327Y-8838420D01*
X16941464Y-8844537D01*
X16937980Y-8849566D01*
X16932205Y-8851587D01*
X16928713Y-8851034D01*
X16920688Y-8848226D01*
X16920687Y-8848226D01*
X16917747Y-8847950D01*
X16880254Y-8847950D01*
X16877312Y-8848226D01*
X16877312Y-8848226D01*
X16864920Y-8852562D01*
X16854358Y-8860357D01*
X16854357Y-8860358D01*
X16846562Y-8870920D01*
X16842226Y-8883312D01*
X16842226Y-8883313D01*
X16841950Y-8886253D01*
X16841950Y-8933746D01*
X16842226Y-8936688D01*
X16842226Y-8936688D01*
X16846562Y-8949079D01*
X16846562Y-8949079D01*
X16846562Y-8949079D01*
X16847015Y-8949694D01*
X16848950Y-8955498D01*
X16848950Y-8955573D01*
X16848950Y-8984021D01*
X16848709Y-8986193D01*
X16848664Y-8986391D01*
X16844950Y-9000253D01*
X16844950Y-9002909D01*
X16844709Y-9003982D01*
X16843682Y-9005714D01*
X16843059Y-9007629D01*
X16842050Y-9008810D01*
X16793810Y-9057050D01*
X16788359Y-9059828D01*
X16786810Y-9059950D01*
X16759950Y-9059950D01*
X16754131Y-9058059D01*
X16750534Y-9053109D01*
X16750050Y-9050050D01*
X16750050Y-9045514D01*
X16750050Y-9045514D01*
X16749758Y-9043001D01*
X16745221Y-9032724D01*
X16737276Y-9024779D01*
X16726999Y-9020242D01*
X16726999Y-9020241D01*
X16726999Y-9020241D01*
X16724487Y-9019950D01*
X16615514Y-9019950D01*
X16615514Y-9019950D01*
X16613001Y-9020241D01*
X16602723Y-9024779D01*
X16594779Y-9032724D01*
X16590241Y-9043001D01*
X16589950Y-9045513D01*
X16589950Y-9154486D01*
X16589950Y-9154486D01*
X16590241Y-9156999D01*
X16590574Y-9157752D01*
X16594779Y-9167277D01*
X16602723Y-9175221D01*
X16613001Y-9179759D01*
X16615513Y-9180050D01*
X16724486Y-9180050D01*
X16726999Y-9179759D01*
X16737276Y-9175221D01*
X16745221Y-9167277D01*
X16749758Y-9156999D01*
X16750050Y-9154487D01*
X16750050Y-9149950D01*
X16751941Y-9144131D01*
X16756891Y-9140535D01*
X16759950Y-9140050D01*
X16812773Y-9140050D01*
X16812773Y-9140050D01*
X16822959Y-9137321D01*
X16822959Y-9137321D01*
X16822959Y-9137321D01*
X16832091Y-9132048D01*
X16832091Y-9132048D01*
X16832091Y-9132048D01*
X16898690Y-9065450D01*
X16904141Y-9062672D01*
X16905690Y-9062550D01*
X16907247Y-9062550D01*
X16907248Y-9062550D01*
X16921249Y-9058798D01*
X16921249Y-9058798D01*
X16921249Y-9058798D01*
X16933801Y-9051551D01*
X16933801Y-9051551D01*
X16933802Y-9051551D01*
X16944051Y-9041302D01*
X16944051Y-9041301D01*
X16951298Y-9028749D01*
X16951298Y-9028749D01*
X16951298Y-9028749D01*
X16955050Y-9014748D01*
X16955050Y-9000253D01*
X16951298Y-8986252D01*
X16951050Y-8985821D01*
X16950376Y-8984654D01*
X16949050Y-8979704D01*
X16949050Y-8973860D01*
X16950941Y-8968041D01*
X16955891Y-8964444D01*
X16962009Y-8964444D01*
X16964829Y-8965894D01*
X16966920Y-8967438D01*
X16966921Y-8967438D01*
X16966921Y-8967438D01*
X16979312Y-8971774D01*
X16982254Y-8972050D01*
X17019746Y-8972050D01*
X17019746Y-8972050D01*
X17020334Y-8971995D01*
X17022688Y-8971774D01*
X17035079Y-8967438D01*
X17045642Y-8959642D01*
X17048701Y-8955498D01*
X17053438Y-8949080D01*
X17053438Y-8949080D01*
X17053438Y-8949079D01*
X17057774Y-8936688D01*
X17058050Y-8933746D01*
X17058050Y-8886254D01*
X17057774Y-8883312D01*
X17057774Y-8883312D01*
X17057646Y-8882724D01*
X17057910Y-8882666D01*
X17057797Y-8877656D01*
X17061281Y-8872626D01*
X17067056Y-8870604D01*
X17070549Y-8871157D01*
X17071624Y-8871533D01*
X17072312Y-8871774D01*
X17075254Y-8872050D01*
X17112746Y-8872050D01*
X17112746Y-8872050D01*
X17113334Y-8871995D01*
X17115688Y-8871774D01*
X17128079Y-8867438D01*
X17136466Y-8861248D01*
X17139121Y-8859289D01*
X17144926Y-8857355D01*
X17150759Y-8859202D01*
X17150879Y-8859289D01*
X17161920Y-8867438D01*
X17161921Y-8867438D01*
X17161921Y-8867438D01*
X17174312Y-8871774D01*
X17177254Y-8872050D01*
X17214746Y-8872050D01*
X17214746Y-8872050D01*
X17215334Y-8871995D01*
X17217688Y-8871774D01*
X17230079Y-8867438D01*
X17238466Y-8861248D01*
X17240642Y-8859643D01*
X17240642Y-8859643D01*
X17240642Y-8859642D01*
X17240903Y-8859289D01*
X17248438Y-8849080D01*
X17248438Y-8849080D01*
X17248438Y-8849079D01*
X17252774Y-8836688D01*
X17253050Y-8833746D01*
X17253050Y-8786254D01*
X17252774Y-8783312D01*
X17248438Y-8770921D01*
X17247000Y-8768972D01*
X17243224Y-8763856D01*
X17241290Y-8758051D01*
X17243137Y-8752218D01*
X17243224Y-8752098D01*
X17246385Y-8747816D01*
X17246385Y-8747816D01*
X17246385Y-8747816D01*
X17246385Y-8747816D01*
X17250771Y-8735282D01*
X17251050Y-8732307D01*
X17251050Y-8687693D01*
X17251050Y-8687693D01*
X17251050Y-8687692D01*
X17251028Y-8687462D01*
X17250771Y-8684718D01*
X17246385Y-8672184D01*
X17241731Y-8665879D01*
X17239797Y-8660074D01*
X17241644Y-8654241D01*
X17241725Y-8654129D01*
X17246385Y-8647816D01*
X17250771Y-8635282D01*
X17251050Y-8632307D01*
X17251050Y-8587693D01*
X17251050Y-8587693D01*
X17251050Y-8587692D01*
X17250771Y-8584719D01*
X17250771Y-8584718D01*
X17246385Y-8572184D01*
X17243851Y-8568751D01*
X17238500Y-8561501D01*
X17238500Y-8561500D01*
X17238500Y-8561500D01*
X17237071Y-8560446D01*
X17236180Y-8559200D01*
X17234941Y-8558299D01*
X17234445Y-8556773D01*
X17233512Y-8555469D01*
X17233050Y-8552480D01*
X17233050Y-8536559D01*
X17233050Y-8536558D01*
X17233050Y-8525215D01*
X17233050Y-8525215D01*
X17230321Y-8515029D01*
X17230321Y-8515029D01*
X17229199Y-8513085D01*
X17229199Y-8513085D01*
X17225048Y-8505897D01*
X17225048Y-8505897D01*
X17225048Y-8505896D01*
X17217591Y-8498440D01*
X17217591Y-8498440D01*
X17138938Y-8419786D01*
X17058683Y-8339531D01*
X17055905Y-8334079D01*
X17056862Y-8328036D01*
X17058682Y-8325530D01*
X17082880Y-8301333D01*
X17084786Y-8299032D01*
X17090548Y-8287068D01*
X17090548Y-8287068D01*
X17090548Y-8287068D01*
X17092527Y-8273938D01*
X17092527Y-8273937D01*
X17092158Y-8271492D01*
X17092002Y-8270458D01*
X17093005Y-8264423D01*
X17097363Y-8260129D01*
X17099228Y-8259421D01*
X17109132Y-8256767D01*
X17109132Y-8256767D01*
X17109132Y-8256767D01*
X17121684Y-8249520D01*
X17121684Y-8249520D01*
X17121685Y-8249520D01*
X17131934Y-8239270D01*
X17139182Y-8226717D01*
X17139182Y-8226717D01*
X17139412Y-8226162D01*
X17143385Y-8221509D01*
X17148558Y-8220050D01*
X17152247Y-8220050D01*
X17152248Y-8220050D01*
X17166249Y-8216298D01*
X17172760Y-8212539D01*
X17178745Y-8211267D01*
X17184334Y-8213755D01*
X17186630Y-8216817D01*
X17187332Y-8218275D01*
X17189238Y-8220576D01*
X17216542Y-8247880D01*
X17218843Y-8249786D01*
X17226405Y-8253428D01*
X17230828Y-8257656D01*
X17231920Y-8263676D01*
X17229266Y-8269189D01*
X17226406Y-8271267D01*
X17224788Y-8272046D01*
X17224788Y-8272046D01*
X17222512Y-8273931D01*
X17188932Y-8307512D01*
X17188931Y-8307513D01*
X17187046Y-8309788D01*
X17187046Y-8309788D01*
X17181350Y-8321616D01*
X17179705Y-8332531D01*
X17179393Y-8334598D01*
X17181350Y-8347579D01*
X17187046Y-8359408D01*
X17187046Y-8359408D01*
X17188931Y-8361683D01*
X17188933Y-8361685D01*
X17215442Y-8388194D01*
X17215443Y-8388195D01*
X17217717Y-8390079D01*
X17217717Y-8390079D01*
X17217717Y-8390079D01*
X17229545Y-8395775D01*
X17240223Y-8397384D01*
X17242527Y-8397732D01*
X17242527Y-8397732D01*
X17242527Y-8397732D01*
X17244484Y-8397437D01*
X17255508Y-8395775D01*
X17267337Y-8390079D01*
X17269612Y-8388194D01*
X17303193Y-8354612D01*
X17305079Y-8352337D01*
X17310775Y-8340508D01*
X17311991Y-8332444D01*
X17314727Y-8326972D01*
X17320158Y-8324153D01*
X17320290Y-8324132D01*
X17324950Y-8323430D01*
X17336914Y-8317668D01*
X17339216Y-8315762D01*
X17370762Y-8284215D01*
X17372668Y-8281914D01*
X17376310Y-8274352D01*
X17380538Y-8269930D01*
X17386558Y-8268837D01*
X17392071Y-8271492D01*
X17392230Y-8271647D01*
X17465094Y-8344511D01*
X17465475Y-8344914D01*
X17481289Y-8362610D01*
X17481982Y-8363478D01*
X17495553Y-8382606D01*
X17496144Y-8383546D01*
X17507488Y-8404072D01*
X17507969Y-8405072D01*
X17511095Y-8412617D01*
X17516944Y-8426739D01*
X17517311Y-8427787D01*
X17523804Y-8450324D01*
X17524051Y-8451406D01*
X17527979Y-8474527D01*
X17528103Y-8475630D01*
X17529434Y-8499336D01*
X17529450Y-8499892D01*
X17529450Y-9072972D01*
X17532726Y-9093655D01*
X17539198Y-9113574D01*
X17548705Y-9132233D01*
X17548706Y-9132234D01*
X17561015Y-9149176D01*
X17561015Y-9149176D01*
X17561015Y-9149176D01*
X17575824Y-9163985D01*
X17575824Y-9163985D01*
X17575824Y-9163985D01*
X17591922Y-9175681D01*
X17592767Y-9176295D01*
X17611427Y-9185802D01*
X17631344Y-9192274D01*
X17631344Y-9192274D01*
X17631345Y-9192274D01*
X17652028Y-9195550D01*
X17652029Y-9195550D01*
X17656503Y-9195550D01*
X17679243Y-9195550D01*
X17680274Y-9195604D01*
X17700082Y-9197678D01*
X18111131Y-9240715D01*
X18116722Y-9243201D01*
X18119783Y-9248499D01*
X18120000Y-9250561D01*
X18120000Y-9480000D01*
X18474050Y-9480000D01*
X18479869Y-9481891D01*
X18483466Y-9486841D01*
X18483950Y-9489900D01*
X18483950Y-9851036D01*
X18483856Y-9851325D01*
X18483933Y-9851619D01*
X18482919Y-9854209D01*
X18482059Y-9856855D01*
X18481703Y-9857317D01*
X18471329Y-9869957D01*
X18469957Y-9871329D01*
X18456311Y-9882529D01*
X18454697Y-9883607D01*
X18439128Y-9891928D01*
X18437335Y-9892671D01*
X18420442Y-9897795D01*
X18418539Y-9898174D01*
X18400484Y-9899952D01*
X18399514Y-9900000D01*
X17415827Y-9900000D01*
X17413118Y-9899622D01*
X17395356Y-9894568D01*
X17357542Y-9887500D01*
X17357542Y-9887500D01*
X17319235Y-9883950D01*
X17319235Y-9883950D01*
X17303193Y-9883950D01*
X14703663Y-9883950D01*
X14700000Y-9883950D01*
X14680765Y-9883950D01*
X14680764Y-9883950D01*
X14642458Y-9887500D01*
X14642457Y-9887500D01*
X14604644Y-9894568D01*
X14586882Y-9899622D01*
X14584173Y-9900000D01*
X13600486Y-9900000D01*
X13599516Y-9899952D01*
X13581461Y-9898174D01*
X13579558Y-9897795D01*
X13562665Y-9892671D01*
X13560872Y-9891928D01*
X13545303Y-9883607D01*
X13543689Y-9882529D01*
X13536866Y-9876929D01*
X13530043Y-9871329D01*
X13528671Y-9869957D01*
X13518297Y-9857317D01*
X13516067Y-9851619D01*
X13516050Y-9851036D01*
X13516050Y-9650310D01*
X13697450Y-9650310D01*
X13697450Y-9709690D01*
X13698452Y-9718035D01*
X13703688Y-9731313D01*
X13703688Y-9731313D01*
X13703688Y-9731313D01*
X13712313Y-9742687D01*
X13723687Y-9751312D01*
X13723687Y-9751312D01*
X13723687Y-9751312D01*
X13736965Y-9756548D01*
X13736965Y-9756548D01*
X13745310Y-9757550D01*
X13745310Y-9757550D01*
X13797190Y-9757550D01*
X13797190Y-9757550D01*
X13805535Y-9756548D01*
X13818813Y-9751312D01*
X13830187Y-9742687D01*
X13838811Y-9731313D01*
X13840790Y-9726295D01*
X13844684Y-9721576D01*
X13850608Y-9720046D01*
X13856300Y-9722291D01*
X13859209Y-9726295D01*
X13861183Y-9731298D01*
X13861189Y-9731313D01*
X13864022Y-9735050D01*
X13869813Y-9742687D01*
X13881187Y-9751312D01*
X13881187Y-9751312D01*
X13881187Y-9751312D01*
X13894465Y-9756548D01*
X13894465Y-9756548D01*
X13902810Y-9757550D01*
X13902810Y-9757550D01*
X13954690Y-9757550D01*
X13954690Y-9757550D01*
X13963035Y-9756548D01*
X13976313Y-9751312D01*
X13987687Y-9742687D01*
X13996311Y-9731313D01*
X14001548Y-9718035D01*
X14002550Y-9709690D01*
X14002550Y-9672753D01*
X14069950Y-9672753D01*
X14069950Y-9687247D01*
X14073702Y-9701249D01*
X14080949Y-9713801D01*
X14080949Y-9713801D01*
X14080949Y-9713802D01*
X14091198Y-9724051D01*
X14091199Y-9724051D01*
X14091199Y-9724051D01*
X14103751Y-9731298D01*
X14103751Y-9731298D01*
X14103751Y-9731298D01*
X14117752Y-9735050D01*
X14117753Y-9735050D01*
X14132247Y-9735050D01*
X14132247Y-9735050D01*
X14146248Y-9731298D01*
X14146249Y-9731298D01*
X14146249Y-9731298D01*
X14158801Y-9724051D01*
X14158801Y-9724051D01*
X14158801Y-9724051D01*
X14169051Y-9713802D01*
X14174680Y-9704051D01*
X14176298Y-9701249D01*
X14176298Y-9701249D01*
X14176298Y-9701249D01*
X14180050Y-9687248D01*
X14180050Y-9672753D01*
X14176298Y-9658752D01*
X14176298Y-9658751D01*
X14176298Y-9658751D01*
X14169051Y-9646199D01*
X14169051Y-9646199D01*
X14169051Y-9646199D01*
X14158801Y-9635949D01*
X14158801Y-9635949D01*
X14158801Y-9635949D01*
X14146249Y-9628702D01*
X14146249Y-9628702D01*
X14138073Y-9626511D01*
X14132247Y-9624950D01*
X14117752Y-9624950D01*
X14111926Y-9626511D01*
X14103751Y-9628702D01*
X14091199Y-9635949D01*
X14080949Y-9646199D01*
X14073702Y-9658751D01*
X14069950Y-9672753D01*
X14002550Y-9672753D01*
X14002550Y-9650310D01*
X14001548Y-9641965D01*
X14000280Y-9638752D01*
X13999490Y-9636747D01*
X13998800Y-9633116D01*
X13998800Y-9613153D01*
X14000691Y-9607334D01*
X14001699Y-9606153D01*
X14004051Y-9603802D01*
X14011298Y-9591249D01*
X14015050Y-9577248D01*
X14015050Y-9562753D01*
X14011298Y-9548752D01*
X14011298Y-9548751D01*
X14011298Y-9548751D01*
X14004051Y-9536199D01*
X14004051Y-9536199D01*
X14004051Y-9536199D01*
X13993801Y-9525949D01*
X13993801Y-9525949D01*
X13993801Y-9525949D01*
X13981249Y-9518702D01*
X13981249Y-9518702D01*
X13976147Y-9517335D01*
X13967247Y-9514950D01*
X13952752Y-9514950D01*
X13946579Y-9516604D01*
X13938751Y-9518702D01*
X13926199Y-9525949D01*
X13915949Y-9536199D01*
X13908702Y-9548751D01*
X13905366Y-9561199D01*
X13904950Y-9562753D01*
X13904950Y-9577248D01*
X13908470Y-9590385D01*
X13908150Y-9596495D01*
X13904300Y-9601250D01*
X13900088Y-9602777D01*
X13894465Y-9603452D01*
X13881187Y-9608688D01*
X13881187Y-9608689D01*
X13869814Y-9617313D01*
X13869813Y-9617314D01*
X13862838Y-9626511D01*
X13857816Y-9630005D01*
X13851698Y-9629880D01*
X13846823Y-9626183D01*
X13845050Y-9620529D01*
X13845050Y-9466187D01*
X13845297Y-9465428D01*
X13845172Y-9464639D01*
X13846224Y-9462573D01*
X13846941Y-9460368D01*
X13847949Y-9459188D01*
X13856500Y-9450637D01*
X13861951Y-9447859D01*
X13867994Y-9448816D01*
X13870500Y-9450637D01*
X13879158Y-9459295D01*
X13891450Y-9467508D01*
X13905109Y-9473166D01*
X13919608Y-9476050D01*
X13919608Y-9476050D01*
X13934392Y-9476050D01*
X13934392Y-9476050D01*
X13948891Y-9473166D01*
X13962549Y-9467508D01*
X13974842Y-9459295D01*
X13983500Y-9450637D01*
X13988951Y-9447859D01*
X13994994Y-9448816D01*
X13997500Y-9450637D01*
X14006158Y-9459295D01*
X14018450Y-9467508D01*
X14032109Y-9473166D01*
X14046608Y-9476050D01*
X14046608Y-9476050D01*
X14061392Y-9476050D01*
X14061392Y-9476050D01*
X14075891Y-9473166D01*
X14089549Y-9467508D01*
X14101842Y-9459295D01*
X14110500Y-9450637D01*
X14115951Y-9447859D01*
X14121994Y-9448816D01*
X14124500Y-9450637D01*
X14133158Y-9459295D01*
X14145450Y-9467508D01*
X14159109Y-9473166D01*
X14173608Y-9476050D01*
X14173608Y-9476050D01*
X14188392Y-9476050D01*
X14188392Y-9476050D01*
X14202891Y-9473166D01*
X14216549Y-9467508D01*
X14228842Y-9459295D01*
X14237500Y-9450637D01*
X14242951Y-9447859D01*
X14248994Y-9448816D01*
X14251500Y-9450637D01*
X14260158Y-9459295D01*
X14272450Y-9467508D01*
X14286109Y-9473166D01*
X14300608Y-9476050D01*
X14300608Y-9476050D01*
X14315392Y-9476050D01*
X14315392Y-9476050D01*
X14329891Y-9473166D01*
X14343549Y-9467508D01*
X14355842Y-9459295D01*
X14364500Y-9450637D01*
X14369951Y-9447859D01*
X14375994Y-9448816D01*
X14378500Y-9450637D01*
X14387158Y-9459295D01*
X14399450Y-9467508D01*
X14413109Y-9473166D01*
X14427608Y-9476050D01*
X14427608Y-9476050D01*
X14442392Y-9476050D01*
X14442392Y-9476050D01*
X14456891Y-9473166D01*
X14470549Y-9467508D01*
X14482842Y-9459295D01*
X14491500Y-9450637D01*
X14496951Y-9447859D01*
X14502994Y-9448816D01*
X14505500Y-9450637D01*
X14514158Y-9459295D01*
X14526450Y-9467508D01*
X14540109Y-9473166D01*
X14554608Y-9476050D01*
X14554608Y-9476050D01*
X14569392Y-9476050D01*
X14569392Y-9476050D01*
X14583891Y-9473166D01*
X14597549Y-9467508D01*
X14609842Y-9459295D01*
X14618500Y-9450637D01*
X14623951Y-9447859D01*
X14629994Y-9448816D01*
X14632500Y-9450637D01*
X14641158Y-9459295D01*
X14653450Y-9467508D01*
X14667109Y-9473166D01*
X14681608Y-9476050D01*
X14681608Y-9476050D01*
X14696392Y-9476050D01*
X14696392Y-9476050D01*
X14710891Y-9473166D01*
X14724549Y-9467508D01*
X14736842Y-9459295D01*
X14745500Y-9450637D01*
X14750951Y-9447859D01*
X14756994Y-9448816D01*
X14759500Y-9450637D01*
X14768158Y-9459295D01*
X14780450Y-9467508D01*
X14794109Y-9473166D01*
X14808608Y-9476050D01*
X14808608Y-9476050D01*
X14823392Y-9476050D01*
X14823392Y-9476050D01*
X14837891Y-9473166D01*
X14851549Y-9467508D01*
X14863842Y-9459295D01*
X14872500Y-9450637D01*
X14877951Y-9447859D01*
X14883994Y-9448816D01*
X14886500Y-9450637D01*
X14895158Y-9459295D01*
X14907450Y-9467508D01*
X14921109Y-9473166D01*
X14935608Y-9476050D01*
X14935608Y-9476050D01*
X14950392Y-9476050D01*
X14950392Y-9476050D01*
X14964891Y-9473166D01*
X14978549Y-9467508D01*
X14990842Y-9459295D01*
X14999500Y-9450637D01*
X15004951Y-9447859D01*
X15010994Y-9448816D01*
X15013500Y-9450637D01*
X15022158Y-9459295D01*
X15034450Y-9467508D01*
X15048109Y-9473166D01*
X15062608Y-9476050D01*
X15062608Y-9476050D01*
X15077392Y-9476050D01*
X15077392Y-9476050D01*
X15091891Y-9473166D01*
X15105549Y-9467508D01*
X15117842Y-9459295D01*
X15126500Y-9450637D01*
X15131951Y-9447859D01*
X15137994Y-9448816D01*
X15140500Y-9450637D01*
X15149158Y-9459295D01*
X15161450Y-9467508D01*
X15175109Y-9473166D01*
X15189608Y-9476050D01*
X15189608Y-9476050D01*
X15204392Y-9476050D01*
X15204392Y-9476050D01*
X15218891Y-9473166D01*
X15232549Y-9467508D01*
X15244842Y-9459295D01*
X15253500Y-9450637D01*
X15258951Y-9447859D01*
X15264994Y-9448816D01*
X15267500Y-9450637D01*
X15276158Y-9459295D01*
X15288450Y-9467508D01*
X15302109Y-9473166D01*
X15316608Y-9476050D01*
X15316608Y-9476050D01*
X15331392Y-9476050D01*
X15331392Y-9476050D01*
X15345891Y-9473166D01*
X15359549Y-9467508D01*
X15371842Y-9459295D01*
X15382295Y-9448842D01*
X15390508Y-9436550D01*
X15396166Y-9422891D01*
X15397199Y-9417697D01*
X15397345Y-9417069D01*
X15399230Y-9410036D01*
X15399230Y-9344347D01*
X15401121Y-9338528D01*
X15401477Y-9338067D01*
X15401713Y-9337779D01*
X15401714Y-9337778D01*
X15412663Y-9321391D01*
X15420205Y-9303184D01*
X15424050Y-9283854D01*
X15424050Y-9264146D01*
X15420451Y-9246054D01*
X15420451Y-9246053D01*
X15420205Y-9244817D01*
X15420205Y-9244816D01*
X15420013Y-9244354D01*
X16848950Y-9244354D01*
X16848950Y-9284646D01*
X16849234Y-9287673D01*
X16849234Y-9287673D01*
X16853694Y-9300420D01*
X16853694Y-9300420D01*
X16853694Y-9300420D01*
X16857926Y-9306154D01*
X16858640Y-9307121D01*
X16860574Y-9312926D01*
X16858727Y-9318759D01*
X16858640Y-9318879D01*
X16853694Y-9325580D01*
X16853694Y-9325580D01*
X16849234Y-9338327D01*
X16849234Y-9338327D01*
X16849052Y-9340262D01*
X16848953Y-9341327D01*
X16848950Y-9341354D01*
X16848950Y-9381646D01*
X16849234Y-9384673D01*
X16849234Y-9384673D01*
X16853694Y-9397420D01*
X16854015Y-9397855D01*
X16855950Y-9403660D01*
X16855950Y-9403734D01*
X16855950Y-9432203D01*
X16854803Y-9436828D01*
X16854615Y-9437184D01*
X16850229Y-9449718D01*
X16850229Y-9449719D01*
X16849950Y-9452692D01*
X16849950Y-9497308D01*
X16850229Y-9500281D01*
X16850229Y-9500282D01*
X16854615Y-9512815D01*
X16854615Y-9512816D01*
X16856015Y-9514714D01*
X16857950Y-9520518D01*
X16857950Y-9520592D01*
X16857950Y-9544408D01*
X16856059Y-9550227D01*
X16856016Y-9550286D01*
X16854615Y-9552184D01*
X16854615Y-9552185D01*
X16850229Y-9564718D01*
X16850229Y-9564719D01*
X16849950Y-9567692D01*
X16849950Y-9612308D01*
X16850229Y-9615281D01*
X16850229Y-9615282D01*
X16854615Y-9627815D01*
X16854615Y-9627816D01*
X16856015Y-9629714D01*
X16856028Y-9629750D01*
X16856059Y-9629773D01*
X16856996Y-9632656D01*
X16857950Y-9635518D01*
X16857950Y-9635592D01*
X16857950Y-9640253D01*
X16857613Y-9642815D01*
X16855674Y-9650050D01*
X16854950Y-9652753D01*
X16854950Y-9667247D01*
X16858702Y-9681249D01*
X16865949Y-9693801D01*
X16865949Y-9693801D01*
X16865949Y-9693802D01*
X16876199Y-9704051D01*
X16876199Y-9704051D01*
X16876199Y-9704051D01*
X16888751Y-9711298D01*
X16888751Y-9711298D01*
X16888752Y-9711298D01*
X16902753Y-9715050D01*
X16902753Y-9715050D01*
X16917247Y-9715050D01*
X16917248Y-9715050D01*
X16931249Y-9711298D01*
X16931249Y-9711298D01*
X16931249Y-9711298D01*
X16943801Y-9704051D01*
X16943801Y-9704051D01*
X16943802Y-9704051D01*
X16954051Y-9693802D01*
X16961298Y-9681249D01*
X16965050Y-9667248D01*
X16965050Y-9654950D01*
X16966941Y-9649131D01*
X16971891Y-9645535D01*
X16974950Y-9645050D01*
X16977247Y-9645050D01*
X16977248Y-9645050D01*
X16991249Y-9641298D01*
X16991249Y-9641298D01*
X16991249Y-9641298D01*
X17003801Y-9634051D01*
X17003801Y-9634051D01*
X17003802Y-9634051D01*
X17014051Y-9623802D01*
X17017797Y-9617313D01*
X17021298Y-9611249D01*
X17021298Y-9611249D01*
X17021298Y-9611249D01*
X17025050Y-9597248D01*
X17025050Y-9587753D01*
X17106950Y-9587753D01*
X17106950Y-9602248D01*
X17109645Y-9612307D01*
X17110702Y-9616249D01*
X17117949Y-9628801D01*
X17117949Y-9628801D01*
X17117949Y-9628802D01*
X17128199Y-9639051D01*
X17128199Y-9639051D01*
X17128199Y-9639051D01*
X17140751Y-9646298D01*
X17140751Y-9646298D01*
X17140752Y-9646298D01*
X17154753Y-9650050D01*
X17154753Y-9650050D01*
X17162050Y-9650050D01*
X17167869Y-9651941D01*
X17171466Y-9656891D01*
X17171950Y-9659950D01*
X17171950Y-9667247D01*
X17175702Y-9681249D01*
X17182949Y-9693801D01*
X17182949Y-9693801D01*
X17182949Y-9693802D01*
X17193199Y-9704051D01*
X17193199Y-9704051D01*
X17193199Y-9704051D01*
X17205751Y-9711298D01*
X17205751Y-9711298D01*
X17205752Y-9711298D01*
X17219753Y-9715050D01*
X17219753Y-9715050D01*
X17234247Y-9715050D01*
X17234248Y-9715050D01*
X17248249Y-9711298D01*
X17248249Y-9711298D01*
X17248249Y-9711298D01*
X17260801Y-9704051D01*
X17260801Y-9704051D01*
X17260802Y-9704051D01*
X17271051Y-9693802D01*
X17278298Y-9681249D01*
X17282050Y-9667248D01*
X17282050Y-9652753D01*
X17278298Y-9638752D01*
X17277540Y-9637438D01*
X17276268Y-9631453D01*
X17277160Y-9628523D01*
X17277140Y-9628516D01*
X17277307Y-9628039D01*
X17277362Y-9627860D01*
X17277385Y-9627816D01*
X17277385Y-9627816D01*
X17281771Y-9615282D01*
X17282050Y-9612307D01*
X17282050Y-9567693D01*
X17282050Y-9567693D01*
X17282050Y-9567692D01*
X17281771Y-9564719D01*
X17281771Y-9564718D01*
X17277385Y-9552184D01*
X17275984Y-9550286D01*
X17275972Y-9550249D01*
X17275941Y-9550227D01*
X17275005Y-9547348D01*
X17274050Y-9544481D01*
X17274050Y-9544408D01*
X17274050Y-9525592D01*
X17275941Y-9519773D01*
X17275985Y-9519714D01*
X17277385Y-9517816D01*
X17277385Y-9517815D01*
X17277554Y-9517335D01*
X17281771Y-9505282D01*
X17282050Y-9502307D01*
X17282050Y-9457693D01*
X17282050Y-9406734D01*
X17283941Y-9400915D01*
X17283985Y-9400855D01*
X17284306Y-9400420D01*
X17288766Y-9387673D01*
X17289050Y-9384646D01*
X17289050Y-9344354D01*
X17288766Y-9341327D01*
X17284306Y-9328580D01*
X17279360Y-9321879D01*
X17277426Y-9316074D01*
X17279273Y-9310241D01*
X17279360Y-9310121D01*
X17280018Y-9309230D01*
X17284306Y-9303420D01*
X17288766Y-9290673D01*
X17289050Y-9287646D01*
X17289050Y-9247354D01*
X17288766Y-9244327D01*
X17284306Y-9231580D01*
X17284205Y-9231444D01*
X17283984Y-9231144D01*
X17282050Y-9225339D01*
X17282050Y-9225266D01*
X17282050Y-9171753D01*
X17279969Y-9163985D01*
X17278298Y-9157752D01*
X17278298Y-9157751D01*
X17278298Y-9157751D01*
X17271051Y-9145199D01*
X17271051Y-9145199D01*
X17271051Y-9145199D01*
X17260802Y-9134949D01*
X17260801Y-9134949D01*
X17260801Y-9134949D01*
X17248249Y-9127702D01*
X17248249Y-9127702D01*
X17245290Y-9126909D01*
X17234248Y-9123950D01*
X17219753Y-9123950D01*
X17213579Y-9125604D01*
X17205751Y-9127702D01*
X17193199Y-9134949D01*
X17182949Y-9145199D01*
X17175702Y-9157751D01*
X17171950Y-9171753D01*
X17171950Y-9225266D01*
X17170059Y-9231085D01*
X17170016Y-9231144D01*
X17169694Y-9231580D01*
X17165234Y-9244327D01*
X17165234Y-9244327D01*
X17164950Y-9247354D01*
X17164950Y-9287646D01*
X17165234Y-9290673D01*
X17165234Y-9290673D01*
X17169694Y-9303420D01*
X17169694Y-9303420D01*
X17169694Y-9303420D01*
X17173926Y-9309154D01*
X17174640Y-9310121D01*
X17176574Y-9315926D01*
X17174727Y-9321759D01*
X17174640Y-9321879D01*
X17169694Y-9328580D01*
X17169694Y-9328580D01*
X17165234Y-9341327D01*
X17165234Y-9341327D01*
X17164950Y-9344354D01*
X17164950Y-9384646D01*
X17165234Y-9387673D01*
X17165234Y-9387673D01*
X17169694Y-9400420D01*
X17170015Y-9400855D01*
X17171950Y-9406660D01*
X17171950Y-9406734D01*
X17171950Y-9437203D01*
X17170803Y-9441828D01*
X17170615Y-9442184D01*
X17166229Y-9454718D01*
X17166229Y-9454719D01*
X17165950Y-9457692D01*
X17165950Y-9502308D01*
X17166229Y-9505281D01*
X17166229Y-9505282D01*
X17170615Y-9517815D01*
X17170615Y-9517816D01*
X17172015Y-9519714D01*
X17172028Y-9519750D01*
X17172059Y-9519773D01*
X17172996Y-9522656D01*
X17173950Y-9525518D01*
X17173950Y-9525592D01*
X17173950Y-9530050D01*
X17172059Y-9535869D01*
X17167109Y-9539466D01*
X17164050Y-9539950D01*
X17154753Y-9539950D01*
X17150050Y-9541210D01*
X17140751Y-9543702D01*
X17128199Y-9550949D01*
X17117949Y-9561199D01*
X17110702Y-9573751D01*
X17106950Y-9587753D01*
X17025050Y-9587753D01*
X17025050Y-9582753D01*
X17021298Y-9568752D01*
X17021298Y-9568751D01*
X17021298Y-9568751D01*
X17014051Y-9556199D01*
X17014051Y-9556199D01*
X17014051Y-9556199D01*
X17003802Y-9545949D01*
X17003801Y-9545949D01*
X17003801Y-9545949D01*
X16991249Y-9538702D01*
X16991249Y-9538702D01*
X16981950Y-9536210D01*
X16977248Y-9534950D01*
X16967950Y-9534950D01*
X16966459Y-9534466D01*
X16964891Y-9534466D01*
X16963622Y-9533544D01*
X16962131Y-9533059D01*
X16961209Y-9531791D01*
X16959941Y-9530869D01*
X16959456Y-9529378D01*
X16958535Y-9528109D01*
X16958050Y-9525050D01*
X16958050Y-9520592D01*
X16959941Y-9514773D01*
X16959985Y-9514714D01*
X16961385Y-9512816D01*
X16961385Y-9512815D01*
X16965771Y-9500282D01*
X16966050Y-9497307D01*
X16966050Y-9452693D01*
X16966050Y-9403734D01*
X16967941Y-9397915D01*
X16967985Y-9397855D01*
X16968306Y-9397420D01*
X16972766Y-9384673D01*
X16973050Y-9381646D01*
X16973050Y-9341354D01*
X16972766Y-9338327D01*
X16968306Y-9325580D01*
X16965486Y-9321759D01*
X16963360Y-9318879D01*
X16961426Y-9313074D01*
X16963273Y-9307241D01*
X16963360Y-9307121D01*
X16964018Y-9306230D01*
X16968306Y-9300420D01*
X16972766Y-9287673D01*
X16973050Y-9284646D01*
X16973050Y-9244354D01*
X16972766Y-9241327D01*
X16968306Y-9228580D01*
X16968205Y-9228444D01*
X16967984Y-9228144D01*
X16966050Y-9222339D01*
X16966050Y-9222266D01*
X16966050Y-9176753D01*
X16964710Y-9171753D01*
X16962298Y-9162752D01*
X16962298Y-9162751D01*
X16962298Y-9162751D01*
X16955051Y-9150199D01*
X16955051Y-9150199D01*
X16955051Y-9150199D01*
X16944802Y-9139949D01*
X16944801Y-9139949D01*
X16944801Y-9139949D01*
X16932249Y-9132702D01*
X16932249Y-9132702D01*
X16929290Y-9131909D01*
X16918248Y-9128950D01*
X16903753Y-9128950D01*
X16897579Y-9130604D01*
X16889751Y-9132702D01*
X16877199Y-9139949D01*
X16866949Y-9150199D01*
X16859702Y-9162751D01*
X16855950Y-9176753D01*
X16855950Y-9222266D01*
X16854059Y-9228085D01*
X16854016Y-9228144D01*
X16853694Y-9228580D01*
X16849234Y-9241327D01*
X16849234Y-9241327D01*
X16849204Y-9241644D01*
X16848953Y-9244327D01*
X16848950Y-9244354D01*
X15420013Y-9244354D01*
X15420013Y-9244354D01*
X15412663Y-9226609D01*
X15401714Y-9210222D01*
X15387778Y-9196286D01*
X15381773Y-9192274D01*
X15371392Y-9185337D01*
X15371391Y-9185337D01*
X15370161Y-9184827D01*
X15365509Y-9180854D01*
X15364050Y-9175681D01*
X15364050Y-8863727D01*
X15364050Y-8863727D01*
X15363038Y-8859950D01*
X15361321Y-8853541D01*
X15361320Y-8853541D01*
X15361320Y-8853541D01*
X15356048Y-8844409D01*
X15356048Y-8844409D01*
X15356048Y-8844409D01*
X15069591Y-8557952D01*
X15069591Y-8557952D01*
X15069591Y-8557952D01*
X15060459Y-8552679D01*
X15060459Y-8552679D01*
X15055497Y-8551350D01*
X15050273Y-8549950D01*
X15050272Y-8549950D01*
X14481903Y-8549950D01*
X14476501Y-8548347D01*
X14475634Y-8547782D01*
X14473801Y-8545949D01*
X14465127Y-8540941D01*
X14464905Y-8540797D01*
X14463141Y-8538613D01*
X14461263Y-8536527D01*
X14461234Y-8536252D01*
X14461060Y-8536037D01*
X14460917Y-8533234D01*
X14460623Y-8530442D01*
X14460761Y-8530202D01*
X14460747Y-8529926D01*
X14462279Y-8527574D01*
X14463683Y-8525143D01*
X14464023Y-8524896D01*
X14464086Y-8524799D01*
X14464234Y-8524742D01*
X14465357Y-8523926D01*
X14473801Y-8519051D01*
X14474903Y-8517949D01*
X14480354Y-8515172D01*
X14481903Y-8515050D01*
X15100272Y-8515050D01*
X15100273Y-8515050D01*
X15110459Y-8512321D01*
X15110459Y-8512321D01*
X15110459Y-8512321D01*
X15119591Y-8507048D01*
X15119591Y-8507048D01*
X15119591Y-8507048D01*
X15356048Y-8270591D01*
X15360040Y-8263676D01*
X15361320Y-8261459D01*
X15361320Y-8261459D01*
X15361321Y-8261459D01*
X15364050Y-8251273D01*
X15364050Y-8240727D01*
X15364050Y-7848319D01*
X15365941Y-7842500D01*
X15370161Y-7839172D01*
X15371391Y-7838663D01*
X15387778Y-7827714D01*
X15401714Y-7813778D01*
X15412663Y-7797391D01*
X15420205Y-7779183D01*
X15420678Y-7776807D01*
X15422061Y-7769851D01*
X15424050Y-7759854D01*
X15424050Y-7740146D01*
X15420205Y-7720816D01*
X15412663Y-7702609D01*
X15401714Y-7686222D01*
X15401713Y-7686221D01*
X15401476Y-7685932D01*
X15399247Y-7680234D01*
X15399230Y-7679653D01*
X15399230Y-7613964D01*
X15399230Y-7613963D01*
X15398845Y-7612527D01*
X15397345Y-7606931D01*
X15397198Y-7606300D01*
X15396897Y-7604786D01*
X15396166Y-7601109D01*
X15390508Y-7587450D01*
X15382295Y-7575158D01*
X15371842Y-7564705D01*
X15359549Y-7556492D01*
X15359064Y-7556290D01*
X15345891Y-7550834D01*
X15331392Y-7547950D01*
X15316608Y-7547950D01*
X15316608Y-7547950D01*
X15302108Y-7550834D01*
X15288451Y-7556491D01*
X15280290Y-7561944D01*
X15276158Y-7564705D01*
X15267500Y-7573363D01*
X15262049Y-7576141D01*
X15256005Y-7575184D01*
X15253500Y-7573363D01*
X15244842Y-7564705D01*
X15232549Y-7556492D01*
X15232064Y-7556290D01*
X15218891Y-7550834D01*
X15204392Y-7547950D01*
X15189608Y-7547950D01*
X15189608Y-7547950D01*
X15175108Y-7550834D01*
X15161451Y-7556491D01*
X15149158Y-7564705D01*
X15140500Y-7573363D01*
X15139337Y-7573955D01*
X15138466Y-7574927D01*
X15136678Y-7575310D01*
X15135049Y-7576141D01*
X15133759Y-7575936D01*
X15132483Y-7576210D01*
X15130984Y-7575497D01*
X15129005Y-7575183D01*
X15126889Y-7573732D01*
X15126689Y-7573552D01*
X15117842Y-7564705D01*
X15113864Y-7562047D01*
X15113339Y-7561576D01*
X15112141Y-7559509D01*
X15110662Y-7557633D01*
X15110488Y-7556658D01*
X15110270Y-7556283D01*
X15110325Y-7555749D01*
X15110050Y-7554207D01*
X15110050Y-7515335D01*
X15111941Y-7509516D01*
X15112357Y-7509028D01*
X15114059Y-7506723D01*
X15120438Y-7498079D01*
X15124774Y-7485688D01*
X15125050Y-7482746D01*
X15125050Y-7435254D01*
X15124774Y-7432312D01*
X15120438Y-7419921D01*
X15119934Y-7419238D01*
X15112202Y-7408761D01*
X15112261Y-7408717D01*
X15111941Y-7408484D01*
X15111224Y-7406279D01*
X15110172Y-7404213D01*
X15110050Y-7402665D01*
X15110050Y-7397450D01*
X15111941Y-7391631D01*
X15116891Y-7388034D01*
X15119950Y-7387550D01*
X15169486Y-7387550D01*
X15169486Y-7387550D01*
X15171999Y-7387258D01*
X15182276Y-7382721D01*
X15190221Y-7374776D01*
X15194758Y-7364499D01*
X15195050Y-7361986D01*
X15195050Y-7138014D01*
X15194758Y-7135501D01*
X15190221Y-7125223D01*
X15182276Y-7117279D01*
X15171999Y-7112741D01*
X15171999Y-7112741D01*
X15171999Y-7112741D01*
X15169487Y-7112450D01*
X14990514Y-7112450D01*
X14990514Y-7112450D01*
X14988001Y-7112741D01*
X14977723Y-7117279D01*
X14969779Y-7125223D01*
X14965241Y-7135501D01*
X14964950Y-7138013D01*
X14964950Y-7361986D01*
X14964950Y-7361986D01*
X14964950Y-7361986D01*
X14964984Y-7362278D01*
X14965241Y-7364499D01*
X14966757Y-7367932D01*
X14969779Y-7374776D01*
X14977723Y-7382721D01*
X14988001Y-7387258D01*
X14990513Y-7387550D01*
X15020050Y-7387550D01*
X15021541Y-7388034D01*
X15023109Y-7388034D01*
X15024378Y-7388956D01*
X15025869Y-7389441D01*
X15026790Y-7390709D01*
X15028059Y-7391631D01*
X15028544Y-7393122D01*
X15029465Y-7394391D01*
X15029950Y-7397450D01*
X15029950Y-7399494D01*
X15028059Y-7405314D01*
X15025929Y-7407460D01*
X15023358Y-7409357D01*
X15023357Y-7409358D01*
X15015562Y-7419920D01*
X15011226Y-7432312D01*
X15011226Y-7432312D01*
X15010950Y-7435253D01*
X15010950Y-7482746D01*
X15011226Y-7485687D01*
X15011226Y-7485688D01*
X15015562Y-7498079D01*
X15017840Y-7501166D01*
X15023358Y-7508642D01*
X15025929Y-7510540D01*
X15029488Y-7515516D01*
X15029950Y-7518505D01*
X15029950Y-7554207D01*
X15028059Y-7560026D01*
X15026661Y-7561576D01*
X15026136Y-7562047D01*
X15022158Y-7564705D01*
X15013313Y-7573550D01*
X15013111Y-7573732D01*
X15010546Y-7574868D01*
X15008048Y-7576141D01*
X15007772Y-7576097D01*
X15007517Y-7576210D01*
X15004774Y-7575622D01*
X15002005Y-7575183D01*
X15001702Y-7574963D01*
X15001534Y-7574927D01*
X15001313Y-7574680D01*
X14999500Y-7573363D01*
X14990842Y-7564705D01*
X14978549Y-7556492D01*
X14978064Y-7556290D01*
X14964891Y-7550834D01*
X14950392Y-7547950D01*
X14935608Y-7547950D01*
X14935608Y-7547950D01*
X14921108Y-7550834D01*
X14907451Y-7556491D01*
X14899290Y-7561944D01*
X14895158Y-7564705D01*
X14886500Y-7573363D01*
X14881049Y-7576141D01*
X14875005Y-7575184D01*
X14872500Y-7573363D01*
X14863842Y-7564705D01*
X14851549Y-7556492D01*
X14851064Y-7556290D01*
X14837891Y-7550834D01*
X14823392Y-7547950D01*
X14808608Y-7547950D01*
X14808608Y-7547950D01*
X14794108Y-7550834D01*
X14780451Y-7556491D01*
X14772290Y-7561944D01*
X14768158Y-7564705D01*
X14759500Y-7573363D01*
X14754049Y-7576141D01*
X14748005Y-7575184D01*
X14745500Y-7573363D01*
X14736842Y-7564705D01*
X14724549Y-7556492D01*
X14724064Y-7556290D01*
X14710891Y-7550834D01*
X14696392Y-7547950D01*
X14681608Y-7547950D01*
X14681608Y-7547950D01*
X14667108Y-7550834D01*
X14653451Y-7556491D01*
X14645290Y-7561944D01*
X14641158Y-7564705D01*
X14632500Y-7573363D01*
X14627049Y-7576141D01*
X14621005Y-7575184D01*
X14618500Y-7573363D01*
X14609842Y-7564705D01*
X14597549Y-7556492D01*
X14597064Y-7556290D01*
X14583891Y-7550834D01*
X14569392Y-7547950D01*
X14554608Y-7547950D01*
X14554608Y-7547950D01*
X14540108Y-7550834D01*
X14526451Y-7556491D01*
X14514158Y-7564705D01*
X14503705Y-7575158D01*
X14495492Y-7587450D01*
X14489834Y-7601108D01*
X14489834Y-7601109D01*
X14488801Y-7606300D01*
X14488654Y-7606931D01*
X14486770Y-7613964D01*
X14486770Y-7679653D01*
X14484879Y-7685472D01*
X14484524Y-7685932D01*
X14484286Y-7686221D01*
X14473337Y-7702609D01*
X14465795Y-7720816D01*
X14465795Y-7720816D01*
X14461950Y-7740146D01*
X14461950Y-7759854D01*
X14465795Y-7779183D01*
X14465795Y-7779184D01*
X14473337Y-7797391D01*
X14476970Y-7802829D01*
X14484286Y-7813778D01*
X14498222Y-7827714D01*
X14514609Y-7838663D01*
X14532816Y-7846205D01*
X14552146Y-7850050D01*
X14552146Y-7850050D01*
X14571854Y-7850050D01*
X14571854Y-7850050D01*
X14591183Y-7846205D01*
X14609391Y-7838663D01*
X14625778Y-7827714D01*
X14639714Y-7813778D01*
X14650663Y-7797391D01*
X14658205Y-7779183D01*
X14658678Y-7776807D01*
X14660061Y-7769851D01*
X14662050Y-7759854D01*
X14662050Y-7742914D01*
X14663941Y-7737095D01*
X14668891Y-7733498D01*
X14673499Y-7733136D01*
X14676547Y-7733619D01*
X14681821Y-7734454D01*
X14686600Y-7734830D01*
X14686601Y-7734830D01*
X14691805Y-7734830D01*
X14701245Y-7733335D01*
X14701245Y-7733335D01*
X14701245Y-7733335D01*
X14702991Y-7732767D01*
X14709109Y-7732767D01*
X14714059Y-7736364D01*
X14715950Y-7742183D01*
X14715950Y-7759854D01*
X14719795Y-7779183D01*
X14719795Y-7779184D01*
X14727337Y-7797391D01*
X14730970Y-7802829D01*
X14738286Y-7813778D01*
X14752222Y-7827714D01*
X14768609Y-7838663D01*
X14786816Y-7846205D01*
X14806146Y-7850050D01*
X14806146Y-7850050D01*
X14825854Y-7850050D01*
X14825854Y-7850050D01*
X14845183Y-7846205D01*
X14863391Y-7838663D01*
X14879778Y-7827714D01*
X14893714Y-7813778D01*
X14904663Y-7797391D01*
X14912205Y-7779183D01*
X14912678Y-7776807D01*
X14914061Y-7769851D01*
X14916050Y-7759854D01*
X14916050Y-7742914D01*
X14917941Y-7737095D01*
X14922891Y-7733498D01*
X14927499Y-7733136D01*
X14930547Y-7733619D01*
X14935821Y-7734454D01*
X14940600Y-7734830D01*
X14940601Y-7734830D01*
X14945805Y-7734830D01*
X14955245Y-7733335D01*
X14955245Y-7733335D01*
X14955245Y-7733335D01*
X14956991Y-7732767D01*
X14963109Y-7732767D01*
X14968059Y-7736364D01*
X14969950Y-7742183D01*
X14969950Y-7759854D01*
X14973795Y-7779183D01*
X14973795Y-7779184D01*
X14981337Y-7797391D01*
X14984970Y-7802829D01*
X14992286Y-7813778D01*
X15006222Y-7827714D01*
X15022609Y-7838663D01*
X15040816Y-7846205D01*
X15060146Y-7850050D01*
X15060146Y-7850050D01*
X15079854Y-7850050D01*
X15079854Y-7850050D01*
X15099183Y-7846205D01*
X15117391Y-7838663D01*
X15133778Y-7827714D01*
X15147714Y-7813778D01*
X15158663Y-7797391D01*
X15166205Y-7779183D01*
X15166678Y-7776807D01*
X15168061Y-7769851D01*
X15170050Y-7759854D01*
X15170050Y-7742914D01*
X15171941Y-7737095D01*
X15176891Y-7733498D01*
X15181499Y-7733136D01*
X15184547Y-7733619D01*
X15189821Y-7734454D01*
X15194600Y-7734830D01*
X15194601Y-7734830D01*
X15199805Y-7734830D01*
X15209245Y-7733335D01*
X15209245Y-7733335D01*
X15209245Y-7733335D01*
X15210991Y-7732767D01*
X15217109Y-7732767D01*
X15222059Y-7736364D01*
X15223950Y-7742183D01*
X15223950Y-7759854D01*
X15227795Y-7779183D01*
X15227795Y-7779184D01*
X15235337Y-7797391D01*
X15238970Y-7802829D01*
X15246286Y-7813778D01*
X15260222Y-7827714D01*
X15265952Y-7831543D01*
X15276608Y-7838663D01*
X15276608Y-7838663D01*
X15276609Y-7838663D01*
X15277838Y-7839172D01*
X15282491Y-7843146D01*
X15283950Y-7848319D01*
X15283950Y-8225310D01*
X15282059Y-8231129D01*
X15281050Y-8232310D01*
X15081310Y-8432050D01*
X15075859Y-8434828D01*
X15074310Y-8434950D01*
X14784548Y-8434950D01*
X14778729Y-8433059D01*
X14775133Y-8428109D01*
X14774996Y-8422895D01*
X14774965Y-8422891D01*
X14774991Y-8422695D01*
X14774986Y-8422488D01*
X14775050Y-8422248D01*
X14775050Y-8407753D01*
X14773393Y-8401570D01*
X14771298Y-8393752D01*
X14771298Y-8393751D01*
X14771298Y-8393751D01*
X14764051Y-8381199D01*
X14764051Y-8381199D01*
X14764051Y-8381198D01*
X14753801Y-8370949D01*
X14753801Y-8370949D01*
X14753801Y-8370949D01*
X14741249Y-8363702D01*
X14741249Y-8363702D01*
X14733714Y-8361683D01*
X14727247Y-8359950D01*
X14712752Y-8359950D01*
X14706579Y-8361604D01*
X14698751Y-8363702D01*
X14686199Y-8370949D01*
X14675949Y-8381199D01*
X14668702Y-8393751D01*
X14664950Y-8407753D01*
X14664950Y-8422248D01*
X14664950Y-8422248D01*
X14665014Y-8422488D01*
X14665005Y-8422665D01*
X14665035Y-8422891D01*
X14664993Y-8422896D01*
X14664694Y-8428598D01*
X14660844Y-8433353D01*
X14655452Y-8434950D01*
X14481903Y-8434950D01*
X14476084Y-8433059D01*
X14474903Y-8432051D01*
X14473801Y-8430949D01*
X14473801Y-8430949D01*
X14473801Y-8430949D01*
X14461249Y-8423702D01*
X14461249Y-8423702D01*
X14455461Y-8422151D01*
X14447247Y-8419950D01*
X14432752Y-8419950D01*
X14426579Y-8421604D01*
X14418751Y-8423702D01*
X14406199Y-8430949D01*
X14395949Y-8441199D01*
X14388702Y-8453751D01*
X14384950Y-8467753D01*
X14384950Y-8482247D01*
X14388702Y-8496249D01*
X14395949Y-8508801D01*
X14395949Y-8508801D01*
X14395949Y-8508802D01*
X14406198Y-8519051D01*
X14406199Y-8519051D01*
X14406199Y-8519051D01*
X14414643Y-8523926D01*
X14418737Y-8528473D01*
X14419377Y-8534558D01*
X14416317Y-8539857D01*
X14414643Y-8541074D01*
X14406199Y-8545949D01*
X14395949Y-8556199D01*
X14388702Y-8568751D01*
X14384950Y-8582753D01*
X14384950Y-8597247D01*
X14388702Y-8611249D01*
X14395949Y-8623801D01*
X14395949Y-8623801D01*
X14395949Y-8623802D01*
X14406198Y-8634051D01*
X14406199Y-8634051D01*
X14406199Y-8634051D01*
X14418751Y-8641298D01*
X14418751Y-8641298D01*
X14418751Y-8641298D01*
X14432752Y-8645050D01*
X14432753Y-8645050D01*
X14447247Y-8645050D01*
X14447247Y-8645050D01*
X14461248Y-8641298D01*
X14461249Y-8641298D01*
X14461249Y-8641298D01*
X14473801Y-8634051D01*
X14473801Y-8634051D01*
X14473801Y-8634051D01*
X14474903Y-8632949D01*
X14480354Y-8630172D01*
X14481903Y-8630050D01*
X15024310Y-8630050D01*
X15030129Y-8631941D01*
X15031310Y-8632950D01*
X15281050Y-8882690D01*
X15283828Y-8888141D01*
X15283950Y-8889690D01*
X15283950Y-9175681D01*
X15282059Y-9181500D01*
X15277839Y-9184827D01*
X15276609Y-9185337D01*
X15276608Y-9185337D01*
X15260222Y-9196286D01*
X15260221Y-9196286D01*
X15246286Y-9210221D01*
X15246286Y-9210222D01*
X15235337Y-9226609D01*
X15227795Y-9244816D01*
X15227795Y-9244817D01*
X15223950Y-9264146D01*
X15223950Y-9281086D01*
X15222059Y-9286905D01*
X15217109Y-9290502D01*
X15212501Y-9290864D01*
X15204181Y-9289546D01*
X15204179Y-9289546D01*
X15204179Y-9289546D01*
X15199400Y-9289170D01*
X15194195Y-9289170D01*
X15194195Y-9289170D01*
X15184755Y-9290665D01*
X15183009Y-9291232D01*
X15176890Y-9291232D01*
X15171940Y-9287636D01*
X15170050Y-9281817D01*
X15170050Y-9264146D01*
X15170050Y-9264146D01*
X15166205Y-9244817D01*
X15158663Y-9226609D01*
X15147714Y-9210222D01*
X15133778Y-9196286D01*
X15118088Y-9185802D01*
X15117391Y-9185337D01*
X15099183Y-9177795D01*
X15079854Y-9173950D01*
X15079854Y-9173950D01*
X15060146Y-9173950D01*
X15060146Y-9173950D01*
X15040816Y-9177795D01*
X15040816Y-9177795D01*
X15022609Y-9185337D01*
X15006222Y-9196286D01*
X15006221Y-9196286D01*
X14992286Y-9210221D01*
X14992286Y-9210222D01*
X14981337Y-9226609D01*
X14973795Y-9244816D01*
X14973795Y-9244817D01*
X14969950Y-9264146D01*
X14969950Y-9281086D01*
X14968059Y-9286905D01*
X14963109Y-9290502D01*
X14958501Y-9290864D01*
X14950181Y-9289546D01*
X14950179Y-9289546D01*
X14950179Y-9289546D01*
X14945400Y-9289170D01*
X14940195Y-9289170D01*
X14940195Y-9289170D01*
X14930755Y-9290665D01*
X14929009Y-9291232D01*
X14922890Y-9291232D01*
X14917940Y-9287636D01*
X14916050Y-9281817D01*
X14916050Y-9264146D01*
X14916050Y-9264146D01*
X14912205Y-9244817D01*
X14904663Y-9226609D01*
X14893714Y-9210222D01*
X14879778Y-9196286D01*
X14864088Y-9185802D01*
X14863391Y-9185337D01*
X14845183Y-9177795D01*
X14825854Y-9173950D01*
X14825854Y-9173950D01*
X14806146Y-9173950D01*
X14806146Y-9173950D01*
X14786816Y-9177795D01*
X14786816Y-9177795D01*
X14768609Y-9185337D01*
X14752222Y-9196286D01*
X14752221Y-9196286D01*
X14738286Y-9210221D01*
X14738286Y-9210222D01*
X14727337Y-9226609D01*
X14719795Y-9244816D01*
X14719795Y-9244817D01*
X14715950Y-9264146D01*
X14715950Y-9281086D01*
X14714059Y-9286905D01*
X14709109Y-9290502D01*
X14704501Y-9290864D01*
X14696181Y-9289546D01*
X14696179Y-9289546D01*
X14696179Y-9289546D01*
X14691400Y-9289170D01*
X14686195Y-9289170D01*
X14686195Y-9289170D01*
X14676755Y-9290665D01*
X14675009Y-9291232D01*
X14668890Y-9291232D01*
X14663940Y-9287636D01*
X14662050Y-9281817D01*
X14662050Y-9264146D01*
X14662050Y-9264146D01*
X14658205Y-9244817D01*
X14650663Y-9226609D01*
X14639714Y-9210222D01*
X14625778Y-9196286D01*
X14610088Y-9185802D01*
X14609391Y-9185337D01*
X14591183Y-9177795D01*
X14571854Y-9173950D01*
X14571854Y-9173950D01*
X14552146Y-9173950D01*
X14552146Y-9173950D01*
X14532816Y-9177795D01*
X14532816Y-9177795D01*
X14514609Y-9185337D01*
X14498222Y-9196286D01*
X14498221Y-9196286D01*
X14484286Y-9210221D01*
X14484286Y-9210222D01*
X14473337Y-9226609D01*
X14465795Y-9244816D01*
X14465795Y-9244817D01*
X14461950Y-9264146D01*
X14461950Y-9281086D01*
X14460059Y-9286905D01*
X14455109Y-9290502D01*
X14450501Y-9290864D01*
X14442181Y-9289546D01*
X14442179Y-9289546D01*
X14442179Y-9289546D01*
X14437400Y-9289170D01*
X14432195Y-9289170D01*
X14432195Y-9289170D01*
X14422755Y-9290665D01*
X14421009Y-9291232D01*
X14414890Y-9291232D01*
X14409940Y-9287636D01*
X14408050Y-9281817D01*
X14408050Y-9264146D01*
X14408050Y-9264146D01*
X14404205Y-9244817D01*
X14396663Y-9226609D01*
X14385714Y-9210222D01*
X14371778Y-9196286D01*
X14356088Y-9185802D01*
X14355391Y-9185337D01*
X14337183Y-9177795D01*
X14317854Y-9173950D01*
X14317854Y-9173950D01*
X14298146Y-9173950D01*
X14298146Y-9173950D01*
X14278816Y-9177795D01*
X14278816Y-9177795D01*
X14260609Y-9185337D01*
X14244222Y-9196286D01*
X14244221Y-9196286D01*
X14230286Y-9210221D01*
X14230286Y-9210222D01*
X14219337Y-9226609D01*
X14211795Y-9244816D01*
X14211795Y-9244817D01*
X14207950Y-9264146D01*
X14207950Y-9281086D01*
X14206059Y-9286905D01*
X14201109Y-9290502D01*
X14196501Y-9290864D01*
X14188181Y-9289546D01*
X14188179Y-9289546D01*
X14188179Y-9289546D01*
X14183400Y-9289170D01*
X14178195Y-9289170D01*
X14178195Y-9289170D01*
X14168755Y-9290665D01*
X14167009Y-9291232D01*
X14160890Y-9291232D01*
X14155940Y-9287636D01*
X14154050Y-9281817D01*
X14154050Y-9264146D01*
X14154050Y-9264146D01*
X14150205Y-9244817D01*
X14142663Y-9226609D01*
X14131714Y-9210222D01*
X14117778Y-9196286D01*
X14102088Y-9185802D01*
X14101391Y-9185337D01*
X14083183Y-9177795D01*
X14063854Y-9173950D01*
X14063854Y-9173950D01*
X14044146Y-9173950D01*
X14044146Y-9173950D01*
X14024816Y-9177795D01*
X14024816Y-9177795D01*
X14006609Y-9185337D01*
X13990222Y-9196286D01*
X13990221Y-9196286D01*
X13976286Y-9210221D01*
X13976286Y-9210222D01*
X13965337Y-9226609D01*
X13957795Y-9244816D01*
X13957795Y-9244817D01*
X13953950Y-9264146D01*
X13953950Y-9281086D01*
X13952059Y-9286905D01*
X13947109Y-9290502D01*
X13942501Y-9290864D01*
X13934181Y-9289546D01*
X13934179Y-9289546D01*
X13934179Y-9289546D01*
X13929400Y-9289170D01*
X13924195Y-9289170D01*
X13924195Y-9289170D01*
X13914755Y-9290665D01*
X13913009Y-9291232D01*
X13906890Y-9291232D01*
X13901940Y-9287636D01*
X13900050Y-9281817D01*
X13900050Y-9264146D01*
X13900050Y-9264146D01*
X13896205Y-9244817D01*
X13888663Y-9226609D01*
X13877714Y-9210222D01*
X13863778Y-9196286D01*
X13848088Y-9185802D01*
X13847391Y-9185337D01*
X13829183Y-9177795D01*
X13809854Y-9173950D01*
X13809854Y-9173950D01*
X13790146Y-9173950D01*
X13790146Y-9173950D01*
X13770816Y-9177795D01*
X13770816Y-9177795D01*
X13752609Y-9185337D01*
X13736222Y-9196286D01*
X13736221Y-9196286D01*
X13722286Y-9210221D01*
X13722286Y-9210222D01*
X13711337Y-9226609D01*
X13703795Y-9244816D01*
X13703795Y-9244817D01*
X13699950Y-9264146D01*
X13699950Y-9283854D01*
X13703795Y-9303183D01*
X13703795Y-9303184D01*
X13711337Y-9321391D01*
X13714135Y-9325580D01*
X13722286Y-9337778D01*
X13722286Y-9337778D01*
X13722523Y-9338067D01*
X13724753Y-9343765D01*
X13724770Y-9344347D01*
X13724770Y-9410036D01*
X13726654Y-9417069D01*
X13726801Y-9417700D01*
X13727834Y-9422891D01*
X13727834Y-9422891D01*
X13727834Y-9422891D01*
X13733492Y-9436550D01*
X13741705Y-9448842D01*
X13752050Y-9459187D01*
X13754828Y-9464639D01*
X13754950Y-9466187D01*
X13754950Y-9592550D01*
X13753059Y-9598369D01*
X13748109Y-9601966D01*
X13745600Y-9602363D01*
X13745603Y-9602410D01*
X13745604Y-9602415D01*
X13745603Y-9602415D01*
X13745604Y-9602432D01*
X13745309Y-9602450D01*
X13736965Y-9603452D01*
X13723687Y-9608688D01*
X13723687Y-9608689D01*
X13712314Y-9617313D01*
X13712313Y-9617314D01*
X13703689Y-9628687D01*
X13703688Y-9628687D01*
X13698452Y-9641965D01*
X13697450Y-9650310D01*
X13516050Y-9650310D01*
X13516050Y-7237752D01*
X13594950Y-7237752D01*
X13594950Y-8684747D01*
X13597574Y-8694541D01*
X13598701Y-8698748D01*
X13598702Y-8698749D01*
X13605949Y-8711302D01*
X13778698Y-8884051D01*
X13790183Y-8890681D01*
X13791251Y-8891298D01*
X13805252Y-8895050D01*
X13805253Y-8895050D01*
X13819747Y-8895050D01*
X13819747Y-8895050D01*
X13833748Y-8891298D01*
X13834817Y-8890681D01*
X13846301Y-8884051D01*
X13856551Y-8873802D01*
X13863798Y-8861249D01*
X13865740Y-8854003D01*
X13867550Y-8847248D01*
X13867550Y-8832753D01*
X13863798Y-8818752D01*
X13861790Y-8815273D01*
X13856551Y-8806199D01*
X13707950Y-8657597D01*
X13705172Y-8652145D01*
X13705050Y-8650597D01*
X13705050Y-7997752D01*
X15017450Y-7997752D01*
X15017450Y-8012247D01*
X15020307Y-8022910D01*
X15021202Y-8026249D01*
X15028449Y-8038801D01*
X15028449Y-8038801D01*
X15028449Y-8038801D01*
X15038698Y-8049051D01*
X15038699Y-8049051D01*
X15038699Y-8049051D01*
X15051251Y-8056298D01*
X15051251Y-8056298D01*
X15051251Y-8056298D01*
X15065252Y-8060050D01*
X15065253Y-8060050D01*
X15079747Y-8060050D01*
X15079747Y-8060050D01*
X15093748Y-8056298D01*
X15093749Y-8056298D01*
X15093749Y-8056298D01*
X15106301Y-8049051D01*
X15106301Y-8049051D01*
X15106301Y-8049051D01*
X15116551Y-8038801D01*
X15123798Y-8026248D01*
X15127550Y-8012247D01*
X15127550Y-7997752D01*
X15123798Y-7983751D01*
X15123798Y-7983751D01*
X15123798Y-7983751D01*
X15116551Y-7971199D01*
X15116551Y-7971199D01*
X15116551Y-7971198D01*
X15106301Y-7960949D01*
X15106301Y-7960949D01*
X15106301Y-7960949D01*
X15093749Y-7953702D01*
X15093749Y-7953702D01*
X15083476Y-7950949D01*
X15079747Y-7949950D01*
X15065252Y-7949950D01*
X15061524Y-7950949D01*
X15051251Y-7953702D01*
X15038699Y-7960949D01*
X15028449Y-7971199D01*
X15021202Y-7983751D01*
X15018065Y-7995457D01*
X15017450Y-7997752D01*
X13705050Y-7997752D01*
X13705050Y-7820443D01*
X13706941Y-7814624D01*
X13711891Y-7811027D01*
X13718009Y-7811027D01*
X13721950Y-7813442D01*
X13722286Y-7813778D01*
X13722286Y-7813778D01*
X13736222Y-7827714D01*
X13752609Y-7838663D01*
X13770816Y-7846205D01*
X13790146Y-7850050D01*
X13790146Y-7850050D01*
X13809854Y-7850050D01*
X13809854Y-7850050D01*
X13829183Y-7846205D01*
X13847391Y-7838663D01*
X13863778Y-7827714D01*
X13877714Y-7813778D01*
X13888663Y-7797391D01*
X13896205Y-7779183D01*
X13896678Y-7776807D01*
X13898061Y-7769851D01*
X13900050Y-7759854D01*
X13900050Y-7740146D01*
X13900050Y-7740146D01*
X14207950Y-7740146D01*
X14207950Y-7759854D01*
X14211795Y-7779183D01*
X14211795Y-7779184D01*
X14219337Y-7797391D01*
X14222970Y-7802829D01*
X14230286Y-7813778D01*
X14244222Y-7827714D01*
X14260609Y-7838663D01*
X14278816Y-7846205D01*
X14298146Y-7850050D01*
X14298146Y-7850050D01*
X14317854Y-7850050D01*
X14317854Y-7850050D01*
X14337183Y-7846205D01*
X14355391Y-7838663D01*
X14371778Y-7827714D01*
X14385714Y-7813778D01*
X14396663Y-7797391D01*
X14404205Y-7779183D01*
X14404678Y-7776807D01*
X14406061Y-7769851D01*
X14408050Y-7759854D01*
X14408050Y-7740146D01*
X14404205Y-7720816D01*
X14396663Y-7702609D01*
X14385714Y-7686222D01*
X14385713Y-7686221D01*
X14385476Y-7685932D01*
X14383247Y-7680234D01*
X14383230Y-7679653D01*
X14383230Y-7613964D01*
X14383230Y-7613963D01*
X14382845Y-7612527D01*
X14381345Y-7606931D01*
X14381198Y-7606300D01*
X14380897Y-7604786D01*
X14380166Y-7601109D01*
X14374508Y-7587450D01*
X14366295Y-7575158D01*
X14355842Y-7564705D01*
X14343549Y-7556492D01*
X14343064Y-7556290D01*
X14329891Y-7550834D01*
X14315392Y-7547950D01*
X14300608Y-7547950D01*
X14300608Y-7547950D01*
X14286108Y-7550834D01*
X14272451Y-7556491D01*
X14260158Y-7564705D01*
X14249705Y-7575158D01*
X14241492Y-7587450D01*
X14235834Y-7601108D01*
X14235834Y-7601109D01*
X14234801Y-7606300D01*
X14234654Y-7606931D01*
X14232770Y-7613964D01*
X14232770Y-7679653D01*
X14230879Y-7685472D01*
X14230524Y-7685932D01*
X14230286Y-7686221D01*
X14219337Y-7702609D01*
X14211795Y-7720816D01*
X14211795Y-7720816D01*
X14207950Y-7740146D01*
X13900050Y-7740146D01*
X13896205Y-7720816D01*
X13888663Y-7702609D01*
X13877714Y-7686222D01*
X13877713Y-7686221D01*
X13877476Y-7685932D01*
X13875247Y-7680234D01*
X13875230Y-7679653D01*
X13875230Y-7613964D01*
X13875230Y-7613963D01*
X13874845Y-7612527D01*
X13873345Y-7606931D01*
X13873198Y-7606300D01*
X13872897Y-7604786D01*
X13872166Y-7601109D01*
X13868246Y-7591646D01*
X13866508Y-7587451D01*
X13861718Y-7580282D01*
X13860050Y-7574781D01*
X13860050Y-7469215D01*
X13861941Y-7463396D01*
X13866370Y-7460178D01*
X13866318Y-7460059D01*
X13866868Y-7459816D01*
X13866891Y-7459800D01*
X13866935Y-7459787D01*
X13866999Y-7459758D01*
X13866999Y-7459758D01*
X13877276Y-7455221D01*
X13885221Y-7447276D01*
X13889758Y-7436999D01*
X13890050Y-7434486D01*
X13890050Y-7305514D01*
X13889758Y-7303001D01*
X13885221Y-7292723D01*
X13877276Y-7284779D01*
X13866999Y-7280241D01*
X13866999Y-7280241D01*
X13866999Y-7280241D01*
X13864487Y-7279950D01*
X13735514Y-7279950D01*
X13735514Y-7279950D01*
X13733001Y-7280241D01*
X13722723Y-7284779D01*
X13721950Y-7285553D01*
X13719885Y-7286605D01*
X13718009Y-7287968D01*
X13717210Y-7287968D01*
X13716499Y-7288330D01*
X13714209Y-7287968D01*
X13711891Y-7287968D01*
X13711244Y-7287498D01*
X13710455Y-7287373D01*
X13708816Y-7285734D01*
X13706941Y-7284371D01*
X13706694Y-7283611D01*
X13706129Y-7283047D01*
X13705050Y-7278552D01*
X13705050Y-7271903D01*
X13706941Y-7266084D01*
X13707950Y-7264903D01*
X13724903Y-7247950D01*
X13730355Y-7245172D01*
X13731903Y-7245050D01*
X13782752Y-7245050D01*
X13797247Y-7245050D01*
X13819266Y-7245050D01*
X13825085Y-7246941D01*
X13825145Y-7246984D01*
X13825580Y-7247306D01*
X13825580Y-7247306D01*
X13825580Y-7247306D01*
X13838327Y-7251766D01*
X13838327Y-7251766D01*
X13838327Y-7251766D01*
X13838327Y-7251766D01*
X13841354Y-7252050D01*
X13881646Y-7252050D01*
X13881646Y-7252050D01*
X13882251Y-7251993D01*
X13884673Y-7251766D01*
X13897420Y-7247306D01*
X13904121Y-7242360D01*
X13909926Y-7240426D01*
X13915759Y-7242273D01*
X13915879Y-7242360D01*
X13922580Y-7247305D01*
X13922580Y-7247306D01*
X13929529Y-7249737D01*
X13935327Y-7251766D01*
X13935327Y-7251766D01*
X13935327Y-7251766D01*
X13935327Y-7251766D01*
X13938354Y-7252050D01*
X13978646Y-7252050D01*
X13978646Y-7252050D01*
X13979251Y-7251993D01*
X13981673Y-7251766D01*
X13994420Y-7247306D01*
X13994834Y-7247000D01*
X14005286Y-7239286D01*
X14005286Y-7239286D01*
X14005286Y-7239286D01*
X14005445Y-7239071D01*
X14005643Y-7238929D01*
X14005810Y-7238762D01*
X14005838Y-7238790D01*
X14006691Y-7238180D01*
X14007591Y-7236941D01*
X14009117Y-7236445D01*
X14010422Y-7235512D01*
X14013410Y-7235050D01*
X14025050Y-7235050D01*
X14030869Y-7236941D01*
X14034465Y-7241891D01*
X14034950Y-7244950D01*
X14034950Y-7270050D01*
X14033059Y-7275869D01*
X14028109Y-7279465D01*
X14025050Y-7279950D01*
X14015514Y-7279950D01*
X14015513Y-7279950D01*
X14013001Y-7280241D01*
X14002723Y-7284779D01*
X13994779Y-7292723D01*
X13990241Y-7303001D01*
X13989950Y-7305513D01*
X13989950Y-7434486D01*
X13989950Y-7434486D01*
X13990241Y-7436999D01*
X13991594Y-7440063D01*
X13994779Y-7447276D01*
X14002723Y-7455221D01*
X14013001Y-7459758D01*
X14015513Y-7460050D01*
X14144486Y-7460050D01*
X14146999Y-7459758D01*
X14157276Y-7455221D01*
X14165221Y-7447276D01*
X14169758Y-7436999D01*
X14170050Y-7434486D01*
X14170050Y-7305514D01*
X14169758Y-7303001D01*
X14165221Y-7292723D01*
X14157276Y-7284779D01*
X14146999Y-7280241D01*
X14146999Y-7280241D01*
X14146999Y-7280241D01*
X14144487Y-7279950D01*
X14144486Y-7279950D01*
X14134950Y-7279950D01*
X14129131Y-7278059D01*
X14125534Y-7273109D01*
X14125050Y-7270050D01*
X14125050Y-7245050D01*
X14126941Y-7239231D01*
X14127083Y-7239065D01*
X14135385Y-7227816D01*
X14135385Y-7227816D01*
X14135385Y-7227816D01*
X14139771Y-7215282D01*
X14140050Y-7212307D01*
X14140050Y-7167693D01*
X14140050Y-7167693D01*
X14140050Y-7167692D01*
X14140028Y-7167462D01*
X14139771Y-7164718D01*
X14135385Y-7152184D01*
X14135385Y-7152184D01*
X14127500Y-7141500D01*
X14127499Y-7141500D01*
X14116816Y-7133615D01*
X14104282Y-7129229D01*
X14104281Y-7129229D01*
X14101308Y-7128950D01*
X14101307Y-7128950D01*
X14062693Y-7128950D01*
X14062692Y-7128950D01*
X14059718Y-7129229D01*
X14059718Y-7129229D01*
X14047184Y-7133615D01*
X14036500Y-7141500D01*
X14035975Y-7142025D01*
X14035731Y-7141780D01*
X14035675Y-7141820D01*
X14034775Y-7143059D01*
X14033249Y-7143555D01*
X14031943Y-7144489D01*
X14028956Y-7144950D01*
X14013410Y-7144950D01*
X14007591Y-7143059D01*
X14005445Y-7140929D01*
X14005286Y-7140714D01*
X14005286Y-7140714D01*
X14005286Y-7140713D01*
X13994420Y-7132694D01*
X13994420Y-7132694D01*
X13981673Y-7128234D01*
X13981673Y-7128234D01*
X13980160Y-7128092D01*
X13978646Y-7127950D01*
X13978646Y-7127950D01*
X13938354Y-7127950D01*
X13935327Y-7128234D01*
X13935327Y-7128234D01*
X13922580Y-7132694D01*
X13922580Y-7132694D01*
X13915879Y-7137640D01*
X13910074Y-7139574D01*
X13904241Y-7137727D01*
X13904121Y-7137640D01*
X13901606Y-7135784D01*
X13897420Y-7132694D01*
X13897420Y-7132694D01*
X13897420Y-7132694D01*
X13884673Y-7128234D01*
X13884673Y-7128234D01*
X13883160Y-7128092D01*
X13881646Y-7127950D01*
X13881646Y-7127950D01*
X13841354Y-7127950D01*
X13838327Y-7128234D01*
X13838327Y-7128234D01*
X13825580Y-7132694D01*
X13825145Y-7133015D01*
X13819340Y-7134950D01*
X13819266Y-7134950D01*
X13697752Y-7134950D01*
X13686321Y-7138013D01*
X13683751Y-7138702D01*
X13671198Y-7145949D01*
X13605949Y-7211199D01*
X13605169Y-7212550D01*
X13600896Y-7219950D01*
X13599929Y-7221626D01*
X13598702Y-7223751D01*
X13598702Y-7223751D01*
X13598702Y-7223751D01*
X13596872Y-7230579D01*
X13594950Y-7237752D01*
X13516050Y-7237752D01*
X13516050Y-6772692D01*
X14438950Y-6772692D01*
X14438950Y-6811308D01*
X14439229Y-6814281D01*
X14439229Y-6814282D01*
X14443615Y-6826816D01*
X14451500Y-6837499D01*
X14451500Y-6837500D01*
X14462184Y-6845385D01*
X14462184Y-6845385D01*
X14462184Y-6845385D01*
X14474718Y-6849771D01*
X14477462Y-6850028D01*
X14477692Y-6850050D01*
X14477693Y-6850050D01*
X14477693Y-6850050D01*
X14522307Y-6850050D01*
X14522307Y-6850050D01*
X14525282Y-6849771D01*
X14537816Y-6845385D01*
X14537816Y-6845385D01*
X14539713Y-6843985D01*
X14539750Y-6843972D01*
X14539773Y-6843941D01*
X14542656Y-6843004D01*
X14545518Y-6842050D01*
X14545592Y-6842050D01*
X14564408Y-6842050D01*
X14570227Y-6843941D01*
X14570286Y-6843985D01*
X14572184Y-6845385D01*
X14572184Y-6845385D01*
X14579017Y-6847776D01*
X14584718Y-6849771D01*
X14587462Y-6850028D01*
X14587692Y-6850050D01*
X14587693Y-6850050D01*
X14587693Y-6850050D01*
X14632307Y-6850050D01*
X14632307Y-6850050D01*
X14635282Y-6849771D01*
X14647816Y-6845385D01*
X14647816Y-6845385D01*
X14649713Y-6843985D01*
X14655518Y-6842050D01*
X14655592Y-6842050D01*
X14705050Y-6842050D01*
X14710869Y-6843941D01*
X14714466Y-6848891D01*
X14714950Y-6851950D01*
X14714950Y-6936826D01*
X14713059Y-6942645D01*
X14709049Y-6945882D01*
X14700224Y-6949779D01*
X14692279Y-6957723D01*
X14687741Y-6968001D01*
X14687450Y-6970513D01*
X14687450Y-6983908D01*
X14685559Y-6989727D01*
X14680609Y-6993324D01*
X14674491Y-6993324D01*
X14672600Y-6992482D01*
X14671249Y-6991702D01*
X14663880Y-6989727D01*
X14657247Y-6987950D01*
X14642752Y-6987950D01*
X14636579Y-6989604D01*
X14628751Y-6991702D01*
X14616199Y-6998949D01*
X14605949Y-7009199D01*
X14598702Y-7021751D01*
X14594950Y-7035752D01*
X14594950Y-7050247D01*
X14598702Y-7064249D01*
X14605949Y-7076801D01*
X14605949Y-7076801D01*
X14605949Y-7076801D01*
X14616198Y-7087051D01*
X14616199Y-7087051D01*
X14616199Y-7087051D01*
X14628751Y-7094298D01*
X14628751Y-7094298D01*
X14628751Y-7094298D01*
X14642752Y-7098050D01*
X14642753Y-7098050D01*
X14657247Y-7098050D01*
X14657247Y-7098050D01*
X14671248Y-7094298D01*
X14672600Y-7093518D01*
X14678584Y-7092246D01*
X14684174Y-7094734D01*
X14687234Y-7100033D01*
X14687450Y-7102092D01*
X14687450Y-7109486D01*
X14687450Y-7109486D01*
X14687741Y-7111999D01*
X14688382Y-7113449D01*
X14692279Y-7122276D01*
X14700223Y-7130221D01*
X14709049Y-7134117D01*
X14713608Y-7138197D01*
X14714950Y-7143174D01*
X14714950Y-7361986D01*
X14714950Y-7361986D01*
X14714950Y-7361986D01*
X14714984Y-7362278D01*
X14715241Y-7364499D01*
X14716757Y-7367932D01*
X14719779Y-7374776D01*
X14727723Y-7382721D01*
X14738001Y-7387258D01*
X14740513Y-7387550D01*
X14919486Y-7387550D01*
X14921999Y-7387258D01*
X14932276Y-7382721D01*
X14940221Y-7374776D01*
X14944758Y-7364499D01*
X14945050Y-7361986D01*
X14945050Y-7138014D01*
X14944758Y-7135501D01*
X14940221Y-7125223D01*
X14932276Y-7117279D01*
X14921999Y-7112741D01*
X14921999Y-7112741D01*
X14921999Y-7112741D01*
X14919487Y-7112450D01*
X14919486Y-7112450D01*
X14912450Y-7112450D01*
X14906631Y-7110559D01*
X14903034Y-7105609D01*
X14902550Y-7102550D01*
X14902550Y-6977450D01*
X14904441Y-6971631D01*
X14909391Y-6968034D01*
X14912450Y-6967550D01*
X14919486Y-6967550D01*
X14919486Y-6967550D01*
X14921999Y-6967258D01*
X14932276Y-6962721D01*
X14940221Y-6954776D01*
X14944758Y-6944499D01*
X14945050Y-6941986D01*
X14945050Y-6718014D01*
X14945050Y-6718013D01*
X14964950Y-6718013D01*
X14964950Y-6941986D01*
X14964950Y-6941986D01*
X14965241Y-6944499D01*
X14965441Y-6944950D01*
X14969779Y-6954776D01*
X14977723Y-6962721D01*
X14988001Y-6967258D01*
X14990513Y-6967550D01*
X15169486Y-6967550D01*
X15171999Y-6967258D01*
X15182276Y-6962721D01*
X15190221Y-6954776D01*
X15194758Y-6944499D01*
X15195050Y-6941986D01*
X15195050Y-6718014D01*
X15195050Y-6718013D01*
X15214950Y-6718013D01*
X15214950Y-6941986D01*
X15214950Y-6941986D01*
X15215241Y-6944499D01*
X15215441Y-6944950D01*
X15219779Y-6954776D01*
X15227723Y-6962721D01*
X15238001Y-6967258D01*
X15240513Y-6967550D01*
X15247550Y-6967550D01*
X15253369Y-6969441D01*
X15256965Y-6974390D01*
X15257450Y-6977450D01*
X15257450Y-7109486D01*
X15257450Y-7109486D01*
X15257741Y-7111999D01*
X15258382Y-7113449D01*
X15262279Y-7122276D01*
X15270223Y-7130221D01*
X15280501Y-7134758D01*
X15283013Y-7135050D01*
X15416810Y-7135050D01*
X15422629Y-7136941D01*
X15423810Y-7137949D01*
X15442050Y-7156190D01*
X15444828Y-7161641D01*
X15444950Y-7163190D01*
X15444950Y-7164747D01*
X15448702Y-7178749D01*
X15455949Y-7191301D01*
X15455949Y-7191301D01*
X15455949Y-7191301D01*
X15466198Y-7201551D01*
X15466199Y-7201551D01*
X15466199Y-7201551D01*
X15478751Y-7208798D01*
X15478751Y-7208798D01*
X15478751Y-7208798D01*
X15492752Y-7212550D01*
X15492753Y-7212550D01*
X15507247Y-7212550D01*
X15507247Y-7212550D01*
X15521248Y-7208798D01*
X15521249Y-7208798D01*
X15521249Y-7208798D01*
X15533801Y-7201551D01*
X15533801Y-7201551D01*
X15533801Y-7201551D01*
X15544051Y-7191301D01*
X15551298Y-7178748D01*
X15555050Y-7164747D01*
X15555050Y-7150252D01*
X15551298Y-7136251D01*
X15551298Y-7136251D01*
X15551298Y-7136251D01*
X15544051Y-7123699D01*
X15544051Y-7123699D01*
X15544051Y-7123698D01*
X15533801Y-7113449D01*
X15533801Y-7113449D01*
X15533801Y-7113449D01*
X15521249Y-7106202D01*
X15521249Y-7106202D01*
X15518290Y-7105409D01*
X15507247Y-7102450D01*
X15507247Y-7102450D01*
X15505690Y-7102450D01*
X15499871Y-7100559D01*
X15498690Y-7099550D01*
X15475449Y-7076310D01*
X15472672Y-7070858D01*
X15472550Y-7069310D01*
X15472550Y-6970514D01*
X15472550Y-6970514D01*
X15472258Y-6968001D01*
X15467721Y-6957723D01*
X15459776Y-6949779D01*
X15450951Y-6945883D01*
X15446392Y-6941803D01*
X15445050Y-6936826D01*
X15445050Y-6882450D01*
X15446941Y-6876631D01*
X15451891Y-6873034D01*
X15454950Y-6872550D01*
X15615930Y-6872550D01*
X15615931Y-6872550D01*
X15615932Y-6872550D01*
X15615978Y-6872544D01*
X15616012Y-6872550D01*
X15616580Y-6872550D01*
X15616580Y-6872655D01*
X15621994Y-6873658D01*
X15624272Y-6875358D01*
X15624619Y-6875706D01*
X15624619Y-6875706D01*
X15632564Y-6883651D01*
X15642841Y-6888188D01*
X15645354Y-6888480D01*
X15652050Y-6888480D01*
X15657869Y-6890370D01*
X15661465Y-6895320D01*
X15661950Y-6898380D01*
X15661950Y-6930804D01*
X15660059Y-6936623D01*
X15657929Y-6938770D01*
X15650358Y-6944357D01*
X15650357Y-6944358D01*
X15642562Y-6954920D01*
X15638226Y-6967312D01*
X15638226Y-6967312D01*
X15637950Y-6970253D01*
X15637950Y-7007746D01*
X15638226Y-7010687D01*
X15638226Y-7010688D01*
X15642562Y-7023079D01*
X15650711Y-7034121D01*
X15652645Y-7039926D01*
X15650798Y-7045759D01*
X15650711Y-7045879D01*
X15642562Y-7056920D01*
X15638226Y-7069312D01*
X15638226Y-7069312D01*
X15637950Y-7072253D01*
X15637950Y-7109746D01*
X15638226Y-7112687D01*
X15638226Y-7112688D01*
X15642562Y-7125079D01*
X15644680Y-7127950D01*
X15650358Y-7135642D01*
X15650550Y-7135784D01*
X15650676Y-7135961D01*
X15650882Y-7136167D01*
X15650848Y-7136201D01*
X15654109Y-7140760D01*
X15654064Y-7146879D01*
X15650851Y-7151302D01*
X15650882Y-7151333D01*
X15650686Y-7151530D01*
X15650551Y-7151715D01*
X15650358Y-7151857D01*
X15650357Y-7151858D01*
X15642562Y-7162420D01*
X15638226Y-7174812D01*
X15638226Y-7174812D01*
X15637950Y-7177753D01*
X15637950Y-7215246D01*
X15638226Y-7218187D01*
X15638226Y-7218188D01*
X15642562Y-7230579D01*
X15646092Y-7235362D01*
X15648026Y-7241167D01*
X15646178Y-7247000D01*
X15641256Y-7250633D01*
X15635137Y-7250679D01*
X15633176Y-7249814D01*
X15631249Y-7248702D01*
X15631249Y-7248702D01*
X15631248Y-7248702D01*
X15617247Y-7244950D01*
X15602752Y-7244950D01*
X15596579Y-7246604D01*
X15588751Y-7248702D01*
X15576199Y-7255949D01*
X15565949Y-7266199D01*
X15558702Y-7278751D01*
X15557086Y-7284779D01*
X15554950Y-7292752D01*
X15554950Y-7307247D01*
X15557629Y-7317246D01*
X15558702Y-7321249D01*
X15565949Y-7333801D01*
X15565949Y-7333801D01*
X15565949Y-7333801D01*
X15576198Y-7344051D01*
X15576199Y-7344051D01*
X15576199Y-7344051D01*
X15588751Y-7351298D01*
X15588751Y-7351298D01*
X15588751Y-7351298D01*
X15602752Y-7355050D01*
X15602753Y-7355050D01*
X15617247Y-7355050D01*
X15617247Y-7355050D01*
X15631248Y-7351298D01*
X15631249Y-7351298D01*
X15631249Y-7351298D01*
X15642372Y-7344876D01*
X15647322Y-7343550D01*
X15647652Y-7343550D01*
X15653471Y-7345441D01*
X15653531Y-7345484D01*
X15660920Y-7350938D01*
X15660920Y-7350938D01*
X15660921Y-7350938D01*
X15673312Y-7355274D01*
X15676254Y-7355550D01*
X15723746Y-7355550D01*
X15723746Y-7355550D01*
X15724334Y-7355495D01*
X15726688Y-7355274D01*
X15739079Y-7350938D01*
X15743919Y-7347366D01*
X15749642Y-7343143D01*
X15749642Y-7343142D01*
X15749642Y-7343142D01*
X15749681Y-7343090D01*
X15756536Y-7333801D01*
X15757438Y-7332579D01*
X15761774Y-7320188D01*
X15762050Y-7317246D01*
X15762050Y-7279754D01*
X15761774Y-7276812D01*
X15757438Y-7264421D01*
X15751186Y-7255949D01*
X15749289Y-7253379D01*
X15747355Y-7247574D01*
X15749202Y-7241741D01*
X15749289Y-7241621D01*
X15757438Y-7230579D01*
X15757438Y-7230579D01*
X15757438Y-7230579D01*
X15761774Y-7218188D01*
X15762050Y-7215246D01*
X15762050Y-7177754D01*
X15761774Y-7174812D01*
X15757438Y-7162421D01*
X15757438Y-7162420D01*
X15749642Y-7151858D01*
X15749642Y-7151858D01*
X15749449Y-7151715D01*
X15749322Y-7151537D01*
X15749118Y-7151333D01*
X15749152Y-7151300D01*
X15745890Y-7146738D01*
X15745936Y-7140620D01*
X15749149Y-7136198D01*
X15749118Y-7136167D01*
X15749317Y-7135967D01*
X15749450Y-7135784D01*
X15749642Y-7135642D01*
X15757438Y-7125079D01*
X15761774Y-7112688D01*
X15762050Y-7109746D01*
X15762050Y-7072254D01*
X15761774Y-7069312D01*
X15757438Y-7056921D01*
X15757416Y-7056891D01*
X15749289Y-7045879D01*
X15747355Y-7040074D01*
X15749202Y-7034241D01*
X15749289Y-7034121D01*
X15757438Y-7023079D01*
X15757438Y-7023079D01*
X15757438Y-7023079D01*
X15761774Y-7010688D01*
X15762050Y-7007746D01*
X15762050Y-6970254D01*
X15761774Y-6967312D01*
X15757438Y-6954921D01*
X15757438Y-6954920D01*
X15749643Y-6944358D01*
X15749642Y-6944357D01*
X15742071Y-6938770D01*
X15738512Y-6933793D01*
X15738050Y-6930804D01*
X15738050Y-6871749D01*
X15738893Y-6867750D01*
X15739918Y-6865429D01*
X15740210Y-6862916D01*
X15740210Y-6792984D01*
X15739918Y-6790471D01*
X15735381Y-6780193D01*
X15727436Y-6772249D01*
X15717159Y-6767711D01*
X15717159Y-6767711D01*
X15717159Y-6767711D01*
X15714647Y-6767420D01*
X15685354Y-6767420D01*
X15685353Y-6767420D01*
X15682840Y-6767711D01*
X15682598Y-6767777D01*
X15682273Y-6767777D01*
X15682101Y-6767797D01*
X15682099Y-6767777D01*
X15677901Y-6767777D01*
X15677899Y-6767797D01*
X15677727Y-6767777D01*
X15677401Y-6767777D01*
X15677159Y-6767711D01*
X15674647Y-6767420D01*
X15645354Y-6767420D01*
X15645354Y-6767420D01*
X15642841Y-6767711D01*
X15632563Y-6772249D01*
X15625045Y-6779768D01*
X15619594Y-6782545D01*
X15616593Y-6782388D01*
X15616574Y-6782535D01*
X15615931Y-6782450D01*
X15615931Y-6782450D01*
X15454950Y-6782450D01*
X15449131Y-6780559D01*
X15445534Y-6775609D01*
X15445050Y-6772550D01*
X15445050Y-6718014D01*
X15445050Y-6718014D01*
X15444758Y-6715501D01*
X15440221Y-6705223D01*
X15432276Y-6697279D01*
X15421999Y-6692741D01*
X15421999Y-6692741D01*
X15421999Y-6692741D01*
X15419487Y-6692450D01*
X15240514Y-6692450D01*
X15240514Y-6692450D01*
X15238001Y-6692741D01*
X15227723Y-6697279D01*
X15219779Y-6705223D01*
X15215241Y-6715501D01*
X15214950Y-6718013D01*
X15195050Y-6718013D01*
X15194758Y-6715501D01*
X15190221Y-6705223D01*
X15182276Y-6697279D01*
X15171999Y-6692741D01*
X15171999Y-6692741D01*
X15171999Y-6692741D01*
X15169487Y-6692450D01*
X14990514Y-6692450D01*
X14990514Y-6692450D01*
X14988001Y-6692741D01*
X14977723Y-6697279D01*
X14969779Y-6705223D01*
X14965241Y-6715501D01*
X14964950Y-6718013D01*
X14945050Y-6718013D01*
X14944758Y-6715501D01*
X14940221Y-6705223D01*
X14932276Y-6697279D01*
X14921999Y-6692741D01*
X14921999Y-6692741D01*
X14921999Y-6692741D01*
X14919487Y-6692450D01*
X14740514Y-6692450D01*
X14740514Y-6692450D01*
X14738001Y-6692741D01*
X14727723Y-6697279D01*
X14719779Y-6705223D01*
X14715241Y-6715501D01*
X14714950Y-6718013D01*
X14714950Y-6732050D01*
X14713059Y-6737869D01*
X14708109Y-6741465D01*
X14705050Y-6741950D01*
X14672405Y-6741950D01*
X14666586Y-6740059D01*
X14662989Y-6735109D01*
X14662842Y-6729488D01*
X14663430Y-6727291D01*
X14665050Y-6721247D01*
X14665050Y-6706752D01*
X14661298Y-6692751D01*
X14661298Y-6692751D01*
X14661298Y-6692751D01*
X14654051Y-6680199D01*
X14654051Y-6680199D01*
X14654051Y-6680198D01*
X14643801Y-6669949D01*
X14643801Y-6669949D01*
X14643801Y-6669949D01*
X14631249Y-6662702D01*
X14631249Y-6662702D01*
X14625002Y-6661028D01*
X14617247Y-6658950D01*
X14602752Y-6658950D01*
X14600905Y-6659445D01*
X14588751Y-6662702D01*
X14576199Y-6669949D01*
X14565949Y-6680199D01*
X14558702Y-6692751D01*
X14555610Y-6704288D01*
X14554950Y-6706752D01*
X14554950Y-6721247D01*
X14556569Y-6727291D01*
X14557158Y-6729488D01*
X14557011Y-6732296D01*
X14557011Y-6735109D01*
X14556852Y-6735328D01*
X14556838Y-6735598D01*
X14555068Y-6737783D01*
X14553414Y-6740059D01*
X14553157Y-6740143D01*
X14552987Y-6740353D01*
X14547595Y-6741950D01*
X14545592Y-6741950D01*
X14539773Y-6740059D01*
X14539713Y-6740015D01*
X14537816Y-6738615D01*
X14537815Y-6738615D01*
X14525282Y-6734229D01*
X14525281Y-6734229D01*
X14522308Y-6733950D01*
X14522307Y-6733950D01*
X14477693Y-6733950D01*
X14477692Y-6733950D01*
X14474718Y-6734229D01*
X14474718Y-6734229D01*
X14462184Y-6738615D01*
X14451500Y-6746500D01*
X14451500Y-6746500D01*
X14443615Y-6757184D01*
X14439229Y-6769718D01*
X14439229Y-6769718D01*
X14438950Y-6772692D01*
X13516050Y-6772692D01*
X13516050Y-6731309D01*
X13517941Y-6725490D01*
X13522891Y-6721893D01*
X13529009Y-6721893D01*
X13533838Y-6725327D01*
X13535708Y-6727792D01*
X13547766Y-6736936D01*
X13547766Y-6736936D01*
X13547766Y-6736936D01*
X13552023Y-6738615D01*
X13561844Y-6742488D01*
X13570690Y-6743550D01*
X13570690Y-6743550D01*
X13849310Y-6743550D01*
X13849310Y-6743550D01*
X13858156Y-6742488D01*
X13872234Y-6736936D01*
X13884292Y-6727792D01*
X13893436Y-6715734D01*
X13898988Y-6701656D01*
X13898988Y-6701656D01*
X13899121Y-6701318D01*
X13903015Y-6696598D01*
X13908331Y-6695050D01*
X14384191Y-6695050D01*
X14384191Y-6695050D01*
X14402293Y-6691858D01*
X14419566Y-6685571D01*
X14419566Y-6685571D01*
X14419566Y-6685571D01*
X14425123Y-6682363D01*
X14435484Y-6676381D01*
X14449565Y-6664565D01*
X14461381Y-6650484D01*
X14468674Y-6637851D01*
X14470571Y-6634566D01*
X14470571Y-6634566D01*
X14470571Y-6634566D01*
X14470571Y-6634566D01*
X14476858Y-6617293D01*
X14480050Y-6599191D01*
X14480050Y-6590000D01*
X14480050Y-6584069D01*
X14480050Y-6574950D01*
X14481941Y-6569131D01*
X14486891Y-6565534D01*
X14489950Y-6565050D01*
X14728956Y-6565050D01*
X14734775Y-6566941D01*
X14735897Y-6568054D01*
X14735975Y-6567975D01*
X14736500Y-6568499D01*
X14736500Y-6568500D01*
X14736500Y-6568500D01*
X14736500Y-6568500D01*
X14747184Y-6576385D01*
X14747184Y-6576385D01*
X14747184Y-6576385D01*
X14759718Y-6580771D01*
X14762462Y-6581028D01*
X14762692Y-6581050D01*
X14762693Y-6581050D01*
X14762693Y-6581050D01*
X14801307Y-6581050D01*
X14801307Y-6581050D01*
X14804282Y-6580771D01*
X14816816Y-6576385D01*
X14824121Y-6570993D01*
X14829926Y-6569059D01*
X14835759Y-6570906D01*
X14835873Y-6570989D01*
X14843184Y-6576385D01*
X14855718Y-6580771D01*
X14858462Y-6581028D01*
X14858692Y-6581050D01*
X14858693Y-6581050D01*
X14858693Y-6581050D01*
X14897307Y-6581050D01*
X14897307Y-6581050D01*
X14900282Y-6580771D01*
X14912816Y-6576385D01*
X14915583Y-6574343D01*
X14921388Y-6572408D01*
X14924024Y-6572746D01*
X14932624Y-6575050D01*
X14932624Y-6575050D01*
X14932624Y-6575050D01*
X14947119Y-6575050D01*
X14947119Y-6575050D01*
X14960536Y-6571455D01*
X14966646Y-6571775D01*
X14968977Y-6573052D01*
X14974921Y-6577438D01*
X14987312Y-6581774D01*
X14990254Y-6582050D01*
X15027746Y-6582050D01*
X15027746Y-6582050D01*
X15028334Y-6581995D01*
X15030688Y-6581774D01*
X15043079Y-6577438D01*
X15049573Y-6572645D01*
X15054121Y-6569289D01*
X15059926Y-6567355D01*
X15065759Y-6569202D01*
X15065879Y-6569289D01*
X15076920Y-6577438D01*
X15076920Y-6577438D01*
X15076921Y-6577438D01*
X15089312Y-6581774D01*
X15092254Y-6582050D01*
X15129746Y-6582050D01*
X15129746Y-6582050D01*
X15130334Y-6581995D01*
X15132688Y-6581774D01*
X15145079Y-6577438D01*
X15151573Y-6572645D01*
X15155642Y-6569643D01*
X15155642Y-6569642D01*
X15155642Y-6569642D01*
X15156485Y-6568500D01*
X15161230Y-6562071D01*
X15166207Y-6558512D01*
X15169196Y-6558050D01*
X15343883Y-6558050D01*
X15349702Y-6559941D01*
X15352939Y-6563951D01*
X15354259Y-6566941D01*
X15354619Y-6567756D01*
X15362563Y-6575701D01*
X15372841Y-6580238D01*
X15375353Y-6580530D01*
X15404646Y-6580530D01*
X15407159Y-6580238D01*
X15407160Y-6580238D01*
X15407400Y-6580173D01*
X15407726Y-6580173D01*
X15407899Y-6580153D01*
X15407901Y-6580173D01*
X15412099Y-6580173D01*
X15412101Y-6580153D01*
X15412274Y-6580173D01*
X15412599Y-6580173D01*
X15412840Y-6580238D01*
X15412841Y-6580238D01*
X15415353Y-6580530D01*
X15444646Y-6580530D01*
X15447159Y-6580238D01*
X15457436Y-6575701D01*
X15465380Y-6567756D01*
X15469918Y-6557479D01*
X15470210Y-6554966D01*
X15470210Y-6485034D01*
X15469918Y-6482521D01*
X15465380Y-6472243D01*
X15457436Y-6464299D01*
X15447159Y-6459761D01*
X15447159Y-6459761D01*
X15447159Y-6459761D01*
X15444647Y-6459470D01*
X15415354Y-6459470D01*
X15415353Y-6459470D01*
X15412840Y-6459761D01*
X15412598Y-6459827D01*
X15412273Y-6459827D01*
X15412101Y-6459847D01*
X15412099Y-6459827D01*
X15407901Y-6459827D01*
X15407899Y-6459847D01*
X15407727Y-6459827D01*
X15407401Y-6459827D01*
X15407159Y-6459761D01*
X15404647Y-6459470D01*
X15375354Y-6459470D01*
X15375353Y-6459470D01*
X15372841Y-6459761D01*
X15362563Y-6464299D01*
X15354619Y-6472244D01*
X15352939Y-6476049D01*
X15348859Y-6480608D01*
X15343883Y-6481950D01*
X15169196Y-6481950D01*
X15163376Y-6480059D01*
X15161230Y-6477929D01*
X15155643Y-6470358D01*
X15155642Y-6470357D01*
X15145079Y-6462562D01*
X15132688Y-6458226D01*
X15132687Y-6458226D01*
X15129746Y-6457950D01*
X15092254Y-6457950D01*
X15089312Y-6458226D01*
X15089312Y-6458226D01*
X15076920Y-6462562D01*
X15065879Y-6470711D01*
X15060074Y-6472645D01*
X15054241Y-6470798D01*
X15054121Y-6470711D01*
X15043079Y-6462562D01*
X15030688Y-6458226D01*
X15030687Y-6458226D01*
X15027746Y-6457950D01*
X14990254Y-6457950D01*
X14987312Y-6458226D01*
X14987312Y-6458226D01*
X14974920Y-6462562D01*
X14968977Y-6466948D01*
X14963173Y-6468882D01*
X14960537Y-6468545D01*
X14947119Y-6464950D01*
X14932624Y-6464950D01*
X14931047Y-6465372D01*
X14924024Y-6467254D01*
X14917914Y-6466934D01*
X14915583Y-6465657D01*
X14912816Y-6463615D01*
X14900282Y-6459229D01*
X14900281Y-6459229D01*
X14897308Y-6458950D01*
X14897307Y-6458950D01*
X14858693Y-6458950D01*
X14858692Y-6458950D01*
X14855718Y-6459229D01*
X14855718Y-6459229D01*
X14843184Y-6463615D01*
X14835879Y-6469006D01*
X14830074Y-6470941D01*
X14824241Y-6469093D01*
X14824121Y-6469006D01*
X14816816Y-6463615D01*
X14804282Y-6459229D01*
X14804281Y-6459229D01*
X14801308Y-6458950D01*
X14801307Y-6458950D01*
X14762693Y-6458950D01*
X14762692Y-6458950D01*
X14759718Y-6459229D01*
X14759718Y-6459229D01*
X14747184Y-6463615D01*
X14736500Y-6471500D01*
X14735975Y-6472025D01*
X14735731Y-6471780D01*
X14731943Y-6474489D01*
X14728956Y-6474950D01*
X14488000Y-6474950D01*
X14482069Y-6474950D01*
X14474010Y-6474950D01*
X14467778Y-6476049D01*
X14458135Y-6477749D01*
X14442989Y-6483262D01*
X14442988Y-6483262D01*
X14429031Y-6491321D01*
X14429030Y-6491322D01*
X14416683Y-6501682D01*
X14416682Y-6501683D01*
X14406322Y-6514030D01*
X14406321Y-6514031D01*
X14398262Y-6527988D01*
X14398262Y-6527989D01*
X14392749Y-6543135D01*
X14392749Y-6543136D01*
X14390088Y-6558226D01*
X14389950Y-6559010D01*
X14389950Y-6589025D01*
X14389760Y-6590956D01*
X14389196Y-6593790D01*
X14387718Y-6597358D01*
X14386665Y-6598934D01*
X14383934Y-6601665D01*
X14383151Y-6602188D01*
X14382358Y-6602718D01*
X14378790Y-6604196D01*
X14375956Y-6604760D01*
X14374025Y-6604950D01*
X13908331Y-6604950D01*
X13902512Y-6603059D01*
X13899121Y-6598682D01*
X13898988Y-6598344D01*
X13898988Y-6598344D01*
X13893436Y-6584266D01*
X13893287Y-6584069D01*
X13887460Y-6576385D01*
X13884292Y-6572208D01*
X13872234Y-6563064D01*
X13872234Y-6563064D01*
X13872234Y-6563064D01*
X13858156Y-6557512D01*
X13849311Y-6556450D01*
X13849310Y-6556450D01*
X13570690Y-6556450D01*
X13570689Y-6556450D01*
X13561843Y-6557512D01*
X13547766Y-6563064D01*
X13547766Y-6563064D01*
X13535708Y-6572207D01*
X13535707Y-6572208D01*
X13533838Y-6574673D01*
X13528816Y-6578167D01*
X13522698Y-6578042D01*
X13517823Y-6574345D01*
X13516050Y-6568691D01*
X13516050Y-6154692D01*
X14151950Y-6154692D01*
X14151950Y-6193308D01*
X14152229Y-6196281D01*
X14152229Y-6196282D01*
X14156615Y-6208816D01*
X14164500Y-6219499D01*
X14164500Y-6219500D01*
X14175184Y-6227385D01*
X14175184Y-6227385D01*
X14175184Y-6227385D01*
X14187718Y-6231771D01*
X14190462Y-6232028D01*
X14190692Y-6232050D01*
X14190693Y-6232050D01*
X14190693Y-6232050D01*
X14235307Y-6232050D01*
X14235307Y-6232050D01*
X14238282Y-6231771D01*
X14250816Y-6227385D01*
X14250902Y-6227321D01*
X14252713Y-6225985D01*
X14252750Y-6225972D01*
X14252773Y-6225941D01*
X14255656Y-6225004D01*
X14258518Y-6224050D01*
X14258592Y-6224050D01*
X14270408Y-6224050D01*
X14276227Y-6225941D01*
X14276286Y-6225985D01*
X14278184Y-6227385D01*
X14278184Y-6227385D01*
X14280760Y-6228286D01*
X14290718Y-6231771D01*
X14293462Y-6232028D01*
X14293692Y-6232050D01*
X14293693Y-6232050D01*
X14293693Y-6232050D01*
X14338307Y-6232050D01*
X14338307Y-6232050D01*
X14341282Y-6231771D01*
X14353816Y-6227385D01*
X14354438Y-6226925D01*
X14360243Y-6224991D01*
X14366076Y-6226838D01*
X14367318Y-6227890D01*
X14367714Y-6228286D01*
X14378579Y-6236305D01*
X14378580Y-6236306D01*
X14385529Y-6238737D01*
X14391327Y-6240766D01*
X14391327Y-6240766D01*
X14391327Y-6240766D01*
X14391327Y-6240766D01*
X14394354Y-6241050D01*
X14434646Y-6241050D01*
X14434646Y-6241050D01*
X14435251Y-6240993D01*
X14437673Y-6240766D01*
X14450420Y-6236306D01*
X14457121Y-6231360D01*
X14462926Y-6229426D01*
X14468759Y-6231273D01*
X14468879Y-6231360D01*
X14475580Y-6236305D01*
X14475580Y-6236306D01*
X14482529Y-6238737D01*
X14488327Y-6240766D01*
X14488327Y-6240766D01*
X14488327Y-6240766D01*
X14488327Y-6240766D01*
X14491354Y-6241050D01*
X14531646Y-6241050D01*
X14531646Y-6241050D01*
X14532251Y-6240993D01*
X14534673Y-6240766D01*
X14547420Y-6236306D01*
X14547767Y-6236050D01*
X14547855Y-6235984D01*
X14553660Y-6234050D01*
X14553734Y-6234050D01*
X14599896Y-6234050D01*
X14599896Y-6234326D01*
X14604769Y-6235227D01*
X14608983Y-6239663D01*
X14609950Y-6243930D01*
X14609950Y-6247247D01*
X14613702Y-6261249D01*
X14620949Y-6273801D01*
X14620949Y-6273801D01*
X14620949Y-6273801D01*
X14631198Y-6284051D01*
X14631199Y-6284051D01*
X14631199Y-6284051D01*
X14643751Y-6291298D01*
X14643751Y-6291298D01*
X14643751Y-6291298D01*
X14657752Y-6295050D01*
X14657753Y-6295050D01*
X14672247Y-6295050D01*
X14672247Y-6295050D01*
X14686248Y-6291298D01*
X14686249Y-6291298D01*
X14686249Y-6291298D01*
X14698801Y-6284051D01*
X14698801Y-6284051D01*
X14698801Y-6284051D01*
X14701903Y-6280949D01*
X14707355Y-6278172D01*
X14708903Y-6278050D01*
X14764810Y-6278050D01*
X14770629Y-6279941D01*
X14771810Y-6280949D01*
X14773666Y-6282805D01*
X14784970Y-6288565D01*
X14794348Y-6290050D01*
X14845652Y-6290050D01*
X14845652Y-6290050D01*
X14845652Y-6290050D01*
X14850341Y-6289307D01*
X14855030Y-6288565D01*
X14855030Y-6288565D01*
X14855030Y-6288565D01*
X14866334Y-6282805D01*
X14875305Y-6273834D01*
X14881065Y-6262530D01*
X14882550Y-6253152D01*
X14882550Y-6226848D01*
X14882265Y-6225050D01*
X14881065Y-6217470D01*
X14881065Y-6217469D01*
X14879284Y-6213976D01*
X14878275Y-6211994D01*
X14877318Y-6205951D01*
X14878275Y-6203005D01*
X14881065Y-6197530D01*
X14882550Y-6188152D01*
X14882550Y-6161848D01*
X14881743Y-6156751D01*
X14881065Y-6152470D01*
X14881065Y-6152470D01*
X14881065Y-6152470D01*
X14875305Y-6141166D01*
X14866334Y-6132195D01*
X14855030Y-6126435D01*
X14855030Y-6126435D01*
X14845652Y-6124950D01*
X14794348Y-6124950D01*
X14794348Y-6124950D01*
X14784970Y-6126435D01*
X14784969Y-6126435D01*
X14773666Y-6132195D01*
X14764695Y-6141166D01*
X14758935Y-6152469D01*
X14757450Y-6161848D01*
X14757450Y-6188152D01*
X14757822Y-6190502D01*
X14756865Y-6196545D01*
X14752538Y-6200871D01*
X14748044Y-6201950D01*
X14708903Y-6201950D01*
X14703084Y-6200059D01*
X14701903Y-6199050D01*
X14700382Y-6197530D01*
X14698801Y-6195949D01*
X14698801Y-6195949D01*
X14698801Y-6195949D01*
X14698801Y-6195949D01*
X14686249Y-6188702D01*
X14686249Y-6188702D01*
X14683290Y-6187909D01*
X14672247Y-6184950D01*
X14657752Y-6184950D01*
X14657104Y-6184950D01*
X14657104Y-6184675D01*
X14652225Y-6183770D01*
X14648014Y-6179331D01*
X14647050Y-6175070D01*
X14647050Y-6171752D01*
X14644396Y-6161848D01*
X14643298Y-6157751D01*
X14643298Y-6157751D01*
X14643298Y-6157751D01*
X14636051Y-6145199D01*
X14636051Y-6145199D01*
X14636051Y-6145198D01*
X14625801Y-6134949D01*
X14625801Y-6134949D01*
X14625801Y-6134949D01*
X14613249Y-6127702D01*
X14613249Y-6127702D01*
X14608522Y-6126435D01*
X14599247Y-6123950D01*
X14599247Y-6123950D01*
X14553734Y-6123950D01*
X14547915Y-6122059D01*
X14547855Y-6122015D01*
X14547420Y-6121694D01*
X14534673Y-6117234D01*
X14534673Y-6117234D01*
X14533160Y-6117092D01*
X14531646Y-6116950D01*
X14531646Y-6116950D01*
X14491354Y-6116950D01*
X14488327Y-6117234D01*
X14488327Y-6117234D01*
X14475580Y-6121694D01*
X14475580Y-6121694D01*
X14468879Y-6126640D01*
X14463074Y-6128574D01*
X14457241Y-6126727D01*
X14457121Y-6126640D01*
X14454472Y-6124685D01*
X14450420Y-6121694D01*
X14450420Y-6121694D01*
X14450420Y-6121694D01*
X14437673Y-6117234D01*
X14437673Y-6117234D01*
X14436160Y-6117092D01*
X14434646Y-6116950D01*
X14434646Y-6116950D01*
X14394354Y-6116950D01*
X14391327Y-6117234D01*
X14391327Y-6117234D01*
X14385720Y-6119196D01*
X14379603Y-6119333D01*
X14374573Y-6115849D01*
X14372552Y-6110073D01*
X14372550Y-6109851D01*
X14372550Y-6102752D01*
X14371880Y-6100252D01*
X14368798Y-6088751D01*
X14368798Y-6088751D01*
X14368798Y-6088751D01*
X14361551Y-6076199D01*
X14361551Y-6076199D01*
X14361551Y-6076198D01*
X14351301Y-6065949D01*
X14351301Y-6065949D01*
X14351301Y-6065949D01*
X14338749Y-6058702D01*
X14338749Y-6058702D01*
X14335790Y-6057909D01*
X14324747Y-6054950D01*
X14310252Y-6054950D01*
X14304079Y-6056604D01*
X14296251Y-6058702D01*
X14283699Y-6065949D01*
X14283698Y-6065949D01*
X14274359Y-6075288D01*
X14268907Y-6078066D01*
X14262864Y-6077109D01*
X14259649Y-6074057D01*
X14259446Y-6074213D01*
X14259051Y-6073699D01*
X14259051Y-6073699D01*
X14259051Y-6073698D01*
X14248801Y-6063449D01*
X14248801Y-6063449D01*
X14248801Y-6063449D01*
X14236249Y-6056202D01*
X14236249Y-6056202D01*
X14231577Y-6054950D01*
X14222247Y-6052450D01*
X14207752Y-6052450D01*
X14201579Y-6054104D01*
X14193751Y-6056202D01*
X14181199Y-6063449D01*
X14170949Y-6073699D01*
X14163702Y-6086251D01*
X14163032Y-6088751D01*
X14159950Y-6100252D01*
X14159950Y-6114747D01*
X14162594Y-6124615D01*
X14162613Y-6124685D01*
X14162950Y-6127247D01*
X14162950Y-6127343D01*
X14161059Y-6133162D01*
X14161015Y-6133221D01*
X14156615Y-6139184D01*
X14152229Y-6151718D01*
X14152229Y-6151718D01*
X14151950Y-6154692D01*
X13516050Y-6154692D01*
X13516050Y-5948964D01*
X13516144Y-5948675D01*
X13516067Y-5948381D01*
X13517081Y-5945791D01*
X13517941Y-5943145D01*
X13518297Y-5942683D01*
X13528671Y-5930043D01*
X13530043Y-5928671D01*
X13543690Y-5917471D01*
X13545302Y-5916394D01*
X13560873Y-5908071D01*
X13562663Y-5907329D01*
X13579558Y-5902204D01*
X13581461Y-5901826D01*
X13599516Y-5900048D01*
X13600486Y-5900000D01*
X14584173Y-5900000D01*
X14586882Y-5900378D01*
G37*
%TD.AperFunction*%
%TA.AperFunction,Conductor*%
G36*
X17689396Y-6695604D02*
G01*
X17707889Y-6697540D01*
X18091131Y-6737666D01*
X18096722Y-6740152D01*
X18099783Y-6745450D01*
X18100000Y-6747512D01*
X18100000Y-6980000D01*
X18100000Y-6980000D01*
X18474050Y-6980000D01*
X18479869Y-6981891D01*
X18483466Y-6986841D01*
X18483950Y-6989900D01*
X18483950Y-8812168D01*
X18482059Y-8817987D01*
X18477109Y-8821584D01*
X18474076Y-8822068D01*
X18120000Y-8823000D01*
X18120000Y-9050851D01*
X18118109Y-9056670D01*
X18113159Y-9060266D01*
X18111109Y-9060699D01*
X17684346Y-9104399D01*
X17683338Y-9104450D01*
X17663149Y-9104450D01*
X17661857Y-9104365D01*
X17652935Y-9103191D01*
X17650438Y-9102522D01*
X17642729Y-9099329D01*
X17640491Y-9098036D01*
X17634782Y-9093656D01*
X17633871Y-9092956D01*
X17632044Y-9091129D01*
X17626963Y-9084509D01*
X17625672Y-9082271D01*
X17622478Y-9074561D01*
X17621809Y-9072065D01*
X17620635Y-9063143D01*
X17620550Y-9061851D01*
X17620550Y-8492982D01*
X17620549Y-8492971D01*
X17620549Y-8484364D01*
X17617563Y-8454039D01*
X17617563Y-8454038D01*
X17611618Y-8424150D01*
X17611618Y-8424150D01*
X17611618Y-8424150D01*
X17603010Y-8395775D01*
X17602772Y-8394989D01*
X17591110Y-8366835D01*
X17587140Y-8359408D01*
X17576745Y-8339960D01*
X17576744Y-8339958D01*
X17559815Y-8314622D01*
X17548909Y-8301333D01*
X17540483Y-8291065D01*
X17529709Y-8280291D01*
X17529709Y-8280291D01*
X17527598Y-8278180D01*
X17527598Y-8278180D01*
X17448309Y-8198891D01*
X17445531Y-8193439D01*
X17445409Y-8191891D01*
X17445409Y-8191820D01*
X17443430Y-8178689D01*
X17443430Y-8178689D01*
X17439096Y-8169690D01*
X17437668Y-8166725D01*
X17435762Y-8164424D01*
X17408458Y-8137120D01*
X17406157Y-8135214D01*
X17402446Y-8133427D01*
X17394193Y-8129452D01*
X17394193Y-8129452D01*
X17385215Y-8128099D01*
X17379743Y-8125362D01*
X17376924Y-8119931D01*
X17376901Y-8119785D01*
X17375548Y-8110807D01*
X17375548Y-8110807D01*
X17369786Y-8098843D01*
X17369786Y-8098843D01*
X17367880Y-8096542D01*
X17340576Y-8069238D01*
X17338275Y-8067332D01*
X17331458Y-8064049D01*
X17327035Y-8059820D01*
X17325943Y-8053800D01*
X17328598Y-8048288D01*
X17330803Y-8046555D01*
X17331248Y-8046298D01*
X17331249Y-8046298D01*
X17343802Y-8039051D01*
X17354051Y-8028801D01*
X17354051Y-8028801D01*
X17361298Y-8016249D01*
X17361298Y-8016249D01*
X17361298Y-8016248D01*
X17365050Y-8002247D01*
X17365050Y-7987752D01*
X17361298Y-7973751D01*
X17361298Y-7973751D01*
X17361234Y-7973512D01*
X17361555Y-7967402D01*
X17365405Y-7962647D01*
X17370797Y-7961050D01*
X17376307Y-7961050D01*
X17376308Y-7961050D01*
X17379282Y-7960771D01*
X17391816Y-7956385D01*
X17402500Y-7948500D01*
X17410385Y-7937816D01*
X17414771Y-7925282D01*
X17415050Y-7922307D01*
X17415050Y-7877693D01*
X17415050Y-7877693D01*
X17415050Y-7877692D01*
X17415028Y-7877462D01*
X17414771Y-7874718D01*
X17410385Y-7862184D01*
X17408984Y-7860286D01*
X17408972Y-7860249D01*
X17408941Y-7860227D01*
X17408005Y-7857348D01*
X17407050Y-7854481D01*
X17407050Y-7854407D01*
X17407050Y-7835586D01*
X17407387Y-7833023D01*
X17410569Y-7821150D01*
X17410569Y-7806655D01*
X17406817Y-7792654D01*
X17406817Y-7792654D01*
X17406817Y-7792653D01*
X17399570Y-7780101D01*
X17399570Y-7780101D01*
X17399570Y-7780101D01*
X17389320Y-7769851D01*
X17389320Y-7769851D01*
X17389320Y-7769851D01*
X17376768Y-7762604D01*
X17376768Y-7762604D01*
X17373809Y-7761811D01*
X17362766Y-7758852D01*
X17348271Y-7758852D01*
X17344532Y-7759854D01*
X17334270Y-7762604D01*
X17321718Y-7769851D01*
X17311468Y-7780101D01*
X17304221Y-7792653D01*
X17301240Y-7803778D01*
X17300469Y-7806655D01*
X17300469Y-7821150D01*
X17303759Y-7833429D01*
X17304221Y-7835151D01*
X17305224Y-7836889D01*
X17305561Y-7837473D01*
X17305624Y-7837581D01*
X17306950Y-7842531D01*
X17306950Y-7850050D01*
X17305059Y-7855869D01*
X17300109Y-7859465D01*
X17297050Y-7859950D01*
X17240812Y-7859950D01*
X17234993Y-7858059D01*
X17233812Y-7857050D01*
X17225970Y-7849208D01*
X17223192Y-7843757D01*
X17223739Y-7838631D01*
X17224188Y-7837473D01*
X17224262Y-7837281D01*
X17224262Y-7826046D01*
X17220203Y-7815570D01*
X17218633Y-7813587D01*
X17206586Y-7801541D01*
X17203808Y-7796089D01*
X17204765Y-7790046D01*
X17206586Y-7787540D01*
X17320366Y-7673760D01*
X17325817Y-7670983D01*
X17331860Y-7671940D01*
X17332712Y-7672428D01*
X17333085Y-7672668D01*
X17333086Y-7672668D01*
X17343323Y-7677598D01*
X17345050Y-7678430D01*
X17345050Y-7678430D01*
X17358180Y-7680409D01*
X17358180Y-7680409D01*
X17358180Y-7680409D01*
X17371311Y-7678430D01*
X17371311Y-7678430D01*
X17371311Y-7678430D01*
X17383275Y-7672668D01*
X17385576Y-7670762D01*
X17412880Y-7643458D01*
X17414786Y-7641157D01*
X17420548Y-7629193D01*
X17420627Y-7628667D01*
X17421901Y-7620215D01*
X17424638Y-7614743D01*
X17430068Y-7611924D01*
X17430213Y-7611901D01*
X17434749Y-7611218D01*
X17439193Y-7610548D01*
X17439193Y-7610548D01*
X17439193Y-7610548D01*
X17451157Y-7604786D01*
X17453458Y-7602880D01*
X17480762Y-7575576D01*
X17482668Y-7573275D01*
X17488430Y-7561311D01*
X17488430Y-7561311D01*
X17488430Y-7561310D01*
X17490409Y-7548180D01*
X17490409Y-7548109D01*
X17490429Y-7548047D01*
X17490520Y-7547447D01*
X17490619Y-7547462D01*
X17492300Y-7542290D01*
X17493309Y-7541109D01*
X17544308Y-7490109D01*
X17544313Y-7490107D01*
X17547210Y-7487210D01*
X17547210Y-7487210D01*
X17557831Y-7476588D01*
X17576562Y-7453100D01*
X17592546Y-7427663D01*
X17605580Y-7400595D01*
X17615502Y-7372239D01*
X17622187Y-7342950D01*
X17625550Y-7313096D01*
X17625550Y-7298075D01*
X17625550Y-7297679D01*
X17625550Y-6740649D01*
X17625635Y-6739357D01*
X17625891Y-6737411D01*
X17626895Y-6729787D01*
X17627563Y-6727292D01*
X17631007Y-6718978D01*
X17632298Y-6716741D01*
X17637776Y-6709603D01*
X17639603Y-6707776D01*
X17646741Y-6702298D01*
X17648978Y-6701007D01*
X17657292Y-6697563D01*
X17659787Y-6696894D01*
X17668340Y-6695768D01*
X17669357Y-6695635D01*
X17670649Y-6695550D01*
X17675997Y-6695550D01*
X17688365Y-6695550D01*
X17689396Y-6695604D01*
G37*
%TD.AperFunction*%
%TD*%
M02*
