%TF.GenerationSoftware,KiCad,Pcbnew,9.0.0*%
%TF.CreationDate,2025-03-30T18:56:19-05:00*%
%TF.ProjectId,radar-synth,72616461-722d-4737-996e-74682e6b6963,rev?*%
%TF.SameCoordinates,Original*%
%TF.FileFunction,Soldermask,Bot*%
%TF.FilePolarity,Negative*%
%FSLAX45Y45*%
G04 Gerber Fmt 4.5, Leading zero omitted, Abs format (unit mm)*
G04 Created by KiCad (PCBNEW 9.0.0) date 2025-03-30 18:56:19*
%MOMM*%
%LPD*%
G01*
G04 APERTURE LIST*
G04 Aperture macros list*
%AMRoundRect*
0 Rectangle with rounded corners*
0 $1 Rounding radius*
0 $2 $3 $4 $5 $6 $7 $8 $9 X,Y pos of 4 corners*
0 Add a 4 corners polygon primitive as box body*
4,1,4,$2,$3,$4,$5,$6,$7,$8,$9,$2,$3,0*
0 Add four circle primitives for the rounded corners*
1,1,$1+$1,$2,$3*
1,1,$1+$1,$4,$5*
1,1,$1+$1,$6,$7*
1,1,$1+$1,$8,$9*
0 Add four rect primitives between the rounded corners*
20,1,$1+$1,$2,$3,$4,$5,0*
20,1,$1+$1,$4,$5,$6,$7,0*
20,1,$1+$1,$6,$7,$8,$9,0*
20,1,$1+$1,$8,$9,$2,$3,0*%
G04 Aperture macros list end*
%ADD10C,0.000000*%
%ADD11C,2.700000*%
%ADD12R,1.000000X1.000000*%
%ADD13RoundRect,0.250000X1.600000X-0.425000X1.600000X0.425000X-1.600000X0.425000X-1.600000X-0.425000X0*%
%ADD14RoundRect,0.250000X-1.600000X0.425000X-1.600000X-0.425000X1.600000X-0.425000X1.600000X0.425000X0*%
%ADD15C,0.900000*%
%ADD16C,1.400000*%
%ADD17C,0.499999*%
%ADD18RoundRect,0.140000X-0.140000X-0.170000X0.140000X-0.170000X0.140000X0.170000X-0.140000X0.170000X0*%
%ADD19RoundRect,0.100000X-0.225000X-0.100000X0.225000X-0.100000X0.225000X0.100000X-0.225000X0.100000X0*%
%ADD20RoundRect,0.135000X0.185000X-0.135000X0.185000X0.135000X-0.185000X0.135000X-0.185000X-0.135000X0*%
%ADD21RoundRect,0.135000X0.135000X0.185000X-0.135000X0.185000X-0.135000X-0.185000X0.135000X-0.185000X0*%
%ADD22RoundRect,0.150000X0.700000X-0.150000X0.700000X0.150000X-0.700000X0.150000X-0.700000X-0.150000X0*%
%ADD23RoundRect,0.250000X1.100000X-0.250000X1.100000X0.250000X-1.100000X0.250000X-1.100000X-0.250000X0*%
%ADD24RoundRect,0.140000X0.140000X0.170000X-0.140000X0.170000X-0.140000X-0.170000X0.140000X-0.170000X0*%
%ADD25RoundRect,0.135000X-0.185000X0.135000X-0.185000X-0.135000X0.185000X-0.135000X0.185000X0.135000X0*%
%ADD26RoundRect,0.135000X-0.135000X-0.185000X0.135000X-0.185000X0.135000X0.185000X-0.135000X0.185000X0*%
%ADD27C,0.500000*%
G04 APERTURE END LIST*
%TO.C,U3*%
G36*
X13845180Y-7704280D02*
G01*
X13754820Y-7704280D01*
X13754820Y-7617920D01*
X13845180Y-7617920D01*
X13845180Y-7704280D01*
G37*
G36*
X13845180Y-9406080D02*
G01*
X13754820Y-9406080D01*
X13754820Y-9319720D01*
X13845180Y-9319720D01*
X13845180Y-9406080D01*
G37*
G36*
X14099180Y-7704280D02*
G01*
X14008820Y-7704280D01*
X14008820Y-7617920D01*
X14099180Y-7617920D01*
X14099180Y-7704280D01*
G37*
G36*
X14099180Y-9406080D02*
G01*
X14008820Y-9406080D01*
X14008820Y-9319720D01*
X14099180Y-9319720D01*
X14099180Y-9406080D01*
G37*
G36*
X14353180Y-7704280D02*
G01*
X14262820Y-7704280D01*
X14262820Y-7617920D01*
X14353180Y-7617920D01*
X14353180Y-7704280D01*
G37*
G36*
X14353180Y-9406080D02*
G01*
X14262820Y-9406080D01*
X14262820Y-9319720D01*
X14353180Y-9319720D01*
X14353180Y-9406080D01*
G37*
G36*
X14607180Y-7704280D02*
G01*
X14516820Y-7704280D01*
X14516820Y-7617920D01*
X14607180Y-7617920D01*
X14607180Y-7704280D01*
G37*
G36*
X14607180Y-9406080D02*
G01*
X14516820Y-9406080D01*
X14516820Y-9319720D01*
X14607180Y-9319720D01*
X14607180Y-9406080D01*
G37*
G36*
X14861180Y-7704280D02*
G01*
X14770820Y-7704280D01*
X14770820Y-7617920D01*
X14861180Y-7617920D01*
X14861180Y-7704280D01*
G37*
G36*
X14861180Y-9406080D02*
G01*
X14770820Y-9406080D01*
X14770820Y-9319720D01*
X14861180Y-9319720D01*
X14861180Y-9406080D01*
G37*
G36*
X15115180Y-7704280D02*
G01*
X15024820Y-7704280D01*
X15024820Y-7617920D01*
X15115180Y-7617920D01*
X15115180Y-7704280D01*
G37*
G36*
X15115180Y-9406080D02*
G01*
X15024820Y-9406080D01*
X15024820Y-9319720D01*
X15115180Y-9319720D01*
X15115180Y-9406080D01*
G37*
G36*
X15369180Y-7704280D02*
G01*
X15278820Y-7704280D01*
X15278820Y-7617920D01*
X15369180Y-7617920D01*
X15369180Y-7704280D01*
G37*
G36*
X15369180Y-9406080D02*
G01*
X15278820Y-9406080D01*
X15278820Y-9319720D01*
X15369180Y-9319720D01*
X15369180Y-9406080D01*
G37*
D10*
G36*
X13942363Y-9321773D02*
G01*
X13954418Y-9327916D01*
X13964278Y-9337776D01*
X13972180Y-9362095D01*
X13972180Y-9406080D01*
X13881820Y-9406080D01*
X13881820Y-9362500D01*
X13883873Y-9349537D01*
X13890015Y-9337482D01*
X13899876Y-9327622D01*
X13924195Y-9319720D01*
X13929400Y-9319720D01*
X13942363Y-9321773D01*
G37*
G36*
X14196363Y-9321773D02*
G01*
X14208418Y-9327916D01*
X14218278Y-9337776D01*
X14226180Y-9362095D01*
X14226180Y-9406080D01*
X14135820Y-9406080D01*
X14135820Y-9362500D01*
X14137873Y-9349537D01*
X14144015Y-9337482D01*
X14153876Y-9327622D01*
X14178195Y-9319720D01*
X14183400Y-9319720D01*
X14196363Y-9321773D01*
G37*
G36*
X14450363Y-9321773D02*
G01*
X14462418Y-9327916D01*
X14472278Y-9337776D01*
X14480180Y-9362095D01*
X14480180Y-9406080D01*
X14389820Y-9406080D01*
X14389820Y-9362500D01*
X14391873Y-9349537D01*
X14398015Y-9337482D01*
X14407876Y-9327622D01*
X14432195Y-9319720D01*
X14437400Y-9319720D01*
X14450363Y-9321773D01*
G37*
G36*
X14704363Y-9321773D02*
G01*
X14716418Y-9327916D01*
X14726278Y-9337776D01*
X14734180Y-9362095D01*
X14734180Y-9406080D01*
X14643820Y-9406080D01*
X14643820Y-9362500D01*
X14645873Y-9349537D01*
X14652015Y-9337482D01*
X14661876Y-9327622D01*
X14686195Y-9319720D01*
X14691400Y-9319720D01*
X14704363Y-9321773D01*
G37*
G36*
X14734180Y-7661500D02*
G01*
X14732127Y-7674463D01*
X14725984Y-7686518D01*
X14716124Y-7696378D01*
X14691805Y-7704280D01*
X14686600Y-7704280D01*
X14673637Y-7702227D01*
X14661582Y-7696084D01*
X14651722Y-7686224D01*
X14643820Y-7661905D01*
X14643820Y-7617920D01*
X14734180Y-7617920D01*
X14734180Y-7661500D01*
G37*
G36*
X14958363Y-9321773D02*
G01*
X14970418Y-9327916D01*
X14980278Y-9337776D01*
X14988180Y-9362095D01*
X14988180Y-9406080D01*
X14897820Y-9406080D01*
X14897820Y-9362500D01*
X14899873Y-9349537D01*
X14906015Y-9337482D01*
X14915876Y-9327622D01*
X14940195Y-9319720D01*
X14945400Y-9319720D01*
X14958363Y-9321773D01*
G37*
G36*
X14988180Y-7661500D02*
G01*
X14986127Y-7674463D01*
X14979984Y-7686518D01*
X14970124Y-7696378D01*
X14945805Y-7704280D01*
X14940600Y-7704280D01*
X14927637Y-7702227D01*
X14915582Y-7696084D01*
X14905722Y-7686224D01*
X14897820Y-7661905D01*
X14897820Y-7617920D01*
X14988180Y-7617920D01*
X14988180Y-7661500D01*
G37*
G36*
X15212363Y-9321773D02*
G01*
X15224418Y-9327916D01*
X15234278Y-9337776D01*
X15242180Y-9362095D01*
X15242180Y-9406080D01*
X15151820Y-9406080D01*
X15151820Y-9362500D01*
X15153873Y-9349537D01*
X15160015Y-9337482D01*
X15169876Y-9327622D01*
X15194195Y-9319720D01*
X15199400Y-9319720D01*
X15212363Y-9321773D01*
G37*
G36*
X15242180Y-7661500D02*
G01*
X15240127Y-7674463D01*
X15233984Y-7686518D01*
X15224124Y-7696378D01*
X15199805Y-7704280D01*
X15194600Y-7704280D01*
X15181637Y-7702227D01*
X15169582Y-7696084D01*
X15159722Y-7686224D01*
X15151820Y-7661905D01*
X15151820Y-7617920D01*
X15242180Y-7617920D01*
X15242180Y-7661500D01*
G37*
%TD*%
D11*
%TO.C,H1*%
X13900000Y-5500000D03*
%TD*%
D12*
%TO.C,TP1*%
X16150000Y-7010000D03*
%TD*%
D11*
%TO.C,H3*%
X18100000Y-10300000D03*
%TD*%
D13*
%TO.C,J4*%
X18271000Y-6367500D03*
X18271000Y-6932500D03*
%TD*%
D14*
%TO.C,J3*%
X13735000Y-6932500D03*
X13735000Y-6367500D03*
%TD*%
D13*
%TO.C,J5*%
X18271000Y-8867500D03*
X18271000Y-9432500D03*
%TD*%
D15*
%TO.C,U3*%
X13800000Y-9401000D03*
D16*
X13800000Y-9274000D03*
D15*
X14054000Y-9401000D03*
D16*
X14054000Y-9274000D03*
D15*
X14308000Y-9401000D03*
D16*
X14308000Y-9274000D03*
D15*
X14562000Y-9401000D03*
D16*
X14562000Y-9274000D03*
D15*
X14816000Y-9401000D03*
D16*
X14816000Y-9274000D03*
D15*
X15070000Y-9401000D03*
D16*
X15070000Y-9274000D03*
D15*
X15324000Y-9401000D03*
D16*
X15324000Y-9274000D03*
X15324000Y-7750000D03*
D15*
X15324000Y-7623000D03*
D16*
X15070000Y-7750000D03*
D15*
X15070000Y-7623000D03*
D16*
X14816000Y-7750000D03*
D15*
X14816000Y-7623000D03*
D16*
X14562000Y-7750000D03*
D15*
X14562000Y-7623000D03*
D16*
X14308000Y-7750000D03*
D15*
X14308000Y-7623000D03*
D16*
X14054000Y-7750000D03*
D15*
X14054000Y-7623000D03*
D16*
X13800000Y-7750000D03*
D15*
X13800000Y-7623000D03*
X13927000Y-9401000D03*
X14181000Y-9401000D03*
X14435000Y-9401000D03*
X14689000Y-9401000D03*
X14943000Y-9401000D03*
X15197000Y-9401000D03*
X15197000Y-7623000D03*
X14943000Y-7623000D03*
X14689000Y-7623000D03*
%TD*%
D11*
%TO.C,H4*%
X13900000Y-10300000D03*
%TD*%
D17*
%TO.C,U2*%
X16606959Y-7979802D03*
X16710197Y-8083040D03*
X16606959Y-7800197D03*
X16696762Y-7890000D03*
X16800000Y-7993238D03*
X16889802Y-8083040D03*
X16710197Y-7696959D03*
X16800000Y-7786762D03*
X16903238Y-7890000D03*
X16993040Y-7979802D03*
X16889802Y-7696959D03*
X16993040Y-7800197D03*
%TD*%
D12*
%TO.C,TP2*%
X16670000Y-9100000D03*
%TD*%
D11*
%TO.C,H2*%
X18100000Y-5500000D03*
%TD*%
D18*
%TO.C,C2*%
X14794000Y-8415000D03*
X14890000Y-8415000D03*
%TD*%
D19*
%TO.C,U1*%
X14605000Y-8280000D03*
X14605000Y-8215000D03*
X14605000Y-8150000D03*
X14795000Y-8150000D03*
X14795000Y-8280000D03*
%TD*%
D20*
%TO.C,R18*%
X15199000Y-8005000D03*
X15199000Y-7903000D03*
%TD*%
D21*
%TO.C,R2*%
X14051000Y-9680000D03*
X13949000Y-9680000D03*
%TD*%
D22*
%TO.C,J6*%
X14000000Y-8840000D03*
X14000000Y-8715000D03*
X14000000Y-8590000D03*
X14000000Y-8465000D03*
X14000000Y-8340000D03*
X14000000Y-8215000D03*
D23*
X13680000Y-9025000D03*
X13680000Y-8030000D03*
%TD*%
D20*
%TO.C,R19*%
X14943000Y-8008000D03*
X14943000Y-7906000D03*
%TD*%
D21*
%TO.C,R13*%
X15081000Y-8150000D03*
X14979000Y-8150000D03*
%TD*%
D24*
%TO.C,C28*%
X13898000Y-7530000D03*
X13802000Y-7530000D03*
%TD*%
D25*
%TO.C,R12*%
X15085000Y-8249000D03*
X15085000Y-8351000D03*
%TD*%
D26*
%TO.C,R1*%
X14239000Y-8215000D03*
X14341000Y-8215000D03*
%TD*%
%TO.C,R3*%
X14239000Y-8590000D03*
X14341000Y-8590000D03*
%TD*%
%TO.C,R4*%
X14238000Y-8470000D03*
X14340000Y-8470000D03*
%TD*%
D24*
%TO.C,C29*%
X14404003Y-7532007D03*
X14308003Y-7532007D03*
%TD*%
D27*
X16444000Y-7687000D03*
X17355519Y-7813902D03*
X16085000Y-7770000D03*
X17145000Y-8165000D03*
X17310000Y-7995000D03*
X17107259Y-7656350D03*
X16840000Y-7400000D03*
X16630000Y-7330000D03*
X17087883Y-8205469D03*
X16975000Y-7505000D03*
M02*
