%TF.GenerationSoftware,KiCad,Pcbnew,9.0.0*%
%TF.CreationDate,2025-03-30T18:56:19-05:00*%
%TF.ProjectId,radar-synth,72616461-722d-4737-996e-74682e6b6963,rev?*%
%TF.SameCoordinates,Original*%
%TF.FileFunction,Copper,L2,Inr*%
%TF.FilePolarity,Positive*%
%FSLAX45Y45*%
G04 Gerber Fmt 4.5, Leading zero omitted, Abs format (unit mm)*
G04 Created by KiCad (PCBNEW 9.0.0) date 2025-03-30 18:56:19*
%MOMM*%
%LPD*%
G01*
G04 APERTURE LIST*
%TA.AperFunction,ComponentPad*%
%ADD10R,1.000000X1.000000*%
%TD*%
%TA.AperFunction,ComponentPad*%
%ADD11C,0.900000*%
%TD*%
%TA.AperFunction,ComponentPad*%
%ADD12C,1.400000*%
%TD*%
%TA.AperFunction,ComponentPad*%
%ADD13C,0.499999*%
%TD*%
%TA.AperFunction,ViaPad*%
%ADD14C,0.500000*%
%TD*%
%TA.AperFunction,ViaPad*%
%ADD15C,0.600000*%
%TD*%
G04 APERTURE END LIST*
D10*
%TO.N,/lmx2572_rf_pll_synth/REF_OSC_P*%
%TO.C,TP1*%
X16150000Y-7010000D03*
%TD*%
D11*
%TO.N,/controller/LED0*%
%TO.C,U3*%
X13800000Y-9401000D03*
D12*
X13800000Y-9274000D03*
D11*
%TO.N,unconnected-(U3-GPIO2_D1{slash}A1-Pad2)*%
X14054000Y-9401000D03*
D12*
%TO.N,unconnected-(U3-GPIO2_D1{slash}A1-Pad2)_1*%
X14054000Y-9274000D03*
D11*
%TO.N,/controller/lmx2572.ce*%
X14308000Y-9401000D03*
D12*
X14308000Y-9274000D03*
D11*
%TO.N,/controller/lmx2572.rampclk*%
X14562000Y-9401000D03*
D12*
X14562000Y-9274000D03*
D11*
%TO.N,/controller/lmx2572.csb*%
X14816000Y-9401000D03*
D12*
X14816000Y-9274000D03*
D11*
%TO.N,/controller/lmx2572.sdi*%
X15070000Y-9401000D03*
D12*
X15070000Y-9274000D03*
D11*
%TO.N,/controller/TXD0*%
X15324000Y-9401000D03*
D12*
X15324000Y-9274000D03*
%TO.N,/controller/RXD0*%
X15324000Y-7750000D03*
D11*
X15324000Y-7623000D03*
D12*
%TO.N,/controller/ref_clk_en*%
X15070000Y-7750000D03*
D11*
X15070000Y-7623000D03*
D12*
%TO.N,/controller/ref_clk_select*%
X14816000Y-7750000D03*
D11*
X14816000Y-7623000D03*
D12*
%TO.N,unconnected-(U3-GPIO9_D10{slash}A10{slash}MOSI-Pad11)*%
X14562000Y-7750000D03*
D11*
%TO.N,unconnected-(U3-GPIO9_D10{slash}A10{slash}MOSI-Pad11)_1*%
X14562000Y-7623000D03*
D12*
%TO.N,3V3*%
X14308000Y-7750000D03*
D11*
X14308000Y-7623000D03*
D12*
%TO.N,GND*%
X14054000Y-7750000D03*
D11*
X14054000Y-7623000D03*
D12*
%TO.N,VBUS*%
X13800000Y-7750000D03*
D11*
X13800000Y-7623000D03*
%TO.N,unconnected-(U3-GPIO38_DVP_VSYNC{slash}I2S_SD-Pad15)*%
X13927000Y-9401000D03*
%TO.N,/controller/lmx2572.sync*%
X14181000Y-9401000D03*
%TO.N,/controller/lmx2572.rampdir*%
X14435000Y-9401000D03*
%TO.N,/controller/lmx2572.sysreffreq*%
X14689000Y-9401000D03*
%TO.N,/controller/lmx2572.muxout*%
X14943000Y-9401000D03*
%TO.N,/controller/lmx2572.sck*%
X15197000Y-9401000D03*
%TO.N,/controller/i2c0.scl*%
X15197000Y-7623000D03*
%TO.N,/controller/i2c0.sda*%
X14943000Y-7623000D03*
%TO.N,unconnected-(U3-GPIO13_DVP_PCLK{slash}SPI_SCK1-Pad23)*%
X14689000Y-7623000D03*
%TD*%
D13*
%TO.N,GND*%
%TO.C,U2*%
X16606959Y-7979802D03*
X16710197Y-8083040D03*
X16606959Y-7800197D03*
X16696762Y-7890000D03*
X16800000Y-7993238D03*
X16889802Y-8083040D03*
X16710197Y-7696959D03*
X16800000Y-7786762D03*
X16903238Y-7890000D03*
X16993040Y-7979802D03*
X16889802Y-7696959D03*
X16993040Y-7800197D03*
%TD*%
D10*
%TO.N,Net-(U2-VTUNE)*%
%TO.C,TP2*%
X16670000Y-9100000D03*
%TD*%
D14*
%TO.N,GND*%
X17570000Y-7650000D03*
X17670000Y-6900000D03*
X17750000Y-6550000D03*
X17600000Y-8300000D03*
X17680000Y-8250000D03*
X13967500Y-6932500D03*
X17950000Y-6780000D03*
X15850000Y-8900000D03*
X15780000Y-7450000D03*
X17020000Y-8610000D03*
X17650000Y-6550000D03*
X15330000Y-7405000D03*
X17800000Y-6480000D03*
X18035000Y-6932516D03*
X14460000Y-7530000D03*
X15880000Y-6210000D03*
X17550000Y-7770000D03*
X15750000Y-8600000D03*
X16100000Y-8950000D03*
X18240000Y-8720000D03*
X17640000Y-6960000D03*
X17890000Y-9350000D03*
X17850000Y-6760000D03*
X18320000Y-9580000D03*
X17500000Y-6800000D03*
X14945000Y-8415000D03*
X17590000Y-8200000D03*
X17480000Y-8600000D03*
X17670000Y-7660000D03*
X17750000Y-6750000D03*
X17290000Y-8710000D03*
X16000000Y-8600000D03*
X18010000Y-8950000D03*
X15150000Y-8900000D03*
X17133938Y-8298938D03*
X18090000Y-7090000D03*
X17570000Y-9280000D03*
X17490000Y-7330000D03*
X16090000Y-6520000D03*
D15*
X16465000Y-7317500D03*
D14*
X17400000Y-8350000D03*
X18340000Y-8720000D03*
X17290000Y-8820000D03*
X14650000Y-6410000D03*
X17420000Y-7150000D03*
X17450000Y-8100000D03*
X17540000Y-7550000D03*
X17510000Y-7000000D03*
X15243000Y-7460000D03*
X14165000Y-8715000D03*
X16155000Y-8492500D03*
X14212500Y-6340000D03*
X15980000Y-7620000D03*
X18110000Y-6230000D03*
X17500000Y-8200000D03*
X15600000Y-8700000D03*
X17480000Y-8800000D03*
D15*
X16395000Y-7387500D03*
D14*
X15780000Y-7650000D03*
X16060000Y-6840000D03*
X17670000Y-7000000D03*
X17525000Y-7900000D03*
X17480000Y-8700000D03*
X15980000Y-6920000D03*
X13740000Y-7080000D03*
X18420000Y-7090000D03*
X17790000Y-9360000D03*
X17420000Y-7690000D03*
X17610000Y-7570000D03*
X15780000Y-8050000D03*
X17740000Y-8750000D03*
X15980000Y-7420000D03*
X17750000Y-7050000D03*
X17410000Y-8850000D03*
X14290000Y-6760000D03*
X18330000Y-6230000D03*
X17290000Y-8600000D03*
X17550000Y-9200000D03*
X17300000Y-8400000D03*
X17460000Y-6620000D03*
X17740000Y-8550000D03*
X17500000Y-7100000D03*
X17610000Y-8110000D03*
X15530000Y-6025000D03*
X18070000Y-9300000D03*
X17740000Y-8850000D03*
X17890000Y-6850000D03*
X15470000Y-7250000D03*
X17550000Y-8020000D03*
X18430000Y-6230000D03*
X15980000Y-8010000D03*
X17410000Y-7260000D03*
X17490000Y-7710000D03*
X17740000Y-8460000D03*
X16070000Y-6630000D03*
X14930000Y-6410000D03*
X16363000Y-8358000D03*
X17420000Y-7050000D03*
X17580000Y-6530000D03*
X18130000Y-8720000D03*
X15750000Y-8700000D03*
X13730000Y-6210000D03*
X17740000Y-8330000D03*
X17750000Y-9250000D03*
X17670000Y-8400000D03*
X18060000Y-6790000D03*
X17840000Y-6280000D03*
X17740000Y-8650000D03*
X13860000Y-7080000D03*
X17700000Y-6490000D03*
X17750000Y-7260000D03*
X17960000Y-9020000D03*
X17670000Y-7310000D03*
X17280000Y-7260000D03*
X13970000Y-6370000D03*
X17410000Y-8560000D03*
X17410000Y-8950000D03*
X17948185Y-6539732D03*
X18220000Y-6230000D03*
X15780000Y-7750000D03*
X14500000Y-6955000D03*
X18320000Y-7090000D03*
X15600000Y-8900000D03*
X17420000Y-6950000D03*
X13850000Y-6210000D03*
X17600000Y-7490000D03*
X17900000Y-8960000D03*
X17540000Y-8120000D03*
X13600000Y-6210000D03*
X14245000Y-7190000D03*
X17490000Y-7630000D03*
X15780000Y-7950000D03*
X17500000Y-7200000D03*
X17480000Y-9100000D03*
X17410000Y-8650000D03*
X17480000Y-8510000D03*
X16730000Y-9475000D03*
X14160000Y-6760000D03*
X17420000Y-6850000D03*
X15430000Y-6025000D03*
X15877500Y-6382500D03*
X14150000Y-6530000D03*
X17720000Y-7380000D03*
X17075000Y-7265000D03*
X15450000Y-8800000D03*
X17890000Y-6390000D03*
X14020000Y-6530000D03*
X15980000Y-6200000D03*
X18040000Y-9435000D03*
X17145000Y-7335000D03*
X15470000Y-6595000D03*
X15730000Y-6200000D03*
X17990000Y-9540000D03*
X17840000Y-9270000D03*
X15620000Y-6220000D03*
X17670000Y-7200000D03*
X15780000Y-7850000D03*
X16500000Y-8600000D03*
X17320000Y-7740000D03*
X18000000Y-6850000D03*
X14450000Y-6300000D03*
X17750000Y-6950000D03*
D15*
X16255000Y-7527500D03*
D14*
X15450000Y-8900000D03*
X17930000Y-9460000D03*
X16150000Y-8750000D03*
X17850000Y-9040000D03*
X17480000Y-9000000D03*
X17215000Y-7405000D03*
X15980000Y-7710000D03*
X17480000Y-6510000D03*
X17480000Y-8900000D03*
X17970000Y-9370000D03*
X17670000Y-8600000D03*
X17410000Y-8750000D03*
X18060000Y-6520000D03*
X18210000Y-9580000D03*
D15*
X16325000Y-7457500D03*
D14*
X16250000Y-8750000D03*
X17300000Y-8490000D03*
X17500000Y-6700000D03*
X16730000Y-9590000D03*
X18000000Y-6470000D03*
X14505000Y-8150000D03*
X17670000Y-8700000D03*
X16835000Y-8810000D03*
X17750000Y-7150000D03*
X17670000Y-8900000D03*
X18200000Y-7090000D03*
X15980000Y-7110000D03*
X16830339Y-8720000D03*
X17640000Y-9240000D03*
X13970000Y-7530000D03*
X17950000Y-9280000D03*
X15980000Y-7510000D03*
X17500000Y-6900000D03*
X16050000Y-8700000D03*
X17670000Y-7100000D03*
X15980000Y-7910000D03*
X16100000Y-6350000D03*
X13600000Y-7080000D03*
X17860000Y-8850000D03*
X17980000Y-6230000D03*
X17460000Y-7800000D03*
X18020000Y-7040000D03*
X17400000Y-8460000D03*
X15260000Y-6420000D03*
X15560000Y-6550000D03*
X18040000Y-6370000D03*
D15*
X16185000Y-7597500D03*
D14*
X17960000Y-6320000D03*
X17700000Y-9320000D03*
X17397000Y-9480000D03*
X16450000Y-8750000D03*
X17670000Y-6730000D03*
X17750000Y-8960000D03*
X17460000Y-9190000D03*
X17470000Y-8420000D03*
X14725000Y-6305000D03*
X15210000Y-6080000D03*
X16080000Y-6730000D03*
X15980000Y-7810000D03*
X17680000Y-7490000D03*
X18043355Y-8867601D03*
X14800000Y-9000000D03*
X15750000Y-8850000D03*
X18090000Y-9580000D03*
X14610000Y-6955000D03*
X18070000Y-9020000D03*
X14030000Y-6760000D03*
X17397000Y-9585000D03*
X17670000Y-8500000D03*
X17750000Y-9050000D03*
X14315000Y-6340000D03*
X15767500Y-6907500D03*
X17960000Y-8810000D03*
X17550000Y-6600000D03*
X17600000Y-7870000D03*
X17900000Y-6480000D03*
X17670000Y-9000000D03*
X16965000Y-8545000D03*
X17024412Y-8494519D03*
X14800000Y-9150000D03*
X17460000Y-8000000D03*
X18430000Y-8720000D03*
X18420000Y-9580000D03*
X17670000Y-6800000D03*
X15780000Y-7550000D03*
X18020000Y-8720000D03*
X17400000Y-9050000D03*
X16192000Y-7957657D03*
X15627500Y-6380000D03*
X14280000Y-6530000D03*
X15980000Y-7310000D03*
X17850000Y-6550000D03*
X17650000Y-7410000D03*
X17420000Y-6750000D03*
X17790000Y-6830000D03*
X17670000Y-8800000D03*
X17140000Y-8390000D03*
X15980000Y-7210000D03*
%TO.N,Net-(D2-A)*%
X13960000Y-9570000D03*
%TD*%
%TA.AperFunction,Conductor*%
%TO.N,GND*%
G36*
X18444304Y-5931968D02*
G01*
X18448879Y-5937249D01*
X18450000Y-5942400D01*
X18450000Y-9857600D01*
X18448032Y-9864304D01*
X18442751Y-9868879D01*
X18437600Y-9870000D01*
X13542400Y-9870000D01*
X13535696Y-9868032D01*
X13531121Y-9862751D01*
X13530000Y-9857600D01*
X13530000Y-9686407D01*
X14059950Y-9686407D01*
X14062450Y-9698974D01*
X14062450Y-9698974D01*
X14067353Y-9710812D01*
X14067354Y-9710813D01*
X14074472Y-9721467D01*
X14074473Y-9721467D01*
X14083533Y-9730527D01*
X14083533Y-9730528D01*
X14094187Y-9737646D01*
X14094187Y-9737646D01*
X14094187Y-9737647D01*
X14106026Y-9742550D01*
X14106026Y-9742550D01*
X14106026Y-9742550D01*
X14118593Y-9745050D01*
X14118593Y-9745050D01*
X14131407Y-9745050D01*
X14139861Y-9743368D01*
X14143974Y-9742550D01*
X14155813Y-9737647D01*
X14166467Y-9730528D01*
X14175528Y-9721467D01*
X14182646Y-9710813D01*
X14187550Y-9698974D01*
X14190050Y-9686407D01*
X14190050Y-9673593D01*
X14190050Y-9673593D01*
X14188621Y-9666407D01*
X16844950Y-9666407D01*
X16847450Y-9678974D01*
X16847450Y-9678974D01*
X16852353Y-9690812D01*
X16852354Y-9690813D01*
X16859472Y-9701467D01*
X16859473Y-9701467D01*
X16868533Y-9710527D01*
X16868533Y-9710528D01*
X16879187Y-9717646D01*
X16879187Y-9717646D01*
X16879187Y-9717647D01*
X16891026Y-9722550D01*
X16891026Y-9722550D01*
X16891026Y-9722550D01*
X16903593Y-9725050D01*
X16903593Y-9725050D01*
X16916407Y-9725050D01*
X16924862Y-9723368D01*
X16928974Y-9722550D01*
X16940813Y-9717647D01*
X16951467Y-9710528D01*
X16960528Y-9701467D01*
X16967647Y-9690813D01*
X16972550Y-9678974D01*
X16975050Y-9666407D01*
X16975050Y-9665496D01*
X16977019Y-9658792D01*
X16982299Y-9654217D01*
X16985030Y-9653335D01*
X16988974Y-9652550D01*
X17000813Y-9647647D01*
X17011467Y-9640528D01*
X17020528Y-9631467D01*
X17027647Y-9620813D01*
X17032550Y-9608974D01*
X17034055Y-9601407D01*
X17096950Y-9601407D01*
X17099450Y-9613974D01*
X17099450Y-9613974D01*
X17104353Y-9625812D01*
X17104354Y-9625813D01*
X17111472Y-9636467D01*
X17111473Y-9636467D01*
X17120533Y-9645527D01*
X17120533Y-9645528D01*
X17131187Y-9652646D01*
X17131187Y-9652646D01*
X17131187Y-9652647D01*
X17143026Y-9657550D01*
X17143026Y-9657550D01*
X17143026Y-9657550D01*
X17152769Y-9659488D01*
X17158960Y-9662727D01*
X17162418Y-9668798D01*
X17162512Y-9669231D01*
X17164450Y-9678974D01*
X17164450Y-9678974D01*
X17169353Y-9690812D01*
X17169354Y-9690813D01*
X17176472Y-9701467D01*
X17176473Y-9701467D01*
X17185533Y-9710527D01*
X17185533Y-9710528D01*
X17196187Y-9717646D01*
X17196187Y-9717646D01*
X17196187Y-9717647D01*
X17208026Y-9722550D01*
X17208026Y-9722550D01*
X17208026Y-9722550D01*
X17220593Y-9725050D01*
X17220593Y-9725050D01*
X17233407Y-9725050D01*
X17241862Y-9723368D01*
X17245974Y-9722550D01*
X17257813Y-9717647D01*
X17268467Y-9710528D01*
X17277528Y-9701467D01*
X17284647Y-9690813D01*
X17289550Y-9678974D01*
X17292050Y-9666407D01*
X17292050Y-9653593D01*
X17292050Y-9653593D01*
X17289550Y-9641026D01*
X17289550Y-9641026D01*
X17289550Y-9641026D01*
X17284647Y-9629187D01*
X17284646Y-9629187D01*
X17284646Y-9629187D01*
X17277528Y-9618533D01*
X17277527Y-9618533D01*
X17268467Y-9609473D01*
X17268467Y-9609472D01*
X17257813Y-9602354D01*
X17257812Y-9602353D01*
X17245974Y-9597450D01*
X17245974Y-9597450D01*
X17236231Y-9595512D01*
X17230040Y-9592273D01*
X17226582Y-9586201D01*
X17226488Y-9585769D01*
X17224550Y-9576026D01*
X17224550Y-9576026D01*
X17224550Y-9576026D01*
X17219647Y-9564187D01*
X17219646Y-9564187D01*
X17219646Y-9564187D01*
X17212528Y-9553533D01*
X17212527Y-9553533D01*
X17203467Y-9544473D01*
X17203467Y-9544472D01*
X17192813Y-9537354D01*
X17192812Y-9537353D01*
X17180974Y-9532450D01*
X17180974Y-9532450D01*
X17168407Y-9529950D01*
X17168407Y-9529950D01*
X17155593Y-9529950D01*
X17155593Y-9529950D01*
X17143026Y-9532450D01*
X17143026Y-9532450D01*
X17131188Y-9537353D01*
X17131187Y-9537354D01*
X17120533Y-9544472D01*
X17120533Y-9544473D01*
X17111473Y-9553533D01*
X17111472Y-9553533D01*
X17104354Y-9564187D01*
X17104353Y-9564188D01*
X17099450Y-9576026D01*
X17099450Y-9576026D01*
X17096950Y-9588593D01*
X17096950Y-9588593D01*
X17096950Y-9601407D01*
X17096950Y-9601407D01*
X17096950Y-9601407D01*
X17034055Y-9601407D01*
X17034055Y-9601407D01*
X17035050Y-9596407D01*
X17035050Y-9583593D01*
X17032550Y-9571026D01*
X17032550Y-9571026D01*
X17032550Y-9571026D01*
X17027647Y-9559187D01*
X17027646Y-9559187D01*
X17027646Y-9559187D01*
X17020528Y-9548533D01*
X17020527Y-9548533D01*
X17011467Y-9539473D01*
X17011467Y-9539472D01*
X17000813Y-9532354D01*
X17000812Y-9532353D01*
X16988974Y-9527450D01*
X16988974Y-9527450D01*
X16976407Y-9524950D01*
X16976407Y-9524950D01*
X16963593Y-9524950D01*
X16963593Y-9524950D01*
X16951026Y-9527450D01*
X16951026Y-9527450D01*
X16939188Y-9532353D01*
X16939187Y-9532354D01*
X16928533Y-9539472D01*
X16928533Y-9539473D01*
X16919473Y-9548533D01*
X16919472Y-9548533D01*
X16912354Y-9559187D01*
X16912353Y-9559188D01*
X16907450Y-9571026D01*
X16907450Y-9571026D01*
X16904950Y-9583593D01*
X16904950Y-9584504D01*
X16902982Y-9591208D01*
X16897701Y-9595783D01*
X16894969Y-9596665D01*
X16891026Y-9597450D01*
X16891026Y-9597450D01*
X16879188Y-9602353D01*
X16879187Y-9602354D01*
X16868533Y-9609472D01*
X16868533Y-9609473D01*
X16859473Y-9618533D01*
X16859472Y-9618533D01*
X16852354Y-9629187D01*
X16852353Y-9629188D01*
X16847450Y-9641026D01*
X16847450Y-9641026D01*
X16844950Y-9653593D01*
X16844950Y-9653593D01*
X16844950Y-9666407D01*
X16844950Y-9666407D01*
X16844950Y-9666407D01*
X14188621Y-9666407D01*
X14187550Y-9661026D01*
X14187550Y-9661026D01*
X14187550Y-9661026D01*
X14187146Y-9660050D01*
X14186185Y-9657729D01*
X14182647Y-9649188D01*
X14182647Y-9649188D01*
X14182646Y-9649187D01*
X14182646Y-9649187D01*
X14182646Y-9649187D01*
X14175528Y-9638533D01*
X14175527Y-9638533D01*
X14166467Y-9629473D01*
X14166467Y-9629472D01*
X14155813Y-9622354D01*
X14155812Y-9622353D01*
X14143974Y-9617450D01*
X14143974Y-9617450D01*
X14131407Y-9614950D01*
X14131407Y-9614950D01*
X14118593Y-9614950D01*
X14118593Y-9614950D01*
X14106026Y-9617450D01*
X14106025Y-9617450D01*
X14094187Y-9622353D01*
X14094187Y-9622354D01*
X14083533Y-9629472D01*
X14083533Y-9629473D01*
X14074473Y-9638533D01*
X14074472Y-9638533D01*
X14067354Y-9649187D01*
X14067353Y-9649188D01*
X14062450Y-9661026D01*
X14062450Y-9661026D01*
X14059950Y-9673593D01*
X14059950Y-9673593D01*
X14059950Y-9686407D01*
X14059950Y-9686407D01*
X14059950Y-9686407D01*
X13530000Y-9686407D01*
X13530000Y-9264551D01*
X13679950Y-9264551D01*
X13679950Y-9283449D01*
X13682906Y-9302112D01*
X13688745Y-9320084D01*
X13697324Y-9336920D01*
X13708431Y-9352207D01*
X13708431Y-9352208D01*
X13708864Y-9352641D01*
X13712213Y-9358773D01*
X13711714Y-9365742D01*
X13711552Y-9366154D01*
X13708603Y-9373275D01*
X13708602Y-9373276D01*
X13704950Y-9391638D01*
X13704950Y-9410362D01*
X13708602Y-9428724D01*
X13708603Y-9428725D01*
X13715768Y-9446023D01*
X13715768Y-9446024D01*
X13726170Y-9461591D01*
X13726170Y-9461591D01*
X13739409Y-9474830D01*
X13739409Y-9474830D01*
X13754976Y-9485232D01*
X13754977Y-9485232D01*
X13754977Y-9485232D01*
X13772275Y-9492397D01*
X13785108Y-9494950D01*
X13790638Y-9496050D01*
X13790638Y-9496050D01*
X13790638Y-9496050D01*
X13809362Y-9496050D01*
X13809362Y-9496050D01*
X13827725Y-9492397D01*
X13845023Y-9485232D01*
X13856611Y-9477490D01*
X13863279Y-9475402D01*
X13870017Y-9477250D01*
X13870389Y-9477490D01*
X13881976Y-9485232D01*
X13881977Y-9485232D01*
X13881977Y-9485232D01*
X13899275Y-9492397D01*
X13901249Y-9492790D01*
X13903372Y-9493212D01*
X13909563Y-9496451D01*
X13913020Y-9502522D01*
X13912647Y-9509499D01*
X13909721Y-9514142D01*
X13901705Y-9522158D01*
X13893492Y-9534450D01*
X13893491Y-9534451D01*
X13887834Y-9548108D01*
X13887834Y-9548109D01*
X13884950Y-9562608D01*
X13884950Y-9562608D01*
X13884950Y-9577392D01*
X13884950Y-9577392D01*
X13884950Y-9577392D01*
X13887834Y-9591891D01*
X13887834Y-9591892D01*
X13893491Y-9605549D01*
X13893492Y-9605550D01*
X13901705Y-9617842D01*
X13901705Y-9617842D01*
X13912158Y-9628295D01*
X13912158Y-9628295D01*
X13924450Y-9636508D01*
X13924451Y-9636509D01*
X13935356Y-9641026D01*
X13938109Y-9642166D01*
X13938109Y-9642166D01*
X13938109Y-9642166D01*
X13952608Y-9645050D01*
X13952608Y-9645050D01*
X13967392Y-9645050D01*
X13977146Y-9643110D01*
X13981891Y-9642166D01*
X13995549Y-9636508D01*
X14007842Y-9628295D01*
X14018295Y-9617842D01*
X14026508Y-9605550D01*
X14032166Y-9591891D01*
X14035050Y-9577392D01*
X14035050Y-9562608D01*
X14035050Y-9562608D01*
X14032166Y-9548109D01*
X14032166Y-9548109D01*
X14032166Y-9548109D01*
X14030660Y-9544472D01*
X14026509Y-9534451D01*
X14026508Y-9534450D01*
X14018295Y-9522158D01*
X14018295Y-9522158D01*
X14007842Y-9511705D01*
X14007841Y-9511705D01*
X14006434Y-9510764D01*
X14001953Y-9505403D01*
X14001083Y-9498470D01*
X14004098Y-9492168D01*
X14010043Y-9488496D01*
X14017029Y-9488621D01*
X14018068Y-9488998D01*
X14026275Y-9492397D01*
X14039108Y-9494950D01*
X14044638Y-9496050D01*
X14044638Y-9496050D01*
X14044638Y-9496050D01*
X14063362Y-9496050D01*
X14063362Y-9496050D01*
X14081725Y-9492397D01*
X14099023Y-9485232D01*
X14110611Y-9477490D01*
X14117279Y-9475402D01*
X14124017Y-9477250D01*
X14124389Y-9477490D01*
X14135976Y-9485232D01*
X14135977Y-9485232D01*
X14135977Y-9485232D01*
X14153275Y-9492397D01*
X14166108Y-9494950D01*
X14171638Y-9496050D01*
X14171638Y-9496050D01*
X14171638Y-9496050D01*
X14190362Y-9496050D01*
X14190362Y-9496050D01*
X14208725Y-9492397D01*
X14226023Y-9485232D01*
X14237611Y-9477490D01*
X14244279Y-9475402D01*
X14251017Y-9477250D01*
X14251389Y-9477490D01*
X14262976Y-9485232D01*
X14262977Y-9485232D01*
X14262977Y-9485232D01*
X14280275Y-9492397D01*
X14293108Y-9494950D01*
X14298638Y-9496050D01*
X14298638Y-9496050D01*
X14298638Y-9496050D01*
X14317362Y-9496050D01*
X14317362Y-9496050D01*
X14335725Y-9492397D01*
X14353023Y-9485232D01*
X14364611Y-9477490D01*
X14371279Y-9475402D01*
X14378017Y-9477250D01*
X14378389Y-9477490D01*
X14389976Y-9485232D01*
X14389977Y-9485232D01*
X14389977Y-9485232D01*
X14407275Y-9492397D01*
X14420108Y-9494950D01*
X14425638Y-9496050D01*
X14425638Y-9496050D01*
X14425638Y-9496050D01*
X14444362Y-9496050D01*
X14444362Y-9496050D01*
X14462725Y-9492397D01*
X14480023Y-9485232D01*
X14491611Y-9477490D01*
X14498279Y-9475402D01*
X14505017Y-9477250D01*
X14505389Y-9477490D01*
X14516976Y-9485232D01*
X14516977Y-9485232D01*
X14516977Y-9485232D01*
X14534275Y-9492397D01*
X14547108Y-9494950D01*
X14552638Y-9496050D01*
X14552638Y-9496050D01*
X14552638Y-9496050D01*
X14571362Y-9496050D01*
X14571362Y-9496050D01*
X14589725Y-9492397D01*
X14607023Y-9485232D01*
X14618611Y-9477490D01*
X14625279Y-9475402D01*
X14632017Y-9477250D01*
X14632389Y-9477490D01*
X14643976Y-9485232D01*
X14643977Y-9485232D01*
X14643977Y-9485232D01*
X14661275Y-9492397D01*
X14674108Y-9494950D01*
X14679638Y-9496050D01*
X14679638Y-9496050D01*
X14679638Y-9496050D01*
X14698362Y-9496050D01*
X14698362Y-9496050D01*
X14716725Y-9492397D01*
X14734023Y-9485232D01*
X14745611Y-9477490D01*
X14752279Y-9475402D01*
X14759017Y-9477250D01*
X14759389Y-9477490D01*
X14770976Y-9485232D01*
X14770977Y-9485232D01*
X14770977Y-9485232D01*
X14788275Y-9492397D01*
X14801108Y-9494950D01*
X14806638Y-9496050D01*
X14806638Y-9496050D01*
X14806638Y-9496050D01*
X14825362Y-9496050D01*
X14825362Y-9496050D01*
X14843725Y-9492397D01*
X14861023Y-9485232D01*
X14872611Y-9477490D01*
X14879279Y-9475402D01*
X14886017Y-9477250D01*
X14886389Y-9477490D01*
X14897976Y-9485232D01*
X14897977Y-9485232D01*
X14897977Y-9485232D01*
X14915275Y-9492397D01*
X14928108Y-9494950D01*
X14933638Y-9496050D01*
X14933638Y-9496050D01*
X14933638Y-9496050D01*
X14952362Y-9496050D01*
X14952362Y-9496050D01*
X14970725Y-9492397D01*
X14988023Y-9485232D01*
X14999611Y-9477490D01*
X15006279Y-9475402D01*
X15013017Y-9477250D01*
X15013389Y-9477490D01*
X15024976Y-9485232D01*
X15024977Y-9485232D01*
X15024977Y-9485232D01*
X15042275Y-9492397D01*
X15055108Y-9494950D01*
X15060638Y-9496050D01*
X15060638Y-9496050D01*
X15060638Y-9496050D01*
X15079362Y-9496050D01*
X15079362Y-9496050D01*
X15097725Y-9492397D01*
X15115023Y-9485232D01*
X15126611Y-9477490D01*
X15133279Y-9475402D01*
X15140017Y-9477250D01*
X15140389Y-9477490D01*
X15151976Y-9485232D01*
X15151977Y-9485232D01*
X15151977Y-9485232D01*
X15169275Y-9492397D01*
X15182108Y-9494950D01*
X15187638Y-9496050D01*
X15187638Y-9496050D01*
X15187638Y-9496050D01*
X15206362Y-9496050D01*
X15206362Y-9496050D01*
X15224725Y-9492397D01*
X15242023Y-9485232D01*
X15253611Y-9477490D01*
X15260279Y-9475402D01*
X15267017Y-9477250D01*
X15267389Y-9477490D01*
X15278976Y-9485232D01*
X15278977Y-9485232D01*
X15278977Y-9485232D01*
X15296275Y-9492397D01*
X15309108Y-9494950D01*
X15314638Y-9496050D01*
X15314638Y-9496050D01*
X15314638Y-9496050D01*
X15333362Y-9496050D01*
X15333362Y-9496050D01*
X15351725Y-9492397D01*
X15369023Y-9485232D01*
X15384591Y-9474830D01*
X15397830Y-9461591D01*
X15408232Y-9446023D01*
X15415397Y-9428725D01*
X15419050Y-9410362D01*
X15419050Y-9391638D01*
X15415397Y-9373275D01*
X15412448Y-9366154D01*
X15411701Y-9359207D01*
X15414828Y-9352959D01*
X15415134Y-9352643D01*
X15415569Y-9352207D01*
X15426676Y-9336920D01*
X15435255Y-9320083D01*
X15441094Y-9302112D01*
X15444050Y-9283449D01*
X15444050Y-9264551D01*
X15441094Y-9245888D01*
X15435254Y-9227916D01*
X15430729Y-9219035D01*
X15426676Y-9211080D01*
X15415569Y-9195793D01*
X15402207Y-9182431D01*
X15386920Y-9171324D01*
X15370084Y-9162745D01*
X15352112Y-9156906D01*
X15333449Y-9153950D01*
X15333448Y-9153950D01*
X15314552Y-9153950D01*
X15314551Y-9153950D01*
X15295888Y-9156906D01*
X15277916Y-9162745D01*
X15261080Y-9171324D01*
X15257075Y-9174234D01*
X15245793Y-9182431D01*
X15245792Y-9182431D01*
X15245792Y-9182431D01*
X15232431Y-9195792D01*
X15232431Y-9195793D01*
X15232431Y-9195793D01*
X15229338Y-9200050D01*
X15221324Y-9211080D01*
X15212745Y-9227916D01*
X15208793Y-9240080D01*
X15204849Y-9245848D01*
X15198413Y-9248568D01*
X15191529Y-9247376D01*
X15186381Y-9242652D01*
X15185207Y-9240080D01*
X15181254Y-9227916D01*
X15176729Y-9219035D01*
X15172676Y-9211080D01*
X15161569Y-9195793D01*
X15148207Y-9182431D01*
X15132920Y-9171324D01*
X15116084Y-9162745D01*
X15098112Y-9156906D01*
X15079449Y-9153950D01*
X15079448Y-9153950D01*
X15060552Y-9153950D01*
X15060551Y-9153950D01*
X15041888Y-9156906D01*
X15023916Y-9162745D01*
X15007080Y-9171324D01*
X15003075Y-9174234D01*
X14991793Y-9182431D01*
X14991792Y-9182431D01*
X14991792Y-9182431D01*
X14978431Y-9195792D01*
X14978431Y-9195793D01*
X14978431Y-9195793D01*
X14975338Y-9200050D01*
X14967324Y-9211080D01*
X14958745Y-9227916D01*
X14954793Y-9240080D01*
X14950849Y-9245848D01*
X14944413Y-9248568D01*
X14937529Y-9247376D01*
X14932381Y-9242652D01*
X14931207Y-9240080D01*
X14927254Y-9227916D01*
X14922729Y-9219035D01*
X14918676Y-9211080D01*
X14907569Y-9195793D01*
X14894207Y-9182431D01*
X14878920Y-9171324D01*
X14862084Y-9162745D01*
X14844112Y-9156906D01*
X14825449Y-9153950D01*
X14825448Y-9153950D01*
X14806552Y-9153950D01*
X14806551Y-9153950D01*
X14787888Y-9156906D01*
X14769916Y-9162745D01*
X14753080Y-9171324D01*
X14749075Y-9174234D01*
X14737793Y-9182431D01*
X14737792Y-9182431D01*
X14737792Y-9182431D01*
X14724431Y-9195792D01*
X14724431Y-9195793D01*
X14724431Y-9195793D01*
X14721338Y-9200050D01*
X14713324Y-9211080D01*
X14704745Y-9227916D01*
X14700793Y-9240080D01*
X14696849Y-9245848D01*
X14690413Y-9248568D01*
X14683529Y-9247376D01*
X14678381Y-9242652D01*
X14677207Y-9240080D01*
X14673254Y-9227916D01*
X14668729Y-9219035D01*
X14664676Y-9211080D01*
X14653569Y-9195793D01*
X14640207Y-9182431D01*
X14624920Y-9171324D01*
X14608084Y-9162745D01*
X14590112Y-9156906D01*
X14571449Y-9153950D01*
X14571448Y-9153950D01*
X14552552Y-9153950D01*
X14552551Y-9153950D01*
X14533888Y-9156906D01*
X14515916Y-9162745D01*
X14499080Y-9171324D01*
X14495075Y-9174234D01*
X14483793Y-9182431D01*
X14483792Y-9182431D01*
X14483792Y-9182431D01*
X14470431Y-9195792D01*
X14470431Y-9195793D01*
X14470431Y-9195793D01*
X14467338Y-9200050D01*
X14459324Y-9211080D01*
X14450745Y-9227916D01*
X14446793Y-9240080D01*
X14442849Y-9245848D01*
X14436413Y-9248568D01*
X14429529Y-9247376D01*
X14424381Y-9242652D01*
X14423207Y-9240080D01*
X14419254Y-9227916D01*
X14414729Y-9219035D01*
X14410676Y-9211080D01*
X14399569Y-9195793D01*
X14386207Y-9182431D01*
X14370920Y-9171324D01*
X14354084Y-9162745D01*
X14336112Y-9156906D01*
X14317449Y-9153950D01*
X14317448Y-9153950D01*
X14298552Y-9153950D01*
X14298551Y-9153950D01*
X14279888Y-9156906D01*
X14261916Y-9162745D01*
X14245080Y-9171324D01*
X14241075Y-9174234D01*
X14229793Y-9182431D01*
X14229792Y-9182431D01*
X14229792Y-9182431D01*
X14216431Y-9195792D01*
X14216431Y-9195793D01*
X14216431Y-9195793D01*
X14213338Y-9200050D01*
X14205324Y-9211080D01*
X14196745Y-9227916D01*
X14192793Y-9240080D01*
X14188849Y-9245848D01*
X14182413Y-9248568D01*
X14175529Y-9247376D01*
X14170381Y-9242652D01*
X14169207Y-9240080D01*
X14165254Y-9227916D01*
X14160729Y-9219035D01*
X14156676Y-9211080D01*
X14145569Y-9195793D01*
X14132207Y-9182431D01*
X14116920Y-9171324D01*
X14100084Y-9162745D01*
X14082112Y-9156906D01*
X14063449Y-9153950D01*
X14063448Y-9153950D01*
X14044552Y-9153950D01*
X14044551Y-9153950D01*
X14025888Y-9156906D01*
X14007916Y-9162745D01*
X13991080Y-9171324D01*
X13987075Y-9174234D01*
X13975793Y-9182431D01*
X13975792Y-9182431D01*
X13975792Y-9182431D01*
X13962431Y-9195792D01*
X13962431Y-9195793D01*
X13962431Y-9195793D01*
X13959338Y-9200050D01*
X13951324Y-9211080D01*
X13942745Y-9227916D01*
X13938793Y-9240080D01*
X13934849Y-9245848D01*
X13928413Y-9248568D01*
X13921529Y-9247376D01*
X13916381Y-9242652D01*
X13915207Y-9240080D01*
X13911254Y-9227916D01*
X13906729Y-9219035D01*
X13902676Y-9211080D01*
X13891569Y-9195793D01*
X13878207Y-9182431D01*
X13862920Y-9171324D01*
X13846084Y-9162745D01*
X13828112Y-9156906D01*
X13809449Y-9153950D01*
X13809448Y-9153950D01*
X13790552Y-9153950D01*
X13790551Y-9153950D01*
X13771888Y-9156906D01*
X13753916Y-9162745D01*
X13737080Y-9171324D01*
X13733075Y-9174234D01*
X13721793Y-9182431D01*
X13721792Y-9182431D01*
X13721792Y-9182431D01*
X13708431Y-9195792D01*
X13708431Y-9195793D01*
X13708431Y-9195793D01*
X13705338Y-9200050D01*
X13697324Y-9211080D01*
X13688745Y-9227916D01*
X13682906Y-9245888D01*
X13679950Y-9264551D01*
X13530000Y-9264551D01*
X13530000Y-9045214D01*
X16569950Y-9045214D01*
X16569950Y-9154787D01*
X16569950Y-9154788D01*
X16570591Y-9160748D01*
X16575620Y-9174233D01*
X16575621Y-9174234D01*
X16584245Y-9185754D01*
X16584245Y-9185755D01*
X16595766Y-9194379D01*
X16595767Y-9194380D01*
X16609252Y-9199409D01*
X16609252Y-9199409D01*
X16609944Y-9199484D01*
X16615213Y-9200050D01*
X16724787Y-9200050D01*
X16730748Y-9199409D01*
X16744233Y-9194380D01*
X16749540Y-9190407D01*
X16845950Y-9190407D01*
X16848450Y-9202974D01*
X16848450Y-9202974D01*
X16853353Y-9214812D01*
X16853354Y-9214813D01*
X16860472Y-9225467D01*
X16860473Y-9225467D01*
X16869533Y-9234527D01*
X16869533Y-9234528D01*
X16880187Y-9241646D01*
X16880187Y-9241646D01*
X16880187Y-9241647D01*
X16892026Y-9246550D01*
X16892026Y-9246550D01*
X16892026Y-9246550D01*
X16904593Y-9249050D01*
X16904593Y-9249050D01*
X16917407Y-9249050D01*
X16925862Y-9247368D01*
X16929974Y-9246550D01*
X16941813Y-9241647D01*
X16952467Y-9234528D01*
X16961528Y-9225467D01*
X16968647Y-9214813D01*
X16973550Y-9202974D01*
X16974979Y-9195792D01*
X16976050Y-9190407D01*
X16976050Y-9185407D01*
X17161950Y-9185407D01*
X17164450Y-9197974D01*
X17164450Y-9197974D01*
X17169353Y-9209812D01*
X17169354Y-9209813D01*
X17176472Y-9220467D01*
X17176473Y-9220467D01*
X17185533Y-9229527D01*
X17185533Y-9229528D01*
X17196187Y-9236646D01*
X17196187Y-9236646D01*
X17196187Y-9236647D01*
X17208026Y-9241550D01*
X17208026Y-9241550D01*
X17208026Y-9241550D01*
X17220593Y-9244050D01*
X17220593Y-9244050D01*
X17233407Y-9244050D01*
X17241862Y-9242368D01*
X17245974Y-9241550D01*
X17257813Y-9236647D01*
X17268467Y-9229528D01*
X17277528Y-9220467D01*
X17284647Y-9209813D01*
X17289550Y-9197974D01*
X17291055Y-9190407D01*
X17292050Y-9185407D01*
X17292050Y-9172593D01*
X17289550Y-9160026D01*
X17289550Y-9160026D01*
X17289550Y-9160026D01*
X17284647Y-9148187D01*
X17284646Y-9148187D01*
X17284646Y-9148187D01*
X17277528Y-9137533D01*
X17277527Y-9137533D01*
X17268467Y-9128473D01*
X17268467Y-9128472D01*
X17257813Y-9121354D01*
X17257812Y-9121353D01*
X17245974Y-9116450D01*
X17245974Y-9116450D01*
X17233407Y-9113950D01*
X17233407Y-9113950D01*
X17220593Y-9113950D01*
X17220593Y-9113950D01*
X17208026Y-9116450D01*
X17208026Y-9116450D01*
X17196188Y-9121353D01*
X17196187Y-9121354D01*
X17185533Y-9128472D01*
X17185533Y-9128473D01*
X17176473Y-9137533D01*
X17176472Y-9137533D01*
X17169354Y-9148187D01*
X17169353Y-9148188D01*
X17164450Y-9160026D01*
X17164450Y-9160026D01*
X17161950Y-9172593D01*
X17161950Y-9172593D01*
X17161950Y-9185407D01*
X17161950Y-9185407D01*
X17161950Y-9185407D01*
X16976050Y-9185407D01*
X16976050Y-9177593D01*
X16975416Y-9174403D01*
X16973550Y-9165026D01*
X16973550Y-9165026D01*
X16973550Y-9165026D01*
X16969309Y-9154788D01*
X16968647Y-9153188D01*
X16968646Y-9153187D01*
X16961528Y-9142533D01*
X16961527Y-9142533D01*
X16952467Y-9133473D01*
X16952467Y-9133472D01*
X16941813Y-9126354D01*
X16941812Y-9126353D01*
X16929974Y-9121450D01*
X16929974Y-9121450D01*
X16917407Y-9118950D01*
X16917407Y-9118950D01*
X16904593Y-9118950D01*
X16904593Y-9118950D01*
X16892026Y-9121450D01*
X16892026Y-9121450D01*
X16880188Y-9126353D01*
X16880187Y-9126354D01*
X16869533Y-9133472D01*
X16869533Y-9133473D01*
X16860473Y-9142533D01*
X16860472Y-9142533D01*
X16853354Y-9153187D01*
X16853353Y-9153188D01*
X16848450Y-9165026D01*
X16848450Y-9165026D01*
X16845950Y-9177593D01*
X16845950Y-9177593D01*
X16845950Y-9190407D01*
X16845950Y-9190407D01*
X16845950Y-9190407D01*
X16749540Y-9190407D01*
X16755755Y-9185755D01*
X16764380Y-9174233D01*
X16769409Y-9160748D01*
X16770050Y-9154787D01*
X16770050Y-9045213D01*
X16769409Y-9039252D01*
X16764380Y-9025767D01*
X16764379Y-9025767D01*
X16764379Y-9025766D01*
X16755755Y-9014246D01*
X16755755Y-9014246D01*
X16755755Y-9014245D01*
X16755303Y-9013907D01*
X16834950Y-9013907D01*
X16837450Y-9026474D01*
X16837450Y-9026474D01*
X16842353Y-9038312D01*
X16842354Y-9038313D01*
X16849472Y-9048967D01*
X16849473Y-9048967D01*
X16858533Y-9058027D01*
X16858533Y-9058028D01*
X16869187Y-9065146D01*
X16869187Y-9065146D01*
X16869187Y-9065147D01*
X16881026Y-9070050D01*
X16881026Y-9070050D01*
X16881026Y-9070050D01*
X16893593Y-9072550D01*
X16893593Y-9072550D01*
X16906407Y-9072550D01*
X16914862Y-9070868D01*
X16918974Y-9070050D01*
X16930813Y-9065147D01*
X16941467Y-9058028D01*
X16950528Y-9048967D01*
X16957647Y-9038313D01*
X16962550Y-9026474D01*
X16963368Y-9022362D01*
X16965050Y-9013907D01*
X16965050Y-9001093D01*
X16962550Y-8988526D01*
X16962550Y-8988526D01*
X16962550Y-8988526D01*
X16957647Y-8976687D01*
X16957646Y-8976687D01*
X16957646Y-8976687D01*
X16950528Y-8966033D01*
X16950527Y-8966033D01*
X16941467Y-8956973D01*
X16941467Y-8956972D01*
X16930813Y-8949854D01*
X16930812Y-8949853D01*
X16918974Y-8944950D01*
X16918974Y-8944950D01*
X16906407Y-8942450D01*
X16906407Y-8942450D01*
X16893593Y-8942450D01*
X16893593Y-8942450D01*
X16881026Y-8944950D01*
X16881026Y-8944950D01*
X16869188Y-8949853D01*
X16869187Y-8949854D01*
X16858533Y-8956972D01*
X16858533Y-8956973D01*
X16849473Y-8966033D01*
X16849472Y-8966033D01*
X16842354Y-8976687D01*
X16842353Y-8976688D01*
X16837450Y-8988526D01*
X16837450Y-8988526D01*
X16834950Y-9001093D01*
X16834950Y-9001093D01*
X16834950Y-9013907D01*
X16834950Y-9013907D01*
X16834950Y-9013907D01*
X16755303Y-9013907D01*
X16750632Y-9010410D01*
X16750632Y-9010410D01*
X16744233Y-9005621D01*
X16744233Y-9005620D01*
X16730748Y-9000591D01*
X16730748Y-9000591D01*
X16724788Y-8999950D01*
X16724788Y-8999950D01*
X16724787Y-8999950D01*
X16724786Y-8999950D01*
X16615213Y-8999950D01*
X16615212Y-8999950D01*
X16609252Y-9000591D01*
X16595767Y-9005620D01*
X16595766Y-9005621D01*
X16584245Y-9014245D01*
X16584245Y-9014246D01*
X16575621Y-9025766D01*
X16575620Y-9025767D01*
X16570591Y-9039252D01*
X16569950Y-9045212D01*
X16569950Y-9045212D01*
X16569950Y-9045214D01*
X13530000Y-9045214D01*
X13530000Y-8846407D01*
X13747450Y-8846407D01*
X13749950Y-8858974D01*
X13749950Y-8858974D01*
X13754853Y-8870812D01*
X13754854Y-8870813D01*
X13761972Y-8881467D01*
X13761973Y-8881467D01*
X13771033Y-8890527D01*
X13771033Y-8890528D01*
X13781687Y-8897646D01*
X13781687Y-8897646D01*
X13781687Y-8897647D01*
X13793526Y-8902550D01*
X13793526Y-8902550D01*
X13793526Y-8902550D01*
X13806093Y-8905050D01*
X13806093Y-8905050D01*
X13818907Y-8905050D01*
X13827361Y-8903368D01*
X13831474Y-8902550D01*
X13843313Y-8897647D01*
X13853967Y-8890528D01*
X13863028Y-8881467D01*
X13870146Y-8870813D01*
X13875050Y-8858974D01*
X13877550Y-8846407D01*
X13877550Y-8833593D01*
X13877550Y-8833593D01*
X13875050Y-8821026D01*
X13875050Y-8821026D01*
X13875050Y-8821026D01*
X13870146Y-8809187D01*
X13870146Y-8809187D01*
X13870146Y-8809187D01*
X13863028Y-8798533D01*
X13863027Y-8798533D01*
X13853967Y-8789473D01*
X13853967Y-8789472D01*
X13843313Y-8782354D01*
X13843312Y-8782353D01*
X13831474Y-8777450D01*
X13831474Y-8777450D01*
X13818907Y-8774950D01*
X13818907Y-8774950D01*
X13806093Y-8774950D01*
X13806093Y-8774950D01*
X13793526Y-8777450D01*
X13793525Y-8777450D01*
X13781687Y-8782353D01*
X13781687Y-8782354D01*
X13771033Y-8789472D01*
X13771033Y-8789473D01*
X13761973Y-8798533D01*
X13761972Y-8798533D01*
X13754854Y-8809187D01*
X13754853Y-8809188D01*
X13749950Y-8821026D01*
X13749950Y-8821026D01*
X13747450Y-8833593D01*
X13747450Y-8833593D01*
X13747450Y-8846407D01*
X13747450Y-8846407D01*
X13747450Y-8846407D01*
X13530000Y-8846407D01*
X13530000Y-8481407D01*
X14374950Y-8481407D01*
X14377450Y-8493974D01*
X14377450Y-8493974D01*
X14382353Y-8505812D01*
X14382354Y-8505813D01*
X14389472Y-8516467D01*
X14389473Y-8516467D01*
X14396737Y-8523732D01*
X14400086Y-8529864D01*
X14399587Y-8536833D01*
X14396737Y-8541268D01*
X14389473Y-8548533D01*
X14389472Y-8548533D01*
X14382354Y-8559187D01*
X14382353Y-8559188D01*
X14377450Y-8571026D01*
X14377450Y-8571026D01*
X14374950Y-8583593D01*
X14374950Y-8583593D01*
X14374950Y-8596407D01*
X14374950Y-8596407D01*
X14374950Y-8596407D01*
X14377450Y-8608974D01*
X14377450Y-8608974D01*
X14382353Y-8620812D01*
X14382354Y-8620813D01*
X14389472Y-8631467D01*
X14389473Y-8631467D01*
X14398533Y-8640527D01*
X14398533Y-8640528D01*
X14409187Y-8647646D01*
X14409187Y-8647646D01*
X14409187Y-8647647D01*
X14421026Y-8652550D01*
X14421026Y-8652550D01*
X14421026Y-8652550D01*
X14433593Y-8655050D01*
X14433593Y-8655050D01*
X14446407Y-8655050D01*
X14454861Y-8653368D01*
X14458974Y-8652550D01*
X14470813Y-8647647D01*
X14481467Y-8640528D01*
X14490528Y-8631467D01*
X14497646Y-8620813D01*
X14502550Y-8608974D01*
X14505050Y-8596407D01*
X14505050Y-8583593D01*
X14505050Y-8583593D01*
X14502550Y-8571026D01*
X14502550Y-8571026D01*
X14502550Y-8571026D01*
X14497646Y-8559187D01*
X14497646Y-8559187D01*
X14497646Y-8559187D01*
X14490528Y-8548533D01*
X14490527Y-8548533D01*
X14483263Y-8541268D01*
X14479914Y-8535136D01*
X14480413Y-8528167D01*
X14483263Y-8523732D01*
X14490527Y-8516467D01*
X14490528Y-8516467D01*
X14497646Y-8505813D01*
X14502550Y-8493974D01*
X14505050Y-8481407D01*
X14505050Y-8468593D01*
X14505050Y-8468593D01*
X14502550Y-8456026D01*
X14502550Y-8456026D01*
X14502550Y-8456026D01*
X14497646Y-8444187D01*
X14497646Y-8444187D01*
X14497646Y-8444187D01*
X14490528Y-8433533D01*
X14490527Y-8433533D01*
X14481467Y-8424473D01*
X14481467Y-8424472D01*
X14476879Y-8421407D01*
X14654950Y-8421407D01*
X14657450Y-8433974D01*
X14657450Y-8433974D01*
X14662353Y-8445812D01*
X14662354Y-8445813D01*
X14669472Y-8456467D01*
X14669473Y-8456467D01*
X14678533Y-8465527D01*
X14678533Y-8465528D01*
X14689187Y-8472646D01*
X14689187Y-8472646D01*
X14689187Y-8472647D01*
X14701026Y-8477550D01*
X14701026Y-8477550D01*
X14701026Y-8477550D01*
X14713593Y-8480050D01*
X14713593Y-8480050D01*
X14726407Y-8480050D01*
X14734861Y-8478368D01*
X14738974Y-8477550D01*
X14750813Y-8472647D01*
X14761467Y-8465528D01*
X14770528Y-8456467D01*
X14777646Y-8445813D01*
X14782550Y-8433974D01*
X14784440Y-8424472D01*
X14785050Y-8421407D01*
X14785050Y-8408593D01*
X14782550Y-8396026D01*
X14782550Y-8396026D01*
X14782550Y-8396026D01*
X14778757Y-8386869D01*
X14777647Y-8384187D01*
X14777646Y-8384187D01*
X14770528Y-8373533D01*
X14770527Y-8373533D01*
X14761467Y-8364473D01*
X14761467Y-8364472D01*
X14750813Y-8357354D01*
X14750812Y-8357353D01*
X14738974Y-8352450D01*
X14738974Y-8352450D01*
X14726407Y-8349950D01*
X14726407Y-8349950D01*
X14713593Y-8349950D01*
X14713593Y-8349950D01*
X14701026Y-8352450D01*
X14701025Y-8352450D01*
X14689187Y-8357353D01*
X14689187Y-8357354D01*
X14678533Y-8364472D01*
X14678533Y-8364473D01*
X14669473Y-8373533D01*
X14669472Y-8373533D01*
X14662354Y-8384187D01*
X14662353Y-8384187D01*
X14657450Y-8396026D01*
X14657450Y-8396026D01*
X14654950Y-8408593D01*
X14654950Y-8408593D01*
X14654950Y-8421407D01*
X14654950Y-8421407D01*
X14654950Y-8421407D01*
X14476879Y-8421407D01*
X14472220Y-8418294D01*
X14470813Y-8417354D01*
X14470812Y-8417353D01*
X14458974Y-8412450D01*
X14458974Y-8412450D01*
X14446407Y-8409950D01*
X14446407Y-8409950D01*
X14433593Y-8409950D01*
X14433593Y-8409950D01*
X14421026Y-8412450D01*
X14421025Y-8412450D01*
X14409187Y-8417353D01*
X14409187Y-8417354D01*
X14398533Y-8424472D01*
X14398533Y-8424473D01*
X14389473Y-8433533D01*
X14389472Y-8433533D01*
X14382354Y-8444187D01*
X14382353Y-8444188D01*
X14377450Y-8456026D01*
X14377450Y-8456026D01*
X14374950Y-8468593D01*
X14374950Y-8468593D01*
X14374950Y-8481407D01*
X14374950Y-8481407D01*
X14374950Y-8481407D01*
X13530000Y-8481407D01*
X13530000Y-8326407D01*
X16824950Y-8326407D01*
X16827450Y-8338974D01*
X16827450Y-8338974D01*
X16832353Y-8350812D01*
X16832354Y-8350813D01*
X16839472Y-8361467D01*
X16839473Y-8361467D01*
X16848533Y-8370527D01*
X16848533Y-8370528D01*
X16859187Y-8377646D01*
X16859187Y-8377646D01*
X16859187Y-8377646D01*
X16871026Y-8382550D01*
X16871026Y-8382550D01*
X16871026Y-8382550D01*
X16883593Y-8385050D01*
X16883593Y-8385050D01*
X16896407Y-8385050D01*
X16904862Y-8383368D01*
X16908974Y-8382550D01*
X16920813Y-8377646D01*
X16931467Y-8370528D01*
X16940528Y-8361467D01*
X16947647Y-8350813D01*
X16952550Y-8338974D01*
X16955050Y-8326407D01*
X16955050Y-8313593D01*
X16955050Y-8313593D01*
X16954999Y-8313336D01*
X16955011Y-8313199D01*
X16954990Y-8312987D01*
X16955031Y-8312983D01*
X16955621Y-8306377D01*
X16959907Y-8300859D01*
X16966496Y-8298534D01*
X16969580Y-8298754D01*
X16976093Y-8300050D01*
X16976093Y-8300050D01*
X16988907Y-8300050D01*
X16997362Y-8298368D01*
X17001474Y-8297550D01*
X17013313Y-8292646D01*
X17023967Y-8285528D01*
X17033028Y-8276467D01*
X17039727Y-8266440D01*
X17045088Y-8261960D01*
X17052021Y-8261089D01*
X17056517Y-8262858D01*
X17056533Y-8262828D01*
X17056790Y-8262965D01*
X17056926Y-8263019D01*
X17057070Y-8263115D01*
X17057070Y-8263115D01*
X17057071Y-8263115D01*
X17068909Y-8268019D01*
X17068909Y-8268019D01*
X17068909Y-8268019D01*
X17081476Y-8270519D01*
X17081476Y-8270519D01*
X17094290Y-8270519D01*
X17102745Y-8268837D01*
X17106858Y-8268019D01*
X17118696Y-8263115D01*
X17129350Y-8255996D01*
X17138411Y-8246936D01*
X17145530Y-8236281D01*
X17145530Y-8236281D01*
X17145792Y-8235790D01*
X17150688Y-8230805D01*
X17154310Y-8229473D01*
X17163974Y-8227550D01*
X17175813Y-8222646D01*
X17186467Y-8215528D01*
X17195528Y-8206467D01*
X17202647Y-8195813D01*
X17207550Y-8183974D01*
X17209529Y-8174029D01*
X17210050Y-8171407D01*
X17210050Y-8158593D01*
X17207550Y-8146026D01*
X17207550Y-8146026D01*
X17207550Y-8146026D01*
X17202647Y-8134187D01*
X17202646Y-8134187D01*
X17202646Y-8134187D01*
X17195528Y-8123533D01*
X17195527Y-8123533D01*
X17186467Y-8114473D01*
X17186467Y-8114472D01*
X17175813Y-8107354D01*
X17175812Y-8107353D01*
X17163974Y-8102450D01*
X17163974Y-8102450D01*
X17151407Y-8099950D01*
X17151407Y-8099950D01*
X17138593Y-8099950D01*
X17138593Y-8099950D01*
X17126026Y-8102450D01*
X17126026Y-8102450D01*
X17114188Y-8107353D01*
X17114187Y-8107354D01*
X17103533Y-8114472D01*
X17103533Y-8114473D01*
X17094473Y-8123533D01*
X17094472Y-8123533D01*
X17087354Y-8134187D01*
X17087090Y-8134680D01*
X17082194Y-8139664D01*
X17078574Y-8140996D01*
X17068909Y-8142918D01*
X17068909Y-8142919D01*
X17057071Y-8147822D01*
X17057070Y-8147822D01*
X17046416Y-8154941D01*
X17046416Y-8154941D01*
X17037356Y-8164001D01*
X17030656Y-8174029D01*
X17025295Y-8178509D01*
X17018362Y-8179380D01*
X17013866Y-8177611D01*
X17013850Y-8177641D01*
X17013592Y-8177503D01*
X17013456Y-8177449D01*
X17013313Y-8177354D01*
X17013312Y-8177353D01*
X17001474Y-8172450D01*
X17001474Y-8172450D01*
X16988907Y-8169950D01*
X16988907Y-8169950D01*
X16976093Y-8169950D01*
X16976093Y-8169950D01*
X16963526Y-8172450D01*
X16963526Y-8172450D01*
X16951688Y-8177353D01*
X16951687Y-8177354D01*
X16941033Y-8184472D01*
X16941033Y-8184473D01*
X16931973Y-8193533D01*
X16931972Y-8193533D01*
X16924854Y-8204187D01*
X16924853Y-8204187D01*
X16919950Y-8216025D01*
X16919950Y-8216026D01*
X16917450Y-8228593D01*
X16917450Y-8241407D01*
X16917501Y-8241665D01*
X16917489Y-8241803D01*
X16917510Y-8242013D01*
X16917470Y-8242017D01*
X16916878Y-8248624D01*
X16912592Y-8254142D01*
X16906003Y-8256466D01*
X16902921Y-8256246D01*
X16896407Y-8254950D01*
X16883593Y-8254950D01*
X16883593Y-8254950D01*
X16871026Y-8257450D01*
X16871026Y-8257450D01*
X16859188Y-8262353D01*
X16859187Y-8262354D01*
X16848533Y-8269472D01*
X16848533Y-8269473D01*
X16839473Y-8278533D01*
X16839472Y-8278533D01*
X16832354Y-8289187D01*
X16832353Y-8289187D01*
X16827450Y-8301025D01*
X16827450Y-8301026D01*
X16824950Y-8313593D01*
X16824950Y-8313593D01*
X16824950Y-8313593D01*
X16824950Y-8326407D01*
X16824950Y-8326407D01*
X16824950Y-8326407D01*
X13530000Y-8326407D01*
X13530000Y-8151407D01*
X15949950Y-8151407D01*
X15952450Y-8163974D01*
X15952450Y-8163974D01*
X15957353Y-8175812D01*
X15957354Y-8175813D01*
X15964472Y-8186467D01*
X15964473Y-8186467D01*
X15973533Y-8195527D01*
X15973533Y-8195528D01*
X15984187Y-8202646D01*
X15984187Y-8202646D01*
X15984187Y-8202646D01*
X15996026Y-8207550D01*
X15996026Y-8207550D01*
X15996026Y-8207550D01*
X16008593Y-8210050D01*
X16008593Y-8210050D01*
X16021407Y-8210050D01*
X16029861Y-8208368D01*
X16033974Y-8207550D01*
X16039148Y-8205407D01*
X16455950Y-8205407D01*
X16458450Y-8217974D01*
X16458450Y-8217974D01*
X16463353Y-8229812D01*
X16463354Y-8229813D01*
X16470472Y-8240467D01*
X16470473Y-8240467D01*
X16479533Y-8249527D01*
X16479533Y-8249528D01*
X16490187Y-8256646D01*
X16490187Y-8256646D01*
X16490187Y-8256646D01*
X16502026Y-8261550D01*
X16502026Y-8261550D01*
X16502026Y-8261550D01*
X16514593Y-8264050D01*
X16514593Y-8264050D01*
X16527407Y-8264050D01*
X16535937Y-8262353D01*
X16539974Y-8261550D01*
X16551813Y-8256646D01*
X16562467Y-8249528D01*
X16571528Y-8240467D01*
X16578646Y-8229813D01*
X16583550Y-8217974D01*
X16585839Y-8206467D01*
X16586050Y-8205407D01*
X16586050Y-8192593D01*
X16583550Y-8180026D01*
X16583550Y-8180026D01*
X16583550Y-8180026D01*
X16578646Y-8168187D01*
X16578646Y-8168187D01*
X16578646Y-8168187D01*
X16571528Y-8157533D01*
X16571527Y-8157533D01*
X16562467Y-8148473D01*
X16562467Y-8148472D01*
X16551813Y-8141354D01*
X16551812Y-8141353D01*
X16539974Y-8136450D01*
X16539974Y-8136450D01*
X16527407Y-8133950D01*
X16527407Y-8133950D01*
X16514593Y-8133950D01*
X16514593Y-8133950D01*
X16502026Y-8136450D01*
X16502025Y-8136450D01*
X16490187Y-8141353D01*
X16490187Y-8141354D01*
X16479533Y-8148472D01*
X16479533Y-8148473D01*
X16470473Y-8157533D01*
X16470472Y-8157533D01*
X16463354Y-8168187D01*
X16463353Y-8168187D01*
X16458450Y-8180025D01*
X16458450Y-8180026D01*
X16455950Y-8192593D01*
X16455950Y-8192593D01*
X16455950Y-8205407D01*
X16455950Y-8205407D01*
X16455950Y-8205407D01*
X16039148Y-8205407D01*
X16045813Y-8202646D01*
X16056467Y-8195528D01*
X16065528Y-8186467D01*
X16072646Y-8175813D01*
X16077550Y-8163974D01*
X16078831Y-8157533D01*
X16080050Y-8151407D01*
X16080050Y-8138593D01*
X16077550Y-8126026D01*
X16077550Y-8126026D01*
X16077550Y-8126026D01*
X16072646Y-8114187D01*
X16072646Y-8114187D01*
X16072646Y-8114187D01*
X16065528Y-8103533D01*
X16065527Y-8103533D01*
X16056467Y-8094473D01*
X16056467Y-8094472D01*
X16045813Y-8087354D01*
X16045812Y-8087353D01*
X16033974Y-8082450D01*
X16033974Y-8082450D01*
X16021407Y-8079950D01*
X16021407Y-8079950D01*
X16008593Y-8079950D01*
X16008593Y-8079950D01*
X15996026Y-8082450D01*
X15996025Y-8082450D01*
X15984187Y-8087353D01*
X15984187Y-8087354D01*
X15973533Y-8094472D01*
X15973533Y-8094473D01*
X15964473Y-8103533D01*
X15964472Y-8103533D01*
X15957354Y-8114187D01*
X15957353Y-8114187D01*
X15952450Y-8126025D01*
X15952450Y-8126026D01*
X15949950Y-8138593D01*
X15949950Y-8138593D01*
X15949950Y-8151407D01*
X15949950Y-8151407D01*
X15949950Y-8151407D01*
X13530000Y-8151407D01*
X13530000Y-8011407D01*
X15007450Y-8011407D01*
X15009950Y-8023974D01*
X15009950Y-8023974D01*
X15014853Y-8035812D01*
X15014854Y-8035813D01*
X15021972Y-8046467D01*
X15021973Y-8046467D01*
X15031033Y-8055527D01*
X15031033Y-8055528D01*
X15041687Y-8062646D01*
X15041687Y-8062646D01*
X15041687Y-8062646D01*
X15053526Y-8067550D01*
X15053526Y-8067550D01*
X15053526Y-8067550D01*
X15066093Y-8070050D01*
X15066093Y-8070050D01*
X15078907Y-8070050D01*
X15087361Y-8068368D01*
X15091474Y-8067550D01*
X15103313Y-8062646D01*
X15113967Y-8055528D01*
X15123028Y-8046467D01*
X15130146Y-8035813D01*
X15135050Y-8023974D01*
X15137550Y-8011407D01*
X15137550Y-8001407D01*
X17244950Y-8001407D01*
X17247450Y-8013974D01*
X17247450Y-8013974D01*
X17252353Y-8025812D01*
X17252354Y-8025813D01*
X17259472Y-8036467D01*
X17259473Y-8036467D01*
X17268533Y-8045527D01*
X17268533Y-8045528D01*
X17279187Y-8052646D01*
X17279187Y-8052646D01*
X17279187Y-8052646D01*
X17291026Y-8057550D01*
X17291026Y-8057550D01*
X17291026Y-8057550D01*
X17303593Y-8060050D01*
X17303593Y-8060050D01*
X17316407Y-8060050D01*
X17324862Y-8058368D01*
X17328974Y-8057550D01*
X17340813Y-8052646D01*
X17351467Y-8045528D01*
X17360528Y-8036467D01*
X17367647Y-8025813D01*
X17372550Y-8013974D01*
X17375050Y-8001407D01*
X17375050Y-7988593D01*
X17375050Y-7988593D01*
X17372550Y-7976026D01*
X17372550Y-7976026D01*
X17372550Y-7976026D01*
X17367647Y-7964187D01*
X17367646Y-7964187D01*
X17367646Y-7964187D01*
X17360528Y-7953533D01*
X17360527Y-7953533D01*
X17351467Y-7944473D01*
X17351467Y-7944472D01*
X17340813Y-7937354D01*
X17340812Y-7937353D01*
X17328974Y-7932450D01*
X17328974Y-7932450D01*
X17316407Y-7929950D01*
X17316407Y-7929950D01*
X17303593Y-7929950D01*
X17303593Y-7929950D01*
X17291026Y-7932450D01*
X17291026Y-7932450D01*
X17279188Y-7937353D01*
X17279187Y-7937354D01*
X17268533Y-7944472D01*
X17268533Y-7944473D01*
X17259473Y-7953533D01*
X17259472Y-7953533D01*
X17252354Y-7964187D01*
X17252353Y-7964187D01*
X17247450Y-7976025D01*
X17247450Y-7976026D01*
X17244950Y-7988593D01*
X17244950Y-7988593D01*
X17244950Y-8001407D01*
X17244950Y-8001407D01*
X17244950Y-8001407D01*
X15137550Y-8001407D01*
X15137550Y-7998593D01*
X15137550Y-7998593D01*
X15135921Y-7990403D01*
X15135050Y-7986026D01*
X15135050Y-7986026D01*
X15135050Y-7986026D01*
X15130146Y-7974187D01*
X15130146Y-7974187D01*
X15130146Y-7974187D01*
X15123028Y-7963533D01*
X15123027Y-7963533D01*
X15113967Y-7954473D01*
X15113967Y-7954472D01*
X15103313Y-7947354D01*
X15103312Y-7947353D01*
X15091474Y-7942450D01*
X15091474Y-7942450D01*
X15078907Y-7939950D01*
X15078907Y-7939950D01*
X15066093Y-7939950D01*
X15066093Y-7939950D01*
X15053526Y-7942450D01*
X15053525Y-7942450D01*
X15041687Y-7947353D01*
X15041687Y-7947354D01*
X15031033Y-7954472D01*
X15031033Y-7954473D01*
X15021973Y-7963533D01*
X15021972Y-7963533D01*
X15014854Y-7974187D01*
X15014853Y-7974187D01*
X15009950Y-7986025D01*
X15009950Y-7986026D01*
X15007450Y-7998593D01*
X15007450Y-7998593D01*
X15007450Y-8011407D01*
X15007450Y-8011407D01*
X15007450Y-8011407D01*
X13530000Y-8011407D01*
X13530000Y-7740551D01*
X13679950Y-7740551D01*
X13679950Y-7759449D01*
X13682906Y-7778112D01*
X13688745Y-7796084D01*
X13694560Y-7807495D01*
X13697324Y-7812920D01*
X13708431Y-7828207D01*
X13721793Y-7841569D01*
X13737080Y-7852676D01*
X13742366Y-7855369D01*
X13753916Y-7861254D01*
X13753916Y-7861254D01*
X13753917Y-7861255D01*
X13763550Y-7864385D01*
X13771888Y-7867094D01*
X13790551Y-7870050D01*
X13790552Y-7870050D01*
X13809449Y-7870050D01*
X13828112Y-7867094D01*
X13846083Y-7861255D01*
X13862920Y-7852676D01*
X13878207Y-7841569D01*
X13891569Y-7828207D01*
X13902676Y-7812920D01*
X13911255Y-7796083D01*
X13917094Y-7778112D01*
X13917993Y-7772435D01*
X13920050Y-7759449D01*
X13920050Y-7740551D01*
X14187950Y-7740551D01*
X14187950Y-7759449D01*
X14190906Y-7778112D01*
X14196745Y-7796084D01*
X14202560Y-7807495D01*
X14205324Y-7812920D01*
X14216431Y-7828207D01*
X14229793Y-7841569D01*
X14245080Y-7852676D01*
X14250366Y-7855369D01*
X14261916Y-7861254D01*
X14261916Y-7861254D01*
X14261917Y-7861255D01*
X14271550Y-7864385D01*
X14279888Y-7867094D01*
X14298551Y-7870050D01*
X14298552Y-7870050D01*
X14317449Y-7870050D01*
X14336112Y-7867094D01*
X14354083Y-7861255D01*
X14370920Y-7852676D01*
X14386207Y-7841569D01*
X14399569Y-7828207D01*
X14410676Y-7812920D01*
X14419255Y-7796083D01*
X14423207Y-7783919D01*
X14427151Y-7778152D01*
X14433587Y-7775432D01*
X14440471Y-7776624D01*
X14445619Y-7781348D01*
X14446793Y-7783920D01*
X14450745Y-7796084D01*
X14456560Y-7807495D01*
X14459324Y-7812920D01*
X14470431Y-7828207D01*
X14483793Y-7841569D01*
X14499080Y-7852676D01*
X14504366Y-7855369D01*
X14515916Y-7861254D01*
X14515916Y-7861254D01*
X14515917Y-7861255D01*
X14525550Y-7864385D01*
X14533888Y-7867094D01*
X14552551Y-7870050D01*
X14552552Y-7870050D01*
X14571449Y-7870050D01*
X14590112Y-7867094D01*
X14608083Y-7861255D01*
X14624920Y-7852676D01*
X14640207Y-7841569D01*
X14653569Y-7828207D01*
X14664676Y-7812920D01*
X14673255Y-7796083D01*
X14677207Y-7783919D01*
X14681151Y-7778152D01*
X14687587Y-7775432D01*
X14694471Y-7776624D01*
X14699619Y-7781348D01*
X14700793Y-7783920D01*
X14704745Y-7796084D01*
X14710560Y-7807495D01*
X14713324Y-7812920D01*
X14724431Y-7828207D01*
X14737793Y-7841569D01*
X14753080Y-7852676D01*
X14758366Y-7855369D01*
X14769916Y-7861254D01*
X14769916Y-7861254D01*
X14769917Y-7861255D01*
X14779550Y-7864385D01*
X14787888Y-7867094D01*
X14806551Y-7870050D01*
X14806552Y-7870050D01*
X14825449Y-7870050D01*
X14844112Y-7867094D01*
X14862083Y-7861255D01*
X14878920Y-7852676D01*
X14894207Y-7841569D01*
X14907569Y-7828207D01*
X14918676Y-7812920D01*
X14927255Y-7796083D01*
X14931207Y-7783919D01*
X14935151Y-7778152D01*
X14941587Y-7775432D01*
X14948471Y-7776624D01*
X14953619Y-7781348D01*
X14954793Y-7783920D01*
X14958745Y-7796084D01*
X14964560Y-7807495D01*
X14967324Y-7812920D01*
X14978431Y-7828207D01*
X14991793Y-7841569D01*
X15007080Y-7852676D01*
X15012366Y-7855369D01*
X15023916Y-7861254D01*
X15023916Y-7861254D01*
X15023917Y-7861255D01*
X15033550Y-7864385D01*
X15041888Y-7867094D01*
X15060551Y-7870050D01*
X15060552Y-7870050D01*
X15079449Y-7870050D01*
X15098112Y-7867094D01*
X15116083Y-7861255D01*
X15132920Y-7852676D01*
X15148207Y-7841569D01*
X15161569Y-7828207D01*
X15172676Y-7812920D01*
X15181255Y-7796083D01*
X15185207Y-7783919D01*
X15189151Y-7778152D01*
X15195587Y-7775432D01*
X15202471Y-7776624D01*
X15207619Y-7781348D01*
X15208793Y-7783920D01*
X15212745Y-7796084D01*
X15218560Y-7807495D01*
X15221324Y-7812920D01*
X15232431Y-7828207D01*
X15245793Y-7841569D01*
X15261080Y-7852676D01*
X15266366Y-7855369D01*
X15277916Y-7861254D01*
X15277916Y-7861254D01*
X15277917Y-7861255D01*
X15287550Y-7864385D01*
X15295888Y-7867094D01*
X15314551Y-7870050D01*
X15314552Y-7870050D01*
X15333449Y-7870050D01*
X15352112Y-7867094D01*
X15370083Y-7861255D01*
X15386920Y-7852676D01*
X15402207Y-7841569D01*
X15415569Y-7828207D01*
X15426676Y-7812920D01*
X15435255Y-7796083D01*
X15441094Y-7778112D01*
X15441364Y-7776407D01*
X16019950Y-7776407D01*
X16022450Y-7788974D01*
X16022450Y-7788974D01*
X16027353Y-7800812D01*
X16027354Y-7800813D01*
X16034472Y-7811467D01*
X16034473Y-7811467D01*
X16043533Y-7820527D01*
X16043533Y-7820528D01*
X16054187Y-7827646D01*
X16054187Y-7827647D01*
X16056869Y-7828757D01*
X16066026Y-7832550D01*
X16066026Y-7832550D01*
X16066026Y-7832550D01*
X16078593Y-7835050D01*
X16078593Y-7835050D01*
X16091407Y-7835050D01*
X16102335Y-7832876D01*
X16103974Y-7832550D01*
X16115813Y-7827646D01*
X16126467Y-7820528D01*
X16126685Y-7820309D01*
X17290469Y-7820309D01*
X17292969Y-7832876D01*
X17292969Y-7832877D01*
X17297872Y-7844715D01*
X17297873Y-7844716D01*
X17304991Y-7855369D01*
X17304992Y-7855370D01*
X17314052Y-7864430D01*
X17314052Y-7864430D01*
X17324706Y-7871548D01*
X17324706Y-7871549D01*
X17324706Y-7871549D01*
X17336545Y-7876452D01*
X17336545Y-7876452D01*
X17336545Y-7876453D01*
X17349112Y-7878952D01*
X17349112Y-7878952D01*
X17361926Y-7878952D01*
X17370380Y-7877271D01*
X17374493Y-7876452D01*
X17386332Y-7871549D01*
X17396986Y-7864430D01*
X17406047Y-7855369D01*
X17413165Y-7844715D01*
X17418069Y-7832877D01*
X17420526Y-7820528D01*
X17420569Y-7820309D01*
X17420569Y-7807495D01*
X17418069Y-7794928D01*
X17418069Y-7794928D01*
X17418069Y-7794928D01*
X17413165Y-7783090D01*
X17413165Y-7783090D01*
X17413165Y-7783089D01*
X17406047Y-7772435D01*
X17406046Y-7772435D01*
X17396986Y-7763375D01*
X17396986Y-7763375D01*
X17386332Y-7756256D01*
X17386331Y-7756256D01*
X17374493Y-7751352D01*
X17374493Y-7751352D01*
X17361926Y-7748852D01*
X17361926Y-7748852D01*
X17349112Y-7748852D01*
X17349112Y-7748852D01*
X17336545Y-7751352D01*
X17336544Y-7751352D01*
X17324706Y-7756256D01*
X17324706Y-7756256D01*
X17314052Y-7763375D01*
X17314052Y-7763375D01*
X17304992Y-7772435D01*
X17304991Y-7772435D01*
X17297873Y-7783089D01*
X17297872Y-7783090D01*
X17292969Y-7794928D01*
X17292969Y-7794928D01*
X17290469Y-7807495D01*
X17290469Y-7807495D01*
X17290469Y-7820309D01*
X17290469Y-7820309D01*
X17290469Y-7820309D01*
X16126685Y-7820309D01*
X16135528Y-7811467D01*
X16142646Y-7800813D01*
X16147550Y-7788974D01*
X16149067Y-7781348D01*
X16150050Y-7776407D01*
X16150050Y-7763593D01*
X16147550Y-7751026D01*
X16147550Y-7751026D01*
X16147550Y-7751026D01*
X16142646Y-7739187D01*
X16142646Y-7739187D01*
X16142646Y-7739187D01*
X16135528Y-7728533D01*
X16135527Y-7728533D01*
X16126467Y-7719473D01*
X16126467Y-7719472D01*
X16115813Y-7712354D01*
X16115812Y-7712353D01*
X16103974Y-7707450D01*
X16103974Y-7707450D01*
X16091407Y-7704950D01*
X16091407Y-7704950D01*
X16078593Y-7704950D01*
X16078593Y-7704950D01*
X16066026Y-7707450D01*
X16066025Y-7707450D01*
X16054187Y-7712353D01*
X16054187Y-7712354D01*
X16043533Y-7719472D01*
X16043533Y-7719473D01*
X16034473Y-7728533D01*
X16034472Y-7728533D01*
X16027354Y-7739187D01*
X16027353Y-7739187D01*
X16022450Y-7751025D01*
X16022450Y-7751026D01*
X16019950Y-7763593D01*
X16019950Y-7763593D01*
X16019950Y-7776407D01*
X16019950Y-7776407D01*
X16019950Y-7776407D01*
X15441364Y-7776407D01*
X15441518Y-7775432D01*
X15443797Y-7761044D01*
X15444050Y-7759449D01*
X15444050Y-7740551D01*
X15441094Y-7721888D01*
X15436217Y-7706877D01*
X15435255Y-7703917D01*
X15435254Y-7703916D01*
X15435254Y-7703916D01*
X15429900Y-7693407D01*
X16378950Y-7693407D01*
X16381450Y-7705974D01*
X16381450Y-7705974D01*
X16386353Y-7717812D01*
X16386354Y-7717813D01*
X16393472Y-7728467D01*
X16393473Y-7728467D01*
X16402533Y-7737527D01*
X16402533Y-7737528D01*
X16413187Y-7744646D01*
X16413187Y-7744646D01*
X16413187Y-7744646D01*
X16425026Y-7749550D01*
X16425026Y-7749550D01*
X16425026Y-7749550D01*
X16437593Y-7752050D01*
X16437593Y-7752050D01*
X16450407Y-7752050D01*
X16458861Y-7750368D01*
X16462974Y-7749550D01*
X16474813Y-7744646D01*
X16485467Y-7737528D01*
X16494528Y-7728467D01*
X16501646Y-7717813D01*
X16506550Y-7705974D01*
X16509050Y-7693407D01*
X16509050Y-7680593D01*
X16509050Y-7680593D01*
X16506550Y-7668026D01*
X16506550Y-7668026D01*
X16506550Y-7668026D01*
X16504368Y-7662757D01*
X17042209Y-7662757D01*
X17044709Y-7675324D01*
X17044709Y-7675324D01*
X17049613Y-7687162D01*
X17049613Y-7687163D01*
X17056732Y-7697817D01*
X17056732Y-7697817D01*
X17065792Y-7706877D01*
X17065792Y-7706878D01*
X17076446Y-7713996D01*
X17076447Y-7713996D01*
X17076447Y-7713996D01*
X17088285Y-7718900D01*
X17088285Y-7718900D01*
X17088285Y-7718900D01*
X17100852Y-7721400D01*
X17100852Y-7721400D01*
X17113666Y-7721400D01*
X17123357Y-7719472D01*
X17126234Y-7718900D01*
X17138072Y-7713996D01*
X17148726Y-7706878D01*
X17157787Y-7697817D01*
X17164906Y-7687163D01*
X17169809Y-7675324D01*
X17172001Y-7664306D01*
X17172309Y-7662757D01*
X17172309Y-7649943D01*
X17169810Y-7637376D01*
X17169809Y-7637376D01*
X17169809Y-7637376D01*
X17169005Y-7635433D01*
X17168258Y-7628486D01*
X17171385Y-7622238D01*
X17174308Y-7619988D01*
X17174306Y-7619985D01*
X17174357Y-7619951D01*
X17174617Y-7619751D01*
X17174812Y-7619647D01*
X17174813Y-7619646D01*
X17185467Y-7612528D01*
X17194528Y-7603467D01*
X17201647Y-7592813D01*
X17206550Y-7580974D01*
X17209050Y-7568407D01*
X17209050Y-7555593D01*
X17209050Y-7555593D01*
X17206550Y-7543026D01*
X17206550Y-7543026D01*
X17206550Y-7543026D01*
X17201647Y-7531187D01*
X17201646Y-7531187D01*
X17201646Y-7531187D01*
X17194528Y-7520533D01*
X17194527Y-7520533D01*
X17185467Y-7511473D01*
X17185467Y-7511472D01*
X17174813Y-7504354D01*
X17174812Y-7504353D01*
X17162974Y-7499450D01*
X17162974Y-7499450D01*
X17150407Y-7496950D01*
X17150407Y-7496950D01*
X17137593Y-7496950D01*
X17137593Y-7496950D01*
X17125026Y-7499450D01*
X17125026Y-7499450D01*
X17113188Y-7504353D01*
X17113187Y-7504354D01*
X17102533Y-7511472D01*
X17102533Y-7511473D01*
X17093473Y-7520533D01*
X17093472Y-7520533D01*
X17086354Y-7531187D01*
X17086353Y-7531187D01*
X17081450Y-7543025D01*
X17081450Y-7543026D01*
X17078950Y-7555593D01*
X17078950Y-7555593D01*
X17078950Y-7568407D01*
X17078950Y-7568407D01*
X17078950Y-7568407D01*
X17081450Y-7580974D01*
X17081450Y-7580975D01*
X17082255Y-7582917D01*
X17083001Y-7589864D01*
X17079874Y-7596112D01*
X17076951Y-7598362D01*
X17076953Y-7598365D01*
X17076904Y-7598398D01*
X17076644Y-7598598D01*
X17076447Y-7598703D01*
X17065792Y-7605822D01*
X17056732Y-7614883D01*
X17056732Y-7614883D01*
X17049613Y-7625537D01*
X17049613Y-7625537D01*
X17044709Y-7637375D01*
X17044709Y-7637376D01*
X17042209Y-7649943D01*
X17042209Y-7649943D01*
X17042209Y-7662757D01*
X17042209Y-7662757D01*
X17042209Y-7662757D01*
X16504368Y-7662757D01*
X16501646Y-7656187D01*
X16501646Y-7656187D01*
X16494528Y-7645533D01*
X16494527Y-7645533D01*
X16485467Y-7636473D01*
X16485467Y-7636472D01*
X16474813Y-7629354D01*
X16474812Y-7629353D01*
X16462974Y-7624450D01*
X16462974Y-7624450D01*
X16450407Y-7621950D01*
X16450407Y-7621950D01*
X16437593Y-7621950D01*
X16437593Y-7621950D01*
X16425026Y-7624450D01*
X16425025Y-7624450D01*
X16413187Y-7629353D01*
X16413187Y-7629354D01*
X16402533Y-7636472D01*
X16402533Y-7636473D01*
X16393473Y-7645533D01*
X16393472Y-7645533D01*
X16386354Y-7656187D01*
X16386353Y-7656187D01*
X16381450Y-7668025D01*
X16381450Y-7668026D01*
X16378950Y-7680593D01*
X16378950Y-7680593D01*
X16378950Y-7693407D01*
X16378950Y-7693407D01*
X16378950Y-7693407D01*
X15429900Y-7693407D01*
X15426685Y-7687099D01*
X15426685Y-7687099D01*
X15426676Y-7687080D01*
X15415569Y-7671793D01*
X15414496Y-7670719D01*
X15413956Y-7669994D01*
X15413045Y-7667531D01*
X15411787Y-7665227D01*
X15411853Y-7664306D01*
X15411533Y-7663441D01*
X15412098Y-7660877D01*
X15412285Y-7658258D01*
X15412445Y-7657852D01*
X15415397Y-7650725D01*
X15419050Y-7632362D01*
X15419050Y-7613638D01*
X15415397Y-7595275D01*
X15408232Y-7577977D01*
X15408232Y-7577977D01*
X15408232Y-7577976D01*
X15399666Y-7565157D01*
X16498700Y-7565157D01*
X16501200Y-7577724D01*
X16501200Y-7577724D01*
X16506103Y-7589562D01*
X16506104Y-7589563D01*
X16513222Y-7600217D01*
X16513223Y-7600217D01*
X16522283Y-7609277D01*
X16522283Y-7609278D01*
X16532937Y-7616396D01*
X16532937Y-7616396D01*
X16532937Y-7616396D01*
X16544776Y-7621300D01*
X16544776Y-7621300D01*
X16544776Y-7621300D01*
X16557343Y-7623800D01*
X16557343Y-7623800D01*
X16570157Y-7623800D01*
X16579457Y-7621950D01*
X16582724Y-7621300D01*
X16594563Y-7616396D01*
X16605217Y-7609278D01*
X16614278Y-7600217D01*
X16621396Y-7589563D01*
X16626300Y-7577724D01*
X16628153Y-7568407D01*
X16628800Y-7565157D01*
X16628800Y-7552343D01*
X16626300Y-7539776D01*
X16626300Y-7539776D01*
X16626300Y-7539776D01*
X16621396Y-7527937D01*
X16621396Y-7527937D01*
X16621396Y-7527937D01*
X16614278Y-7517283D01*
X16614277Y-7517283D01*
X16608402Y-7511407D01*
X16909950Y-7511407D01*
X16912450Y-7523974D01*
X16912450Y-7523974D01*
X16917353Y-7535812D01*
X16917354Y-7535813D01*
X16924472Y-7546467D01*
X16924473Y-7546467D01*
X16933533Y-7555527D01*
X16933533Y-7555528D01*
X16944187Y-7562646D01*
X16944187Y-7562646D01*
X16944187Y-7562646D01*
X16956026Y-7567550D01*
X16956026Y-7567550D01*
X16956026Y-7567550D01*
X16968593Y-7570050D01*
X16968593Y-7570050D01*
X16981407Y-7570050D01*
X16989862Y-7568368D01*
X16993974Y-7567550D01*
X17005813Y-7562646D01*
X17016467Y-7555528D01*
X17025528Y-7546467D01*
X17032647Y-7535813D01*
X17037550Y-7523974D01*
X17038881Y-7517283D01*
X17040050Y-7511407D01*
X17040050Y-7498593D01*
X17037550Y-7486026D01*
X17032647Y-7474187D01*
X17032646Y-7474187D01*
X17032646Y-7474187D01*
X17025528Y-7463533D01*
X17025527Y-7463533D01*
X17016467Y-7454473D01*
X17016467Y-7454472D01*
X17005813Y-7447354D01*
X17005812Y-7447353D01*
X16993974Y-7442450D01*
X16993974Y-7442450D01*
X16981407Y-7439950D01*
X16981407Y-7439950D01*
X16968593Y-7439950D01*
X16968593Y-7439950D01*
X16956026Y-7442450D01*
X16956026Y-7442450D01*
X16944188Y-7447353D01*
X16944187Y-7447354D01*
X16933533Y-7454472D01*
X16933533Y-7454473D01*
X16924473Y-7463533D01*
X16924472Y-7463533D01*
X16917354Y-7474187D01*
X16917353Y-7474187D01*
X16912450Y-7486025D01*
X16912450Y-7486026D01*
X16909950Y-7498593D01*
X16909950Y-7498593D01*
X16909950Y-7511407D01*
X16909950Y-7511407D01*
X16909950Y-7511407D01*
X16608402Y-7511407D01*
X16605217Y-7508223D01*
X16605217Y-7508222D01*
X16594563Y-7501104D01*
X16594562Y-7501103D01*
X16582724Y-7496200D01*
X16582724Y-7496200D01*
X16570157Y-7493700D01*
X16570157Y-7493700D01*
X16557343Y-7493700D01*
X16557343Y-7493700D01*
X16544776Y-7496200D01*
X16544775Y-7496200D01*
X16532937Y-7501103D01*
X16532937Y-7501104D01*
X16522283Y-7508222D01*
X16522283Y-7508223D01*
X16513223Y-7517283D01*
X16513222Y-7517283D01*
X16506104Y-7527937D01*
X16506103Y-7527937D01*
X16501200Y-7539775D01*
X16501200Y-7539776D01*
X16498700Y-7552343D01*
X16498700Y-7552343D01*
X16498700Y-7565157D01*
X16498700Y-7565157D01*
X16498700Y-7565157D01*
X15399666Y-7565157D01*
X15397830Y-7562409D01*
X15397830Y-7562409D01*
X15384591Y-7549170D01*
X15384591Y-7549170D01*
X15369024Y-7538768D01*
X15369023Y-7538768D01*
X15351725Y-7531603D01*
X15351724Y-7531602D01*
X15333362Y-7527950D01*
X15333362Y-7527950D01*
X15314638Y-7527950D01*
X15314638Y-7527950D01*
X15296276Y-7531602D01*
X15296275Y-7531603D01*
X15278977Y-7538768D01*
X15278976Y-7538768D01*
X15267389Y-7546510D01*
X15260721Y-7548598D01*
X15253983Y-7546750D01*
X15253611Y-7546510D01*
X15242024Y-7538768D01*
X15242023Y-7538768D01*
X15224725Y-7531603D01*
X15224724Y-7531602D01*
X15206362Y-7527950D01*
X15206362Y-7527950D01*
X15187638Y-7527950D01*
X15187638Y-7527950D01*
X15169276Y-7531602D01*
X15169275Y-7531603D01*
X15151977Y-7538768D01*
X15151976Y-7538768D01*
X15140389Y-7546510D01*
X15133721Y-7548598D01*
X15126983Y-7546750D01*
X15126611Y-7546510D01*
X15115024Y-7538768D01*
X15115023Y-7538768D01*
X15097725Y-7531603D01*
X15097724Y-7531602D01*
X15079362Y-7527950D01*
X15079362Y-7527950D01*
X15060638Y-7527950D01*
X15060638Y-7527950D01*
X15042276Y-7531602D01*
X15042275Y-7531603D01*
X15024977Y-7538768D01*
X15024976Y-7538768D01*
X15013389Y-7546510D01*
X15006721Y-7548598D01*
X14999983Y-7546750D01*
X14999611Y-7546510D01*
X14988024Y-7538768D01*
X14988023Y-7538768D01*
X14970725Y-7531603D01*
X14970724Y-7531602D01*
X14952362Y-7527950D01*
X14952362Y-7527950D01*
X14933638Y-7527950D01*
X14933638Y-7527950D01*
X14915276Y-7531602D01*
X14915275Y-7531603D01*
X14897977Y-7538768D01*
X14897976Y-7538768D01*
X14886389Y-7546510D01*
X14879721Y-7548598D01*
X14872983Y-7546750D01*
X14872611Y-7546510D01*
X14861024Y-7538768D01*
X14861023Y-7538768D01*
X14843725Y-7531603D01*
X14843724Y-7531602D01*
X14825362Y-7527950D01*
X14825362Y-7527950D01*
X14806638Y-7527950D01*
X14806638Y-7527950D01*
X14788276Y-7531602D01*
X14788275Y-7531603D01*
X14770977Y-7538768D01*
X14770976Y-7538768D01*
X14759389Y-7546510D01*
X14752721Y-7548598D01*
X14745983Y-7546750D01*
X14745611Y-7546510D01*
X14734024Y-7538768D01*
X14734023Y-7538768D01*
X14716725Y-7531603D01*
X14716724Y-7531602D01*
X14698362Y-7527950D01*
X14698362Y-7527950D01*
X14679638Y-7527950D01*
X14679638Y-7527950D01*
X14661276Y-7531602D01*
X14661275Y-7531603D01*
X14643977Y-7538768D01*
X14643976Y-7538768D01*
X14632389Y-7546510D01*
X14625721Y-7548598D01*
X14618983Y-7546750D01*
X14618611Y-7546510D01*
X14607024Y-7538768D01*
X14607023Y-7538768D01*
X14589725Y-7531603D01*
X14589724Y-7531602D01*
X14571362Y-7527950D01*
X14571362Y-7527950D01*
X14552638Y-7527950D01*
X14552638Y-7527950D01*
X14534276Y-7531602D01*
X14534275Y-7531603D01*
X14516977Y-7538768D01*
X14516976Y-7538768D01*
X14501409Y-7549170D01*
X14501409Y-7549170D01*
X14488170Y-7562409D01*
X14488170Y-7562409D01*
X14477768Y-7577976D01*
X14477768Y-7577977D01*
X14470603Y-7595275D01*
X14470602Y-7595276D01*
X14466950Y-7613638D01*
X14466950Y-7632362D01*
X14470602Y-7650724D01*
X14470603Y-7650725D01*
X14473552Y-7657846D01*
X14474299Y-7664793D01*
X14471171Y-7671041D01*
X14470865Y-7671359D01*
X14470431Y-7671792D01*
X14459324Y-7687080D01*
X14450745Y-7703916D01*
X14446793Y-7716080D01*
X14442849Y-7721848D01*
X14436413Y-7724568D01*
X14429529Y-7723376D01*
X14424381Y-7718652D01*
X14423207Y-7716080D01*
X14420217Y-7706877D01*
X14419255Y-7703917D01*
X14419254Y-7703916D01*
X14419254Y-7703916D01*
X14414729Y-7695035D01*
X14410676Y-7687080D01*
X14399569Y-7671793D01*
X14399136Y-7671359D01*
X14395787Y-7665227D01*
X14396285Y-7658258D01*
X14396445Y-7657852D01*
X14399397Y-7650725D01*
X14403050Y-7632362D01*
X14403050Y-7613638D01*
X14399397Y-7595275D01*
X14392232Y-7577977D01*
X14392232Y-7577977D01*
X14392232Y-7577976D01*
X14381830Y-7562409D01*
X14381830Y-7562409D01*
X14368591Y-7549170D01*
X14368591Y-7549170D01*
X14353024Y-7538768D01*
X14353023Y-7538768D01*
X14335725Y-7531603D01*
X14335724Y-7531602D01*
X14317362Y-7527950D01*
X14317362Y-7527950D01*
X14298638Y-7527950D01*
X14298638Y-7527950D01*
X14280276Y-7531602D01*
X14280275Y-7531603D01*
X14262977Y-7538768D01*
X14262976Y-7538768D01*
X14247409Y-7549170D01*
X14247409Y-7549170D01*
X14234170Y-7562409D01*
X14234170Y-7562409D01*
X14223768Y-7577976D01*
X14223768Y-7577977D01*
X14216603Y-7595275D01*
X14216602Y-7595276D01*
X14212950Y-7613638D01*
X14212950Y-7632362D01*
X14216602Y-7650724D01*
X14216603Y-7650725D01*
X14219552Y-7657846D01*
X14220299Y-7664793D01*
X14217171Y-7671041D01*
X14216865Y-7671359D01*
X14216431Y-7671792D01*
X14205324Y-7687080D01*
X14196745Y-7703916D01*
X14190906Y-7721888D01*
X14187950Y-7740551D01*
X13920050Y-7740551D01*
X13917094Y-7721888D01*
X13912217Y-7706877D01*
X13911255Y-7703917D01*
X13911254Y-7703916D01*
X13911254Y-7703916D01*
X13906729Y-7695035D01*
X13902676Y-7687080D01*
X13891569Y-7671793D01*
X13891136Y-7671359D01*
X13887787Y-7665227D01*
X13888285Y-7658258D01*
X13888445Y-7657852D01*
X13891397Y-7650725D01*
X13895050Y-7632362D01*
X13895050Y-7613638D01*
X13891397Y-7595275D01*
X13884232Y-7577977D01*
X13884232Y-7577977D01*
X13884232Y-7577976D01*
X13873830Y-7562409D01*
X13873830Y-7562409D01*
X13860591Y-7549170D01*
X13860591Y-7549170D01*
X13845024Y-7538768D01*
X13845023Y-7538768D01*
X13827725Y-7531603D01*
X13827724Y-7531602D01*
X13809362Y-7527950D01*
X13809362Y-7527950D01*
X13790638Y-7527950D01*
X13790638Y-7527950D01*
X13772276Y-7531602D01*
X13772275Y-7531603D01*
X13754977Y-7538768D01*
X13754976Y-7538768D01*
X13739409Y-7549170D01*
X13739409Y-7549170D01*
X13726170Y-7562409D01*
X13726170Y-7562409D01*
X13715768Y-7577976D01*
X13715768Y-7577977D01*
X13708603Y-7595275D01*
X13708602Y-7595276D01*
X13704950Y-7613638D01*
X13704950Y-7632362D01*
X13708602Y-7650724D01*
X13708603Y-7650725D01*
X13711552Y-7657846D01*
X13712299Y-7664793D01*
X13709171Y-7671041D01*
X13708865Y-7671359D01*
X13708431Y-7671792D01*
X13697324Y-7687080D01*
X13688745Y-7703916D01*
X13682906Y-7721888D01*
X13679950Y-7740551D01*
X13530000Y-7740551D01*
X13530000Y-7406407D01*
X16774950Y-7406407D01*
X16777450Y-7418974D01*
X16777450Y-7418974D01*
X16782353Y-7430812D01*
X16782354Y-7430813D01*
X16789472Y-7441467D01*
X16789473Y-7441467D01*
X16798533Y-7450527D01*
X16798533Y-7450528D01*
X16809187Y-7457646D01*
X16809187Y-7457646D01*
X16809187Y-7457646D01*
X16821026Y-7462550D01*
X16821026Y-7462550D01*
X16821026Y-7462550D01*
X16833593Y-7465050D01*
X16833593Y-7465050D01*
X16846407Y-7465050D01*
X16854862Y-7463368D01*
X16858974Y-7462550D01*
X16870813Y-7457646D01*
X16881467Y-7450528D01*
X16890528Y-7441467D01*
X16897647Y-7430813D01*
X16902550Y-7418974D01*
X16905050Y-7406407D01*
X16905050Y-7393593D01*
X16905050Y-7393593D01*
X16902550Y-7381026D01*
X16902550Y-7381026D01*
X16902550Y-7381026D01*
X16897647Y-7369187D01*
X16897646Y-7369187D01*
X16897646Y-7369187D01*
X16890528Y-7358533D01*
X16890527Y-7358533D01*
X16881467Y-7349473D01*
X16881467Y-7349472D01*
X16870813Y-7342354D01*
X16870812Y-7342353D01*
X16858974Y-7337450D01*
X16858974Y-7337450D01*
X16846407Y-7334950D01*
X16846407Y-7334950D01*
X16833593Y-7334950D01*
X16833593Y-7334950D01*
X16821026Y-7337450D01*
X16821026Y-7337450D01*
X16809188Y-7342353D01*
X16809187Y-7342354D01*
X16798533Y-7349472D01*
X16798533Y-7349473D01*
X16789473Y-7358533D01*
X16789472Y-7358533D01*
X16782354Y-7369187D01*
X16782353Y-7369187D01*
X16777450Y-7381025D01*
X16777450Y-7381026D01*
X16774950Y-7393593D01*
X16774950Y-7393593D01*
X16774950Y-7406407D01*
X16774950Y-7406407D01*
X16774950Y-7406407D01*
X13530000Y-7406407D01*
X13530000Y-7306407D01*
X15544950Y-7306407D01*
X15547450Y-7318974D01*
X15547450Y-7318974D01*
X15552353Y-7330812D01*
X15552354Y-7330813D01*
X15559472Y-7341467D01*
X15559473Y-7341467D01*
X15568533Y-7350527D01*
X15568533Y-7350528D01*
X15579187Y-7357646D01*
X15579187Y-7357646D01*
X15579187Y-7357646D01*
X15591026Y-7362550D01*
X15591026Y-7362550D01*
X15591026Y-7362550D01*
X15603593Y-7365050D01*
X15603593Y-7365050D01*
X15616407Y-7365050D01*
X15624861Y-7363368D01*
X15628974Y-7362550D01*
X15640813Y-7357646D01*
X15651467Y-7350528D01*
X15660528Y-7341467D01*
X15663908Y-7336407D01*
X16564950Y-7336407D01*
X16567450Y-7348974D01*
X16567450Y-7348974D01*
X16572353Y-7360812D01*
X16572354Y-7360813D01*
X16579472Y-7371467D01*
X16579473Y-7371467D01*
X16588533Y-7380527D01*
X16588533Y-7380528D01*
X16599187Y-7387646D01*
X16599187Y-7387646D01*
X16599187Y-7387646D01*
X16611026Y-7392550D01*
X16611026Y-7392550D01*
X16611026Y-7392550D01*
X16623593Y-7395050D01*
X16623593Y-7395050D01*
X16636407Y-7395050D01*
X16644861Y-7393368D01*
X16648974Y-7392550D01*
X16660813Y-7387646D01*
X16660813Y-7387646D01*
X16668255Y-7382674D01*
X16670721Y-7381026D01*
X16671467Y-7380528D01*
X16680528Y-7371467D01*
X16687646Y-7360813D01*
X16692550Y-7348974D01*
X16694043Y-7341467D01*
X16695050Y-7336407D01*
X16695050Y-7323593D01*
X16692550Y-7311026D01*
X16692550Y-7311026D01*
X16692550Y-7311026D01*
X16687646Y-7299187D01*
X16687646Y-7299187D01*
X16687646Y-7299187D01*
X16680528Y-7288533D01*
X16680527Y-7288533D01*
X16671467Y-7279473D01*
X16671467Y-7279472D01*
X16660813Y-7272354D01*
X16660812Y-7272353D01*
X16648974Y-7267450D01*
X16648974Y-7267450D01*
X16636407Y-7264950D01*
X16636407Y-7264950D01*
X16623593Y-7264950D01*
X16623593Y-7264950D01*
X16611026Y-7267450D01*
X16611025Y-7267450D01*
X16599187Y-7272353D01*
X16599187Y-7272354D01*
X16588533Y-7279472D01*
X16588533Y-7279473D01*
X16579473Y-7288533D01*
X16579472Y-7288533D01*
X16572354Y-7299187D01*
X16572353Y-7299187D01*
X16567450Y-7311025D01*
X16567450Y-7311026D01*
X16564950Y-7323593D01*
X16564950Y-7323593D01*
X16564950Y-7336407D01*
X16564950Y-7336407D01*
X16564950Y-7336407D01*
X15663908Y-7336407D01*
X15667646Y-7330813D01*
X15672550Y-7318974D01*
X15675050Y-7306407D01*
X15675050Y-7293593D01*
X15675050Y-7293593D01*
X15672550Y-7281026D01*
X15672550Y-7281026D01*
X15672550Y-7281026D01*
X15667646Y-7269187D01*
X15667646Y-7269187D01*
X15667646Y-7269187D01*
X15660528Y-7258533D01*
X15660527Y-7258533D01*
X15651467Y-7249473D01*
X15651467Y-7249472D01*
X15640813Y-7242354D01*
X15640812Y-7242353D01*
X15628974Y-7237450D01*
X15628974Y-7237450D01*
X15616407Y-7234950D01*
X15616407Y-7234950D01*
X15603593Y-7234950D01*
X15603593Y-7234950D01*
X15591026Y-7237450D01*
X15591025Y-7237450D01*
X15579187Y-7242353D01*
X15579187Y-7242354D01*
X15568533Y-7249472D01*
X15568533Y-7249473D01*
X15559473Y-7258533D01*
X15559472Y-7258533D01*
X15552354Y-7269187D01*
X15552353Y-7269187D01*
X15547450Y-7281025D01*
X15547450Y-7281026D01*
X15544950Y-7293593D01*
X15544950Y-7293593D01*
X15544950Y-7306407D01*
X15544950Y-7306407D01*
X15544950Y-7306407D01*
X13530000Y-7306407D01*
X13530000Y-7196407D01*
X13724950Y-7196407D01*
X13727450Y-7208974D01*
X13727450Y-7208974D01*
X13732353Y-7220812D01*
X13732354Y-7220813D01*
X13739472Y-7231467D01*
X13739473Y-7231467D01*
X13748533Y-7240527D01*
X13748533Y-7240528D01*
X13759187Y-7247646D01*
X13759187Y-7247646D01*
X13759187Y-7247646D01*
X13771026Y-7252550D01*
X13771026Y-7252550D01*
X13771026Y-7252550D01*
X13783593Y-7255050D01*
X13783593Y-7255050D01*
X13796407Y-7255050D01*
X13804861Y-7253368D01*
X13808974Y-7252550D01*
X13820813Y-7247646D01*
X13831467Y-7240528D01*
X13840528Y-7231467D01*
X13847646Y-7220813D01*
X13852550Y-7208974D01*
X13855050Y-7196407D01*
X13855050Y-7183593D01*
X13855050Y-7183593D01*
X13852550Y-7171026D01*
X13852550Y-7171026D01*
X13852550Y-7171026D01*
X13849601Y-7163907D01*
X15434950Y-7163907D01*
X15437450Y-7176474D01*
X15437450Y-7176474D01*
X15442353Y-7188312D01*
X15442354Y-7188313D01*
X15449472Y-7198967D01*
X15449473Y-7198967D01*
X15458533Y-7208027D01*
X15458533Y-7208028D01*
X15469187Y-7215146D01*
X15469187Y-7215146D01*
X15469187Y-7215146D01*
X15481026Y-7220050D01*
X15481026Y-7220050D01*
X15481026Y-7220050D01*
X15493593Y-7222550D01*
X15493593Y-7222550D01*
X15506407Y-7222550D01*
X15515138Y-7220813D01*
X15518974Y-7220050D01*
X15530813Y-7215146D01*
X15541467Y-7208028D01*
X15550528Y-7198967D01*
X15557646Y-7188313D01*
X15562550Y-7176474D01*
X15565050Y-7163907D01*
X15565050Y-7151093D01*
X15565050Y-7151093D01*
X15562550Y-7138526D01*
X15562550Y-7138526D01*
X15562550Y-7138526D01*
X15557646Y-7126687D01*
X15557646Y-7126687D01*
X15557646Y-7126687D01*
X15550528Y-7116033D01*
X15550527Y-7116033D01*
X15541467Y-7106973D01*
X15541467Y-7106972D01*
X15530813Y-7099854D01*
X15530812Y-7099853D01*
X15518974Y-7094950D01*
X15518974Y-7094950D01*
X15506407Y-7092450D01*
X15506407Y-7092450D01*
X15493593Y-7092450D01*
X15493593Y-7092450D01*
X15481026Y-7094950D01*
X15481025Y-7094950D01*
X15469187Y-7099853D01*
X15469187Y-7099854D01*
X15458533Y-7106972D01*
X15458533Y-7106973D01*
X15449473Y-7116033D01*
X15449472Y-7116033D01*
X15442354Y-7126687D01*
X15442353Y-7126687D01*
X15437450Y-7138525D01*
X15437450Y-7138526D01*
X15434950Y-7151093D01*
X15434950Y-7151093D01*
X15434950Y-7163907D01*
X15434950Y-7163907D01*
X15434950Y-7163907D01*
X13849601Y-7163907D01*
X13847646Y-7159187D01*
X13847646Y-7159187D01*
X13847646Y-7159186D01*
X13846434Y-7157373D01*
X13846434Y-7157373D01*
X13840528Y-7148533D01*
X13840527Y-7148533D01*
X13831467Y-7139473D01*
X13831467Y-7139472D01*
X13820813Y-7132354D01*
X13820812Y-7132353D01*
X13808974Y-7127450D01*
X13808974Y-7127450D01*
X13796407Y-7124950D01*
X13796407Y-7124950D01*
X13783593Y-7124950D01*
X13783593Y-7124950D01*
X13771026Y-7127450D01*
X13771025Y-7127450D01*
X13759187Y-7132353D01*
X13759187Y-7132354D01*
X13748533Y-7139472D01*
X13748533Y-7139473D01*
X13739473Y-7148533D01*
X13739472Y-7148533D01*
X13732354Y-7159187D01*
X13732353Y-7159187D01*
X13727450Y-7171025D01*
X13727450Y-7171026D01*
X13724950Y-7183593D01*
X13724950Y-7183593D01*
X13724950Y-7196407D01*
X13724950Y-7196407D01*
X13724950Y-7196407D01*
X13530000Y-7196407D01*
X13530000Y-7049407D01*
X14584950Y-7049407D01*
X14587450Y-7061974D01*
X14587450Y-7061974D01*
X14592353Y-7073812D01*
X14592354Y-7073813D01*
X14599472Y-7084467D01*
X14599473Y-7084467D01*
X14608533Y-7093527D01*
X14608533Y-7093528D01*
X14619187Y-7100646D01*
X14619187Y-7100646D01*
X14619187Y-7100646D01*
X14631026Y-7105550D01*
X14631026Y-7105550D01*
X14631026Y-7105550D01*
X14643593Y-7108050D01*
X14643593Y-7108050D01*
X14656407Y-7108050D01*
X14664861Y-7106368D01*
X14668974Y-7105550D01*
X14680813Y-7100646D01*
X14691467Y-7093528D01*
X14700528Y-7084467D01*
X14707646Y-7073813D01*
X14712550Y-7061974D01*
X14715050Y-7049407D01*
X14715050Y-7036593D01*
X14715050Y-7036593D01*
X14712550Y-7024026D01*
X14712550Y-7024026D01*
X14712550Y-7024026D01*
X14707646Y-7012187D01*
X14707646Y-7012187D01*
X14707646Y-7012187D01*
X14700528Y-7001533D01*
X14700527Y-7001533D01*
X14691467Y-6992473D01*
X14691467Y-6992472D01*
X14680813Y-6985354D01*
X14680812Y-6985353D01*
X14668974Y-6980450D01*
X14668974Y-6980450D01*
X14656407Y-6977950D01*
X14656407Y-6977950D01*
X14643593Y-6977950D01*
X14643593Y-6977950D01*
X14631026Y-6980450D01*
X14631025Y-6980450D01*
X14619187Y-6985353D01*
X14619187Y-6985354D01*
X14608533Y-6992472D01*
X14608533Y-6992473D01*
X14599473Y-7001533D01*
X14599472Y-7001533D01*
X14592354Y-7012187D01*
X14592353Y-7012187D01*
X14587450Y-7024025D01*
X14587450Y-7024026D01*
X14584950Y-7036593D01*
X14584950Y-7036593D01*
X14584950Y-7049407D01*
X14584950Y-7049407D01*
X14584950Y-7049407D01*
X13530000Y-7049407D01*
X13530000Y-6955213D01*
X16049950Y-6955213D01*
X16049950Y-7064787D01*
X16049950Y-7064788D01*
X16050591Y-7070748D01*
X16055620Y-7084233D01*
X16055621Y-7084233D01*
X16064245Y-7095754D01*
X16064245Y-7095755D01*
X16075766Y-7104379D01*
X16075767Y-7104380D01*
X16089252Y-7109409D01*
X16089252Y-7109409D01*
X16089944Y-7109483D01*
X16095213Y-7110050D01*
X16204787Y-7110050D01*
X16210748Y-7109409D01*
X16224233Y-7104380D01*
X16235755Y-7095755D01*
X16244380Y-7084233D01*
X16249409Y-7070748D01*
X16250050Y-7064787D01*
X16250050Y-6955213D01*
X16249409Y-6949252D01*
X16244380Y-6935767D01*
X16244379Y-6935767D01*
X16244379Y-6935766D01*
X16235755Y-6924245D01*
X16235754Y-6924245D01*
X16224233Y-6915621D01*
X16224233Y-6915620D01*
X16210748Y-6910591D01*
X16210748Y-6910591D01*
X16204788Y-6909950D01*
X16204788Y-6909950D01*
X16204787Y-6909950D01*
X16204786Y-6909950D01*
X16095213Y-6909950D01*
X16095212Y-6909950D01*
X16089252Y-6910591D01*
X16075767Y-6915620D01*
X16075766Y-6915621D01*
X16064245Y-6924245D01*
X16064245Y-6924245D01*
X16055621Y-6935766D01*
X16055620Y-6935767D01*
X16050591Y-6949252D01*
X16049950Y-6955212D01*
X16049950Y-6955212D01*
X16049950Y-6955213D01*
X13530000Y-6955213D01*
X13530000Y-6720407D01*
X14544950Y-6720407D01*
X14547450Y-6732974D01*
X14547450Y-6732974D01*
X14552353Y-6744812D01*
X14552354Y-6744813D01*
X14559472Y-6755467D01*
X14559473Y-6755467D01*
X14568533Y-6764527D01*
X14568533Y-6764528D01*
X14579187Y-6771646D01*
X14579187Y-6771646D01*
X14579187Y-6771646D01*
X14591026Y-6776550D01*
X14591026Y-6776550D01*
X14591026Y-6776550D01*
X14603593Y-6779050D01*
X14603593Y-6779050D01*
X14616407Y-6779050D01*
X14624861Y-6777368D01*
X14628974Y-6776550D01*
X14640813Y-6771646D01*
X14651467Y-6764528D01*
X14660528Y-6755467D01*
X14667646Y-6744813D01*
X14672550Y-6732974D01*
X14673368Y-6728861D01*
X14675050Y-6720407D01*
X14675050Y-6707593D01*
X14672550Y-6695026D01*
X14672550Y-6695026D01*
X14672550Y-6695026D01*
X14667646Y-6683187D01*
X14667646Y-6683187D01*
X14667646Y-6683187D01*
X14660528Y-6672533D01*
X14660527Y-6672533D01*
X14653502Y-6665507D01*
X15447450Y-6665507D01*
X15449950Y-6678074D01*
X15449950Y-6678074D01*
X15454853Y-6689912D01*
X15454854Y-6689913D01*
X15461972Y-6700567D01*
X15461973Y-6700567D01*
X15471033Y-6709627D01*
X15471033Y-6709628D01*
X15481687Y-6716746D01*
X15481687Y-6716746D01*
X15481687Y-6716746D01*
X15493526Y-6721650D01*
X15493526Y-6721650D01*
X15493526Y-6721650D01*
X15506093Y-6724150D01*
X15506093Y-6724150D01*
X15518907Y-6724150D01*
X15527361Y-6722468D01*
X15531474Y-6721650D01*
X15543313Y-6716746D01*
X15553967Y-6709628D01*
X15563028Y-6700567D01*
X15570146Y-6689913D01*
X15575050Y-6678074D01*
X15577550Y-6665507D01*
X15577550Y-6652693D01*
X15577550Y-6652693D01*
X15575050Y-6640126D01*
X15575050Y-6640126D01*
X15575050Y-6640126D01*
X15570146Y-6628287D01*
X15570146Y-6628287D01*
X15570146Y-6628287D01*
X15563028Y-6617633D01*
X15563027Y-6617633D01*
X15553967Y-6608573D01*
X15553967Y-6608572D01*
X15543313Y-6601454D01*
X15543312Y-6601453D01*
X15531474Y-6596550D01*
X15531474Y-6596550D01*
X15518907Y-6594050D01*
X15518907Y-6594050D01*
X15506093Y-6594050D01*
X15506093Y-6594050D01*
X15493526Y-6596550D01*
X15493525Y-6596550D01*
X15481687Y-6601453D01*
X15481687Y-6601454D01*
X15471033Y-6608572D01*
X15471033Y-6608573D01*
X15461973Y-6617633D01*
X15461972Y-6617633D01*
X15454854Y-6628287D01*
X15454853Y-6628287D01*
X15449950Y-6640125D01*
X15449950Y-6640126D01*
X15447450Y-6652693D01*
X15447450Y-6652693D01*
X15447450Y-6665507D01*
X15447450Y-6665507D01*
X15447450Y-6665507D01*
X14653502Y-6665507D01*
X14651467Y-6663473D01*
X14649853Y-6662394D01*
X14649853Y-6662394D01*
X14640813Y-6656354D01*
X14640812Y-6656353D01*
X14628974Y-6651450D01*
X14628974Y-6651450D01*
X14616407Y-6648950D01*
X14616407Y-6648950D01*
X14603593Y-6648950D01*
X14603593Y-6648950D01*
X14591026Y-6651450D01*
X14591025Y-6651450D01*
X14579187Y-6656353D01*
X14579187Y-6656354D01*
X14568533Y-6663472D01*
X14568533Y-6663473D01*
X14559473Y-6672533D01*
X14559472Y-6672533D01*
X14552354Y-6683187D01*
X14552353Y-6683187D01*
X14547450Y-6695025D01*
X14547450Y-6695026D01*
X14544950Y-6707593D01*
X14544950Y-6707593D01*
X14544950Y-6720407D01*
X14544950Y-6720407D01*
X14544950Y-6720407D01*
X13530000Y-6720407D01*
X13530000Y-6526407D01*
X14874822Y-6526407D01*
X14877321Y-6538974D01*
X14877322Y-6538974D01*
X14882225Y-6550812D01*
X14882225Y-6550813D01*
X14889344Y-6561467D01*
X14889344Y-6561467D01*
X14898404Y-6570527D01*
X14898405Y-6570528D01*
X14909058Y-6577646D01*
X14909059Y-6577646D01*
X14909059Y-6577646D01*
X14920897Y-6582550D01*
X14920898Y-6582550D01*
X14920898Y-6582550D01*
X14933464Y-6585050D01*
X14933465Y-6585050D01*
X14946279Y-6585050D01*
X14954733Y-6583368D01*
X14958846Y-6582550D01*
X14970684Y-6577646D01*
X14981339Y-6570528D01*
X14990399Y-6561467D01*
X14997518Y-6550813D01*
X15002422Y-6538974D01*
X15004922Y-6526407D01*
X15004922Y-6513593D01*
X15004922Y-6513593D01*
X15002422Y-6501026D01*
X15002422Y-6501026D01*
X15002422Y-6501026D01*
X14997518Y-6489187D01*
X14997518Y-6489187D01*
X14997518Y-6489187D01*
X14993990Y-6483907D01*
X15559950Y-6483907D01*
X15562450Y-6496474D01*
X15562450Y-6496474D01*
X15567353Y-6508312D01*
X15567354Y-6508313D01*
X15574472Y-6518967D01*
X15574473Y-6518967D01*
X15583533Y-6528027D01*
X15583533Y-6528028D01*
X15594187Y-6535146D01*
X15594187Y-6535146D01*
X15594187Y-6535146D01*
X15606026Y-6540050D01*
X15606026Y-6540050D01*
X15606026Y-6540050D01*
X15618593Y-6542550D01*
X15618593Y-6542550D01*
X15631407Y-6542550D01*
X15639861Y-6540868D01*
X15643974Y-6540050D01*
X15655813Y-6535146D01*
X15666467Y-6528028D01*
X15675528Y-6518967D01*
X15682646Y-6508313D01*
X15687550Y-6496474D01*
X15690050Y-6483907D01*
X15690050Y-6471093D01*
X15690050Y-6471093D01*
X15687550Y-6458526D01*
X15687550Y-6458526D01*
X15687550Y-6458526D01*
X15682646Y-6446687D01*
X15682646Y-6446687D01*
X15682646Y-6446687D01*
X15675528Y-6436033D01*
X15675527Y-6436033D01*
X15666467Y-6426973D01*
X15666467Y-6426972D01*
X15655813Y-6419854D01*
X15655812Y-6419853D01*
X15643974Y-6414950D01*
X15643974Y-6414950D01*
X15631407Y-6412450D01*
X15631407Y-6412450D01*
X15618593Y-6412450D01*
X15618593Y-6412450D01*
X15606026Y-6414950D01*
X15606025Y-6414950D01*
X15594187Y-6419853D01*
X15594187Y-6419854D01*
X15583533Y-6426972D01*
X15583533Y-6426973D01*
X15574473Y-6436033D01*
X15574472Y-6436033D01*
X15567354Y-6446687D01*
X15567353Y-6446687D01*
X15562450Y-6458525D01*
X15562450Y-6458526D01*
X15559950Y-6471093D01*
X15559950Y-6471093D01*
X15559950Y-6483907D01*
X15559950Y-6483907D01*
X15559950Y-6483907D01*
X14993990Y-6483907D01*
X14990399Y-6478533D01*
X14981339Y-6469473D01*
X14981338Y-6469472D01*
X14970685Y-6462354D01*
X14970684Y-6462353D01*
X14958846Y-6457450D01*
X14958845Y-6457450D01*
X14946279Y-6454950D01*
X14946279Y-6454950D01*
X14933465Y-6454950D01*
X14933465Y-6454950D01*
X14920898Y-6457450D01*
X14920897Y-6457450D01*
X14909059Y-6462353D01*
X14909058Y-6462354D01*
X14898405Y-6469472D01*
X14898404Y-6469473D01*
X14889344Y-6478533D01*
X14889344Y-6478533D01*
X14882225Y-6489187D01*
X14882225Y-6489187D01*
X14877322Y-6501025D01*
X14877321Y-6501026D01*
X14874822Y-6513593D01*
X14874822Y-6513593D01*
X14874822Y-6526407D01*
X14874822Y-6526407D01*
X14874822Y-6526407D01*
X13530000Y-6526407D01*
X13530000Y-6185407D01*
X14526950Y-6185407D01*
X14529450Y-6197974D01*
X14529450Y-6197974D01*
X14534353Y-6209812D01*
X14534354Y-6209813D01*
X14541472Y-6220467D01*
X14541473Y-6220467D01*
X14550533Y-6229527D01*
X14550533Y-6229528D01*
X14561187Y-6236646D01*
X14561187Y-6236646D01*
X14561187Y-6236646D01*
X14573026Y-6241550D01*
X14573026Y-6241550D01*
X14573026Y-6241550D01*
X14585593Y-6244050D01*
X14589305Y-6244050D01*
X14596009Y-6246018D01*
X14600584Y-6251299D01*
X14601466Y-6254031D01*
X14602450Y-6258974D01*
X14602450Y-6258974D01*
X14607353Y-6270812D01*
X14607354Y-6270813D01*
X14614472Y-6281467D01*
X14614473Y-6281467D01*
X14623533Y-6290527D01*
X14623533Y-6290528D01*
X14634187Y-6297646D01*
X14634187Y-6297647D01*
X14636869Y-6298757D01*
X14646026Y-6302550D01*
X14646026Y-6302550D01*
X14646026Y-6302550D01*
X14658593Y-6305050D01*
X14658593Y-6305050D01*
X14671407Y-6305050D01*
X14679861Y-6303368D01*
X14683974Y-6302550D01*
X14695813Y-6297646D01*
X14706467Y-6290528D01*
X14715528Y-6281467D01*
X14722646Y-6270813D01*
X14727550Y-6258974D01*
X14728459Y-6254407D01*
X15085950Y-6254407D01*
X15088450Y-6266974D01*
X15088450Y-6266974D01*
X15093353Y-6278812D01*
X15093354Y-6278813D01*
X15100472Y-6289467D01*
X15100473Y-6289467D01*
X15109533Y-6298527D01*
X15109533Y-6298528D01*
X15120187Y-6305646D01*
X15120187Y-6305646D01*
X15120187Y-6305646D01*
X15132026Y-6310550D01*
X15132026Y-6310550D01*
X15132026Y-6310550D01*
X15144593Y-6313050D01*
X15144593Y-6313050D01*
X15157407Y-6313050D01*
X15165861Y-6311368D01*
X15169974Y-6310550D01*
X15181813Y-6305646D01*
X15192467Y-6298528D01*
X15201528Y-6289467D01*
X15208646Y-6278813D01*
X15213550Y-6266974D01*
X15214368Y-6262861D01*
X15216050Y-6254407D01*
X15216050Y-6241593D01*
X15213550Y-6229026D01*
X15213550Y-6229026D01*
X15213550Y-6229026D01*
X15208646Y-6217187D01*
X15208646Y-6217187D01*
X15208646Y-6217187D01*
X15201528Y-6206533D01*
X15201527Y-6206533D01*
X15192467Y-6197473D01*
X15192467Y-6197472D01*
X15181813Y-6190354D01*
X15181812Y-6190353D01*
X15169974Y-6185450D01*
X15169974Y-6185450D01*
X15164732Y-6184407D01*
X15286950Y-6184407D01*
X15289450Y-6196974D01*
X15289450Y-6196974D01*
X15294353Y-6208812D01*
X15294354Y-6208813D01*
X15301472Y-6219467D01*
X15301473Y-6219467D01*
X15310533Y-6228527D01*
X15310533Y-6228528D01*
X15321187Y-6235646D01*
X15321187Y-6235646D01*
X15321187Y-6235646D01*
X15333026Y-6240550D01*
X15333026Y-6240550D01*
X15333026Y-6240550D01*
X15345593Y-6243050D01*
X15345593Y-6243050D01*
X15358407Y-6243050D01*
X15366861Y-6241368D01*
X15370974Y-6240550D01*
X15382813Y-6235646D01*
X15393467Y-6228528D01*
X15402528Y-6219467D01*
X15409646Y-6208813D01*
X15414550Y-6196974D01*
X15415867Y-6190353D01*
X15417050Y-6184407D01*
X15417050Y-6171593D01*
X15414550Y-6159026D01*
X15414550Y-6159026D01*
X15414550Y-6159026D01*
X15409646Y-6147187D01*
X15409646Y-6147187D01*
X15409646Y-6147187D01*
X15402528Y-6136533D01*
X15402527Y-6136533D01*
X15393467Y-6127473D01*
X15393467Y-6127472D01*
X15382813Y-6120354D01*
X15382812Y-6120353D01*
X15370974Y-6115450D01*
X15370974Y-6115450D01*
X15358407Y-6112950D01*
X15358407Y-6112950D01*
X15345593Y-6112950D01*
X15345593Y-6112950D01*
X15333026Y-6115450D01*
X15333025Y-6115450D01*
X15321187Y-6120353D01*
X15321187Y-6120354D01*
X15310533Y-6127472D01*
X15310533Y-6127473D01*
X15301473Y-6136533D01*
X15301472Y-6136533D01*
X15294354Y-6147187D01*
X15294353Y-6147187D01*
X15289450Y-6159025D01*
X15289450Y-6159026D01*
X15286950Y-6171593D01*
X15286950Y-6171593D01*
X15286950Y-6184407D01*
X15286950Y-6184407D01*
X15286950Y-6184407D01*
X15164732Y-6184407D01*
X15158390Y-6183146D01*
X15158390Y-6183146D01*
X15157407Y-6182950D01*
X15157407Y-6182950D01*
X15144593Y-6182950D01*
X15144593Y-6182950D01*
X15132026Y-6185450D01*
X15132025Y-6185450D01*
X15120187Y-6190353D01*
X15120187Y-6190354D01*
X15109533Y-6197472D01*
X15109533Y-6197473D01*
X15100473Y-6206533D01*
X15100472Y-6206533D01*
X15093354Y-6217187D01*
X15093353Y-6217187D01*
X15088450Y-6229025D01*
X15088450Y-6229026D01*
X15085950Y-6241593D01*
X15085950Y-6241593D01*
X15085950Y-6254407D01*
X15085950Y-6254407D01*
X15085950Y-6254407D01*
X14728459Y-6254407D01*
X14730050Y-6246407D01*
X14730050Y-6233593D01*
X14730050Y-6233593D01*
X14727550Y-6221026D01*
X14727550Y-6221026D01*
X14727550Y-6221026D01*
X14722906Y-6209813D01*
X14722647Y-6209187D01*
X14722646Y-6209187D01*
X14715528Y-6198533D01*
X14715527Y-6198533D01*
X14706467Y-6189473D01*
X14706467Y-6189472D01*
X14695813Y-6182354D01*
X14695812Y-6182353D01*
X14683974Y-6177450D01*
X14683974Y-6177450D01*
X14671407Y-6174950D01*
X14671407Y-6174950D01*
X14667695Y-6174950D01*
X14660991Y-6172981D01*
X14656416Y-6167701D01*
X14655533Y-6164969D01*
X14654550Y-6160026D01*
X14654550Y-6160026D01*
X14654550Y-6160026D01*
X14650025Y-6149102D01*
X14649647Y-6148187D01*
X14649646Y-6148187D01*
X14642528Y-6137533D01*
X14642527Y-6137533D01*
X14633467Y-6128473D01*
X14633467Y-6128472D01*
X14622813Y-6121354D01*
X14622812Y-6121353D01*
X14610974Y-6116450D01*
X14610974Y-6116450D01*
X14598407Y-6113950D01*
X14598407Y-6113950D01*
X14585593Y-6113950D01*
X14585593Y-6113950D01*
X14573026Y-6116450D01*
X14573025Y-6116450D01*
X14561187Y-6121353D01*
X14561187Y-6121354D01*
X14550533Y-6128472D01*
X14550533Y-6128473D01*
X14541473Y-6137533D01*
X14541472Y-6137533D01*
X14534354Y-6148187D01*
X14534353Y-6148187D01*
X14529450Y-6160025D01*
X14529450Y-6160026D01*
X14526950Y-6172593D01*
X14526950Y-6172593D01*
X14526950Y-6185407D01*
X14526950Y-6185407D01*
X14526950Y-6185407D01*
X13530000Y-6185407D01*
X13530000Y-6113907D01*
X14149950Y-6113907D01*
X14152450Y-6126474D01*
X14152450Y-6126474D01*
X14157353Y-6138312D01*
X14157354Y-6138313D01*
X14164472Y-6148967D01*
X14164473Y-6148967D01*
X14173533Y-6158027D01*
X14173533Y-6158028D01*
X14184187Y-6165146D01*
X14184187Y-6165146D01*
X14184187Y-6165146D01*
X14196026Y-6170050D01*
X14196026Y-6170050D01*
X14196026Y-6170050D01*
X14208593Y-6172550D01*
X14208593Y-6172550D01*
X14221407Y-6172550D01*
X14229861Y-6170868D01*
X14233974Y-6170050D01*
X14245813Y-6165146D01*
X14256467Y-6158028D01*
X14256467Y-6158027D01*
X14256937Y-6157641D01*
X14257071Y-6157805D01*
X14262361Y-6154915D01*
X14269330Y-6155411D01*
X14273768Y-6158263D01*
X14276033Y-6160527D01*
X14276033Y-6160528D01*
X14286687Y-6167646D01*
X14286687Y-6167646D01*
X14286687Y-6167646D01*
X14298526Y-6172550D01*
X14298526Y-6172550D01*
X14298526Y-6172550D01*
X14311093Y-6175050D01*
X14311093Y-6175050D01*
X14323907Y-6175050D01*
X14332361Y-6173368D01*
X14336474Y-6172550D01*
X14348313Y-6167646D01*
X14352320Y-6164969D01*
X14357252Y-6161674D01*
X14357908Y-6161235D01*
X14358967Y-6160528D01*
X14368028Y-6151467D01*
X14375146Y-6140813D01*
X14380050Y-6128974D01*
X14381765Y-6120353D01*
X14382550Y-6116407D01*
X14382550Y-6103593D01*
X14380050Y-6091026D01*
X14380050Y-6091026D01*
X14380050Y-6091026D01*
X14375146Y-6079187D01*
X14375146Y-6079187D01*
X14375146Y-6079187D01*
X14368028Y-6068533D01*
X14368027Y-6068533D01*
X14358967Y-6059473D01*
X14358967Y-6059472D01*
X14348313Y-6052354D01*
X14348312Y-6052353D01*
X14336474Y-6047450D01*
X14336474Y-6047450D01*
X14323907Y-6044950D01*
X14323907Y-6044950D01*
X14311093Y-6044950D01*
X14311093Y-6044950D01*
X14298526Y-6047450D01*
X14298525Y-6047450D01*
X14286687Y-6052353D01*
X14286687Y-6052354D01*
X14276033Y-6059472D01*
X14275563Y-6059858D01*
X14275429Y-6059696D01*
X14270133Y-6062586D01*
X14263164Y-6062086D01*
X14258732Y-6059237D01*
X14256467Y-6056973D01*
X14256467Y-6056972D01*
X14245813Y-6049854D01*
X14245812Y-6049853D01*
X14233974Y-6044950D01*
X14233974Y-6044950D01*
X14221407Y-6042450D01*
X14221407Y-6042450D01*
X14208593Y-6042450D01*
X14208593Y-6042450D01*
X14196026Y-6044950D01*
X14196025Y-6044950D01*
X14184187Y-6049853D01*
X14184187Y-6049854D01*
X14173533Y-6056972D01*
X14173533Y-6056973D01*
X14164473Y-6066033D01*
X14164472Y-6066033D01*
X14157354Y-6076687D01*
X14157353Y-6076687D01*
X14152450Y-6088525D01*
X14152450Y-6088526D01*
X14149950Y-6101093D01*
X14149950Y-6101093D01*
X14149950Y-6113907D01*
X14149950Y-6113907D01*
X14149950Y-6113907D01*
X13530000Y-6113907D01*
X13530000Y-5942400D01*
X13531968Y-5935696D01*
X13537249Y-5931121D01*
X13542400Y-5930000D01*
X18437600Y-5930000D01*
X18444304Y-5931968D01*
G37*
%TD.AperFunction*%
%TD*%
M02*
